<svg xmlns="http://www.w3.org/2000/svg" width="32" height="32" viewBox="0 0 32 32">
  <g fill="none" fill-rule="evenodd">
    <path fill="#738BD7" d="M15.9998,0.0001 C24.8368,0.0001 31.9998,7.1631 31.9998,16.0001 C31.9998,24.8361 24.8368,32.0001 15.9998,32.0001 C7.1638,32.0001 -0.0002,24.8361 -0.0002,16.0001 C-0.0002,7.1631 7.1638,0.0001 15.9998,0.0001"/>
    <path fill="#FFFFFF" d="M9.3231,8.4332 C9.3231,8.4332 9.5811,8.0472 9.6881,7.8762 C9.7951,7.7052 9.4111,7.3012 9.2621,7.1732 C9.1131,7.0452 8.8781,7.1092 8.8781,7.1092 C7.0031,7.9402 6.0651,9.6452 5.9371,9.9862 C5.8091,10.3272 6.2631,10.6992 6.5981,10.8812 C6.7521,10.9652 6.9971,10.7792 7.1481,10.6412 L7.1991,10.5892 L7.2781,10.5092 L7.2791,10.5082 L12.3801,15.5892 L13.0771,14.8922 L14.3581,13.6112 L9.3161,8.4402 L9.3231,8.4332 Z"/>
    <path fill="#FFFFFF" d="M21.3738,13.7931 L21.6428,13.5371 L24.0598,15.9311 C24.0768,15.9461 24.0948,15.9521 24.1108,15.9521 C24.1568,15.9521 24.1948,15.9101 24.1948,15.9101 C24.1948,15.9101 26.8708,13.2551 26.8798,13.2461 C26.9588,13.1681 26.8798,13.1251 26.8798,13.1251 L24.8158,11.0471 L24.8128,11.0501 L24.5298,10.7731 L24.6878,10.6211 L25.0258,10.6601 L24.9618,10.2121 L25.0468,10.1261 L24.9198,9.4801 C24.4788,8.8551 23.2708,7.8541 23.2708,7.8541 L22.6388,7.7401 L22.5748,7.8251 L22.0988,7.7541 L22.1448,8.1601 L22.1748,8.1901 L22.0338,8.3321 L21.2538,7.5691 C21.2538,7.5691 16.7278,5.1111 16.4868,4.9971 C16.3508,4.9341 16.2508,4.8921 16.1548,4.8921 C16.0808,4.8921 16.0088,4.9171 15.9258,4.9761 C15.7338,5.1111 15.8468,5.3831 15.8468,5.3831 L18.6608,10.5831 L19.2238,11.1411 L19.0478,11.3171 L19.0478,11.3171 L18.9828,11.3821 L18.5328,11.3201 L18.6018,11.7661 L18.4718,11.8961 L18.4488,11.8731 C18.4278,11.8521 18.3988,11.8411 18.3708,11.8411 C18.3428,11.8411 18.3148,11.8521 18.2928,11.8731 C18.2498,11.9161 18.2498,11.9861 18.2928,12.0291 L18.3158,12.0521 L18.2538,12.1151 L18.2378,12.0981 C18.2158,12.0771 18.1878,12.0661 18.1598,12.0661 C18.1308,12.0661 18.1028,12.0771 18.0818,12.0981 C18.0388,12.1411 18.0388,12.2111 18.0818,12.2541 L18.0988,12.2711 L16.9148,13.4611 L16.8878,13.4341 C16.8658,13.4131 16.8378,13.4021 16.8098,13.4021 C16.7818,13.4021 16.7538,13.4131 16.7318,13.4341 C16.6888,13.4771 16.6888,13.5471 16.7318,13.5901 L16.7598,13.6171 L16.6968,13.6801 L16.6758,13.6601 C16.6548,13.6381 16.6258,13.6271 16.5988,13.6271 C16.5698,13.6271 16.5418,13.6381 16.5198,13.6601 C16.4778,13.7031 16.4778,13.7721 16.5198,13.8151 L16.5408,13.8361 L16.3868,13.9921 L16.3658,14.1901 L16.4468,14.2731 L16.4448,14.2741 L16.3468,14.3741 L9.9578,20.7621 L9.8748,20.6931 L9.6098,20.7311 L9.4598,20.8831 L9.4498,20.8731 C9.4278,20.8511 9.3998,20.8401 9.3718,20.8401 C9.3438,20.8401 9.3148,20.8511 9.2938,20.8731 C9.2508,20.9161 9.2508,20.9851 9.2938,21.0281 L9.3058,21.0401 L9.2438,21.1041 L9.2378,21.0981 C9.2168,21.0761 9.1878,21.0651 9.1598,21.0651 C9.1318,21.0651 9.1038,21.0761 9.0818,21.0981 C9.0398,21.1411 9.0398,21.2101 9.0818,21.2531 L9.0888,21.2611 L7.9198,22.4501 L7.8958,22.4261 C7.8738,22.4041 7.8468,22.3941 7.8178,22.3941 C7.7898,22.3941 7.7618,22.4041 7.7398,22.4261 C7.6968,22.4691 7.6968,22.5391 7.7398,22.5821 L7.7658,22.6071 L7.7038,22.6701 L7.6848,22.6511 C7.6628,22.6301 7.6348,22.6191 7.6058,22.6191 C7.5788,22.6191 7.5498,22.6301 7.5288,22.6511 C7.4858,22.6941 7.4858,22.7641 7.5288,22.8071 L7.5488,22.8281 L7.4618,22.9171 L7.0088,22.8361 L7.0428,23.3421 L6.8998,23.4881 L7.0238,24.1701 C7.0238,24.1701 7.2138,24.7641 7.6048,25.1581 C7.9838,25.5401 8.5618,25.7231 8.5868,25.7421 L9.2398,25.8561 L9.4008,25.6981 L9.8508,25.7711 L9.7768,25.3261 L9.9138,25.1921 L9.9768,25.2551 C9.9978,25.2761 10.0258,25.2871 10.0538,25.2871 C10.0818,25.2871 10.1108,25.2761 10.1318,25.2551 C10.1748,25.2111 10.1748,25.1421 10.1318,25.0991 L10.0698,25.0371 L10.1338,24.9751 L10.1878,25.0291 C10.2088,25.0511 10.2378,25.0621 10.2658,25.0621 C10.2938,25.0621 10.3218,25.0511 10.3438,25.0291 C10.3868,24.9861 10.3868,24.9171 10.3438,24.8741 L10.2908,24.8201 L11.4778,23.6491 L11.5298,23.7011 C11.5508,23.7231 11.5798,23.7331 11.6078,23.7331 C11.6358,23.7331 11.6638,23.7231 11.6858,23.7011 C11.7278,23.6581 11.7278,23.5881 11.6858,23.5451 L11.6348,23.4951 L11.6978,23.4321 L11.7418,23.4761 C11.7628,23.4971 11.7908,23.5081 11.8188,23.5081 C11.8478,23.5081 11.8758,23.4971 11.8968,23.4761 C11.9398,23.4331 11.9398,23.3631 11.8968,23.3201 L11.8538,23.2771 L11.9868,23.1471 L12.0348,22.8621 L11.9638,22.7911 L11.9648,22.7901 L12.0938,22.6621 L18.4398,16.3141 L18.4368,16.3081 L18.5608,16.4361 L18.7598,16.4141 L18.9388,16.2341 L18.9678,16.2631 C18.9898,16.2841 19.0178,16.2951 19.0458,16.2951 C19.0738,16.2951 19.1028,16.2841 19.1238,16.2631 C19.1668,16.2201 19.1668,16.1501 19.1238,16.1071 L19.0948,16.0781 L19.1578,16.0161 L19.1798,16.0381 C19.2008,16.0591 19.2288,16.0701 19.2578,16.0701 C19.2858,16.0701 19.3138,16.0591 19.3348,16.0381 C19.3778,15.9951 19.3778,15.9251 19.3348,15.8821 L19.3128,15.8591 L20.4988,14.6711 L20.5298,14.7021 C20.5508,14.7231 20.5788,14.7341 20.6068,14.7341 C20.6358,14.7341 20.6638,14.7231 20.6848,14.7021 C20.7278,14.6591 20.7278,14.5891 20.6848,14.5461 L20.6538,14.5151 L20.7168,14.4521 L20.7408,14.4771 C20.7628,14.4981 20.7908,14.5091 20.8188,14.5091 C20.8468,14.5091 20.8748,14.4981 20.8968,14.4771 C20.9398,14.4331 20.9398,14.3641 20.8968,14.3211 L20.8728,14.2961 L21.0048,14.1641 L21.4458,14.2331 L21.3738,13.7931 Z"/>
    <polygon fill="#FFFFFF" points="22.255 20.968 19.442 18.836 18.941 18.32 17 20.261 17.488 20.727 19.321 23.476 21.793 26.183 24.642 23.525"/>
  </g>
</svg>
