<?xml version="1.0" encoding="UTF-8" standalone="no"?>
<svg width="8px" height="8px" viewBox="0 0 8 8" version="1.1" xmlns="http://www.w3.org/2000/svg" xmlns:xlink="http://www.w3.org/1999/xlink" xmlns:sketch="http://www.bohemiancoding.com/sketch/ns">
    <!-- Generator: Sketch 3.5.1 (25234) - http://www.bohemiancoding.com/sketch -->
    <title>Shape</title>
    <desc>Created with Sketch.</desc>
    <defs></defs>
    <g id="Page-1" stroke="none" stroke-width="1" fill="none" fill-rule="evenodd" sketch:type="MSPage">
        <g id="icon-close-dm" sketch:type="MSLayerGroup" transform="translate(-1.000000, -1.000000)" fill="#FFFFFF">
            <path d="M8.99,3.99 L6.01,3.99 L6.01,1.01 C6.01,0.452 5.558,0 5,0 C4.442,0 3.99,0.452 3.99,1.01 L3.99,3.99 L1.01,3.99 C0.452,3.99 0,4.442 0,5 C0,5.558 0.452,6.01 1.01,6.01 L3.99,6.01 L3.99,8.99 C3.99,9.548 4.442,10 5,10 C5.558,10 6.01,9.548 6.01,8.99 L6.01,6.01 L8.99,6.01 C9.548,6.01 10,5.558 10,5 C10,4.442 9.548,3.99 8.99,3.99 L8.99,3.99 Z" id="Shape" sketch:type="MSShapeGroup" transform="translate(5.000000, 5.000000) rotate(-315.000000) translate(-5.000000, -5.000000) "></path>
        </g>
    </g>
</svg>