<?xml version="1.0" encoding="utf-8"?>
<!-- Generator: Adobe Illustrator 17.1.0, SVG Export Plug-In . SVG Version: 6.00 Build 0)  -->
<!DOCTYPE svg PUBLIC "-//W3C//DTD SVG 1.1//EN" "http://www.w3.org/Graphics/SVG/1.1/DTD/svg11.dtd">
<svg version="1.1" id="Layer_1" xmlns="http://www.w3.org/2000/svg" xmlns:xlink="http://www.w3.org/1999/xlink" x="0px" y="0px"
	 viewBox="0 0 16 16" enable-background="new 0 0 16 16" xml:space="preserve">
<g>
	<path fill="#FFFFFF" d="M5,14.5c-1.9,0-3.6-0.5-5-1.5c0.3,0,0.5,0,0.8,0c1.5,0,3-0.5,4.1-1.4c-1.4,0-2.6-1-3.1-2.3
		c0.2,0,0.4,0.1,0.6,0.1c0.3,0,0.6,0,0.9-0.1C1.8,9,0.6,7.7,0.6,6.1c0,0,0,0,0,0c0.4,0.2,0.9,0.4,1.5,0.4C1.2,5.9,0.7,4.9,0.7,3.7
		c0-0.6,0.2-1.2,0.4-1.7c1.6,2,4,3.3,6.8,3.4C7.8,5.3,7.8,5,7.8,4.8c0-1.8,1.5-3.3,3.3-3.3c0.9,0,1.8,0.4,2.4,1
		c0.7-0.1,1.5-0.4,2.1-0.8c-0.2,0.8-0.8,1.4-1.4,1.8C14.8,3.5,15.4,3.3,16,3c-0.4,0.7-1,1.2-1.6,1.7c0,0.1,0,0.3,0,0.4
		C14.4,9.5,11.1,14.5,5,14.5"/>
</g>
</svg>
