<svg width="135" height="155" viewBox="0 0 135 155" fill="none" xmlns="http://www.w3.org/2000/svg">
<path d="M37.7839 121.044L47.9881 135.808L55.6304 130.988L48.2052 115.312L37.7839 121.044Z" fill="url(#paint0_linear_5040_11146)"/>
<path d="M48.2055 115.312L54.1978 127.992L47.4239 115.964L48.2055 115.312Z" fill="url(#paint1_linear_5040_11146)"/>
<path d="M40.6501 123.562L47.5542 133.462L48.2056 133.115L42.387 122.563L40.6501 123.562Z" fill="url(#paint2_linear_5040_11146)"/>
<path d="M36.959 114.617L43.7763 111.274C45.9474 111.795 47.3369 113.185 48.1619 115.312C48.9869 117.44 49.1606 119.307 48.7264 120.002C48.7264 120.002 49.4211 122.347 49.2909 124.04C49.1606 125.516 48.2922 125.256 47.7711 124.735C46.3816 123.389 45.6868 122.954 45.296 123.128C44.775 123.345 44.8184 124.083 44.9052 126.081C44.9487 127.08 44.3407 126.993 43.8197 126.776C43.0381 126.472 42.1262 125.603 41.1709 124.387C40.5196 124.387 39.6512 123.953 38.5222 122.26C37.0024 120.002 36.5682 118.352 37.0024 114.617H36.959Z" fill="url(#paint3_linear_5040_11146)"/>
<path d="M36.8726 114.4C36.3949 115.833 37.6542 116.615 39.695 116.224C41.7358 115.833 43.7767 114.313 44.2543 112.924C44.732 111.491 43.4727 110.709 41.4319 111.1C39.3911 111.491 37.3502 113.011 36.8726 114.4Z" fill="url(#paint4_linear_5040_11146)"/>
<path d="M37.1328 115.79L44.3843 112.056L43.2987 106.671L33.3117 111.925L37.1328 115.79Z" fill="url(#paint5_linear_5040_11146)"/>
<path opacity="0.4" d="M40.3026 111.969L41.3013 111.665C41.2144 112.968 40.8671 114.661 40.0855 116.138C39.9552 116.138 39.8683 116.181 39.7381 116.224C39.4775 116.268 39.217 116.311 38.9999 116.311C39.9118 114.748 40.3026 112.837 40.346 111.969H40.3026Z" fill="#FF4CD2"/>
<path opacity="0.4" d="M37.5237 112.403L38.479 112.012C38.5224 113.228 38.3487 114.748 37.8276 116.181C37.5237 116.094 37.3066 115.964 37.1329 115.79L37.0895 115.747C37.4803 114.444 37.6105 113.098 37.5671 112.446L37.5237 112.403Z" fill="#FF4CD2"/>
<path opacity="0.4" d="M41.6923 115.486C42.4739 113.749 42.5173 111.665 42.4305 110.753L43.3424 110.319C43.4726 111.578 43.3858 113.185 42.9081 114.704C42.5608 115.008 42.1265 115.269 41.6923 115.486Z" fill="#FF4CD2"/>
<path d="M36.5248 108.582L38.8696 107.279L31.3142 92.6025L28.9694 93.8184L36.5248 108.582Z" fill="#7C89F7"/>
<path d="M31.7922 110.84C30.8803 113.402 33.1383 114.878 36.8726 114.096C40.5634 113.315 44.2977 110.623 45.1662 108.017C46.0346 105.455 43.7767 104.022 40.1292 104.761C36.4383 105.542 32.7475 108.234 31.8356 110.796L31.7922 110.84Z" fill="#FF4CD2"/>
<path d="M28.4489 112.664L46.8164 102.98L45.1664 107.974L33.5293 114.14L28.4489 112.664Z" fill="#FF4CD2"/>
<path d="M36.1343 112.056L38.6094 113.619C38.0449 113.836 37.4804 114.01 36.8725 114.14C36.1343 114.314 35.4396 114.357 34.8317 114.357L30.3158 112.577L36.0909 112.056H36.1343Z" fill="#D939B7"/>
<path d="M25.9739 107.583C24.5409 111.578 28.0581 113.879 33.8332 112.663C39.6084 111.447 45.3401 107.236 46.7296 103.284C48.0757 99.3327 44.5585 97.1182 38.8702 98.2906C33.1819 99.463 27.4068 103.631 25.9739 107.626V107.583Z" fill="url(#paint6_linear_5040_11146)"/>
<path d="M12.3391 83.8313L32.704 73.1929L36.8726 74.4955L10.8193 88.0866L12.3391 83.8313Z" fill="#2327A1"/>
<path d="M13.0773 81.2263L29.4474 72.3682L32.7041 73.1932L12.3392 83.8316L13.0773 81.2263Z" fill="#2327A1"/>
<path d="M26.3208 111.317L46.8594 100.679L39.9118 77.3179L11.2967 92.0379L26.3208 111.317Z" fill="url(#paint7_linear_5040_11146)"/>
<g style="mix-blend-mode:multiply" opacity="0.2">
<path d="M33.8329 112.664C32.1828 113.011 30.7065 113.055 29.4473 112.881L15.639 93.2976L23.8458 91.1265L36.0908 112.012C35.3526 112.273 34.5711 112.49 33.7895 112.664H33.8329Z" fill="#5969F4"/>
</g>
<path d="M13.7284 95.0776C14.814 97.2052 18.1575 98.0737 22.9773 97.1184C30.3591 95.5986 38.2619 90.2577 40.6501 85.2642C40.7369 85.0905 40.8238 84.9168 40.8672 84.7431L40.4764 83.4839C40.3895 83.6576 40.3027 83.8747 40.2159 84.0484C37.7842 89.1722 29.7512 94.5565 22.2391 96.0763C18.2443 96.9013 15.2482 96.4671 13.685 95.0776H13.7284Z" fill="#FE72DD"/>
<path d="M11.3403 86.8277C8.69159 92.1686 12.8601 95.2082 20.6761 93.645C28.4486 92.0384 36.7856 86.4369 39.3041 81.1828C41.8226 75.9288 37.6107 72.9761 29.9684 74.4959C22.2827 76.0156 13.9457 81.5302 11.2969 86.8277H11.3403Z" fill="#2327A1"/>
<path d="M11.0362 87.5659L12.3389 83.8316L13.0771 81.2263L14.7705 80.3145L11.6876 92.4292C10.5152 91.3002 10.2546 89.6068 11.0362 87.5659Z" fill="#4A57E6"/>
<path d="M12.5994 84.0918C10.4283 88.5208 13.8587 91.0393 20.3286 89.7367C26.755 88.434 33.7026 83.7878 35.7868 79.4456C37.8711 75.1034 34.3973 72.6284 28.0577 73.8876C21.6747 75.1468 14.7705 79.7062 12.5994 84.0918Z" fill="#FF4CD2"/>
<path d="M12.2087 85.0475C12.2955 84.7435 12.4258 84.4395 12.5995 84.0922C14.7706 79.7065 21.7181 75.1472 28.0577 73.888C30.5762 73.3669 32.617 73.4538 34.05 74.0183C35.4829 74.9735 35.8303 76.6236 34.8316 78.7078C32.8341 82.8764 26.2774 87.262 20.1549 88.5212C15.0311 89.5633 11.8613 88.0436 12.2087 85.0475Z" fill="#D91EB1"/>
<path d="M12.7299 82.746C10.6891 86.8711 13.9457 89.2593 19.9814 88.0434C26.0171 86.8276 32.5304 82.4854 34.4844 78.3603C36.4383 74.2787 33.1817 71.9773 27.2329 73.1497C21.2406 74.3655 14.7273 78.6209 12.6865 82.746H12.7299Z" fill="#2327A1"/>
<path d="M14.1626 80.6614L14.7705 80.3574L13.0336 87.1747C11.9915 86.176 11.8178 84.6562 12.7731 82.7891C13.1205 82.0943 13.5981 81.3561 14.206 80.6614H14.1626Z" fill="#4A57E6"/>
<path d="M33.833 84.0048L38.6528 80.8784L32.6606 78.4902L29.1868 80.7482L33.833 84.0048Z" fill="#2327A1"/>
<path d="M14.4668 90.4753L19.938 90.6055L19.3735 85.8291L14.8576 86.0028L14.4668 90.4753Z" fill="#2327A1"/>
<path d="M13.5548 80.0534C11.6442 83.3969 14.0324 85.3943 18.8523 84.4824C23.6721 83.5706 29.0999 80.0968 30.967 76.7533C32.7907 73.4098 30.4459 71.4992 25.6695 72.3677C20.8931 73.2795 15.4653 76.7099 13.5548 80.0534Z" fill="#434FD1"/>
<path d="M14.3797 79.8802C12.5126 82.9632 14.5968 84.7869 18.9825 83.9619C23.3681 83.1369 28.3616 79.9671 30.1853 76.8841C31.9656 73.8446 29.9248 72.0643 25.5826 72.8459C21.2404 73.6709 16.2469 76.7973 14.3797 79.8802Z" fill="#B57AF5"/>
<path d="M17.7667 81.1827C18.9391 79.0985 22.3694 76.9274 25.3655 76.3629C28.0143 75.8418 29.4906 76.7537 29.013 78.4037C26.7116 80.9222 22.63 83.2236 18.9825 83.9618C18.8957 83.9618 18.7654 83.9618 18.6785 84.0052C17.3759 83.6578 16.9851 82.6157 17.7667 81.2262V81.1827Z" fill="#FF4CD2"/>
<path d="M14.2931 83.3537C13.772 82.6156 13.8589 81.5734 14.6405 80.2708C16.4208 77.2746 21.3274 74.1917 25.5828 73.4101C29.0566 72.7588 31.054 73.8443 30.6198 75.9286C31.4448 73.4969 29.4039 72.1508 25.5828 72.889C21.2406 73.714 16.2471 76.8404 14.3799 79.9234C13.4681 81.4432 13.5115 82.659 14.2931 83.3972V83.3537Z" fill="#FBE6FF"/>
<path d="M29.0132 77.4483L26.5381 78.8812L25.7999 77.7957L27.5368 76.3193C28.4053 76.3193 29.0132 76.8404 29.0132 77.4483Z" fill="#5F2BAC"/>
<path d="M20.8932 81.6167L22.8472 82.0943V82.6588C21.7616 83.1364 20.6761 83.5272 19.5905 83.7878L20.8932 81.5732V81.6167Z" fill="#5F2BAC"/>
<path d="M27.5801 79.7493C26.7116 80.4875 25.6695 81.1822 24.6274 81.7901L24.28 81.1388L25.3656 79.4888L27.5801 79.7927V79.7493Z" fill="#5F2BAC"/>
<path d="M17.5931 81.183C17.68 81.0527 17.7668 80.879 18.0273 80.7487L20.1116 80.4014L20.459 81.6606L17.4194 82.7896C17.1589 82.5725 17.2892 81.7909 17.6366 81.1395L17.5931 81.183Z" fill="#5F2BAC"/>
<path d="M20.2419 78.6211C21.3274 77.6223 22.6301 77.0579 23.8459 76.7539L24.1064 78.8816L21.6748 80.0974L20.1985 78.6645L20.2419 78.6211Z" fill="#5F2BAC"/>
<path d="M19.8074 81.1389L26.3641 77.752L26.7549 78.4901L20.1982 81.877L19.8074 81.1389Z" fill="black"/>
<path d="M20.3289 80.7918C19.6342 82.0076 20.5026 82.7024 22.2395 82.3984C23.9764 82.051 25.9304 80.8352 26.5817 79.6194C27.233 78.4036 26.408 77.7088 24.6712 78.0562C22.9343 78.4036 20.9803 79.6194 20.3289 80.8352V80.7918Z" fill="black"/>
<path d="M19.9813 80.0535C19.2865 81.2693 20.155 81.9641 21.8919 81.6601C23.6287 81.3562 25.5827 80.0969 26.2341 78.8811C26.8854 77.6653 26.0604 76.9706 24.3235 77.3179C22.5866 77.6653 20.6326 78.8811 19.9813 80.0969V80.0535Z" fill="#4A57E6"/>
<path d="M17.5498 81.0523C18.7656 78.8812 22.2828 76.6666 25.4092 76.0587C28.1882 75.5377 29.7079 76.493 29.1435 78.2733C29.1435 78.3167 29.0566 78.3601 29.0132 78.4035C29.4908 76.7535 28.0145 75.8416 25.3657 76.3627C22.3696 76.9272 18.9393 79.0983 17.7669 81.1825C16.9853 82.572 17.3761 83.6142 18.5919 83.9615C17.159 83.6576 16.6813 82.572 17.5498 81.0523Z" fill="#DEC2FC"/>
<path d="M13.5546 80.0537C15.4651 76.7102 20.8929 73.2799 25.6693 72.368C30.4457 71.4561 32.8339 73.4101 30.9668 76.7536C29.0997 80.0971 23.7153 83.5709 18.8521 84.4827C14.0322 85.3946 11.644 83.4406 13.5546 80.0537ZM18.9823 83.9617C23.3679 83.1367 28.3615 79.9668 30.1852 76.8839C31.9655 73.8443 29.9247 72.064 25.5825 72.8456C21.2403 73.6707 16.2467 76.797 14.3796 79.88C12.5124 82.963 14.5967 84.7867 18.9823 83.9617Z" fill="#4A57E6"/>
<path d="M129.752 102.112L134.702 129.728L126.322 131.899L117.116 106.671L129.752 102.112Z" fill="url(#paint8_linear_5040_11146)"/>
<path d="M129.752 102.112L133.4 122.477L128.754 102.98L129.752 102.112Z" fill="url(#paint9_linear_5040_11146)"/>
<path d="M118.94 108.148L125.757 125.821L126.365 125.69L120.677 107.583L118.94 108.148Z" fill="url(#paint10_linear_5040_11146)"/>
<path d="M98.7056 76.4496C96.4042 79.3588 92.1923 72.0639 87.6764 77.1877" stroke="#2D35AD" stroke-width="4" stroke-miterlimit="10"/>
<path d="M74.6498 97.0317L103.569 83.5709L102.353 78.23L71.9576 85.0472L74.6498 97.0317Z" fill="#B3269C"/>
<path d="M72.8694 88.9986L102.917 80.705L102.353 78.23L71.9576 85.0472L72.8694 88.9986Z" fill="black"/>
<path d="M72.3047 86.6539L102.57 79.2721L102.353 78.23L71.9573 85.0472L72.3047 86.6539Z" fill="#161A8A"/>
<path d="M72.8695 88.9982L102.918 80.7046L103.048 81.2691L73.0432 89.7364L72.8695 88.9982Z" fill="#D939B7"/>
<path d="M99.2696 77.5351L103.004 84.5261L102.266 84.6998C102.049 84.7432 101.832 84.6563 101.745 84.4392L98.5314 78.4036C98.3577 78.0562 98.5314 77.6654 98.9222 77.5785L99.2696 77.4917V77.5351Z" fill="black"/>
<path d="M97.3595 77.0139C97.8371 78.3166 98.4884 78.36 99.1832 78.0995C99.8779 77.8389 100.312 77.3613 99.7911 76.102C99.27 74.8428 98.6621 74.756 97.9674 75.0165C97.316 75.277 96.8384 75.7547 97.3595 77.0139Z" fill="black"/>
<path d="M118.028 98.9853L125.757 96.4668C128.58 97.9431 129.622 100.462 129.882 103.024C130.013 104.543 129.882 105.803 129.318 106.106C129.318 106.584 129.318 107.496 129.057 108.321C128.84 109.189 128.059 108.799 127.668 108.712C127.277 108.625 126.886 109.103 126.756 109.884C126.452 112.403 126.322 112.707 125.931 112.793C125.41 112.88 124.715 112.099 123.239 110.449C122.587 109.754 122.153 109.32 122.153 110.449C122.153 112.055 122.066 112.62 121.676 112.663C120.894 112.707 119.461 111.187 118.289 109.363C115.9 105.499 116.856 101.764 118.028 98.9419V98.9853Z" fill="url(#paint11_linear_5040_11146)"/>
<path d="M118.289 98.8114C117.507 100.201 118.679 101.286 120.894 101.286C123.108 101.286 125.54 100.114 126.322 98.7246C127.103 97.3351 125.931 96.2495 123.716 96.2495C121.502 96.2495 119.07 97.4219 118.289 98.8114Z" fill="url(#paint12_linear_5040_11146)"/>
<path d="M118.245 100.332L126.583 97.9001L126.539 92.0381L115.076 95.5553L118.245 100.332Z" fill="url(#paint13_linear_5040_11146)"/>
<path opacity="0.4" d="M122.327 96.9877L123.413 96.8574C123.065 98.2469 122.37 99.897 121.241 101.286C121.111 101.286 120.981 101.286 120.894 101.286C120.59 101.286 120.33 101.286 120.069 101.243C121.372 99.8101 122.11 97.8561 122.327 96.9877Z" fill="#FF4CD2"/>
<path opacity="0.4" d="M119.374 96.9012L120.46 96.6841C120.286 97.9433 119.809 99.5065 118.94 100.896C118.636 100.722 118.419 100.549 118.289 100.332L118.245 100.245C118.94 98.942 119.331 97.5959 119.418 96.9012H119.374Z" fill="#FF4CD2"/>
<path opacity="0.4" d="M123.109 100.94C124.238 99.2897 124.759 97.0752 124.802 96.1199L125.888 95.8159C125.801 97.162 125.367 98.812 124.542 100.332C124.107 100.549 123.63 100.766 123.109 100.94Z" fill="#FF4CD2"/>
<path d="M113.556 94.1225C112.123 96.6409 114.25 98.6384 118.289 98.5949C122.327 98.5949 126.756 96.4672 128.189 93.9922C129.622 91.5171 127.494 89.4763 123.456 89.5197C119.418 89.5197 114.988 91.6474 113.556 94.1225Z" fill="#FF4CD2"/>
<path d="M109.734 95.3381L130.924 88.9551L128.232 93.9052L114.771 97.9434L109.734 95.3381Z" fill="#FF4CD2"/>
<path d="M129.014 91.3867L130.924 88.9551L128.232 93.9052C128.232 93.9052 128.232 93.9486 128.232 93.992C127.841 94.6868 127.19 95.3815 126.365 95.9895L129.057 91.4301L129.014 91.3867Z" fill="#FE72DD"/>
<path d="M112.688 96.2503L115.944 98.3346C116.639 98.5083 117.421 98.5951 118.289 98.5951C118.897 98.5951 119.461 98.5517 120.069 98.4649L119.071 96.0767L112.688 96.2503Z" fill="#D939B7"/>
<path d="M116.422 74.6131L121.647 91.8135L118.905 92.6466L113.679 75.4462L116.422 74.6131Z" stroke="#FF33BB" stroke-width="0.2" stroke-miterlimit="10"/>
<path d="M107.997 89.4759C105.783 93.3839 109.083 96.5103 115.379 96.4235C121.675 96.3366 128.579 93.1234 130.794 89.2154C133.009 85.3074 129.708 82.181 123.412 82.2679C117.116 82.3547 110.212 85.568 107.997 89.4759Z" fill="url(#paint14_linear_5040_11146)"/>
<path d="M107.737 93.471L131.446 86.5234L128.667 59.8623L95.1884 69.8928L107.737 93.471Z" fill="url(#paint15_linear_5040_11146)"/>
<g style="mix-blend-mode:overlay" opacity="0.2">
<path d="M131.446 86.5234C131.533 87.3484 131.316 88.2603 130.795 89.2156C130.36 89.9537 129.796 90.6919 129.058 91.3432L124.802 66.5058L126.148 60.6004L128.71 59.8188L131.489 86.5234H131.446Z" fill="#FE72DD"/>
</g>
<g style="mix-blend-mode:multiply" opacity="0.2">
<path d="M115.379 96.4239C114.424 96.4239 113.512 96.3804 112.687 96.2502L102.396 73.4102L110.864 72.8457L119.07 96.0331C117.854 96.2502 116.595 96.3804 115.379 96.4239Z" fill="#5969F4"/>
</g>
<path d="M98.966 58.5598L118.289 52.1768L121.632 53.8268L97.7068 61.2085L98.966 58.5598Z" fill="#2327A1"/>
<path d="M97.7068 61.2084L121.632 53.8267L125.888 56.128L95.4054 65.5506L97.7068 61.2084Z" fill="#2327A1"/>
<path d="M106.738 77.7525C114.858 77.6656 124.324 73.584 127.842 68.6773C127.972 68.5036 128.102 68.3299 128.189 68.1562L127.538 61.9469C125.931 60.6442 123.152 59.8626 119.548 59.906C111.428 59.9929 101.962 64.0745 98.4449 68.9812C94.8843 73.9313 98.6186 77.8393 106.738 77.7525Z" fill="#FE72DD"/>
<path d="M97.3159 73.7571C98.5317 75.798 101.745 77.1006 106.478 77.0572C114.641 76.9704 124.151 72.8887 127.711 67.8951C127.885 67.678 128.015 67.4609 128.146 67.2438L127.581 61.9029C125.974 60.6003 123.195 59.8186 119.591 59.8621C111.471 59.9489 102.005 64.0306 98.4883 68.9373C97.229 70.7176 96.8816 72.3242 97.3593 73.6703L97.3159 73.7571Z" fill="#FF4CD2"/>
<path d="M97.7935 67.5916C94.1894 72.6285 97.9672 76.6234 106.217 76.5365C114.468 76.4497 124.107 72.3246 127.711 67.2876C131.315 62.2507 127.538 58.2559 119.287 58.3427C111.037 58.4295 101.397 62.5546 97.7935 67.5916Z" fill="#161A8A"/>
<path d="M96.1868 64.248C92.4525 69.4586 96.3604 73.6271 104.958 73.5403C113.556 73.4535 123.543 69.1547 127.277 63.944C131.011 58.7334 127.103 54.5649 118.506 54.6517C109.908 54.7386 99.921 59.0373 96.1868 64.248Z" fill="#2327A1"/>
<path d="M127.234 63.944C128.276 62.4676 128.754 61.0781 128.623 59.8623L129.014 63.64C129.014 64.769 128.58 65.9848 127.668 67.2875C127.06 68.1559 126.235 68.9809 125.323 69.7625L124.976 67.3309C124.889 66.8098 125.106 66.2888 125.497 65.898C126.192 65.2466 126.756 64.5953 127.277 63.9006L127.234 63.944Z" fill="#2D35AD"/>
<path d="M105.002 61.208L109.995 61.5554L110.777 72.1069C110.777 72.628 110.907 73.149 111.081 73.6267L111.862 75.8846C109.952 76.2754 107.998 76.4925 106.131 76.536C105.262 76.536 104.437 76.536 103.656 76.4057L102.874 74.6254C102.527 73.8438 102.44 72.9319 102.613 72.1069L104.958 61.1646L105.002 61.208Z" fill="#161A8A"/>
<path d="M97.9671 61.5555C94.8407 65.8977 98.0974 69.328 105.219 69.2846C112.34 69.2412 120.633 65.6372 123.76 61.295C126.886 56.9528 123.63 53.5224 116.508 53.5658C109.387 53.6527 101.094 57.2133 97.9671 61.5555Z" fill="#FF4CD2"/>
<path d="M97.9673 61.5556C101.094 57.2134 109.344 53.6528 116.509 53.5659C119.722 53.5659 122.197 54.2172 123.586 55.3896C124.455 56.6923 124.324 58.3858 123.022 60.2095C120.026 64.378 112.036 67.8518 105.175 67.8952C100.095 67.9386 97.0554 66.1149 97.012 63.4661C97.1857 62.8582 97.5331 62.1635 98.0107 61.5121L97.9673 61.5556Z" fill="#D91EB1"/>
<path d="M98.358 60.1226C95.4488 64.2043 98.4883 67.4609 105.175 67.3741C111.862 67.2872 119.678 63.9437 122.588 59.8621C125.497 55.7804 122.457 52.5237 115.77 52.6106C109.083 52.6974 101.267 56.0409 98.358 60.1226Z" fill="#2327A1"/>
<path d="M105.219 67.3744C104.697 67.3744 104.176 67.3744 103.699 67.331L105.001 61.2085L109.995 61.5559L110.386 66.7665C108.649 67.1573 106.869 67.3744 105.175 67.4178L105.219 67.3744Z" fill="#161A8A"/>
<path d="M114.164 70.8049L119.939 68.3733L116.335 61.9902L112.166 63.7271L114.164 70.8049Z" fill="#2327A1"/>
<path d="M100.616 57.3438C98.0976 60.3399 99.9647 62.7281 104.785 62.7281C109.604 62.7281 115.597 60.2965 118.159 57.3438C120.677 54.3477 118.81 51.9595 113.99 51.9595C109.17 51.9595 103.178 54.3911 100.616 57.3438Z" fill="#B57AF5"/>
<path d="M118.983 53.6964L116.031 56.9096H112.948C112.948 56.8662 113.686 51.9595 113.686 51.9595C113.773 51.9595 113.903 51.9595 113.99 51.9595C116.552 51.9595 118.289 52.6542 118.983 53.7398V53.6964Z" fill="#CA9EF9"/>
<path d="M104.046 59.4711C105.696 57.4303 109.778 55.7368 113.121 55.7368C116.465 55.7368 117.507 57.0395 116.639 58.7329C113.686 61.0343 108.866 62.6843 104.828 62.6843C100.79 62.6843 104.611 62.6843 104.524 62.6843C103.178 62.033 102.917 60.8172 104.046 59.4277V59.4711Z" fill="#FF4CD2"/>
<path d="M103.612 62.033C103.439 61.4251 103.612 60.7304 104.264 59.9488C105.914 57.9079 109.995 56.2145 113.339 56.2145C116.682 56.2145 116.291 56.6487 116.812 57.3869C116.509 56.3881 115.206 55.7368 113.122 55.7368C109.778 55.7368 105.696 57.3869 104.046 59.4711C103.265 60.4698 103.135 61.3383 103.656 62.033H103.612Z" fill="#FE72DD"/>
<path d="M99.9209 61.1215C99.4867 60.2097 99.7472 59.0807 100.833 57.8214C103.308 54.9122 109.126 52.5674 113.859 52.5674C118.592 52.5674 119.721 54.174 118.853 56.3885C120.242 53.87 118.288 51.9595 113.99 51.9595C109.691 51.9595 103.178 54.3911 100.659 57.3438C99.3998 58.8202 99.2262 60.1662 99.9643 61.1215H99.9209Z" fill="#FBE6FF"/>
<path d="M116.856 57.7346L113.903 58.7767L113.295 57.4306L115.466 56.1714C116.509 56.4319 116.813 57.0833 116.856 57.7346Z" fill="#5F2BAC"/>
<path d="M111.428 55.8672L111.341 58.2554L108.476 59.0804L107.173 57.1698C108.476 56.3014 110.039 55.954 111.428 55.8672Z" fill="#5F2BAC"/>
<path d="M107.346 60.6006L109.344 61.5559L109.213 62.1638C108.171 62.7283 106.652 62.8585 105.523 62.7283L107.346 60.6006Z" fill="#5F2BAC"/>
<path d="M114.858 59.9496C113.86 60.7746 112.6 61.2088 111.298 61.5562L111.037 60.7746L112.514 59.168L114.815 59.9496H114.858Z" fill="#5F2BAC"/>
<path d="M103.872 59.4714C103.959 59.3411 104.133 59.1674 104.394 59.0806H106.695C106.695 59.124 106.825 60.6003 106.825 60.6003L103.351 61.2082C103.221 60.6872 103.351 60.1227 103.872 59.5148V59.4714Z" fill="#161A8A"/>
<path d="M106.217 59.8189L113.946 57.4741L114.207 58.386C114.294 58.7334 114.207 59.1242 113.816 59.5584C112.861 60.7308 110.516 61.6861 108.606 61.6861C106.695 61.6861 106.608 61.2953 106.478 60.7308L106.217 59.8189Z" fill="black"/>
<path d="M113.931 57.419L114.209 58.333L106.481 60.6809L106.204 59.7668L113.931 57.419Z" fill="black"/>
<path d="M113.599 57.561L114.077 59.1676C114.033 59.2979 113.946 59.4282 113.816 59.5584C113.729 59.6887 113.599 59.7756 113.512 59.9058L112.861 57.7781L113.599 57.561Z" fill="#8C1381"/>
<path d="M111.775 61.0345C110.777 61.4687 109.648 61.7292 108.649 61.7292C107.65 61.7292 107.867 61.6858 107.563 61.599L106.956 59.6016L110.95 58.3857L111.732 61.0345H111.775Z" fill="#3E1689"/>
<path d="M106.608 58.6902C105.653 59.8626 106.435 60.8179 108.389 60.8179C110.343 60.8179 112.644 59.8626 113.599 58.6902C114.554 57.5178 113.773 56.5625 111.819 56.5625C109.865 56.5625 107.564 57.5178 106.608 58.6902Z" fill="#4A57E6"/>
<path d="M107.998 60.7308C109.995 60.7308 112.383 59.7321 113.339 58.5162C113.86 57.8649 113.86 57.3004 113.469 56.8662C114.077 57.257 114.207 57.9083 113.599 58.6465C112.644 59.8189 110.299 60.7742 108.388 60.7742C106.478 60.7742 107.52 60.7308 107.216 60.6005C107.433 60.6005 107.694 60.6439 107.998 60.6439V60.7308Z" fill="#A0A9FA"/>
<path d="M99.7043 57.3873C102.353 54.0872 108.823 51.4385 114.164 51.4385C119.505 51.4385 121.719 54.0872 119.071 57.3873C116.422 60.6874 109.952 63.3361 104.611 63.3361C99.2701 63.3361 97.0556 60.6874 99.7043 57.3873ZM104.828 62.7282C109.691 62.7282 115.64 60.2966 118.202 57.3439C120.721 54.3478 118.853 51.9595 113.99 51.9595C109.127 51.9595 103.178 54.3912 100.616 57.3439C98.0977 60.34 99.9649 62.7282 104.828 62.7282Z" fill="#434FD1"/>
<path d="M99.7043 57.3873C102.353 54.0872 108.823 51.4385 114.164 51.4385C119.505 51.4385 121.719 54.0872 119.071 57.3873C116.422 60.6874 109.952 63.3361 104.611 63.3361C99.2701 63.3361 97.0556 60.6874 99.7043 57.3873ZM104.828 62.7282C109.691 62.7282 115.64 60.2966 118.202 57.3439C120.721 54.3478 118.853 51.9595 113.99 51.9595C109.127 51.9595 103.178 54.3912 100.616 57.3439C98.0977 60.34 99.9649 62.7282 104.828 62.7282Z" fill="#434FD1"/>
<path d="M118.766 57.5176C121.372 54.2609 119.201 51.6122 113.903 51.6122C108.606 51.6122 103.048 53.9135 100.138 56.8662C103.004 53.8267 109.083 51.4385 114.164 51.4385C119.244 51.4385 121.719 54.0872 119.07 57.3873C117.898 58.8636 115.9 60.2097 113.599 61.2519C115.77 60.2532 117.637 58.9505 118.766 57.5176Z" fill="#A0A9FA"/>
<path d="M104.437 62.6851C102.961 62.0337 102.657 60.7745 103.829 59.2982C105.523 57.1705 109.735 55.4336 113.208 55.4336C116.682 55.4336 117.768 56.8231 116.813 58.6468C116.769 58.6468 116.726 58.7337 116.639 58.7771C117.464 57.0836 116.074 55.781 113.122 55.781C110.169 55.781 105.696 57.431 104.046 59.5153C102.961 60.8614 103.178 62.0772 104.437 62.7285V62.6851Z" fill="#DEC2FC"/>
<path d="M127.625 58.5162C127.234 58.1254 126.756 57.8649 126.235 57.6043C125.801 57.3872 125.454 57.0399 125.28 56.6056C124.976 55.9109 124.411 55.4332 123.847 54.999L125.931 56.128C128.971 57.778 129.665 60.6439 127.277 63.944C126.8 64.5953 126.235 65.2466 125.54 65.898C127.625 63.8571 129.448 60.2097 127.625 58.5162Z" fill="#4A57E6"/>
<path d="M50.1597 97.9002C50.7676 101.331 48.4662 103.241 44.8622 103.545C44.6885 104.37 44.0371 105.065 41.041 106.367L35.2225 97.7265C36.4817 96.4673 38.0449 95.5988 39.391 95.0777C40.3463 93.2974 44.3411 91.3435 46.9464 93.0369C48.857 94.2962 49.8123 95.8159 50.1597 97.9436V97.9002Z" fill="#A0A9FA"/>
<path d="M43.2551 102.763C41.9524 101.591 39.4774 98.1173 39.434 95.0343C40.3892 93.254 44.3841 91.3 46.9894 92.9935C48.9 94.2527 49.8552 95.7725 50.2026 97.9001C50.8105 101.33 48.5092 103.241 44.9051 103.545C44.4275 103.545 43.9064 103.415 43.2551 102.807V102.763Z" fill="#A0A9FA"/>
<path d="M39.3907 95.034C40.0855 93.8181 42.1698 92.4721 44.2974 92.3418H44.3843C41.3882 92.7326 39.9118 95.859 39.6947 96.9011C38.1315 97.3788 36.8723 98.3775 36.1775 99.0288L35.2657 97.6827C36.5249 96.4235 38.0881 95.555 39.4342 95.034H39.3907Z" fill="#DEC2FC"/>
<path d="M49.3776 95.4683C49.7684 96.163 50.0289 96.988 50.2026 97.8565C50.8105 101.287 48.5092 103.197 44.9051 103.501C44.7314 104.326 44.0801 105.021 41.084 106.324L38.9997 103.197C38.9997 103.197 40.78 102.416 41.9524 101.33C45.1657 99.6368 46.5986 98.5946 49.3776 95.4683Z" fill="#7C89F7"/>
<path d="M40.0859 98.0737C40.9109 100.158 42.3439 101.982 43.2557 102.807C43.9505 103.415 44.4281 103.588 44.9058 103.545C44.9058 103.675 44.8189 103.805 44.7755 103.936C42.4741 104.327 40.4333 99.8975 40.0859 98.1172V98.0737Z" fill="#5D6CEF"/>
<path d="M48.0319 101.852C48.0319 101.808 48.1622 101.678 48.249 101.591C48.249 101.635 48.1622 101.722 48.0319 101.852Z" fill="#FE72DD"/>
<path d="M41.0409 106.281L40.9107 106.063C42.5607 105.542 44.341 104.196 44.645 103.502C45.6871 103.502 47.3805 102.677 47.9885 101.852L48.2056 102.546C47.3371 103.067 46.1647 103.415 44.8621 103.502C44.6884 104.327 44.0371 105.021 41.0409 106.324V106.281Z" fill="#FE72DD"/>
<path d="M37.567 109.494C37.4802 109.494 37.3934 109.581 37.3065 109.581C36.0907 109.841 33.7459 107.8 32.009 104.891C30.359 102.069 29.7945 99.4198 30.7498 98.8119C31.7051 98.204 32.6169 97.6395 33.4854 97.1618C34.3538 96.6842 34.7446 96.5105 35.5262 96.9013C37.2631 97.7263 39.521 100.722 40.4329 102.937C41.3448 105.195 41.6921 106.802 40.8671 107.409C39.5645 108.365 37.871 109.32 37.4802 109.494H37.567Z" fill="#434FD1"/>
<path d="M37.1767 107.8L35.6135 104.674L40.1728 102.155C40.3031 102.416 40.4334 102.676 40.5202 102.937C40.911 103.892 41.2149 104.761 41.3452 105.455L37.1767 107.8Z" fill="#2D35AD"/>
<path d="M30.793 98.8119C31.7483 98.204 32.6602 97.6395 33.5286 97.1618C34.3971 96.6842 34.7878 96.5105 35.5694 96.9013C35.83 97.0316 36.0471 97.1618 36.3076 97.379L30.5325 100.679L30.3154 100.245C30.3154 99.5935 30.4456 99.1158 30.793 98.8553V98.8119Z" fill="#4957E3"/>
<path d="M35.0923 96.6842L30.4461 99.2895C30.533 99.0724 30.6632 98.8987 30.7935 98.8119C31.7488 98.204 32.6606 97.6395 33.5291 97.1618C34.1804 96.8145 34.5712 96.5973 35.0489 96.6842H35.0923Z" fill="#CA9EF9"/>
<path d="M34.5275 108.104C35.6131 109.146 36.6552 109.711 37.3065 109.581C37.3934 109.581 37.4802 109.537 37.567 109.494C37.9578 109.277 39.6513 108.321 40.954 107.409C41.2145 107.236 41.3448 106.932 41.3882 106.541C41.3013 106.715 41.2145 106.888 41.0408 106.975C39.6513 107.974 37.7841 109.016 37.3934 109.233C37.3065 109.277 37.2197 109.32 37.1328 109.32C36.4815 109.45 35.5262 109.016 34.5275 108.104Z" fill="#FE72DD"/>
<path d="M36.6551 103.805C34.9182 100.722 32.3997 98.3342 31.097 98.6816C29.7944 99.029 30.272 101.851 32.0523 104.891C33.7892 107.8 36.0906 109.841 37.3498 109.58C38.5656 109.32 38.3051 106.801 36.6551 103.805Z" fill="#606DEB"/>
<path d="M36.742 104.239C35.092 101.417 32.5735 99.2458 31.2708 99.5932C29.9682 99.8972 30.4024 102.546 32.1393 105.325C33.8327 107.974 36.0907 109.841 37.3499 109.58C38.5657 109.32 38.3486 106.975 36.742 104.283V104.239Z" fill="#161A8A"/>
<path d="M24.4973 108.321C24.5842 106.497 24.671 106.15 25.4526 105.065C27.2763 102.459 29.4475 100.722 31.0106 99.6802C31.0975 99.6368 31.1843 99.5934 31.2712 99.5499C32.4002 99.2894 34.6147 101.417 36.1779 104.153C37.6542 106.758 37.8279 108.799 36.8726 109.146C36.0042 109.494 34.9186 109.45 34.2673 109.407C34.4844 111.144 33.4857 112.49 31.2278 113.836C28.8395 115.269 26.9724 114.183 25.7566 112.663C24.5842 111.144 24.4105 110.232 24.4973 108.278V108.321Z" fill="#434FD1"/>
<path d="M31.7922 102.068C31.358 101.374 31.1409 101.113 32.3567 99.8105C33.5291 100.462 35.0489 102.112 36.1779 104.153C37.6542 106.758 37.8279 108.799 36.8726 109.146C36.1779 109.407 35.3094 109.45 34.6581 109.45L32.7041 105.065C33.0081 104.934 33.0949 104.24 31.7922 102.068Z" fill="#232B9E"/>
<path d="M31.6182 107.8V108.452C30.0115 108.322 29.0563 107.453 28.6655 106.715C28.5786 106.541 28.7523 106.541 28.926 106.671C29.5339 107.149 30.4892 107.627 31.5747 107.8H31.6182Z" fill="#1D0066"/>
<path d="M34.3539 107.757L34.8315 108.234C35.9171 107.062 36.0473 105.759 35.8302 104.978C35.7868 104.804 35.6131 104.891 35.5697 105.108C35.4394 105.89 35.0486 106.888 34.3539 107.757Z" fill="#1D0066"/>
<path d="M25.7562 112.707C25.6259 112.533 25.4956 112.403 25.4088 112.229C25.2351 111.925 25.3219 111.708 25.843 111.013C26.3641 110.362 27.1022 109.798 28.4918 109.363C29.8813 108.929 30.6194 108.451 31.1405 107.626L34.3103 109.407C34.5274 111.144 33.5287 112.49 31.2708 113.836C28.8826 115.269 27.0154 114.183 25.7996 112.663L25.7562 112.707Z" fill="#A0A9FA"/>
<path d="M31.0971 107.67L34.2669 109.45C34.3538 110.102 34.2669 110.709 33.963 111.274C31.4011 110.666 30.6629 109.884 30.5326 109.19C30.4458 108.799 30.5326 108.408 30.8366 108.104C30.9234 107.974 31.0537 107.844 31.1405 107.713L31.0971 107.67Z" fill="#7C89F7"/>
<path d="M35.6136 107.496C35.5267 107.236 35.4399 106.975 35.4399 106.715C35.3965 105.803 35.1359 105.369 34.7885 105.108C34.2675 104.761 33.1385 104.587 31.8358 105.586C31.0977 106.15 30.62 107.019 30.7503 107.627C30.8806 108.234 31.3148 108.669 32.053 109.277C32.7911 109.884 33.3556 110.319 34.007 110.579C34.6583 110.84 35.2662 110.449 35.8741 109.754C36.3952 109.146 36.0478 108.452 35.657 107.496H35.6136Z" fill="#A0A9FA"/>
<path d="M24.4972 108.321C24.584 106.498 24.6708 106.15 25.4524 105.065C27.1459 102.677 29.1433 101.026 30.6631 99.9409C27.5367 102.155 26.1472 104.717 25.6261 105.673C25.1051 106.671 24.7577 108.148 24.7577 109.45C24.7577 110.579 24.7577 111.144 25.1485 111.795C24.5406 110.753 24.4537 109.841 24.5406 108.278L24.4972 108.321Z" fill="#CA9EF9"/>
<path d="M25.3657 112.229C25.3657 112.185 25.3225 112.142 25.2794 112.099C25.2794 112.142 25.3225 112.185 25.3657 112.229Z" fill="#707EFF"/>
<path d="M85.0708 127.861L94.9276 146.533L107.477 140.54L98.6619 117.223L85.0708 127.861Z" fill="url(#paint16_linear_5040_11146)"/>
<path d="M86.547 128.816L93.1906 140.844L94.0156 140.584L88.8484 129.859L86.547 128.816Z" fill="url(#paint17_linear_5040_11146)"/>
<path d="M98.662 117.223L106.391 137.718L98.7054 119.958L98.662 117.223Z" fill="url(#paint18_linear_5040_11146)"/>
<path d="M61.9705 136.345L73.3471 155L87.8066 147.705L77.2117 125.646L61.9705 136.345Z" fill="url(#paint19_linear_5040_11146)"/>
<path d="M64.3585 138.76L71.5232 149.789L73.6074 148.487L67.8323 136.937L64.3585 138.76Z" fill="url(#paint20_linear_5040_11146)"/>
<path d="M70.0901 116.702C71.3059 118.438 72.5652 120.392 73.9547 122.564C79.5996 124.778 77.2548 130.857 75.8218 134.374C74.8231 136.806 72.3915 140.584 68.3532 140.584C64.315 140.584 61.1018 136.415 60.2767 131.726C59.4952 130.249 58.2793 127.991 57.2372 125.647L70.0901 116.658V116.702Z" fill="url(#paint21_linear_5040_11146)"/>
<path d="M69.8731 116.919C71.61 119.394 72.5653 121.131 74.1285 123.258C75.2575 124.822 75.9088 125.777 76.0391 126.776C75.822 124.257 74.2153 123.041 73.9548 122.607C72.5653 120.436 71.3061 118.482 70.0902 116.745L70.0034 116.832L69.9166 116.962L69.8731 116.919Z" fill="#FE72DD"/>
<path d="M72.4785 121.695H71.9575C71.7403 121.695 71.6101 121.826 71.5232 122.043C70.6114 125.777 66.8337 129.164 62.5349 129.251C58.4966 129.294 56.5426 126.341 57.194 122.911L57.0203 122.651C55.9781 126.472 58.019 129.946 62.4914 129.859C67.6587 129.772 72.3917 126.168 72.4351 121.695" fill="#434FD1"/>
<path d="M58.627 128.687C57.6282 127.731 57.1072 126.342 57.1506 124.735C57.1072 124.127 57.1506 123.519 57.2374 122.911L57.0638 122.651C56.369 125.083 56.9769 127.34 58.627 128.687Z" fill="#FE72DD"/>
<path d="M57.2374 120.957C55.8044 124.952 57.8018 128.643 62.0572 128.556C66.4862 128.469 70.5245 124.388 70.8719 120.176C71.1758 116.572 68.5705 114.27 65.1836 114.574C61.9269 114.835 58.4532 117.527 57.2374 121.001V120.957Z" fill="#434FD1"/>
<path d="M58.4095 127.297C57.1937 125.864 56.8898 123.693 57.7148 121.391C58.9306 117.961 62.4044 115.269 65.661 114.965C67.2676 114.834 68.7005 115.269 69.7427 116.181C68.7005 114.965 67.0939 114.357 65.2268 114.487C61.9701 114.748 58.4964 117.44 57.2806 120.914C56.3687 123.475 56.8463 125.907 58.4529 127.297H58.4095Z" fill="#FE72DD"/>
<path d="M57.5411 121.131C56.1081 125.125 58.1055 128.816 62.3609 128.729C66.79 128.643 70.8282 124.561 71.1756 120.349C71.4795 116.745 68.8742 114.444 65.4873 114.748C62.2306 115.008 58.7569 117.7 57.5411 121.174V121.131Z" fill="#434FD1"/>
<path d="M65.6177 114.704L65.7045 115.182C68.8743 115.008 71.306 117.179 71.1757 120.523C71.1757 120.479 71.1757 120.392 71.1757 120.349C71.4796 116.788 68.9177 114.487 65.6177 114.748V114.704Z" fill="#FE72DD"/>
<path d="M75.8218 134.418C74.8231 136.849 72.3915 140.627 68.3532 140.627C64.315 140.627 61.1018 136.459 60.2767 131.769C60.6675 133.593 62.057 135.677 65.7479 135.894C68.9611 136.111 70.4375 135.112 71.6967 133.897C72.956 132.681 73.6073 132.594 74.3889 133.332C74.3889 133.332 75.9521 130.466 76.0389 127.47C76.1258 124.474 74.2152 123.041 73.9547 122.607C79.5996 124.821 77.2548 130.901 75.8218 134.418Z" fill="url(#paint22_linear_5040_11146)"/>
<path d="M74.6929 122.911C76.2127 123.866 76.9508 126.037 76.7337 128.425C76.4732 130.901 75.4745 132.768 74.91 133.853C74.6929 133.593 74.3889 133.332 74.3889 133.332C74.3889 133.332 75.9521 130.466 76.039 127.47C76.1258 124.474 74.2153 123.041 73.9547 122.607C74.2153 122.694 74.4758 122.824 74.6929 122.954V122.911Z" fill="#5F2BAC"/>
<path d="M87.1548 109.972C87.1548 109.972 88.8049 110.623 89.8036 111.014C96.534 110.753 99.5735 117.006 99.7907 122.738C100.008 128.035 96.7077 131.509 92.2786 131.509C87.8496 131.509 87.4588 130.119 86.2864 129.121C85.2009 128.209 84.9837 127.775 84.9837 127.167C83.2034 126.038 79.9468 123.823 78.4704 122.39L87.1983 109.972H87.1548Z" fill="url(#paint23_linear_5040_11146)"/>
<path d="M87.5457 110.102C88.1102 110.319 89.1089 110.709 89.8036 110.97C92.0616 111.231 93.8419 112.36 95.1445 113.792C92.8866 111.448 89.5865 111.534 88.2838 110.84L87.5457 110.102Z" fill="#FE72DD"/>
<path d="M89.8036 111.014C96.534 110.753 99.5735 117.006 99.7907 122.738C100.008 128.035 96.7077 131.509 92.2786 131.509C87.8496 131.509 87.4588 130.119 86.2864 129.121C85.2009 128.209 84.9837 127.775 84.9837 127.167C85.3745 127.818 86.0693 128.643 87.893 128.643C89.7167 128.643 92.2786 127.775 94.059 125.777C95.7524 123.867 96.0129 122.651 96.2301 120.784C96.4037 119.134 96.7077 118.569 97.7498 118.439C97.0116 115.66 94.4497 111.535 89.847 110.97L89.8036 111.014Z" fill="url(#paint24_linear_5040_11146)"/>
<path d="M89.8037 111.014C90.2813 111.014 90.7156 111.014 91.1498 111.014C94.4064 111.535 97.2289 114.401 98.271 118.439C98.0105 118.439 97.7065 118.439 97.7065 118.439C96.9683 115.66 94.4064 111.535 89.8037 110.97V111.014Z" fill="#3E1689"/>
<path d="M78.2971 121.608C78.4708 122.26 79.2958 123.215 79.5998 123.475C80.6419 124.3 82.6393 125.256 85.7657 123.606C88.9355 121.912 91.0632 118.352 90.6724 114.487C90.325 111.144 90.4553 110.492 92.6264 109.146C93.2777 108.755 94.1027 108.929 94.4935 109.58C94.8843 110.232 94.7106 111.057 94.0593 111.447C92.8001 112.229 92.3658 112.576 92.4093 113.401C92.4961 114.704 93.4948 117.179 91.8882 120.523C89.5434 125.343 85.1578 126.645 82.3354 125.82C81.2064 125.473 80.5551 125.125 79.4261 124.17C78.2971 123.215 77.9932 122.303 77.9497 120.696L78.2103 121.608H78.2971Z" fill="#1D0066"/>
<path d="M79.8169 123.606C79.9472 123.693 80.0774 123.779 80.2077 123.866C80.6853 124.3 81.2064 124.648 81.8143 124.865L83.4644 125.994C83.0736 125.994 82.6828 125.907 82.3354 125.777C81.2064 125.429 80.5551 125.082 79.4261 124.127C79.1222 123.866 78.8616 123.606 78.6879 123.302C78.9919 123.302 79.3393 123.389 79.7735 123.562L79.8169 123.606Z" fill="#FF4CD2"/>
<path d="M79.5998 123.432C80.6419 124.257 82.6393 125.212 85.7657 123.562C88.9355 121.869 91.0632 118.308 90.6724 114.444C90.325 111.1 90.4553 110.449 92.6264 109.103C93.1909 108.756 93.8856 108.842 94.3198 109.32C93.6251 108.756 92.7566 109.19 91.5408 110.579C90.4987 111.708 91.2369 113.706 91.2803 115.269C91.3671 120.436 87.9802 123.693 85.1144 124.735C82.0314 125.777 80.2945 124.735 79.2524 123.91C78.3405 123.041 78.08 122.173 78.0366 120.697L78.2971 121.608C78.4708 122.26 79.2958 123.215 79.5998 123.476V123.432Z" fill="#434FD1"/>
<path d="M82.2051 125.169C80.8156 125.039 79.9037 124.431 79.209 123.91C78.2971 123.042 78.0366 122.173 77.9931 120.697L78.2537 121.609C78.7313 124.257 81.2932 125.169 82.1617 125.213L82.2051 125.169Z" fill="#FE72DD"/>
<path d="M91.3671 110.058C91.6711 109.754 92.1053 109.45 92.6264 109.103C93.2777 108.712 94.1027 108.886 94.4935 109.537C94.8843 110.188 94.7106 111.013 94.0593 111.404C93.5382 111.751 93.1474 112.012 92.8869 112.229C92.6264 111.491 92.0185 110.579 91.8014 110.275C91.6277 110.188 91.454 110.101 91.3237 110.058H91.3671Z" fill="#7F41CF"/>
<path d="M91.3671 110.058C91.6711 109.754 92.1053 109.45 92.6264 109.103C93.1909 108.756 93.8856 108.842 94.3198 109.32C93.7119 108.799 92.9303 109.146 91.8013 110.275C91.6277 110.188 91.454 110.102 91.3237 110.058H91.3671Z" fill="#B57AF5"/>
<path d="M77.3851 116.528C76.2561 120.479 78.2101 123.736 81.6839 123.78C85.1577 123.78 88.7617 120.653 89.8038 116.789C90.8459 112.967 88.9354 109.798 85.5485 109.711C82.1615 109.624 78.4707 112.663 77.3851 116.571V116.528Z" fill="#434FD1"/>
<path d="M89.7603 112.707C88.7615 110.406 85.8957 109.928 83.768 110.84C82.9864 111.144 83.0298 110.71 83.4206 110.015C84.1588 109.754 84.897 109.624 85.5917 109.667C87.6326 109.711 89.1523 110.927 89.7603 112.707Z" fill="#FE72DD"/>
<path d="M77.3854 116.528H77.7327C76.6472 120.392 78.4709 123.562 81.771 123.779H81.6842C78.2104 123.779 76.2564 120.479 77.3854 116.571V116.528Z" fill="#FE72DD"/>
<path d="M77.2548 116.224C76.2127 119.958 78.0364 123.085 81.3365 123.085C84.6366 123.085 88.0669 120.132 89.0656 116.441C90.0209 112.794 88.2406 109.798 85.0274 109.711C81.7707 109.624 78.297 112.533 77.2548 116.224Z" fill="#A0A9FA"/>
<path d="M80.2945 121.956C80.4682 121.956 80.5985 121.956 80.7722 121.956C83.8551 121.956 87.1118 119.177 88.0237 115.703C88.9355 112.273 87.2421 109.45 84.2459 109.363C84.0288 109.363 83.8117 109.363 83.5946 109.363C86.3736 109.667 87.85 112.403 86.9815 115.703C86.1131 118.96 83.2038 121.652 80.2945 121.956Z" fill="#7C89F7"/>
<path d="M72.652 116.224C74.7362 118.656 76.5165 119.915 77.5587 120.827L86.7207 110.536C85.5917 109.494 83.3772 107.062 81.4232 104.848L72.6085 116.224H72.652Z" fill="#A0A9FA"/>
<path d="M79.5127 112.707L77.5587 109.928L81.4667 104.891C83.0299 106.671 84.8102 108.625 86.026 109.841C88.6313 110.449 89.9774 113.185 89.1089 116.485C88.9787 116.919 88.8484 117.397 88.6313 117.787C88.2405 117.31 87.676 117.18 86.4602 117.223C83.3772 114.314 80.6851 113.706 79.5561 112.751L79.5127 112.707Z" fill="#7C89F7"/>
<path d="M86.2434 109.928C87.9369 110.927 88.7185 113.141 88.0237 115.747C87.8935 116.268 87.6764 116.789 87.4593 117.266C87.1987 117.266 86.8514 117.223 86.4171 117.266C88.7185 112.273 86.1132 110.058 85.8092 109.754L86.2434 109.972V109.928Z" fill="#5D6CEF"/>
<path d="M81.4235 104.891C82.9433 106.628 84.5933 108.452 85.8092 109.711C85.8092 109.711 85.896 109.798 85.9394 109.841C86.2434 110.145 86.8513 110.84 87.1118 111.969C86.8947 111.231 81.9012 107.41 80.4248 106.281C80.4248 106.281 80.4248 106.281 80.3814 106.237L81.4235 104.935V104.891Z" fill="#FE72DD"/>
<path d="M55.6741 115.92C55.6741 117.831 55.6741 121.218 57.2807 123.562L69.9165 117.093L68.0059 112.577L55.6741 115.92Z" fill="#A0A9FA"/>
<path d="M57.3241 120.262C56.1951 124.04 58.3228 127.384 62.2742 127.297C66.3125 127.21 69.9599 123.606 70.2639 119.698C70.5244 116.268 68.0494 113.923 64.7927 114.096C61.5795 114.27 58.3228 116.919 57.3241 120.262Z" fill="#A0A9FA"/>
<path d="M57.4977 123.519C57.8017 125.039 58.7136 126.298 60.1465 126.95C58.3662 126.298 57.2372 124.735 57.0635 122.781L57.4977 123.519Z" fill="#FD99E9"/>
<path d="M62.5351 129.859C67.0945 129.772 71.1327 126.168 72.0446 122.26C72.1314 121.869 72.3919 121.478 72.7827 121.869C73.217 122.303 73.217 122.954 73.1735 123.476C72.5656 127.644 68.3537 131.639 63.5338 131.726C61.5364 131.726 60.0167 131.118 59.0614 130.032C58.2364 129.034 57.585 127.731 57.1942 126.819C57.9758 128.686 59.7996 129.945 62.5351 129.902V129.859Z" fill="#1D0066"/>
<path d="M64.6623 125.777C67.615 123.91 65.357 122.737 65.7478 117.961L68.2229 114.965C69.6558 115.92 70.5243 117.614 70.3506 119.698C70.1769 121.782 69.0479 123.78 67.3979 125.212C67.6584 124.778 67.3544 124.214 66.9202 124.518C66.9202 124.518 66.9202 124.518 66.8768 124.561C66.2255 125.082 65.4873 125.516 64.7057 125.777H64.6623Z" fill="#7C89F7"/>
<path d="M58.2358 124.388C57.845 124.04 57.4977 123.693 57.1503 123.345C55.6739 121.044 55.6739 117.787 55.6739 115.92L56.4121 115.703C56.2818 119.568 56.4555 122.26 58.2358 124.344V124.388Z" fill="#FD99E9"/>
<path d="M59.0608 129.989C58.2358 128.99 57.5845 127.687 57.1937 126.775C57.4976 127.47 57.8884 128.035 58.4529 128.556L60.0161 130.814C59.6253 130.553 59.3214 130.293 59.0174 129.989H59.0608Z" fill="#FF4CD2"/>
<path d="M73.3037 83.5273C73.3037 83.5273 78.7314 93.9052 81.467 103.501C83.6381 111.057 77.559 116.441 69.1786 117.961C60.6679 119.481 53.4164 117.483 50.3334 110.102C47.2505 102.72 46.2083 89.5196 46.2083 89.5196L73.3037 83.5273Z" fill="#A0A9FA"/>
<path d="M65.1834 113.011C73.6072 110.84 80.2942 105.412 80.164 100.896L81.4666 103.501C81.6837 104.283 81.814 105.065 81.8574 105.803C80.4679 110.362 73.998 115.008 66.0952 116.832C64.2281 117.266 62.4478 117.483 60.7543 117.57C58.5398 117.657 56.3253 117.006 54.545 115.703C53.1989 114.704 52.0265 113.358 51.1146 111.752C53.5463 114.009 58.974 114.661 65.1834 113.054V113.011Z" fill="#7C89F7"/>
<path d="M49.682 108.321C47.1201 100.809 46.2082 89.5196 46.2082 89.5196L73.3035 83.5273C73.3035 83.5273 76.4733 89.6499 79.2089 96.7711C79.3392 99.2027 78.4708 101.765 76.6036 103.892C74.0417 106.758 69.9166 106.498 67.181 106.498C64.4454 106.498 58.7572 106.975 55.7176 108.104C53.1557 109.06 51.7228 109.798 49.7254 108.321H49.682Z" fill="#7C89F7"/>
<path d="M68.4839 92.6895C68.4839 97.987 62.6653 102.286 55.5007 102.286C48.3361 102.286 49.8558 101.548 47.6847 100.332C46.6426 94.687 46.2084 89.5197 46.2084 89.5197L64.2285 85.5249C66.8338 87.2618 68.4839 89.8237 68.4839 92.6461V92.6895Z" fill="#5262EB"/>
<path d="M66.2691 85.0908L74.3022 85.5685C74.6496 86.2632 75.0404 87.0882 75.4746 88.0001C64.8796 93.9923 54.7623 95.9898 46.8161 95.2082C46.3384 91.9081 46.1647 89.5633 46.1647 89.5633L66.2691 85.1342V85.0908Z" fill="black"/>
<path d="M77.3418 110.188C77.3418 110.188 75.7787 104.457 73.8247 100.375L78.4274 95.7723C78.5577 95.7289 78.6879 95.6421 78.8182 95.5986C79.8169 98.1171 80.7722 100.853 81.5104 103.458C82.5525 107.105 82.292 110.449 79.5564 112.663C79.209 112.229 77.3853 110.145 77.3853 110.145L77.3418 110.188Z" fill="#7C89F7"/>
<path d="M81.4669 103.501C81.4669 103.588 81.5103 103.719 81.5537 103.805L80.6418 104.153L78.1234 97.1618L79.2089 96.771C80.0339 98.9855 80.859 101.287 81.4669 103.545V103.501Z" fill="#D939B7"/>
<path d="M81.5538 103.936C81.8578 105.151 82.0314 106.367 81.988 107.453C81.8143 107.105 81.2499 105.89 80.4248 105.021C80.034 104.587 80.7288 104.196 81.5104 103.936H81.5538Z" fill="#FE72DD"/>
<path d="M78.3838 95.7723C78.5141 95.7289 78.6444 95.6421 78.7312 95.5986C78.7312 95.5986 78.7312 95.6855 78.7312 95.7289C78.8615 96.0763 78.9918 96.4237 79.122 96.8145C79.2523 99.2461 78.3838 101.808 76.5167 103.936C76.2127 104.283 75.9088 104.587 75.5614 104.804C75.0404 103.328 74.4324 101.765 73.7377 100.375L78.3404 95.7723H78.3838Z" fill="#5262EB"/>
<path d="M64.6623 95.1645C72.5217 93.1237 79.1219 94.5566 80.6851 98.3343C80.9022 98.8554 81.7272 101.07 81.9009 101.634C82.0312 102.069 82.118 102.503 82.118 102.937C82.2917 108.017 75.1271 113.836 66.0518 115.92C57.8451 117.787 50.941 115.964 49.5949 111.839C49.4646 111.404 49.0738 109.667 48.9436 109.32C48.8567 108.973 48.8133 108.669 48.8133 108.278C48.6396 103.328 55.7174 97.4659 64.6189 95.1645H64.6623ZM65.1834 112.099C73.6073 109.928 80.2943 104.5 80.164 99.9844C80.0337 95.4685 73.1296 93.5145 64.7058 95.6856C56.2819 97.8567 49.5949 103.284 49.7252 107.8C49.8554 112.316 56.7595 114.27 65.1834 112.099Z" fill="black"/>
<path d="M80.2944 97.5962C80.4247 97.8133 80.555 98.0738 80.6852 98.3344C80.9023 98.8554 81.7274 101.07 81.9011 101.634C82.0313 102.069 82.1182 102.503 82.1182 102.937C82.1182 103.371 82.1182 103.849 81.9879 104.283L79.5563 97.8567L80.251 97.5962H80.2944Z" fill="#D939B7"/>
<path d="M64.6624 95.1645C73.564 92.8632 80.9023 94.9908 81.076 99.941C81.2497 104.891 74.1719 110.753 65.2704 113.054C56.3688 115.356 49.0305 113.228 48.8568 108.278C48.6831 103.328 55.7609 97.4659 64.6624 95.1645ZM65.1835 112.099C73.6074 109.928 80.2944 104.5 80.1641 99.9844C80.0338 95.4685 73.1297 93.5145 64.7059 95.6856C56.282 97.8567 49.595 103.284 49.7253 107.8C49.8555 112.316 56.7596 114.27 65.1835 112.099Z" fill="#1D0066"/>
<path d="M75.4746 112.533C75.0404 111.578 74.2154 109.885 73.8246 109.19C73.7377 109.06 73.6509 108.973 73.564 108.886C73.3903 108.756 73.2601 108.625 73.1298 108.539C72.9995 108.452 72.8259 108.408 72.6956 108.495C72.218 108.669 71.6535 108.973 71.2192 109.277C71.089 109.407 71.0021 109.581 71.0021 109.754C71.0456 110.102 71.1758 110.406 71.1758 110.406C71.5666 111.361 72.9127 113.923 72.9127 113.923L75.4312 112.533H75.4746Z" fill="#7C89F7"/>
<path d="M50.6808 110.102L51.6361 110.927C51.6795 110.927 51.6361 111.057 51.6361 111.057L50.811 111.665C50.7242 111.752 50.6808 111.882 50.7242 112.013C50.8979 112.447 51.3755 113.576 52.0269 114.748C52.0269 114.748 51.9834 114.792 51.8532 114.878C51.7663 114.965 51.6795 114.922 51.6361 114.878C51.3321 114.618 50.9413 114.314 50.6808 114.053C50.5071 113.88 50.3334 113.663 50.2031 113.402C49.7255 112.447 49.3347 111.578 49.161 111.188C49.0742 111.014 49.161 110.84 49.2913 110.71L50.4202 110.015C50.4637 110.015 50.5505 110.015 50.6373 110.015L50.6808 110.102Z" fill="#7C89F7"/>
<path d="M49.3778 110.796H49.4647C49.4647 110.753 50.2028 111.708 50.2028 111.708L51.6792 114.965C51.3752 114.704 50.9844 114.4 50.7239 114.14C50.5502 113.966 50.3765 113.749 50.2463 113.489C49.7686 112.533 49.3778 111.665 49.2041 111.274C49.1173 111.1 49.2041 110.927 49.3344 110.796H49.3778Z" fill="#FD99E9"/>
<path d="M56.6727 111.404L66.1821 115.052L65.2268 116.745L55.7174 113.054L56.6727 111.404Z" fill="#6977F4"/>
<path d="M56.7596 111.882C56.4991 111.491 56.6727 111.144 57.1504 111.144H63.0558C63.5334 111.144 64.1413 111.491 64.4019 111.882L66.1387 114.531C66.3993 114.922 66.2256 115.269 65.7479 115.269H59.8426C59.3649 115.269 58.757 114.922 58.4965 114.531L56.7596 111.882Z" fill="#6977F4"/>
<path d="M55.7174 114.444C55.6306 114.27 55.4569 114.053 55.674 113.098C55.674 112.924 55.8911 112.794 56.195 112.794H62.1004C62.5781 112.794 63.186 113.141 63.4465 113.532L65.1834 116.181C65.3137 116.398 65.3571 116.572 65.2702 116.702C65.0097 117.093 64.836 117.31 64.7058 117.44C64.5755 117.57 64.4018 117.614 64.2715 117.614H58.7135C58.2359 117.614 57.628 117.266 57.3674 116.876L55.7608 114.444H55.7174Z" fill="#8F9AF7"/>
<path d="M55.7177 114.444C55.4572 114.053 55.6309 113.706 56.1085 113.706H61.6665C62.1442 113.706 62.7521 114.053 63.0126 114.444L64.6192 116.875C64.8797 117.266 64.7061 117.614 64.2284 117.614H58.6704C58.1928 117.614 57.5848 117.266 57.3243 116.875L55.7177 114.444Z" fill="#CACEFC"/>
<path d="M60.9283 117.614L58.4099 113.706H59.148L61.6665 117.614H60.9283Z" fill="#8F9AF7"/>
<path d="M58.5836 112.837L58.41 113.705H59.1481L59.3652 112.837H58.5836Z" fill="#6977F4"/>
<path d="M58.5834 112.837L59.5821 111.144H60.3203L59.365 112.837H58.5834Z" fill="#434FD1"/>
<path d="M63.6204 113.445L65.3573 116.094C65.6178 116.051 65.8349 116.007 66.0955 115.921C67.4416 115.617 68.7876 115.226 70.0469 114.748L69.6561 110.58C68.2231 111.187 66.7468 111.709 65.1836 112.099C64.9231 112.186 64.6625 112.23 64.402 112.273C64.2283 112.273 64.0981 112.403 64.0112 112.577L63.6638 113.098C63.6204 113.185 63.6204 113.315 63.6638 113.445H63.6204Z" fill="black"/>
<path d="M63.968 112.577C64.0548 112.447 64.2285 112.316 64.3588 112.273C64.6193 112.23 64.8799 112.143 65.1404 112.099C66.7036 111.709 68.2234 111.187 69.6129 110.58L69.6997 111.535C68.2668 112.143 66.747 112.664 65.1838 113.055C64.6627 113.185 64.0983 113.315 63.5772 113.445C63.5338 113.315 63.5338 113.185 63.5772 113.098L63.9246 112.577H63.968Z" fill="#1D0066"/>
<path d="M71.1757 109.233C71.61 108.886 72.1745 108.625 72.6955 108.408C72.8258 108.365 72.9995 108.408 73.1297 108.495C73.26 108.582 73.4337 108.712 73.564 108.842C73.564 108.842 73.6074 108.886 73.6508 108.929C73.7376 109.103 73.6508 109.277 72.5218 109.798C71.3929 110.362 71.2192 110.362 71.1323 110.188C71.0889 110.058 71.0455 109.884 71.0021 109.711C71.0021 109.537 71.0455 109.32 71.2192 109.233H71.1757Z" fill="#A0A9FA"/>
<path d="M50.6809 110.101L51.5928 110.926C51.5059 110.926 51.2888 111.057 50.4638 111.665C50.2467 111.838 50.0296 111.665 49.5519 111.361C49.2046 111.144 49.1611 111.013 49.2046 110.926C49.2046 110.926 49.248 110.883 49.2914 110.84L50.4204 110.145C50.4355 110.145 50.5699 110.087 50.6809 110.101Z" fill="#A0A9FA"/>
<path d="M44.5579 90.8223C44.9921 94.1224 45.6 97.7264 46.3382 101.244C47.0329 104.761 47.6408 106.237 48.5093 107.279C49.4211 108.408 50.0291 108.669 52.287 107.8C53.7633 107.236 55.7173 106.671 59.4516 105.977C63.1859 105.325 65.5307 104.804 69.265 104.63C71.219 104.544 73.9546 104.37 75.7349 102.85C77.9928 100.94 79.6863 98.6382 79.7731 96.5974C79.9468 93.3842 79.5995 89.8236 77.4718 84.7866C74.5625 85.5248 68.6137 87.913 68.6137 87.913C64.1846 90.6486 63.7504 95.8158 56.5424 97.0751C50.6804 98.1172 46.4684 93.5579 45.6434 91.6907L45.3829 90.5618L44.5579 90.7789V90.8223Z" fill="#2D35AD"/>
<path d="M67.8058 97.494C66.7637 98.0585 65.3307 98.5361 63.4202 98.8835C63.1162 98.9269 62.986 99.144 63.0728 99.4045C63.3768 100.577 63.8978 102.097 64.332 103.182C64.3755 103.313 64.5926 103.443 64.7663 103.399C66.7202 103.095 68.1532 102.705 69.1953 102.184C69.4558 102.053 69.5427 101.836 69.4558 101.576C69.1085 100.49 68.6308 98.9703 68.1098 97.6242C68.0663 97.5374 67.8926 97.4505 67.8058 97.494Z" fill="#161A8A"/>
<path d="M67.3717 97.2767C66.4164 97.7978 65.0703 98.232 63.2466 98.5793C62.8992 98.6662 62.7255 99.0136 62.6387 99.2307C62.9426 100.36 63.6808 101.575 64.0716 102.618C64.115 102.748 64.3321 102.878 64.5058 102.835C66.3295 102.574 67.5888 102.444 68.5875 101.966C68.7612 101.836 69.0651 101.532 68.9349 101.098C68.6309 100.056 68.1533 98.6662 67.6756 97.407C67.6756 97.3201 67.4585 97.2333 67.3717 97.2767Z" fill="#434FD1"/>
<path d="M67.1111 97.7109C66.1558 98.232 64.8097 98.6662 62.986 98.9702C62.7254 99.0136 62.5952 99.1873 62.6386 99.4478C62.9426 100.577 63.4202 101.966 63.811 102.965C63.8544 103.095 64.0715 103.226 64.2452 103.182C66.0689 102.922 67.415 102.531 68.4137 102.053C68.6308 101.923 68.7611 101.749 68.6743 101.489C68.3703 100.447 67.8927 99.057 67.415 97.7978C67.415 97.7978 67.3646 97.5726 67.1111 97.7109Z" fill="#6977F4"/>
<path d="M64.5927 100.968C64.3755 100.186 64.8098 99.4046 65.6348 99.1874C66.4598 98.9703 67.2848 99.448 67.5019 100.186C67.719 100.924 67.2848 101.749 66.4598 101.966C65.6348 102.184 64.8098 101.706 64.5927 100.968Z" fill="#FE72DD"/>
<path d="M65.4178 100.837C65.2875 100.447 65.5046 100.056 65.8954 99.9256C66.2862 99.7953 66.677 100.012 66.7638 100.403C66.8507 100.794 66.677 101.185 66.2862 101.315C65.8954 101.445 65.5046 101.228 65.4178 100.837Z" fill="#6977F4"/>
<path d="M65.7213 100.707C65.6779 100.49 65.7647 100.273 65.9818 100.23C66.1989 100.186 66.4161 100.273 66.4595 100.49C66.5029 100.707 66.4161 100.924 66.1989 100.968C65.9818 101.011 65.7647 100.924 65.7213 100.707Z" fill="#FE72DD"/>
<path d="M64.0278 100.794L65.1606 100.475L65.2871 101.141L64.3752 101.445L64.0278 100.794Z" fill="#FE72DD"/>
<path d="M65.5911 99.231L65.4609 100.013L63.8977 100.49L63.5503 99.8389L65.5911 99.231Z" fill="#FE72DD"/>
<path d="M68.6573 87.9565C69.2218 87.7394 74.693 85.5683 77.472 84.8301C79.5562 89.8236 79.947 93.3842 79.7734 96.6409C79.6865 98.6817 77.9931 100.983 75.7351 102.894C74.7364 103.719 73.4772 104.153 72.1745 104.37C72.739 104.24 73.1732 103.545 72.1745 99.9409C71.4797 97.5093 69.8731 91.9079 68.7442 87.9565H68.6573Z" fill="#161A8A"/>
<path d="M78.8181 90.1708L79.2089 90.0405C79.7734 92.559 79.9037 94.6433 79.7734 96.6407C79.73 97.8999 79.0352 99.246 78.0365 100.549C79.73 98.421 79.2523 93.688 78.8615 90.1708H78.8181Z" fill="#FF4CD2"/>
<path d="M79.8169 95.3816C77.9063 96.4238 74.7365 96.7277 73.2167 92.8632C71.9575 89.7368 72.1312 87.2617 74.0852 85.9156C75.3444 85.4814 76.5602 85.0906 77.4721 84.8301C79.2958 89.2157 79.8169 92.4724 79.8169 95.3816Z" fill="black"/>
<path d="M68.6141 87.9565C68.6141 87.9565 74.5629 85.5683 77.4722 84.8301C77.6893 85.3946 77.9064 85.9156 78.1235 86.4367C73.13 89.5197 68.2233 91.7342 63.5337 93.2105C65.1404 91.3868 66.3562 89.346 68.6141 87.9565Z" fill="black"/>
<path d="M44.5582 90.8226L45.3832 90.6055L45.6438 91.7344C46.0346 92.6029 47.207 94.0792 48.9438 95.295C47.6412 95.2516 46.3819 95.1214 45.1661 94.9477C44.949 93.5147 44.7319 92.1252 44.5582 90.7792V90.8226Z" fill="black"/>
<path d="M49.5083 108.191C49.161 108.017 48.857 107.713 48.5096 107.279C47.6412 106.194 47.0333 104.717 46.3385 101.243C46.3385 101.157 46.3385 101.026 46.2951 100.939C46.8596 103.371 48.2057 107.322 49.5518 108.191H49.5083Z" fill="#FE72DD"/>
<path d="M49.5951 96.8149C46.0345 95.1214 44.8621 93.124 44.5581 90.8226L45.3832 90.6055L45.6437 91.7345C46.4687 93.6017 50.6806 98.1175 56.5426 97.1188C63.7507 95.8596 64.1849 90.6924 68.6139 87.9568C68.6139 87.9568 68.9179 87.8265 69.439 87.6528C66.6165 89.1292 64.5323 93.9925 60.7111 96.207C57.4545 98.0741 53.1557 98.5083 49.5951 96.8149Z" fill="#161A8A"/>
<path d="M68.6139 87.9568C68.6139 87.9568 68.9179 87.8265 69.439 87.6528C67.6587 88.5647 66.1823 90.8226 64.3586 92.9503C64.0981 93.0372 63.7941 93.124 63.5336 93.2109C65.1402 91.3871 66.356 89.3463 68.6139 87.9568Z" fill="#000066"/>
<path d="M45.6437 91.7779C46.0345 92.6463 47.1635 94.1227 48.9004 95.3385C48.2491 95.3385 47.5977 95.2951 46.9898 95.2082C45.3832 93.9055 44.7753 92.4292 44.5148 90.8226L45.3398 90.6055L45.6003 91.7344L45.6437 91.7779Z" fill="#000066"/>
<path d="M56.2386 97.7263L56.3689 97.4224L56.586 97.6395C57.1939 100.115 58.5834 103.371 59.7124 105.89C59.6256 105.89 59.5387 105.89 59.4519 105.933C59.4519 105.933 59.4084 105.933 59.365 105.933C58.2361 103.415 56.89 100.158 56.2821 97.6829L56.2386 97.7263Z" fill="#161A8A"/>
<path d="M89.0224 95.2079L91.2369 84.7432C96.0133 85.9156 99.8779 88.3038 101.484 91.5604C102.831 94.296 101.962 97.4224 100.529 99.1159C98.8792 101.026 96.5344 101.026 95.1449 98.7685C94.4501 97.6395 94.0159 96.5105 93.6251 95.6421C91.2369 96.0329 89.5434 95.7289 89.0658 95.2079H89.0224Z" fill="#232B9E"/>
<path d="M98.1407 89.9104C96.0999 88.7814 91.3235 87.9998 91.3235 87.9998L91.4537 84.7866C96.0999 85.959 99.8776 88.3472 101.484 91.5605C102.743 94.1658 102.049 97.1185 100.703 98.8988C101.615 97.7264 101.745 94.6868 101.397 93.3408C101.05 91.9513 100.138 91.0828 98.1407 89.9538V89.9104Z" fill="#FE72DD"/>
<path d="M96.925 95.0773V95.8155C98.5317 95.6418 99.4869 94.6431 99.8343 93.8615C99.9212 93.6878 99.7475 93.6444 99.5738 93.8181C98.9659 94.3392 98.054 94.9036 96.925 95.1208V95.0773Z" fill="#1D0066"/>
<path d="M101.615 94.0789C102.005 93.2105 101.875 92.5592 101.658 92.0381C102.7 94.6434 101.832 97.5093 100.486 99.1159C98.8356 101.026 96.4909 101.026 95.1014 98.7685C94.4066 97.6395 93.9724 96.5106 93.5816 95.6421L96.0132 95.2079C99.4001 96.0763 101.094 95.2079 101.615 94.0355V94.0789Z" fill="#7C89F7"/>
<path d="M101.745 92.2552C101.745 92.1684 101.701 92.1249 101.658 92.0381C101.658 92.1249 101.701 92.1684 101.745 92.2552Z" fill="#FCC0F4"/>
<path d="M101.528 94.2094C101.528 94.1659 101.571 94.1225 101.615 94.0791C101.962 93.3409 101.875 92.733 101.745 92.2554C102.613 94.687 102.092 97.1186 100.703 98.8989C101.441 97.9437 101.658 95.7291 101.528 94.2094Z" fill="#FCC0F4"/>
<path d="M96.6646 95.4683C96.8383 95.4683 97.012 95.4683 97.1857 95.4683C97.7067 95.5551 98.1844 95.5985 98.6186 95.5985C98.7054 96.4235 98.7054 97.7696 98.141 99.1591C97.837 99.8539 97.3594 100.201 96.8383 100.332C96.2304 100.071 95.6225 99.5934 95.1448 98.8118C95.058 98.6815 95.0146 98.5947 94.9277 98.4644L96.6646 95.4683Z" fill="#5D6CEF"/>
<path d="M92.3223 95.3812C92.7566 96.4234 93.321 97.1181 94.1461 97.8129C94.45 99.2458 94.45 99.68 95.5356 99.7669C96.6211 99.8537 97.9238 99.0721 98.0975 96.7273C98.1843 95.6852 97.8804 94.8168 97.8804 94.8168C98.1843 94.4694 98.3146 93.9917 98.2712 93.4707C98.2277 92.9496 98.0106 92.3417 97.6632 92.0377C96.6211 91.1693 94.2329 91.1259 92.7131 92.9062C92.1487 93.6009 92.0184 94.5562 92.3223 95.3812Z" fill="#232B9E"/>
<path d="M93.5813 97.2919C93.1471 96.8577 92.7997 96.3801 92.4958 95.7722C90.672 95.9024 89.4128 95.6419 89.022 95.2077L89.7602 91.7773L91.1062 91.8642C92.7563 92.0379 93.3208 92.1681 93.1905 92.9063C93.1037 93.384 92.6694 95.0774 93.8853 96.2064L93.5813 97.3354V97.2919Z" fill="#121570"/>
<path d="M95.492 99.8107C94.4064 99.6804 94.4498 99.2462 94.1025 97.8567C93.8419 97.6396 93.6248 97.4225 93.4077 97.2054C93.3209 97.0751 93.234 96.9014 93.6682 96.3804C94.3196 95.5988 95.5788 95.208 96.4473 95.1646C97.2723 95.1646 97.9236 95.3382 97.967 95.729C97.967 96.033 98.0105 96.3804 97.967 96.7712C97.8368 99.116 96.4907 99.941 95.4051 99.8107H95.492Z" fill="#7C89F7"/>
<path d="M85.0275 84.0481C85.4617 82.9626 86.4604 83.006 90.1947 83.3534C91.8013 83.4836 92.4093 84.3955 92.4527 85.6547C92.5395 89.0851 91.454 93.6444 89.5868 95.4247C88.9789 95.9892 88.2842 96.0326 87.1118 95.9023C84.2459 95.5984 84.1591 95.5115 84.0288 94.2089L84.9841 84.0481H85.0275Z" fill="#FE72DD"/>
<path d="M84.8106 83.9612C85.2014 82.8756 86.2001 82.9191 89.9344 83.2664C91.4976 83.3967 92.1489 84.3086 92.1923 85.6112C92.3226 89.0416 91.3673 93.6443 89.5436 95.4246C88.9791 95.9891 88.2843 96.0759 87.112 95.9457C84.2461 95.6417 84.1593 95.5549 84.029 94.2088L84.8106 84.0046V83.9612Z" fill="#2D35AD"/>
<path d="M89.8471 95.0777L84.0285 94.2961C84.0285 94.2961 84.0285 94.2526 84.0285 94.2092L84.3325 90.2578L91.5405 91.2131C91.1497 92.7763 90.5852 94.1658 89.8471 95.0342V95.0777Z" fill="#232B9E"/>
<path d="M84.7671 84.4394V84.0051C85.2014 82.9196 86.2001 82.963 89.8909 83.3104C91.3239 83.4406 91.9752 84.1788 92.1055 85.2644L84.7237 84.4394H84.7671Z" fill="#434FD1"/>
<path d="M85.0709 83.484C85.592 83.0063 86.2867 83.0497 87.0683 83.9182C88.2407 85.1774 87.9802 89.0854 86.9815 92.2986C86.2867 94.5566 85.0709 95.7724 84.463 95.425C84.1156 95.2079 84.0722 94.8605 83.9854 94.2092L84.767 84.005C84.8538 83.7879 84.9406 83.6576 85.0709 83.5274V83.484Z" fill="#4957E3"/>
<path d="M80.5549 83.8313C73.0863 83.3971 71.2626 86.784 73.3468 91.9947C75.2574 96.8145 79.7299 95.5553 81.2062 94.4697C81.8141 94.6434 83.2471 94.8605 84.4629 94.7303C85.2445 94.6434 86.2432 94.0355 86.9379 89.1722C87.2853 86.6103 87.1551 83.9616 85.3748 83.7445C83.5944 83.5274 82.0313 83.5708 80.5983 83.8313H80.5549Z" fill="#7C89F7"/>
<path d="M73.3036 91.9947C71.2193 86.8275 73.0431 83.3972 80.5116 83.8314C83.7683 86.7841 82.3354 93.6448 81.163 94.4698C79.6866 95.5119 75.2142 96.7712 73.3036 91.9947Z" fill="#7C89F7"/>
<path d="M80.5553 83.8313C82.0316 83.6141 83.5948 83.5273 85.3317 83.7444C85.4185 83.7444 85.462 83.7444 85.5488 83.7878C86.0699 84.6563 86.1133 85.8721 86.1133 86.3497C86.1133 86.4366 86.0264 86.5234 85.8962 86.5234C85.3317 86.48 83.508 86.3063 82.075 86.3932C79.8605 85.1773 75.8223 85.1339 75.8223 85.1339L78.8184 83.8313C79.3394 83.8313 79.9039 83.8313 80.5118 83.8313H80.5553Z" fill="#CA9EF9"/>
<path d="M80.555 83.8314C80.9892 83.7446 81.4234 83.7011 81.8576 83.6577C83.7682 85.9591 83.3774 90.2144 82.2484 92.125C82.8129 89.65 82.7695 85.8288 80.555 83.8314Z" fill="#5D6CEF"/>
<path d="M80.5551 83.8314C80.7288 84.0051 80.9024 84.1788 81.0327 84.3525C80.5985 84.7867 79.9472 85.2643 79.1221 85.8288C76.951 87.2183 74.7799 88.4775 72.6523 89.5197C71.9141 85.7854 74.3891 83.484 80.5551 83.8314Z" fill="#2D35AD"/>
<path d="M81.7707 93.5576C82.8997 93.9484 84.376 93.9484 85.6787 93.7747C85.2445 94.5563 84.8103 94.73 84.4195 94.7734C83.2037 94.9037 81.7707 94.6432 81.1628 94.5129C80.2075 95.2077 77.8193 96.0327 76.039 95.1208C77.9496 95.9024 80.9891 94.6432 81.7707 93.601V93.5576Z" fill="#5D6CEF"/>
<path d="M97.3593 94.6436C97.9237 94.0357 98.358 93.1672 97.7935 92.2554C98.054 92.6027 98.1843 93.0804 98.2277 93.5146C98.2711 94.0791 98.1409 94.5567 97.8369 94.8607C97.8369 94.8607 98.0974 95.7291 98.054 96.7713C97.9672 98.2476 97.4027 99.0726 96.7513 99.5068C97.8803 98.6818 97.6198 95.6857 97.3593 94.6436Z" fill="#FE72DD"/>
<path d="M96.5344 99.6371C96.6212 99.6371 96.708 99.5503 96.7515 99.5068C96.6646 99.5503 96.6212 99.5937 96.5344 99.6371Z" fill="#FE72DD"/>
<path d="M95.3184 99.7676C94.4065 99.6373 94.4065 99.1597 94.1025 97.8136C93.842 97.5965 93.6249 97.3794 93.4078 97.1623C93.3209 97.032 93.2341 96.8583 93.6683 96.3373C93.7117 96.2504 93.7986 96.207 93.842 96.1636C94.4499 96.9017 94.667 97.1623 94.667 97.5965C94.667 98.0307 94.5368 99.6373 95.3184 99.7676Z" fill="#5D6CEF"/>
<path d="M41.6492 24.6035L42.561 28.2944C21.154 33.2445 9.64714 50.2659 10.559 63.5531L5.34835 64.6821C4.74045 43.9697 23.0211 29.5102 41.6058 24.6035H41.6492Z" fill="#A0A9FA"/>
<path d="M40.6066 22.6061C48.466 20.5218 55.4569 19.9573 60.7979 20.3915L58.6702 26.2969C45.1225 26.6877 36.8289 29.2496 29.0563 33.6353L25.4523 29.901C25.1484 29.597 25.1918 29.0325 25.5826 28.8154C29.5774 26.3838 34.8315 24.1692 40.65 22.6061H40.6066Z" fill="#C3C8FC"/>
<path d="M61.8398 26.4273L63.1425 21.9548C63.2293 21.6943 63.1425 21.4338 62.9254 21.2601C62.4043 20.8259 61.6227 20.4785 60.7109 20.4351C60.4069 20.4351 60.1464 20.6087 60.103 20.8693L58.67 26.3405L61.8398 26.4273Z" fill="#7C89F7"/>
<path d="M1.84888 75.1538C0.827624 70.2223 1.94149 65.8225 4.33676 65.3264C6.73203 64.8304 9.50168 68.426 10.5229 73.3575C11.5442 78.2889 10.4303 82.6887 8.03504 83.1848C5.63977 83.6808 2.87013 80.0852 1.84888 75.1538Z" fill="#ACB2E8"/>
<path d="M9.08239 73.1933C8.34421 69.155 5.91258 66.3326 3.65463 66.8971C1.35327 67.4616 0.0940275 71.1524 0.832203 75.1907C1.57038 79.2289 4.00201 82.0513 6.25996 81.4869C8.56132 80.9224 9.82056 77.2315 9.08239 73.1933Z" fill="#C3C8FC"/>
<path d="M5.13263 74.4884C3.94603 68.7586 5.24948 63.6444 8.04397 63.0657C10.8384 62.487 14.0658 66.6629 15.2524 72.3927C16.439 78.1226 15.1355 83.2367 12.341 83.8154C9.54654 84.3941 6.31923 80.2183 5.13263 74.4884Z" fill="#ACB2E8"/>
<path d="M7.51918 63.2488C7.69286 63.162 7.82313 63.1185 7.99682 63.0751C10.7758 62.5106 13.9891 66.6791 15.1615 72.4108C16.3339 78.1426 15.0312 83.2229 12.2522 83.8308C12.0351 83.8743 11.818 83.8743 11.6008 83.8743C10.7758 83.8743 7.43233 83.2664 7.12838 83.2229C4.95728 82.8756 2.69932 79.5321 1.78746 75.1899C0.875599 70.8911 1.61378 66.9831 3.43751 65.7239C3.69804 65.5502 6.65073 63.5962 7.47575 63.2488H7.51918Z" fill="#A0A9FA"/>
<path d="M13.1207 83.2238L13.2944 83.3975C12.9905 83.6146 12.6865 83.7449 12.3392 83.8318C12.122 83.8752 11.9049 83.8752 11.6878 83.8752C10.8628 83.8752 7.5193 83.2673 7.21535 83.2238C6.60744 83.137 5.99954 82.7896 5.39163 82.2686L13.1207 83.2238Z" fill="#FD99E9"/>
<path d="M1.83069 75.1907C1.52673 73.7143 1.39647 72.2814 1.48332 70.9788L8.04003 69.459C8.38741 71.1524 8.69137 73.1064 8.90848 75.1907C9.08216 76.7973 9.21244 78.2737 9.25586 79.7066L3.26361 79.2724C2.69912 78.1 2.17807 76.7105 1.87411 75.1907H1.83069Z" fill="#8D99F7"/>
<path d="M3.48086 65.7242C3.7414 65.5505 6.6941 63.5965 7.51912 63.2491C7.69281 63.1623 7.82308 63.1189 7.99677 63.0755C8.47441 62.9886 8.95205 63.032 9.42969 63.1623L8.4744 64.5952L2.39531 67.0703C2.69927 66.4624 3.09007 65.9847 3.52429 65.6808L3.48086 65.7242Z" fill="#C3C8FC"/>
<path d="M4.43632 65.1163C4.65343 64.9861 4.91397 64.8124 5.1745 64.6387C4.1758 65.29 3.65473 66.8098 3.43762 68.894C3.3942 69.3283 3.56788 69.6756 4.0021 69.8493L7.21533 71.3257L7.04165 71.7165L3.82842 70.2401C3.22051 69.9362 2.91656 69.4585 3.0034 68.8506C3.43762 66.5927 3.69815 65.7676 4.43632 65.1163Z" fill="#7D83FF"/>
<path d="M4.26129 75.1593C4.14458 74.5958 4.41166 74.064 4.85784 73.9716C5.30402 73.8792 5.76033 74.2611 5.87705 74.8247C5.99376 75.3883 5.72668 75.9201 5.2805 76.0125C4.83432 76.1049 4.37801 75.7229 4.26129 75.1593Z" fill="#FF4CD2"/>
<path d="M6.72369 74.1746C5.20154 66.8244 7.31806 60.172 11.4511 59.3161C15.5841 58.4602 20.1685 63.7249 21.6907 71.0751C23.2128 78.4253 21.0963 85.0776 16.9633 85.9335C12.8303 86.7895 8.24585 81.5248 6.72369 74.1746Z" fill="#1D0066"/>
<path d="M11.6875 59.2978C11.8612 59.2978 12.0783 59.2544 12.252 59.2544C12.0783 59.2544 11.8612 59.2544 11.6875 59.2978Z" fill="#B3269C"/>
<path d="M17.4191 85.351C18.1573 85.2207 18.8521 84.9168 19.46 84.4825C18.7652 85.2207 17.8968 85.6984 16.9849 85.9155C13.9888 86.5234 10.819 84.0049 8.64788 79.793C10.9492 83.6141 14.2927 85.9155 17.4191 85.351Z" fill="#B3269C"/>
<path d="M19.4167 84.5259C18.418 85.5246 16.8982 85.7417 15.7258 85.0035C13.1639 83.3969 10.6888 79.0547 9.55987 73.5836C8.4309 68.1558 8.95197 63.1623 10.6888 60.6438C11.4704 59.5148 12.9902 59.0806 14.2929 59.6451C17.5061 60.9477 20.5456 65.3768 21.718 71.0651C22.8904 76.7534 21.8917 82.0074 19.4601 84.4825L19.4167 84.5259Z" fill="black"/>
<path d="M87.7629 83.3973C91.2367 82.2683 92.9302 80.792 93.4078 77.188C93.8854 73.5839 94.667 64.8561 93.4078 53.5664C92.1051 41.9727 85.9826 33.8093 74.9969 29.4237C64.7927 25.3855 38.6526 21.5643 19.8075 40.4095C12.8599 47.357 10.602 53.3058 9.99408 55.6072C9.38617 57.9086 9.38618 61.2086 12.1218 73.5405C14.7705 85.3947 20.3285 91.2133 21.9786 92.9501C23.6286 94.687 26.1037 95.7292 31.3143 95.2515C44.2975 94.0791 68.7007 89.6935 87.7195 83.3973H87.7629Z" fill="#434FD1"/>
<path d="M74.9966 29.4233C85.9824 33.7655 92.0615 41.9723 93.4076 53.566C94.7103 64.8557 93.8852 73.6269 93.4076 77.1876C92.9299 80.7916 91.1931 82.2679 87.7627 83.3969C81.51 85.4812 74.6493 87.3483 67.832 88.9549C51.6356 55.6502 49.5079 34.8077 54.0238 26.1667C62.7951 25.9061 70.4808 27.643 74.9966 29.4667V29.4233Z" fill="#323FBD"/>
<path d="M34.7014 94.9038C33.529 95.0341 32.4 95.1643 31.3579 95.2512C26.1472 95.7288 23.6722 94.6867 22.0222 92.9498C20.3721 91.2129 14.8141 85.3944 12.1653 73.5402C9.42976 61.2083 9.42976 57.9082 10.0377 55.6069C10.6456 53.3055 12.8601 47.4001 19.8511 40.4091C25.1051 35.1551 30.8802 31.6813 36.7856 29.4668C27.3196 33.1142 13.0338 52.3068 34.7448 94.9038H34.7014Z" fill="#5969F4"/>
<path d="M19.851 40.4091C24.7142 35.5458 30.0552 32.2023 35.4829 29.9878C22.2826 35.5024 12.2521 48.8764 10.7758 54.7383C10.7758 54.7383 10.906 76.6231 18.6786 88.8246C16.4641 85.6548 13.8153 80.7047 12.2087 73.5401C9.47311 61.2082 9.47311 57.9082 10.081 55.6068C10.6889 53.3054 12.9035 47.4 19.8944 40.4091H19.851Z" fill="#D4D7FF"/>
<path d="M36.7422 29.4668C36.308 29.6405 35.9172 29.7707 35.483 29.9879C35.9172 29.8142 36.308 29.6405 36.7422 29.4668Z" fill="#D4D7FF"/>
<path d="M12.0349 53.5658C9.99411 55.2158 10.2546 58.4725 10.3849 60.3396C10.5152 62.2068 12.5126 75.3637 15.3784 81.1388C17.9403 86.306 22.1523 90.1706 28.3182 90.214C39.9119 90.2574 65.2269 85.7849 75.214 79.8796C84.2892 74.4952 86.0261 66.5924 85.8524 61.2515C85.3748 47.5736 82.1615 42.3195 77.6456 40.7129C70.8718 38.3247 63.9243 42.2327 57.7583 45.0551C47.9884 49.4841 38.0447 53.7395 26.9721 53.2618C19.7206 52.9579 14.7271 51.4815 12.0349 53.6092V53.5658Z" fill="white"/>
<path d="M11.9482 53.0885C9.90732 54.7385 10.1679 58.0386 10.2981 59.9058C10.4284 61.7729 12.3824 75.0166 15.2917 80.7483C17.8536 85.9156 22.0655 89.7801 28.188 89.8235C39.7817 89.867 65.1402 85.3511 75.1706 79.4457C84.3327 74.0179 86.1564 66.0283 85.9827 60.6439C85.5919 46.7923 82.4221 41.4948 77.8628 39.8882C71.0456 37.4566 64.0112 41.4948 57.8018 44.3173C47.945 48.8331 37.958 53.1319 26.8419 52.6543C19.5904 52.3503 14.5969 50.874 11.9047 53.0451L11.9482 53.0885Z" fill="#2D35AD"/>
<path d="M79.3394 61.7293L86.0264 61.5122C85.9829 65.6807 84.7237 71.1085 80.0341 75.7546L73.6945 74.1914L79.3394 61.7293Z" fill="#161A8A"/>
<path d="M31.7485 80.1841L18.2009 85.1342C17.0719 83.8316 16.0732 82.3552 15.2916 80.7052C14.5534 79.2288 13.9021 77.2749 13.2942 75.1472L30.3156 70.5444L31.7051 80.1407L31.7485 80.1841Z" fill="#161A8A"/>
<path d="M11.9484 53.0882C12.0787 53.0013 12.2089 52.9145 12.3392 52.8276L27.7974 60.4699L30.3159 70.6307L13.2945 75.2334C11.5576 69.0241 10.4286 61.3384 10.3418 59.9054C10.1681 58.0383 9.90756 54.7382 11.9918 53.0882H11.9484Z" fill="#1D0066"/>
<path d="M73.5208 48.312L77.5156 39.7578C77.6459 39.7578 77.7762 39.8447 77.9064 39.8881C82.4658 41.4947 85.6356 46.7922 86.0264 60.6438C86.0264 60.9043 86.0264 61.2083 86.0264 61.5123L79.3394 61.7294L73.5208 48.312Z" fill="#1D0066"/>
<path d="M26.8855 52.6977C37.9582 53.1753 47.9886 48.8765 57.8454 44.3607C63.968 41.5382 70.8286 37.6737 77.5156 39.8013L73.5208 48.3555L27.754 61.4689L15.0313 54.2175L12.3392 52.8279C15.1182 51.0911 19.9814 52.4372 26.8855 52.7411V52.6977Z" fill="black"/>
<path d="M13.2942 62.2938C12.6862 57.995 12.9034 55.4331 15.031 54.1305C17.1587 52.8278 19.4167 53.2186 25.6694 53.6094C36.0473 54.2607 45.7738 51.1343 55.5872 46.879C65.4006 42.6236 69.9165 40.4959 75.9087 41.842C81.901 43.1881 83.2471 51.612 83.8115 60.8175C84.376 70.0229 77.7759 76.9704 69.0915 80.7482C57.932 85.568 42.7777 87.6523 33.6591 88.1299C26.1037 88.5207 19.1127 85.7417 16.6811 77.0573C15.2916 72.0203 14.0323 67.0702 13.3376 62.2504L13.2942 62.2938Z" fill="url(#paint25_linear_5040_11146)"/>
<g style="mix-blend-mode:multiply" opacity="0.5">
<path d="M13.2942 62.2938C13.989 67.1136 15.2482 72.0638 16.6377 77.1007C17.2022 79.1415 18.0272 80.835 19.0259 82.2679C18.4615 81.1824 17.9838 80.01 17.593 78.6639C16.2035 73.6269 14.9443 68.6768 14.2495 63.857C13.6416 59.5582 13.8587 56.9963 15.9864 55.6937C18.0707 54.4344 20.372 54.7818 26.5814 55.1726C36.9592 55.8239 46.6858 52.6975 56.4992 48.4422C66.3125 44.1868 70.8284 42.0591 76.8207 43.4052C78.5576 43.796 79.8602 44.7513 80.9023 46.1842C79.7299 43.9263 78.1233 42.3631 75.822 41.842C69.8297 40.4959 65.3138 42.6236 55.5005 46.879C45.6871 51.1343 35.9605 54.2607 25.5827 53.6094C19.3733 53.2186 17.072 52.8278 14.9443 54.1305C12.8166 55.3897 12.5995 57.995 13.2074 62.2938H13.2942Z" fill="#3D49CC"/>
</g>
<g style="mix-blend-mode:multiply" opacity="0.5">
<path d="M29.2734 69.0244C31.6616 79.6194 35.613 80.3141 47.4672 78.0128C60.4504 75.4943 62.7952 72.1508 61.3188 63.119C59.6688 53.0451 55.9345 52.0464 43.5592 54.6083C30.7063 57.257 27.0588 59.2544 29.2299 68.981L29.2734 69.0244Z" fill="#3D49CC"/>
</g>
<path d="M67.9191 66.8098C69.8731 70.6309 70.6981 74.9297 67.0507 77.4047C65.0098 78.7942 62.2742 78.8811 60.0597 78.2298C58.1491 77.6653 59.0176 76.9705 59.9294 76.0152C63.0993 72.7586 64.4453 69.5454 65.4875 67.0703C66.0954 65.5505 66.9638 65.0295 67.9191 66.8532V66.8098Z" fill="black"/>
<path d="M63.5771 78.5772C63.5771 78.0561 63.7074 77.535 63.8376 76.9705C64.6626 74.3218 66.964 72.0639 69.4825 71.3257C69.8299 73.6705 69.2654 75.885 67.0509 77.4048C66.0087 78.0995 64.7929 78.4903 63.5771 78.5772Z" fill="#F78BCC"/>
<path d="M27.7535 68.3295C30.793 78.36 34.7879 79.0114 46.5987 76.8837C59.5384 74.5389 61.9266 71.4125 60.5371 62.7715C58.9305 52.6976 54.9791 51.6121 42.0394 54.1305C28.5785 56.7359 24.8442 58.7333 27.7535 68.3295Z" fill="#B9BFFA"/>
<path d="M27.7537 68.3294C28.9696 72.2808 30.3156 74.7993 32.2696 76.2322C30.4893 74.7559 29.2735 72.2808 28.2314 68.5031C25.5826 58.9503 29.3169 56.9529 42.6475 54.2607C47.4239 53.3054 50.9411 52.8278 53.5898 53.1317C50.8977 52.6541 47.1634 53.1317 42.0396 54.087C28.5788 56.6923 24.8445 58.6897 27.7537 68.286V68.3294Z" fill="white"/>
<path d="M32.0094 76.1021C34.9187 78.0127 39.0872 77.7522 45.861 76.5363C58.5837 74.2784 60.9285 71.2389 59.4955 62.7716C58.4968 56.7793 57.1942 53.9569 53.4599 53.1753C57.6718 53.87 59.4955 56.6491 60.4943 62.7716C61.8838 71.456 59.539 74.5389 46.5558 76.8837C39.2609 78.1864 34.9187 78.4469 31.966 76.1021H32.0094Z" fill="#939DF5"/>
<path d="M46.0804 70.0982C45.9059 69.009 47.4537 67.8554 49.5375 67.5216C51.6213 67.1878 53.452 67.8003 53.6265 68.8895C53.8009 69.9788 52.2531 71.1324 50.1693 71.4662C48.0855 71.7999 46.2549 71.1875 46.0804 70.0982Z" fill="#3A45C7"/>
<path d="M33.0751 72.4866C32.9025 71.397 34.2987 70.2705 36.1936 69.9703C38.0885 69.6702 39.7645 70.3102 39.937 71.3997C40.1096 72.4893 38.7134 73.6159 36.8185 73.916C34.9236 74.2161 33.2476 73.5761 33.0751 72.4866Z" fill="#3A45C7"/>
<path d="M49.4647 67.5482C51.549 67.2008 53.3727 67.8087 53.5464 68.9377C53.5464 68.9377 53.5464 68.9377 53.5464 68.9811C52.7648 68.6338 51.6792 68.5469 50.5068 68.7206C48.466 69.068 46.9462 70.197 47.0765 71.2391C46.4686 70.9785 46.0778 70.5877 46.0344 70.1101C45.8607 69.0246 47.3805 67.8522 49.4647 67.5048V67.5482Z" fill="#161A8A"/>
<path d="M36.1778 70.023C38.045 69.7191 39.7384 70.3704 39.9121 71.456C39.2174 71.152 38.2621 71.0217 37.2634 71.1954C35.3962 71.4994 34.0067 72.6283 34.137 73.7139C33.5725 73.4534 33.1383 73.0626 33.0949 72.5415C32.9212 71.456 34.3107 70.327 36.2212 70.023H36.1778Z" fill="#161A8A"/>
<path d="M66.4558 55.1672C66.0166 52.9073 67.2635 50.7637 69.2409 50.3793C71.2183 49.9949 73.1774 51.5153 73.6167 53.7753C74.056 56.0352 72.8091 58.1788 70.8317 58.5632C68.8543 58.9475 66.8951 57.4271 66.4558 55.1672Z" fill="black"/>
<path d="M16.1759 65.9168C15.7641 63.7981 16.6134 61.8506 18.073 61.5669C19.5325 61.2832 21.0495 62.7707 21.4614 64.8894C21.8732 67.0081 21.0239 68.9556 19.5643 69.2393C18.1048 69.523 16.5878 68.0354 16.1759 65.9168Z" fill="black"/>
<path d="M17.0624 65.024C16.7324 64.9622 16.5615 64.3962 16.6806 63.7598C16.7997 63.1233 17.1638 62.6575 17.4938 62.7192C17.8238 62.781 17.9948 63.347 17.8756 63.9834C17.7565 64.6199 17.3925 65.0858 17.0624 65.024Z" fill="#B9BFFA"/>
<path d="M67.5089 54.363C67.1161 54.254 66.9638 53.5663 67.1689 52.8268C67.374 52.0873 67.8587 51.5761 68.2516 51.6851C68.6444 51.794 68.7966 52.4818 68.5916 53.2213C68.3865 53.9608 67.9018 54.4719 67.5089 54.363Z" fill="#B9BFFA"/>
<path d="M92.3655 75.19C93.0168 69.5886 94.8405 44.0564 82.5087 33.5049C88.8049 38.1945 92.4089 44.9249 93.4076 53.5224C94.7103 64.8122 93.8852 73.5834 93.4076 77.144C92.9299 80.7481 91.1931 82.2244 87.7627 83.3534C87.0246 83.6139 86.2864 83.831 85.5482 84.0916C89.3693 82.7455 91.7576 80.6178 92.3655 75.19Z" fill="#FE72DD"/>
<path d="M90.5421 43.2314C92.0184 46.271 92.9737 49.7448 93.4079 53.5225C94.2329 60.9042 94.1895 67.157 93.929 71.6295C91.7579 70.9347 89.4565 68.3294 87.8933 58.4292C86.3301 48.5289 87.8499 43.7959 90.5421 43.2314Z" fill="black"/>
<path d="M88.4577 57.2137C90.6722 69.6758 93.7986 71.1521 96.6645 70.4574C99.4435 69.7626 100.876 64.8994 99.1829 55.3031C97.4895 45.7068 94.4065 41.6251 91.5841 41.9725C88.6748 42.3199 86.2432 44.7515 88.5011 57.2137H88.4577Z" fill="#1D0066"/>
<path d="M92.1051 56.5624C93.4946 64.3784 96.2302 70.0666 98.0973 69.3719C99.8776 68.6771 100.225 62.4244 98.9658 55.3466C97.7065 48.2688 95.1881 42.4937 93.2775 42.4937C91.2801 42.4937 90.6722 48.7898 92.1051 56.5624Z" fill="#161A8A"/>
<path d="M96.4475 70.0664C99.2699 69.3716 100.79 64.5084 99.3134 54.9121L99.5305 55.3029C101.007 64.8558 99.4871 69.7624 96.6646 70.4572C95.0146 70.848 93.2777 70.544 91.7579 67.8085C93.2343 70.1967 94.8843 70.4572 96.4475 70.0664Z" fill="#B3269C"/>
<path d="M94.5802 43.5354C94.8842 43.492 101.571 44.621 101.571 44.621C102.309 44.8381 103.655 48.9632 104.567 54.087C105.523 59.2542 105.74 63.5964 105.088 64.0306C104.177 64.6385 99.3132 67.4609 98.9659 67.5478C97.8803 67.7649 96.0132 62.5543 94.7973 55.9107C93.5815 49.2671 93.4513 43.7525 94.5802 43.5354Z" fill="#A0A9FA"/>
<path d="M94.8482 55.8035C93.6317 49.1755 93.5251 43.6409 94.6101 43.4418C95.6952 43.2427 97.5609 48.4543 98.7774 55.0824C99.9938 61.7104 100.1 67.2449 99.0154 67.4441C97.9304 67.6432 96.0646 62.4315 94.8482 55.8035Z" fill="#A0A9FA"/>
<path d="M94.8407 55.8675C94.4499 53.8267 94.1894 51.8293 94.0157 50.1358L102.179 49.6147L102.613 57.6912L95.796 60.2531C95.4486 58.9071 95.1447 57.3873 94.8407 55.8241V55.8675Z" fill="#8D99F7"/>
<path d="M105.045 63.5967L105.306 63.7269C105.262 63.8572 105.219 63.9441 105.132 63.9875C104.22 64.5954 99.3568 67.4178 99.0095 67.5047C98.8358 67.5047 98.6187 67.4178 98.4016 67.2007L105.045 63.5967Z" fill="#FD99E9"/>
<path d="M102.812 54.3688C102.058 50.2646 101.907 46.8532 102.473 46.7493C103.039 46.6454 104.108 49.8883 104.862 53.9925C105.615 58.0967 105.767 61.5081 105.201 61.612C104.634 61.7159 103.565 58.473 102.812 54.3688Z" fill="#C2C6F2"/>
<path d="M101.997 54.5933C101.024 49.295 100.829 44.8911 101.56 44.7569C102.291 44.6227 103.672 48.809 104.645 54.1073C105.617 59.4056 105.813 63.8095 105.081 63.9437C104.35 64.0779 102.969 59.8916 101.997 54.5933Z" fill="#C3C8FC"/>
<path d="M102.484 54.5347C101.677 50.0503 101.501 46.3288 102.091 46.2227C102.681 46.1165 103.814 49.6658 104.621 54.1502C105.427 58.6347 105.603 62.3561 105.013 62.4623C104.423 62.5684 103.291 59.0191 102.484 54.5347Z" fill="#FE72DD"/>
<path d="M102.483 46.7925C102.744 46.7491 105.566 47.0096 105.61 47.0096C106.087 47.053 106.956 49.9189 107.607 53.4795C108.258 57.0401 108.432 59.9928 108.041 60.2533C108.041 60.2533 105.479 61.5125 105.219 61.5994C104.654 61.6862 103.612 58.473 102.831 54.3913C102.049 50.3097 101.919 46.8793 102.483 46.7925Z" fill="#A0A9FA"/>
<path d="M105.913 48.5723L107.433 54.9553L103.265 56.4317C103.134 55.7803 102.961 55.0856 102.83 54.3908C102.396 52.0895 102.179 49.9618 102.136 48.5723H105.913Z" fill="#8D99F7"/>
<path d="M108.041 59.9058H108.171C108.171 60.1229 108.085 60.2531 107.998 60.2966C107.998 60.2966 105.436 61.5558 105.175 61.6426C105.045 61.6426 104.915 61.5558 104.784 61.3387L108.041 59.9492V59.9058Z" fill="#FD99E9"/>
<path d="M105.937 53.796C105.262 50.1163 105.078 47.0667 105.526 46.9845C105.974 46.9022 106.885 49.8185 107.56 53.4981C108.236 57.1777 108.42 60.2273 107.972 60.3096C107.524 60.3918 106.613 57.4756 105.937 53.796Z" fill="#C3C8FC"/>
<path d="M105.349 47.3567C105.74 47.2698 106.565 49.658 107.303 53.045C108.085 56.7792 108.432 60.2096 107.998 60.3399C108.432 60.253 108.258 57.2135 107.607 53.566C106.912 49.9186 106 47.0093 105.566 47.0961C105.479 47.0961 105.436 47.2264 105.393 47.4001L105.349 47.3567Z" fill="#FD99E9"/>
<path d="M96.6177 55.9304C96.5149 55.2669 96.912 54.6546 97.5044 54.5629C98.0969 54.4711 98.6605 54.9347 98.7632 55.5983C98.8659 56.2619 98.4689 56.8742 97.8764 56.9659C97.284 57.0576 96.7204 56.594 96.6177 55.9304Z" fill="#FF4CD2"/>
<path d="M98.3144 50.1793L94.4064 53.2622C94.4064 53.0886 94.363 52.9149 94.3196 52.7846L98.0104 49.8753C98.0973 49.7885 98.1841 49.6582 98.1841 49.528C98.0973 47.8779 98.0539 45.1423 98.7486 44.2305C98.9657 44.2305 99.2262 44.3173 99.4434 44.3607C99.3565 44.3607 99.3131 44.3607 99.2697 44.3607C98.8355 44.4476 98.4012 46.2279 98.6183 49.528C98.6183 49.8319 98.5315 50.0924 98.3144 50.2661V50.1793Z" fill="#7D83FF"/>
<path d="M70.0466 27.8169C66.9637 27.0353 63.3162 26.4274 59.278 26.2103L60.1898 22.7799C60.2767 22.5194 60.4938 22.3457 60.7977 22.3457C77.8626 22.997 92.1919 30.7696 98.1407 44.0567C98.1841 44.187 98.1407 44.3172 98.0538 44.4475L97.7065 44.7949C97.5328 44.9686 97.3157 45.0554 97.0551 45.0554L94.0156 44.8383C89.8037 37.196 81.9443 30.509 70.09 27.8603L70.0466 27.8169Z" fill="#A0A9FA"/>
<path d="M63.2728 22.4761C79.2086 23.7787 92.4524 31.421 98.0972 44.0568C98.1406 44.1871 98.0972 44.3174 98.0104 44.4476L97.663 44.795C97.5327 44.9253 97.4025 45.0121 97.2288 45.0121C97.0985 45.0121 96.9683 45.0121 96.9248 44.8384C94.059 38.8462 87.1549 24.5603 63.2728 22.4761Z" fill="#7C89F7"/>
<path d="M45.8173 9.01533C50.8108 8.92849 54.8057 11.4904 54.8057 14.4431C54.8057 17.3958 52.1569 18.3511 44.5581 18.4379C41.3448 18.4379 37.5237 18.5248 34.1368 18.5682L34.0499 15.9629C36.525 12.3588 40.9975 9.1456 45.8173 9.05875V9.01533Z" fill="#72F3A5"/>
<path d="M42.0397 1.45973C42.2134 0.0702233 43.4726 -0.233731 44.2108 0.157067C45.6003 0.85182 45.774 1.76368 45.7306 2.9795C45.6872 4.15189 44.7753 11.7507 41.9963 15.5719L34.9185 16.4403C40.8673 13.1837 41.2581 7.92961 42.0397 1.50315V1.45973Z" fill="#008046"/>
<path d="M44.9923 0.677734C45.6436 1.28564 45.7305 2.02382 45.7305 2.93568C45.7305 3.63043 45.3831 6.36602 44.6015 9.31872H44.1673C45.2962 5.28047 46.0344 1.71986 44.9923 0.677734Z" fill="#FD99E9"/>
<path d="M43.0817 9.88373C43.3857 9.44951 43.8633 9.18898 44.3844 9.10214C44.862 9.01529 45.3397 9.01529 45.8173 8.97187C50.8108 8.88503 54.8057 11.4469 54.8057 14.3996C54.8057 17.3523 52.1569 18.3076 44.5581 18.3945L37.8711 16.2234C40.8238 14.2694 41.8659 11.5338 43.1251 9.88373H43.0817Z" fill="#48F08A"/>
<path d="M42.0394 1.45973C42.2131 0.0702233 43.4723 -0.233731 44.2105 0.157067C44.2105 0.157067 44.2539 0.157067 44.2974 0.200489C42.9513 -0.363997 42.8644 1.15577 42.2131 6.23615C41.5184 11.8376 39.738 13.6179 36.2643 16.2232L34.8748 16.3969C40.8236 13.1403 41.2144 7.88619 41.996 1.45973H42.0394Z" fill="#12A459"/>
<path d="M34.0933 18.5242C37.4802 18.4808 41.3014 18.4374 44.5146 18.3939C52.1135 18.3071 54.7622 16.961 54.7622 14.3991C54.7622 13.8947 54.4583 12.8359 54.0675 12.3149C55.5004 14.3991 53.7201 16.5702 49.9858 16.4834C43.9501 16.3531 32.4867 11.403 25.2787 11.7504C17.5495 12.0977 14.0323 17.6123 14.1192 21.2164C14.206 24.3862 17.1587 26.0796 20.2851 25.6888C25.626 25.0375 29.5774 22.5625 34.0933 18.5242Z" fill="#17D171"/>
<path d="M14.206 21.998C13.5547 18.394 17.6798 12.8794 25.3655 12.5755C32.5736 12.2715 44.037 17.2216 50.0726 17.3085C52.5911 17.3519 54.328 16.1361 54.7622 14.7031C54.5885 17.0913 51.8529 18.3072 44.5146 18.394C41.3014 18.394 37.4802 18.4809 34.0933 18.5243C29.5774 22.5625 25.626 24.9942 20.2851 25.6889C17.3758 26.0363 14.7271 24.6902 14.206 21.998Z" fill="#12A459"/>
<path d="M17.2024 25.3419C20.9801 26.688 28.4053 23.2142 31.5317 20.001L32.0527 20.2615C28.3619 23.2576 24.8013 25.1682 20.2854 25.6893C18.3314 25.9064 17.159 25.3853 17.159 25.3853L17.2024 25.3419Z" fill="#FD99E9"/>
<path d="M23.9329 16.7009C24.7145 18.7851 29.5343 20.9128 33.3989 20.8694C36.0911 20.8694 38.3924 19.7839 40.0425 18.4378C38.0451 18.4378 36.0042 18.4812 34.0937 18.5246C31.2278 18.5246 28.5791 17.4825 27.1461 16.7009C25.9303 16.0061 25.279 15.7456 24.6711 15.7456C24.0632 15.7456 23.7158 16.1798 23.9329 16.7443V16.7009Z" fill="#008046"/>
<path d="M39.3043 18.438C39.5648 18.438 39.7819 18.438 40.0425 18.438C38.3924 19.7841 36.0477 20.8696 33.3989 20.8696C32.6607 20.8696 31.8357 20.7828 31.0541 20.6525C33.9634 21.0867 37.2635 20.088 39.3043 18.438Z" fill="#FD99E9"/>
<defs>
<linearGradient id="paint0_linear_5040_11146" x1="52.5474" y1="132.681" x2="42.9946" y2="118.222" gradientUnits="userSpaceOnUse">
<stop offset="0.1" stop-color="#FE4BD2" stop-opacity="0"/>
<stop offset="0.5" stop-color="#FE49D2" stop-opacity="0.2"/>
<stop offset="1" stop-color="#FE42D2"/>
</linearGradient>
<linearGradient id="paint1_linear_5040_11146" x1="53.0688" y1="126.298" x2="48.2055" y2="116.485" gradientUnits="userSpaceOnUse">
<stop stop-color="#FF4CD2" stop-opacity="0"/>
<stop offset="0.1" stop-color="#FE4BD2" stop-opacity="0"/>
<stop offset="0.3" stop-color="#FE4BD2" stop-opacity="0"/>
<stop offset="0.4" stop-color="#FE4AD2" stop-opacity="0.1"/>
<stop offset="0.5" stop-color="#FE49D2" stop-opacity="0.2"/>
<stop offset="0.6" stop-color="#FE48D2" stop-opacity="0.4"/>
<stop offset="0.7" stop-color="#FE46D2" stop-opacity="0.5"/>
<stop offset="0.9" stop-color="#FE44D2" stop-opacity="0.7"/>
<stop offset="1" stop-color="#FE42D2"/>
</linearGradient>
<linearGradient id="paint2_linear_5040_11146" x1="47.424" y1="133.115" x2="42.2133" y2="124.257" gradientUnits="userSpaceOnUse">
<stop stop-color="#FF4CD2" stop-opacity="0"/>
<stop offset="0.1" stop-color="#FE4BD2" stop-opacity="0"/>
<stop offset="0.3" stop-color="#FE4BD2" stop-opacity="0"/>
<stop offset="0.4" stop-color="#FE4AD2" stop-opacity="0.1"/>
<stop offset="0.5" stop-color="#FE49D2" stop-opacity="0.2"/>
<stop offset="0.6" stop-color="#FE48D2" stop-opacity="0.4"/>
<stop offset="0.7" stop-color="#FE46D2" stop-opacity="0.5"/>
<stop offset="0.9" stop-color="#FE44D2" stop-opacity="0.7"/>
<stop offset="1" stop-color="#FE42D2"/>
</linearGradient>
<linearGradient id="paint3_linear_5040_11146" x1="47.1632" y1="125.516" x2="40.3459" y2="113.445" gradientUnits="userSpaceOnUse">
<stop stop-color="#FD6ADA"/>
<stop offset="0.4" stop-color="#EB26C0"/>
<stop offset="1" stop-color="#8C1381"/>
</linearGradient>
<linearGradient id="paint4_linear_5040_11146" x1="41.4764" y1="115.459" x2="39.7855" y2="112.157" gradientUnits="userSpaceOnUse">
<stop stop-color="#B3269C"/>
<stop offset="0.3" stop-color="#912196"/>
<stop offset="0.8" stop-color="#55198C"/>
<stop offset="1" stop-color="#3E1689"/>
</linearGradient>
<linearGradient id="paint5_linear_5040_11146" x1="41.4415" y1="115.51" x2="39.7425" y2="112.165" gradientUnits="userSpaceOnUse">
<stop stop-color="#B3269C"/>
<stop offset="0.3" stop-color="#912196"/>
<stop offset="0.8" stop-color="#55198C"/>
<stop offset="1" stop-color="#3E1689"/>
</linearGradient>
<linearGradient id="paint6_linear_5040_11146" x1="39.6952" y1="111.1" x2="24.758" y2="86.3929" gradientUnits="userSpaceOnUse">
<stop stop-color="#D42AB5"/>
<stop offset="0.4" stop-color="#5F2BAC"/>
<stop offset="0.5" stop-color="#5C2AAA"/>
<stop offset="0.7" stop-color="#362198"/>
<stop offset="0.9" stop-color="#1E1C8E"/>
<stop offset="1" stop-color="#161A8A"/>
</linearGradient>
<linearGradient id="paint7_linear_5040_11146" x1="41.0842" y1="110.232" x2="26.1036" y2="85.5246" gradientUnits="userSpaceOnUse">
<stop stop-color="#D42AB5"/>
<stop offset="0.4" stop-color="#5F2BAC"/>
<stop offset="0.5" stop-color="#5C2AAA"/>
<stop offset="0.6" stop-color="#362198"/>
<stop offset="0.8" stop-color="#1E1C8E"/>
<stop offset="0.9" stop-color="#161A8A"/>
</linearGradient>
<linearGradient id="paint8_linear_5040_11146" x1="123.63" y1="105.108" x2="129.665" y2="130.206" gradientUnits="userSpaceOnUse">
<stop stop-color="#FE42D2" stop-opacity="0.9"/>
<stop offset="0.35615" stop-color="#FE49D2" stop-opacity="0.2"/>
<stop offset="0.6" stop-color="#FE4AD2" stop-opacity="0.1"/>
<stop offset="0.826467" stop-color="#FF4CD2" stop-opacity="0.0139977"/>
<stop offset="0.958" stop-color="#FF4CD2" stop-opacity="0"/>
</linearGradient>
<linearGradient id="paint9_linear_5040_11146" x1="128.754" y1="103.501" x2="134.008" y2="119.915" gradientUnits="userSpaceOnUse">
<stop stop-color="#FE42D2" stop-opacity="0.9"/>
<stop offset="0.1" stop-color="#FE44D2" stop-opacity="0.7"/>
<stop offset="0.3" stop-color="#FE46D2" stop-opacity="0.5"/>
<stop offset="0.4" stop-color="#FE48D2" stop-opacity="0.4"/>
<stop offset="0.5" stop-color="#FE49D2" stop-opacity="0.2"/>
<stop offset="0.6" stop-color="#FE4AD2" stop-opacity="0.1"/>
<stop offset="0.7" stop-color="#FE4BD2" stop-opacity="0"/>
<stop offset="0.9" stop-color="#FE4BD2" stop-opacity="0"/>
<stop offset="1" stop-color="#FF4CD2" stop-opacity="0"/>
</linearGradient>
<linearGradient id="paint10_linear_5040_11146" x1="120.517" y1="108.593" x2="124.605" y2="124.017" gradientUnits="userSpaceOnUse">
<stop stop-color="#FE42D2" stop-opacity="0.9"/>
<stop offset="0.4" stop-color="#FE48D2" stop-opacity="0.4"/>
<stop offset="0.6" stop-color="#FE4AD2" stop-opacity="0.1"/>
<stop offset="1" stop-color="#FF4CD2" stop-opacity="0"/>
</linearGradient>
<linearGradient id="paint11_linear_5040_11146" x1="125.542" y1="112.906" x2="121.382" y2="96.0276" gradientUnits="userSpaceOnUse">
<stop stop-color="#FD6ADA"/>
<stop offset="0.4" stop-color="#EB26C0"/>
<stop offset="1" stop-color="#8C1381"/>
</linearGradient>
<linearGradient id="paint12_linear_5040_11146" x1="122.935" y1="100.852" x2="121.806" y2="97.0311" gradientUnits="userSpaceOnUse">
<stop stop-color="#B3269C"/>
<stop offset="0.3" stop-color="#912196"/>
<stop offset="0.8" stop-color="#55198C"/>
<stop offset="1" stop-color="#3E1689"/>
</linearGradient>
<linearGradient id="paint13_linear_5040_11146" x1="122.848" y1="100.853" x2="121.763" y2="97.075" gradientUnits="userSpaceOnUse">
<stop stop-color="#B3269C"/>
<stop offset="0.3" stop-color="#912196"/>
<stop offset="0.8" stop-color="#55198C"/>
<stop offset="1" stop-color="#3E1689"/>
</linearGradient>
<linearGradient id="paint14_linear_5040_11146" x1="121.241" y1="95.2945" x2="111.949" y2="65.3767" gradientUnits="userSpaceOnUse">
<stop stop-color="#D42AB5"/>
<stop offset="0.4" stop-color="#5F2BAC"/>
<stop offset="1" stop-color="#161A8A"/>
</linearGradient>
<linearGradient id="paint15_linear_5040_11146" x1="121.328" y1="95.2513" x2="112.08" y2="65.3335" gradientUnits="userSpaceOnUse">
<stop stop-color="#D42AB5"/>
<stop offset="0.4" stop-color="#5F2BAC"/>
<stop offset="1" stop-color="#161A8A"/>
</linearGradient>
<linearGradient id="paint16_linear_5040_11146" x1="101.137" y1="143.015" x2="92.496" y2="123.953" gradientUnits="userSpaceOnUse">
<stop offset="0.0478856" stop-color="#FF4CD2" stop-opacity="0"/>
<stop offset="0.23527" stop-color="#FF4CD2" stop-opacity="0.0397698"/>
<stop offset="0.461083" stop-color="#FE4AD2" stop-opacity="0.16"/>
<stop offset="0.706532" stop-color="#FE48D2" stop-opacity="0.4"/>
<stop offset="1" stop-color="#FE42D2"/>
</linearGradient>
<linearGradient id="paint17_linear_5040_11146" x1="93.538" y1="140.627" x2="87.5892" y2="129.077" gradientUnits="userSpaceOnUse">
<stop stop-color="#FF4CD2" stop-opacity="0"/>
<stop offset="0.1" stop-color="#FE4BD2" stop-opacity="0"/>
<stop offset="0.3" stop-color="#FE4BD2" stop-opacity="0"/>
<stop offset="0.4" stop-color="#FE4AD2" stop-opacity="0.1"/>
<stop offset="0.5" stop-color="#FE49D2" stop-opacity="0.2"/>
<stop offset="0.6" stop-color="#FE48D2" stop-opacity="0.4"/>
<stop offset="0.7" stop-color="#FE46D2" stop-opacity="0.5"/>
<stop offset="0.9" stop-color="#FE44D2" stop-opacity="0.7"/>
<stop offset="1" stop-color="#FE42D2"/>
</linearGradient>
<linearGradient id="paint18_linear_5040_11146" x1="105.913" y1="136.024" x2="99.3133" y2="120.132" gradientUnits="userSpaceOnUse">
<stop stop-color="#FF4CD2" stop-opacity="0"/>
<stop offset="0.1" stop-color="#FE4BD2" stop-opacity="0"/>
<stop offset="0.3" stop-color="#FE4BD2" stop-opacity="0"/>
<stop offset="0.4" stop-color="#FE4AD2" stop-opacity="0.1"/>
<stop offset="0.5" stop-color="#FE49D2" stop-opacity="0.2"/>
<stop offset="0.6" stop-color="#FE48D2" stop-opacity="0.4"/>
<stop offset="0.7" stop-color="#FE46D2" stop-opacity="0.5"/>
<stop offset="0.9" stop-color="#FE44D2" stop-opacity="0.7"/>
<stop offset="1" stop-color="#FE42D2"/>
</linearGradient>
<linearGradient id="paint19_linear_5040_11146" x1="80.9025" y1="150.701" x2="70.3076" y2="132.377" gradientUnits="userSpaceOnUse">
<stop stop-color="#FF4CD2" stop-opacity="0"/>
<stop offset="0.347187" stop-color="#FE4AD2" stop-opacity="0.08"/>
<stop offset="0.552459" stop-color="#FE49D2" stop-opacity="0.24"/>
<stop offset="0.765429" stop-color="#FE47D2" stop-opacity="0.454517"/>
<stop offset="1" stop-color="#FE42D2"/>
</linearGradient>
<linearGradient id="paint20_linear_5040_11146" x1="71.8271" y1="147.575" x2="66.052" y2="137.762" gradientUnits="userSpaceOnUse">
<stop stop-color="#FF4CD2" stop-opacity="0"/>
<stop offset="0.384615" stop-color="#FF4AD2" stop-opacity="0.156169"/>
<stop offset="0.716346" stop-color="#FE47D2" stop-opacity="0.528846"/>
<stop offset="1" stop-color="#FE42D2"/>
</linearGradient>
<linearGradient id="paint21_linear_5040_11146" x1="73.8244" y1="137.11" x2="66.3124" y2="126.254" gradientUnits="userSpaceOnUse">
<stop stop-color="#D42AB5"/>
<stop offset="1" stop-color="#2D35AD"/>
</linearGradient>
<linearGradient id="paint22_linear_5040_11146" x1="73.9547" y1="137.588" x2="65.444" y2="124.821" gradientUnits="userSpaceOnUse">
<stop stop-color="#FE72DD"/>
<stop offset="0.2" stop-color="#FE65D9" stop-opacity="0.7"/>
<stop offset="0.5" stop-color="#FE57D5" stop-opacity="0.3"/>
<stop offset="0.7" stop-color="#FE4FD2" stop-opacity="0"/>
<stop offset="0.8" stop-color="#FF4CD2" stop-opacity="0"/>
</linearGradient>
<linearGradient id="paint23_linear_5040_11146" x1="98.2275" y1="127.08" x2="89.4128" y2="119.742" gradientUnits="userSpaceOnUse">
<stop stop-color="#D42AB5"/>
<stop offset="1" stop-color="#2D35AD"/>
</linearGradient>
<linearGradient id="paint24_linear_5040_11146" x1="99.7472" y1="125.126" x2="82.6824" y2="117.31" gradientUnits="userSpaceOnUse">
<stop stop-color="#FE72DD"/>
<stop offset="0.2" stop-color="#FE65D9" stop-opacity="0.7"/>
<stop offset="0.5" stop-color="#FE57D5" stop-opacity="0.3"/>
<stop offset="0.6" stop-color="#FE4FD2" stop-opacity="0"/>
<stop offset="0.7" stop-color="#FF4CD2" stop-opacity="0"/>
</linearGradient>
<linearGradient id="paint25_linear_5040_11146" x1="14.2494" y1="62.6846" x2="83.0299" y2="66.6794" gradientUnits="userSpaceOnUse">
<stop stop-color="#6977F4"/>
<stop offset="1" stop-color="#5262EB"/>
</linearGradient>
</defs>
</svg>
