<svg width="321" height="320" viewBox="0 0 321 320" fill="none" xmlns="http://www.w3.org/2000/svg">
<path fill-rule="evenodd" clip-rule="evenodd" d="M166.853 1.22747C162.902 -0.409155 158.463 -0.409156 154.511 1.22747L52.8301 43.3453C48.8789 44.9819 45.7397 48.1211 44.1031 52.0722L1.98528 153.754C0.348658 157.705 0.348656 162.144 1.98528 166.095L44.1031 267.777C45.7397 271.728 48.8789 274.867 52.83 276.504L154.511 318.622C158.463 320.258 162.902 320.258 166.853 318.622L268.535 276.504C272.486 274.867 275.625 271.728 277.262 267.777L319.379 166.095C321.016 162.144 321.016 157.705 319.379 153.754L277.262 52.0722C275.625 48.1211 272.486 44.9819 268.535 43.3453L166.853 1.22747ZM155.335 44.1734C158.284 41.2236 163.067 41.2234 166.016 44.1731L276.191 154.342C279.141 157.292 279.141 162.074 276.191 165.024L166.016 275.193C163.067 278.143 158.284 278.143 155.335 275.193L45.1711 165.024C42.2216 162.074 42.2216 157.292 45.1711 154.342L155.335 44.1734Z" fill="white"/>
<path d="M165.446 100.754C168.311 113.585 174.752 125.343 184.023 134.665C193.294 143.988 205.016 150.494 217.831 153.43C219.085 153.72 220.203 154.426 221.004 155.433C221.805 156.44 222.241 157.689 222.241 158.975C222.241 160.262 221.805 161.511 221.004 162.518C220.203 163.525 219.085 164.231 217.831 164.52C205.031 167.386 193.309 173.832 184.034 183.108C174.758 192.383 168.312 204.105 165.446 216.905C165.157 218.159 164.451 219.278 163.444 220.079C162.437 220.88 161.188 221.316 159.901 221.316C158.614 221.316 157.366 220.88 156.359 220.079C155.352 219.278 154.646 218.159 154.356 216.905C151.431 204.108 144.947 192.4 135.652 183.131C126.357 173.862 114.63 167.41 101.825 164.52C100.572 164.231 99.4531 163.525 98.6521 162.518C97.8511 161.511 97.415 160.262 97.415 158.975C97.415 157.689 97.8511 156.44 98.6521 155.433C99.4531 154.426 100.572 153.72 101.825 153.43C114.634 150.498 126.356 144.013 135.648 134.722C144.939 125.431 151.423 113.708 154.356 100.9C154.629 99.6418 155.32 98.5134 156.316 97.6988C157.313 96.8842 158.556 96.4315 159.843 96.4146C161.13 96.3976 162.385 96.8175 163.402 97.6055C164.42 98.3936 165.141 99.5034 165.446 100.754Z" fill="white"/>
</svg>
