<svg width="48" height="48" viewBox="0 0 48 48" fill="none" xmlns="http://www.w3.org/2000/svg">
<g clip-path="url(#clip0_5335_15913)">
<rect x="-8.3999" y="-8.3999" width="64.7998" height="64.7998" fill="#19175C"/>
<mask id="mask0_5335_15913" style="mask-type:alpha" maskUnits="userSpaceOnUse" x="-9" y="-9" width="66" height="66">
<rect x="-8.3999" y="-8.3999" width="64.7998" height="64.7998" fill="#0A55E2"/>
</mask>
<g mask="url(#mask0_5335_15913)">
<g filter="url(#filter0_f_5335_15913)">
<path d="M14.7108 -2.38818L34.6461 -2.38818L79.4477 66.0858L-21.4263 64.1584L14.7108 -2.38818Z" fill="#5968F0"/>
</g>
<g filter="url(#filter1_f_5335_15913)">
<path d="M26.1465 16.9844H43.1773L81.4515 75.1038L-4.72559 73.4678L26.1465 16.9844Z" fill="#FF4CD2"/>
</g>
<path d="M28.9315 24.2534C28.9315 25.6666 27.8655 26.7183 26.433 26.7183C25.0005 26.7183 23.9344 25.6666 23.9344 24.2534C23.9344 22.8401 25.0005 21.7884 26.433 21.7884C27.8655 21.7884 28.9315 22.8401 28.9315 24.2534ZM36.5604 24.2534C36.5604 29.742 32.063 34.1132 26.433 34.1132C21.6025 34.1132 17.6381 30.9252 16.5721 26.554H14.4067L13.4073 21.9528H16.6054C16.9052 20.901 17.3716 19.8822 17.9713 18.9948H12.7743L11.7749 14.3936H26.1331C32.1962 14.3936 36.5604 18.7647 36.5604 24.2534ZM31.7632 24.2534C31.7632 21.3283 29.3979 18.9948 26.433 18.9948C23.468 18.9948 21.1028 21.3283 21.1028 24.2534C21.1028 27.1785 23.468 29.512 26.433 29.512C29.3979 29.512 31.7632 27.1785 31.7632 24.2534Z" fill="white"/>
</g>
</g>
<defs>
<filter id="filter0_f_5335_15913" x="-47.557" y="-28.5189" width="153.135" height="120.736" filterUnits="userSpaceOnUse" color-interpolation-filters="sRGB">
<feFlood flood-opacity="0" result="BackgroundImageFix"/>
<feBlend mode="normal" in="SourceGraphic" in2="BackgroundImageFix" result="shape"/>
<feGaussianBlur stdDeviation="13.0654" result="effect1_foregroundBlur_5335_15913"/>
</filter>
<filter id="filter1_f_5335_15913" x="-25.7417" y="-4.03171" width="128.209" height="100.152" filterUnits="userSpaceOnUse" color-interpolation-filters="sRGB">
<feFlood flood-opacity="0" result="BackgroundImageFix"/>
<feBlend mode="normal" in="SourceGraphic" in2="BackgroundImageFix" result="shape"/>
<feGaussianBlur stdDeviation="10.508" result="effect1_foregroundBlur_5335_15913"/>
</filter>
<clipPath id="clip0_5335_15913">
<path d="M0 5.3617C0 2.40052 2.40052 0 5.3617 0L42.6383 0C45.5995 0 48 2.40052 48 5.3617V42.6383C48 45.5995 45.5995 48 42.6383 48H5.3617C2.40052 48 0 45.5995 0 42.6383L0 5.3617Z" fill="white"/>
</clipPath>
</defs>
</svg>
