<svg width="117" height="135" viewBox="0 0 117 135" fill="none" xmlns="http://www.w3.org/2000/svg">
<path d="M32.7702 105.165L41.6203 117.969L48.2485 113.789L41.8086 100.193L32.7702 105.165Z" fill="url(#paint0_linear_5145_38262)"/>
<path d="M41.8097 100.193L47.0068 111.19L41.1318 100.758L41.8097 100.193Z" fill="url(#paint1_linear_5145_38262)"/>
<path d="M35.2557 107.349L41.2437 115.935L41.8086 115.634L36.7621 106.482L35.2557 107.349Z" fill="url(#paint2_linear_5145_38262)"/>
<path d="M32.055 99.5912L37.9677 96.6914C39.8507 97.1433 41.0558 98.3485 41.7714 100.194C42.4869 102.039 42.6376 103.659 42.261 104.261C42.261 104.261 42.8635 106.295 42.7505 107.764C42.6376 109.044 41.8844 108.818 41.4324 108.366C40.2273 107.199 39.6247 106.822 39.2858 106.973C38.8339 107.161 38.8715 107.801 38.9469 109.534C38.9845 110.4 38.4573 110.324 38.0053 110.136C37.3275 109.872 36.5366 109.119 35.7081 108.065C35.1432 108.065 34.39 107.688 33.4108 106.219C32.0927 104.261 31.7161 102.83 32.0927 99.5912H32.055Z" fill="url(#paint3_linear_5145_38262)"/>
<path d="M31.9798 99.4032C31.5655 100.646 32.6576 101.324 34.4277 100.985C36.1977 100.646 37.9677 99.3279 38.382 98.1228C38.7963 96.88 37.7041 96.2021 35.9341 96.5411C34.1641 96.88 32.394 98.1981 31.9798 99.4032Z" fill="url(#paint4_linear_5145_38262)"/>
<path d="M32.2054 100.609L38.4946 97.3701L37.5531 92.7002L28.8913 97.2571L32.2054 100.609Z" fill="url(#paint5_linear_5145_38262)"/>
<path opacity="0.4" d="M34.9551 97.2939L35.8213 97.0303C35.746 98.1601 35.4447 99.6288 34.7668 100.909C34.6538 100.909 34.5785 100.947 34.4655 100.985C34.2396 101.022 34.0136 101.06 33.8253 101.06C34.6162 99.7041 34.9551 98.0471 34.9928 97.2939H34.9551Z" fill="#35BE9F"/>
<path opacity="0.4" d="M32.5444 97.671L33.3729 97.332C33.4105 98.3865 33.2599 99.7046 32.808 100.947C32.5444 100.872 32.3561 100.759 32.2054 100.608L32.1678 100.571C32.5067 99.441 32.6197 98.2735 32.582 97.7086L32.5444 97.671Z" fill="#35BE9F"/>
<path opacity="0.4" d="M36.1597 100.345C36.8376 98.8384 36.8753 97.0307 36.7999 96.2399L37.5908 95.8633C37.7038 96.9554 37.6285 98.3489 37.2142 99.667C36.9129 99.9306 36.5363 100.157 36.1597 100.345Z" fill="#35BE9F"/>
<path d="M31.6792 94.357L33.7129 93.2272L27.16 80.498L25.1264 81.5525L31.6792 94.357Z" fill="#7C89F7"/>
<path d="M27.5734 96.3144C26.7826 98.5364 28.7409 99.8168 31.9797 99.139C35.1808 98.4611 38.4196 96.1261 39.1728 93.8665C39.926 91.6446 37.9676 90.4018 34.8042 91.042C31.6031 91.7199 28.402 94.0548 27.6111 96.2768L27.5734 96.3144Z" fill="#2AD772"/>
<path d="M24.6742 97.8963L40.6045 89.498L39.1734 93.829L29.0805 99.1767L24.6742 97.8963Z" fill="#2AD772"/>
<path d="M31.3397 97.3682L33.4863 98.7239C32.9967 98.9122 32.5072 99.0629 31.9799 99.1759C31.3397 99.3265 30.7371 99.3642 30.2099 99.3642L26.2932 97.8201L31.302 97.3682H31.3397Z" fill="#0EB855"/>
<path d="M22.5273 93.4904C21.2845 96.9551 24.335 98.9511 29.3438 97.8966C34.3526 96.8421 39.3238 93.1891 40.5289 89.762C41.6964 86.3349 38.6459 84.4143 33.7124 85.4311C28.7789 86.4479 23.7701 90.0633 22.5273 93.528V93.4904Z" fill="url(#paint6_linear_5145_38262)"/>
<path d="M10.7015 72.8898L28.3641 63.6631L31.9795 64.7929L9.38336 76.5805L10.7015 72.8898Z" fill="#2327A1"/>
<path d="M11.3418 70.63L25.5397 62.9473L28.3643 63.6628L10.7016 72.8896L11.3418 70.63Z" fill="#2327A1"/>
<path d="M22.8278 96.7292L40.6411 87.5024L34.6155 67.2412L9.79738 80.008L22.8278 96.7292Z" fill="url(#paint7_linear_5145_38262)"/>
<g style="mix-blend-mode:multiply" opacity="0.2">
<path d="M29.3439 97.8972C27.9128 98.1985 26.6324 98.2362 25.5402 98.0856L13.5643 81.1008L20.6821 79.2178L31.3022 97.3323C30.662 97.5583 29.9841 97.7466 29.3063 97.8972H29.3439Z" fill="#5969F4"/>
</g>
<path d="M11.9067 82.6441C12.8482 84.4895 15.748 85.2427 19.9283 84.4142C26.3306 83.0961 33.1847 78.4639 35.256 74.1329C35.3314 73.9823 35.4067 73.8317 35.4443 73.681L35.1054 72.5889C35.0301 72.7395 34.9548 72.9278 34.8794 73.0785C32.7705 77.5224 25.8033 82.1922 19.2881 83.5103C15.8234 84.2259 13.2248 83.8493 11.869 82.6441H11.9067Z" fill="#35EA80"/>
<path d="M9.8358 75.4895C7.53852 80.1217 11.1539 82.758 17.9327 81.4022C24.6739 80.0088 31.9047 75.1506 34.089 70.5937C36.2733 66.0368 32.6202 63.4759 25.992 64.794C19.3262 66.1121 12.0954 70.895 9.79814 75.4895H9.8358Z" fill="#2327A1"/>
<path d="M9.57178 76.1291L10.7016 72.8903L11.3418 70.6307L12.8105 69.8398L10.1367 80.347C9.11985 79.3679 8.89389 77.8991 9.57178 76.1291Z" fill="#4A57E6"/>
<path d="M10.9275 73.1161C9.04445 76.9575 12.0196 79.1417 17.631 78.0119C23.2047 76.8821 29.2303 72.8525 31.038 69.0865C32.8457 65.3204 29.8329 63.1738 24.3345 64.266C18.7985 65.3581 12.8105 69.3124 10.9275 73.1161Z" fill="#35EA80"/>
<path d="M10.5884 73.9446C10.6638 73.681 10.7767 73.4173 10.9274 73.1161C12.8104 69.3124 18.836 65.3581 24.3344 64.2659C26.5187 63.814 28.2887 63.8893 29.5315 64.3789C30.7743 65.2074 31.0756 66.6385 30.2094 68.4462C28.477 72.0616 22.7904 75.8653 17.4803 76.9574C13.0364 77.8613 10.2872 76.5431 10.5884 73.9446Z" fill="#0EB855"/>
<path d="M11.041 71.9492C9.27096 75.5269 12.0955 77.5982 17.3302 76.5437C22.565 75.4892 28.2141 71.7232 29.9088 68.1455C31.6035 64.6054 28.779 62.6094 23.6195 63.6262C18.4224 64.6807 12.7734 68.3714 11.0033 71.9492H11.041Z" fill="#2327A1"/>
<path d="M12.2833 70.1406L12.8105 69.877L11.3041 75.7896C10.4003 74.9234 10.2497 73.6053 11.0782 71.9859C11.3795 71.3834 11.7937 70.7431 12.321 70.1406H12.2833Z" fill="#4A57E6"/>
<path d="M29.3436 73.0407L33.5239 70.3291L28.3268 68.2578L25.314 70.2161L29.3436 73.0407Z" fill="#2327A1"/>
<path d="M12.5473 78.6527L17.2925 78.7657L16.8029 74.623L12.8862 74.7737L12.5473 78.6527Z" fill="#2327A1"/>
<path d="M11.7558 69.6137C10.0988 72.5136 12.1701 74.2459 16.3504 73.4551C20.5307 72.6642 25.2382 69.6514 26.8576 66.7515C28.4393 63.8517 26.4057 62.1947 22.263 62.9479C18.1204 63.7387 13.4129 66.7139 11.7558 69.6137Z" fill="#434FD1"/>
<path d="M12.472 69.4625C10.8526 72.1364 12.6603 73.7181 16.464 73.0025C20.2676 72.287 24.5986 69.5378 26.1803 66.8639C27.7244 64.2277 25.9543 62.6836 22.1883 63.3615C18.4223 64.0771 14.0914 66.7886 12.472 69.4625Z" fill="#B57AF5"/>
<path d="M15.409 70.5926C16.4258 68.7849 19.401 66.9019 21.9995 66.4123C24.2968 65.9604 25.5773 66.7512 25.163 68.1823C23.167 70.3666 19.6269 72.3626 16.4635 73.0028C16.3882 73.0028 16.2752 73.0028 16.1999 73.0405C15.0701 72.7392 14.7311 71.8354 15.409 70.6302V70.5926Z" fill="#FF4CD2"/>
<path d="M12.3972 72.4759C11.9453 71.8357 12.0206 70.9319 12.6985 69.8021C14.2425 67.2035 18.4981 64.5296 22.1888 63.8517C25.2017 63.2868 26.934 64.2283 26.5574 66.036C27.273 63.9271 25.5029 62.7596 22.1888 63.3998C18.4228 64.1154 14.0919 66.8269 12.4725 69.5008C11.6816 70.8189 11.7193 71.8734 12.3972 72.5136V72.4759Z" fill="#FBE6FF"/>
<path d="M25.1636 67.3542L23.0169 68.597L22.3767 67.6554L23.8831 66.375C24.6363 66.375 25.1636 66.8269 25.1636 67.3542Z" fill="#5F2BAC"/>
<path d="M18.1207 70.9693L19.8154 71.3836V71.8731C18.8739 72.2874 17.9324 72.6264 16.9909 72.8523L18.1207 70.9316V70.9693Z" fill="#5F2BAC"/>
<path d="M23.9204 69.35C23.1672 69.9902 22.2634 70.5928 21.3595 71.12L21.0582 70.5551L21.9997 69.124L23.9204 69.3876V69.35Z" fill="#5F2BAC"/>
<path d="M15.2581 70.5919C15.3334 70.479 15.4087 70.3283 15.6347 70.2153L17.4424 69.9141L17.7437 71.0062L15.1074 71.9854C14.8815 71.7971 14.9945 71.1192 15.2957 70.5543L15.2581 70.5919Z" fill="#5F2BAC"/>
<path d="M17.5564 68.3713C18.4979 67.5052 19.6278 67.0156 20.6822 66.752L20.9082 68.5973L18.7992 69.6518L17.5188 68.409L17.5564 68.3713Z" fill="#5F2BAC"/>
<path d="M17.1794 70.5547L22.8661 67.6172L23.2051 68.2574L17.5184 71.1949L17.1794 70.5547Z" fill="black"/>
<path d="M17.6315 70.2539C17.0289 71.3083 17.7821 71.9109 19.2885 71.6473C20.7949 71.346 22.4896 70.2915 23.0545 69.237C23.6194 68.1825 22.9039 67.58 21.3975 67.8813C19.8911 68.1825 18.1964 69.237 17.6315 70.2915V70.2539Z" fill="black"/>
<path d="M17.3302 69.6142C16.7276 70.6687 17.4808 71.2713 18.9872 71.0076C20.4937 70.744 22.1884 69.6519 22.7533 68.5974C23.3182 67.5429 22.6026 66.9403 21.0962 67.2416C19.5898 67.5429 17.8951 68.5974 17.3302 69.6519V69.6142Z" fill="#4A57E6"/>
<path d="M15.2214 70.4802C16.2758 68.5972 19.3263 66.6765 22.0379 66.1493C24.4481 65.6974 25.7662 66.5259 25.2766 68.07C25.2766 68.1076 25.2013 68.1453 25.1637 68.183C25.5779 66.7519 24.2975 65.961 22.0002 66.4129C19.4016 66.9025 16.4265 68.7855 15.4097 70.5932C14.7318 71.7983 15.0707 72.7022 16.1252 73.0035C14.8824 72.7398 14.4682 71.7983 15.2214 70.4802Z" fill="#DEC2FC"/>
<path d="M11.7565 69.614C13.4136 66.7142 18.1211 63.739 22.2637 62.9481C26.4064 62.1573 28.4777 63.852 26.8583 66.7518C25.2389 69.6517 20.569 72.6645 16.3511 73.4553C12.1708 74.2462 10.0995 72.5515 11.7565 69.614ZM16.4641 73.0034C20.2677 72.2879 24.5987 69.5387 26.1804 66.8648C27.7245 64.2286 25.9544 62.6845 22.1884 63.3624C18.4224 64.0779 14.0915 66.7895 12.4721 69.4634C10.8527 72.1372 12.6604 73.719 16.4641 73.0034Z" fill="#4A57E6"/>
<path d="M112.535 88.7451L116.828 112.697L109.56 114.58L101.576 92.6994L112.535 88.7451Z" fill="url(#paint8_linear_5145_38262)"/>
<path d="M112.536 88.7451L115.699 106.408L111.67 89.4983L112.536 88.7451Z" fill="url(#paint9_linear_5145_38262)"/>
<path d="M103.157 93.9798L109.07 109.308L109.597 109.195L104.664 93.4902L103.157 93.9798Z" fill="url(#paint10_linear_5145_38262)"/>
<path d="M85.6069 66.4875C83.6109 69.0107 79.9579 62.6838 76.0412 67.1277" stroke="#2D35AD" stroke-width="3.26791" stroke-miterlimit="10"/>
<path d="M64.744 84.3381L89.8257 72.6635L88.7712 68.0312L62.409 73.9439L64.744 84.3381Z" fill="#00933D"/>
<path d="M63.1994 77.371L89.2603 70.1779L88.7707 68.0312L62.4085 73.9439L63.1994 77.371Z" fill="black"/>
<path d="M62.7113 75.3373L88.9604 68.9351L88.7721 68.0312L62.41 73.9439L62.7113 75.3373Z" fill="#161A8A"/>
<path d="M63.1992 77.3718L89.2601 70.1787L89.373 70.6683L63.3498 78.012L63.1992 77.3718Z" fill="#0EB855"/>
<path d="M86.0981 67.4293L89.3369 73.4926L88.6967 73.6432C88.5084 73.6809 88.3201 73.6055 88.2448 73.4172L85.4579 68.1825C85.3073 67.8812 85.4579 67.5422 85.7969 67.4669L86.0981 67.3916V67.4293Z" fill="black"/>
<path d="M84.4407 66.9772C84.8549 68.107 85.4198 68.1447 86.0224 67.9187C86.625 67.6928 87.0016 67.2785 86.5496 66.1863C86.0977 65.0942 85.5705 65.0189 84.9679 65.2448C84.403 65.4708 83.9887 65.8851 84.4407 66.9772Z" fill="black"/>
<path d="M102.366 86.0329L109.07 83.8486C111.517 85.1291 112.421 87.3134 112.647 89.5353C112.76 90.8534 112.647 91.9456 112.158 92.2092C112.158 92.6235 112.158 93.4143 111.932 94.1299C111.743 94.8831 111.066 94.5441 110.727 94.4688C110.388 94.3935 110.049 94.8078 109.936 95.4856C109.672 97.6699 109.559 97.9336 109.22 98.0089C108.768 98.0842 108.166 97.4063 106.885 95.9752C106.32 95.3727 105.944 94.9961 105.944 95.9752C105.944 97.3687 105.868 97.8582 105.529 97.8959C104.852 97.9336 103.609 96.6154 102.592 95.0337C100.521 91.682 101.349 88.4432 102.366 85.9953V86.0329Z" fill="url(#paint11_linear_5145_38262)"/>
<path d="M102.592 85.8821C101.914 87.0872 102.931 88.0287 104.851 88.0287C106.772 88.0287 108.881 87.0119 109.559 85.8068C110.237 84.6017 109.22 83.6602 107.299 83.6602C105.379 83.6602 103.27 84.677 102.592 85.8821Z" fill="url(#paint12_linear_5145_38262)"/>
<path d="M102.555 87.2009L109.786 85.0919L109.748 80.0078L99.8062 83.0583L102.555 87.2009Z" fill="url(#paint13_linear_5145_38262)"/>
<path opacity="0.4" d="M106.094 84.3005L107.036 84.1875C106.734 85.3926 106.132 86.8237 105.153 88.0288C105.04 88.0288 104.927 88.0288 104.851 88.0288C104.588 88.0288 104.362 88.0288 104.136 87.9912C105.266 86.7484 105.906 85.0537 106.094 84.3005Z" fill="#35BE9F"/>
<path opacity="0.4" d="M103.534 84.2264L104.476 84.0381C104.325 85.1302 103.911 86.486 103.157 87.6911C102.894 87.5405 102.706 87.3898 102.593 87.2015L102.555 87.1262C103.157 85.9964 103.496 84.829 103.572 84.2264H103.534Z" fill="#35BE9F"/>
<path opacity="0.4" d="M106.773 87.7281C107.752 86.297 108.204 84.3763 108.242 83.5478L109.183 83.2842C109.108 84.4516 108.731 85.8827 108.016 87.2008C107.639 87.3891 107.225 87.5774 106.773 87.7281Z" fill="#35BE9F"/>
<path d="M98.4877 81.8158C97.2449 84.0001 99.0903 85.7325 102.593 85.6948C106.095 85.6948 109.936 83.8495 111.179 81.7028C112.422 79.5562 110.577 77.7862 107.074 77.8238C103.572 77.8238 99.7305 79.6692 98.4877 81.8158Z" fill="#2AD772"/>
<path d="M95.1745 82.87L113.553 77.334L111.218 81.6273L99.5431 85.1297L95.1745 82.87Z" fill="#2AD772"/>
<path d="M111.896 79.443L113.553 77.334L111.218 81.6273C111.218 81.6273 111.218 81.6649 111.218 81.7026C110.879 82.3051 110.314 82.9077 109.598 83.4349L111.933 79.4806L111.896 79.443Z" fill="#63F9B3"/>
<path d="M97.735 83.6614L100.559 85.4691C101.162 85.6197 101.84 85.695 102.593 85.695C103.12 85.695 103.61 85.6574 104.137 85.5821L103.271 83.5107L97.735 83.6614Z" fill="#0EB855"/>
<path d="M100.973 64.8955L105.506 79.8135L103.128 80.536L98.5952 65.618L100.973 64.8955Z" stroke="#FF33BB" stroke-width="0.163396" stroke-miterlimit="10"/>
<path d="M93.668 77.7854C91.7473 81.1748 94.6095 83.8863 100.07 83.811C105.531 83.7357 111.519 80.9488 113.44 77.5594C115.36 74.17 112.498 71.4584 107.037 71.5338C101.577 71.6091 95.5887 74.3959 93.668 77.7854Z" fill="url(#paint14_linear_5145_38262)"/>
<path d="M93.4409 81.2506L114.003 75.2249L111.593 52.1016L82.5571 60.8011L93.4409 81.2506Z" fill="url(#paint15_linear_5145_38262)"/>
<g style="mix-blend-mode:overlay" opacity="0.2">
<path d="M114.003 75.2245C114.079 75.9401 113.89 76.7309 113.438 77.5595C113.062 78.1997 112.572 78.8399 111.932 79.4048L108.241 57.8631L109.409 52.7414L111.631 52.0635L114.041 75.2245H114.003Z" fill="#8FFABA"/>
</g>
<g style="mix-blend-mode:multiply" opacity="0.2">
<path d="M100.069 83.8118C99.2409 83.8118 98.45 83.7741 97.7345 83.6612L88.809 63.8519L96.1527 63.3623L103.271 83.4729C102.216 83.6612 101.124 83.7742 100.069 83.8118Z" fill="#5969F4"/>
</g>
<path d="M85.834 50.9716L102.593 45.4355L105.493 46.8666L84.7419 53.2689L85.834 50.9716Z" fill="#2327A1"/>
<path d="M84.7416 53.2694L105.492 46.8672L109.183 48.8632L82.7456 57.0354L84.7416 53.2694Z" fill="#2327A1"/>
<path d="M92.576 67.6175C99.6185 67.5422 107.828 64.0022 110.879 59.7466C110.992 59.5959 111.105 59.4453 111.18 59.2946L110.615 53.9092C109.222 52.7794 106.812 52.1015 103.686 52.1392C96.6433 52.2145 88.4334 55.7546 85.3829 60.0102C82.2948 64.3034 85.5336 67.6929 92.576 67.6175Z" fill="#35EA80"/>
<path d="M84.4028 64.1524C85.4573 65.9224 88.2442 67.0522 92.3491 67.0146C99.4293 66.9392 107.677 63.3992 110.765 59.0682C110.916 58.8799 111.029 58.6916 111.142 58.5033L110.652 53.8711C109.259 52.7413 106.848 52.0634 103.723 52.1011C96.6801 52.1764 88.4701 55.7165 85.4197 59.9721C84.3275 61.5162 84.0262 62.9096 84.4405 64.0771L84.4028 64.1524Z" fill="#0EB855"/>
<path d="M84.8166 58.8051C81.6908 63.1736 84.9672 66.6384 92.1227 66.5631C99.2781 66.4877 107.639 62.91 110.764 58.5414C113.89 54.1729 110.614 50.7081 103.458 50.7834C96.303 50.8588 87.9424 54.4365 84.8166 58.8051Z" fill="#161A8A"/>
<path d="M83.4238 55.9051C80.185 60.4243 83.5744 64.0397 91.0312 63.9644C98.4879 63.8891 107.15 60.1607 110.389 55.6415C113.627 51.1223 110.238 47.5069 102.781 47.5822C95.3244 47.6575 86.6626 51.3859 83.4238 55.9051Z" fill="#2327A1"/>
<path d="M110.351 55.6416C111.255 54.3612 111.669 53.156 111.556 52.1016L111.895 55.378C111.895 56.3572 111.518 57.4117 110.728 58.5415C110.2 59.2947 109.485 60.0102 108.694 60.6881L108.393 58.5791C108.317 58.1272 108.506 57.6753 108.845 57.3363C109.447 56.7714 109.937 56.2065 110.389 55.604L110.351 55.6416Z" fill="#2D35AD"/>
<path d="M91.0692 53.2691L95.4001 53.5704L96.078 62.7218C96.078 63.1738 96.191 63.6257 96.3416 64.0399L97.0195 65.9983C95.3625 66.3372 93.6678 66.5255 92.0484 66.5632C91.2952 66.5632 90.5796 66.5632 89.9017 66.4502L89.2239 64.9061C88.9226 64.2282 88.8473 63.4374 88.9979 62.7218L91.0316 53.2314L91.0692 53.2691Z" fill="#161A8A"/>
<path d="M84.9677 53.5705C82.2562 57.3365 85.0807 60.3116 91.257 60.274C97.4333 60.2363 104.626 57.1105 107.338 53.3445C110.049 49.5785 107.225 46.6033 101.049 46.641C94.8724 46.7163 87.6793 49.8044 84.9677 53.5705Z" fill="#35EA80"/>
<path d="M84.9675 53.5701C87.679 49.8041 94.8345 46.7159 101.048 46.6406C103.835 46.6406 105.982 47.2055 107.187 48.2224C107.94 49.3522 107.827 50.8209 106.697 52.4026C104.099 56.018 97.1694 59.0308 91.2191 59.0685C86.8128 59.1062 84.1766 57.5244 84.139 55.2272C84.2896 54.6999 84.5909 54.0973 85.0051 53.5324L84.9675 53.5701Z" fill="#0EB855"/>
<path d="M85.3065 52.3282C82.7832 55.8683 85.4194 58.6928 91.2191 58.6175C97.0188 58.5422 103.798 55.6423 106.321 52.1023C108.844 48.5622 106.208 45.7377 100.408 45.813C94.6085 45.8883 87.8297 48.7882 85.3065 52.3282Z" fill="#2327A1"/>
<path d="M91.2577 58.6163C90.8058 58.6163 90.3538 58.6163 89.9396 58.5786L91.0694 53.2686L95.4003 53.5698L95.7393 58.0891C94.2328 58.428 92.6888 58.6163 91.22 58.654L91.2577 58.6163Z" fill="#161A8A"/>
<path d="M99.0146 61.5923L104.023 59.4833L100.898 53.9473L97.2823 55.4537L99.0146 61.5923Z" fill="#2327A1"/>
<path d="M87.2645 49.9169C85.0802 52.5155 86.6996 54.5868 90.8798 54.5868C95.0601 54.5868 100.257 52.4778 102.479 49.9169C104.663 47.3184 103.044 45.2471 98.8638 45.2471C94.6835 45.2471 89.4864 47.356 87.2645 49.9169Z" fill="#7C89F7"/>
<path d="M103.195 46.7535L100.634 49.5403H97.9601C97.9601 49.5027 98.6003 45.2471 98.6003 45.2471C98.6756 45.2471 98.7886 45.2471 98.8639 45.2471C101.086 45.2471 102.592 45.8496 103.195 46.7911V46.7535Z" fill="#A0A9FA"/>
<path d="M90.2406 51.7632C91.6717 49.9932 95.2118 48.5244 98.1116 48.5244C101.011 48.5244 101.915 49.6542 101.162 51.123C98.6012 53.119 94.4209 54.5501 90.9185 54.5501C87.4161 54.5501 90.7302 54.5501 90.6549 54.5501C89.4874 53.9851 89.2615 52.9307 90.2406 51.7255V51.7632Z" fill="#35EA80"/>
<path d="M89.8633 53.9851C89.7127 53.4579 89.8633 52.8553 90.4282 52.1775C91.8593 50.4074 95.3994 48.9387 98.2992 48.9387C101.199 48.9387 100.86 49.3153 101.312 49.9555C101.048 49.0893 99.9186 48.5244 98.1109 48.5244C95.2111 48.5244 91.671 49.9555 90.2399 51.7632C89.562 52.6294 89.449 53.3826 89.901 53.9851H89.8633Z" fill="#0EB855"/>
<path d="M86.6622 53.1934C86.2856 52.4025 86.5115 51.4233 87.453 50.3312C89.5997 47.808 94.6461 45.7743 98.7511 45.7743C102.856 45.7743 103.835 47.1677 103.082 49.0884C104.287 46.9041 102.592 45.2471 98.8641 45.2471C95.1357 45.2471 89.4867 47.356 87.3024 49.9169C86.2103 51.1974 86.0596 52.3649 86.6998 53.1934H86.6622Z" fill="#FBE6FF"/>
<path d="M101.351 50.2562L98.7897 51.16L98.2624 49.9925L100.145 48.9004C101.049 49.1264 101.313 49.6913 101.351 50.2562Z" fill="#000473"/>
<path d="M96.6421 48.6367L96.5668 50.708L94.0812 51.4236L92.9514 49.7665C94.0812 49.0133 95.437 48.712 96.6421 48.6367Z" fill="#000473"/>
<path d="M93.1016 52.7412L94.834 53.5697L94.721 54.097C93.8172 54.5866 92.4991 54.6995 91.5199 54.5866L93.1016 52.7412Z" fill="#000473"/>
<path d="M99.6182 52.1769C98.752 52.8925 97.6598 53.2691 96.53 53.5703L96.3041 52.8925L97.5845 51.499L99.5805 52.1769H99.6182Z" fill="#000473"/>
<path d="M90.09 51.7618C90.1653 51.6488 90.3159 51.4982 90.5419 51.4229H92.5379C92.5379 51.4605 92.6509 52.741 92.6509 52.741L89.6381 53.2682C89.5251 52.8163 89.6381 52.3267 90.09 51.7995V51.7618Z" fill="#161A8A"/>
<path d="M92.1234 52.0639L98.8269 50.0303L99.0529 50.8211C99.1282 51.1224 99.0529 51.4614 98.714 51.838C97.8854 52.8548 95.8518 53.6833 94.1947 53.6833C92.5377 53.6833 92.4624 53.3444 92.3494 52.8548L92.1234 52.0639Z" fill="black"/>
<path d="M98.8133 49.9826L99.0542 50.7754L92.3519 52.8117L92.1111 52.019L98.8133 49.9826Z" fill="black"/>
<path d="M98.5257 50.1055L98.9399 51.4989C98.9023 51.6119 98.827 51.7249 98.714 51.8378C98.6387 51.9508 98.5257 52.0261 98.4504 52.1391L97.8855 50.2938L98.5257 50.1055Z" fill="#006329"/>
<path d="M96.9438 53.1186C96.0777 53.4952 95.0985 53.7211 94.2323 53.7211C93.3661 53.7211 93.5544 53.6835 93.2908 53.6081L92.7636 51.8758L96.2283 50.8213L96.9062 53.1186H96.9438Z" fill="#1D0066"/>
<path d="M92.4624 51.0846C91.6339 52.1014 92.3118 52.93 94.0065 52.93C95.7012 52.93 97.6972 52.1014 98.5257 51.0846C99.3542 50.0678 98.6764 49.2393 96.9816 49.2393C95.2869 49.2393 93.2909 50.0678 92.4624 51.0846Z" fill="#4A57E6"/>
<path d="M93.6675 52.8547C95.3999 52.8547 97.4712 51.9885 98.2997 50.934C98.7517 50.3691 98.7517 49.8795 98.4127 49.5029C98.94 49.8419 99.0529 50.4068 98.5257 51.047C97.6972 52.0638 95.6635 52.8923 94.0065 52.8923C92.3494 52.8923 93.2533 52.8547 92.9896 52.7417C93.1779 52.7417 93.4039 52.7794 93.6675 52.7794V52.8547Z" fill="#A0A9FA"/>
<path d="M86.4744 49.9553C88.7717 47.0932 94.3831 44.7959 99.0153 44.7959C103.648 44.7959 105.568 47.0932 103.271 49.9553C100.974 52.8175 95.3623 55.1148 90.7301 55.1148C86.0978 55.1148 84.1772 52.8175 86.4744 49.9553ZM90.9184 54.5876C95.1363 54.5876 100.296 52.4786 102.518 49.9177C104.702 47.3191 103.083 45.2478 98.8647 45.2478C94.6467 45.2478 89.4873 47.3568 87.2653 49.9177C85.081 52.5162 86.7004 54.5876 90.9184 54.5876Z" fill="#434FD1"/>
<path d="M86.4744 49.9553C88.7717 47.0932 94.3831 44.7959 99.0153 44.7959C103.648 44.7959 105.568 47.0932 103.271 49.9553C100.974 52.8175 95.3623 55.1148 90.7301 55.1148C86.0978 55.1148 84.1772 52.8175 86.4744 49.9553ZM90.9184 54.5876C95.1363 54.5876 100.296 52.4786 102.518 49.9177C104.702 47.3191 103.083 45.2478 98.8647 45.2478C94.6467 45.2478 89.4873 47.3568 87.2653 49.9177C85.081 52.5162 86.7004 54.5876 90.9184 54.5876Z" fill="#434FD1"/>
<path d="M103.007 50.0683C105.267 47.2438 103.384 44.9465 98.789 44.9465C94.1945 44.9465 89.374 46.9425 86.8507 49.5034C89.3363 46.8672 94.6087 44.7959 99.015 44.7959C103.421 44.7959 105.568 47.0932 103.271 49.9553C102.254 51.2358 100.521 52.4033 98.5254 53.3071C100.408 52.4409 102.028 51.3111 103.007 50.0683Z" fill="#A0A9FA"/>
<path d="M90.5793 54.55C89.2989 53.9851 89.0353 52.893 90.0521 51.6125C91.5208 49.7672 95.1739 48.2607 98.1867 48.2607C101.2 48.2607 102.141 49.4659 101.312 51.0476C101.275 51.0476 101.237 51.1229 101.162 51.1606C101.877 49.6918 100.672 48.562 98.1114 48.562C95.5505 48.562 91.6715 49.9931 90.2404 51.8008C89.2989 52.9683 89.4872 54.0228 90.5793 54.5877V54.55Z" fill="#FBE6FF"/>
<path d="M110.69 50.9343C110.351 50.5953 109.936 50.3694 109.485 50.1434C109.108 49.9551 108.807 49.6538 108.656 49.2772C108.392 48.6747 107.903 48.2604 107.413 47.8838L109.221 48.863C111.857 50.294 112.46 52.7796 110.388 55.6418C109.974 56.2067 109.485 56.7716 108.882 57.3365C110.69 55.5665 112.271 52.403 110.69 50.9343Z" fill="#4A57E6"/>
<path d="M43.5036 85.0916C44.0308 88.0667 42.0349 89.7238 38.9091 89.9874C38.7584 90.7029 38.1935 91.3055 35.595 92.4353L30.5485 84.9409C31.6406 83.8488 32.9964 83.0956 34.1639 82.6436C34.9924 81.0996 38.4571 79.4049 40.7167 80.8736C42.3738 81.9658 43.2023 83.2839 43.5036 85.1292V85.0916Z" fill="#A0A9FA"/>
<path d="M37.5165 89.3101C36.3867 88.2932 34.2401 85.2804 34.2024 82.6065C35.031 81.0625 38.4957 79.3678 40.7553 80.8365C42.4124 81.9287 43.2409 83.2468 43.5422 85.0921C44.0694 88.0673 42.0734 89.7243 38.9476 89.9879C38.5334 89.9879 38.0814 89.875 37.5165 89.3477V89.3101Z" fill="#A0A9FA"/>
<path d="M34.1637 82.6064C34.7663 81.5519 36.574 80.3845 38.4193 80.2715H38.4946C35.8961 80.6104 34.6156 83.322 34.4273 84.2258C33.0716 84.6401 31.9794 85.5063 31.3768 86.0712L30.586 84.9037C31.6781 83.8115 33.0339 83.0583 34.2014 82.6064H34.1637Z" fill="#CACEFC"/>
<path d="M42.8266 82.9834C43.1656 83.586 43.3915 84.3015 43.5422 85.0547C44.0694 88.0299 42.0734 89.6869 38.9476 89.9505C38.797 90.6661 38.2321 91.2686 35.6335 92.3985L33.8258 89.6869C33.8258 89.6869 35.3699 89.009 36.3867 88.0675C39.1736 86.5988 40.4164 85.6949 42.8266 82.9834Z" fill="#7C89F7"/>
<path d="M34.7665 85.2422C35.482 87.0499 36.7248 88.6316 37.5157 89.3472C38.1183 89.8744 38.5325 90.025 38.9468 89.9874C38.9468 90.1004 38.8715 90.2133 38.8338 90.3263C36.8378 90.6653 35.0678 86.8239 34.7665 85.2799V85.2422Z" fill="#5D6CEF"/>
<path d="M41.658 88.5188C41.658 88.4812 41.7709 88.3683 41.8462 88.293C41.8462 88.3306 41.7709 88.4059 41.658 88.5188Z" fill="#FE72DD"/>
<path d="M35.5947 92.3589L35.4817 92.1706C36.9128 91.7187 38.4568 90.5512 38.7205 89.9487C39.6243 89.9487 41.093 89.2331 41.6203 88.5176L41.8086 89.1201C41.0554 89.5721 40.0386 89.8733 38.9088 89.9487C38.7581 90.6642 38.1932 91.2668 35.5947 92.3966V92.3589Z" fill="#BBFFE1"/>
<path d="M32.5825 95.1472C32.5071 95.1472 32.4318 95.2226 32.3565 95.2226C31.302 95.4485 29.2684 93.6785 27.7619 91.1553C26.3309 88.7073 25.8413 86.4101 26.6698 85.8828C27.4983 85.3556 28.2892 84.866 29.0424 84.4517C29.7956 84.0375 30.1345 83.8868 30.8124 84.2258C32.3188 84.9413 34.2772 87.5399 35.068 89.4605C35.8589 91.4189 36.1602 92.8123 35.4446 93.3395C34.3148 94.1681 32.8461 94.9966 32.5071 95.1472H32.5825Z" fill="#434FD1"/>
<path d="M32.244 93.679L30.8882 90.9675L34.8425 88.7832C34.9555 89.0092 35.0685 89.2351 35.1438 89.4611C35.4828 90.2896 35.7464 91.0428 35.8594 91.6454L32.244 93.679Z" fill="#2D35AD"/>
<path d="M26.7074 85.8828C27.5359 85.3556 28.3268 84.866 29.08 84.4517C29.8332 84.0375 30.1721 83.8868 30.85 84.2258C31.076 84.3387 31.2643 84.4517 31.4902 84.64L26.4814 87.5022L26.2931 87.1256C26.2931 86.5607 26.4061 86.1464 26.7074 85.9205V85.8828Z" fill="#4957E3"/>
<path d="M30.436 84.0371L26.4064 86.2967C26.4817 86.1084 26.5947 85.9578 26.7077 85.8825C27.5362 85.3552 28.3271 84.8656 29.0803 84.4514C29.6452 84.1501 29.9841 83.9618 30.3984 84.0371H30.436Z" fill="#35E97F"/>
<path d="M29.9462 93.9417C30.8877 94.8456 31.7915 95.3351 32.3564 95.2222C32.4317 95.2222 32.5071 95.1845 32.5824 95.1468C32.9213 94.9585 34.3901 94.13 35.5199 93.3391C35.7458 93.1885 35.8588 92.9249 35.8965 92.5859C35.8212 92.7366 35.7458 92.8872 35.5952 92.9625C34.3901 93.8287 32.7707 94.7326 32.4317 94.9209C32.3564 94.9585 32.2811 94.9962 32.2058 94.9962C31.6409 95.1092 30.8124 94.7326 29.9462 93.9417Z" fill="#35E97F"/>
<path d="M31.7911 90.2143C30.2847 87.5404 28.1004 85.4691 26.9706 85.7704C25.8408 86.0717 26.255 88.5196 27.7991 91.1558C29.3055 93.679 31.3015 95.449 32.3936 95.2231C33.4481 94.9971 33.2222 92.8128 31.7911 90.2143Z" fill="#606DEB"/>
<path d="M31.8672 90.5897C30.4361 88.1418 28.2518 86.2588 27.122 86.56C25.9922 86.8237 26.3688 89.1209 27.8752 91.5312C29.3439 93.8285 31.3023 95.4479 32.3944 95.2219C33.4489 94.9959 33.2606 92.9623 31.8672 90.6273V90.5897Z" fill="#161A8A"/>
<path d="M21.2461 94.131C21.3214 92.5493 21.3967 92.248 22.0746 91.3065C23.6563 89.0469 25.5393 87.5405 26.8951 86.6366C26.9704 86.599 27.0457 86.5613 27.1211 86.5236C28.1002 86.2977 30.0209 88.143 31.3767 90.5156C32.6571 92.7752 32.8078 94.5453 31.9792 94.8465C31.226 95.1478 30.2845 95.1102 29.7196 95.0725C29.9079 96.5789 29.0417 97.7464 27.0834 98.9138C25.0121 100.157 23.3927 99.2151 22.3382 97.897C21.3214 96.5789 21.1707 95.788 21.2461 94.0933V94.131Z" fill="#434FD1"/>
<path d="M27.574 88.7074C27.1974 88.1048 27.0091 87.8788 28.0635 86.749C29.0804 87.3139 30.3985 88.745 31.3776 90.515C32.6581 92.7747 32.8087 94.5447 31.9802 94.846C31.3776 95.0719 30.6244 95.1096 30.0595 95.1096L28.3648 91.3059C28.6284 91.1929 28.7038 90.5904 27.574 88.7074Z" fill="#232B9E"/>
<path d="M27.4229 93.6788V94.2437C26.0294 94.1308 25.2009 93.3776 24.862 92.7373C24.7866 92.5867 24.9373 92.5867 25.0879 92.6997C25.6152 93.1139 26.4437 93.5282 27.3852 93.6788H27.4229Z" fill="#1D0066"/>
<path d="M29.7949 93.6408L30.2091 94.055C31.1506 93.0382 31.2636 91.9084 31.0753 91.2305C31.0377 91.0799 30.887 91.1552 30.8494 91.3435C30.7364 92.0214 30.3974 92.8876 29.7949 93.6408Z" fill="#1D0066"/>
<path d="M22.3385 97.9346C22.2255 97.7839 22.1125 97.6709 22.0372 97.5203C21.8865 97.2567 21.9619 97.0684 22.4138 96.4658C22.8657 95.9009 23.5059 95.4113 24.711 95.0347C25.9162 94.6581 26.5564 94.2439 27.0083 93.5283L29.7575 95.0724C29.9458 96.5788 29.0796 97.7463 27.1213 98.9137C25.05 100.157 23.4306 99.215 22.3761 97.8969L22.3385 97.9346Z" fill="#A0A9FA"/>
<path d="M26.9712 93.5654L29.7204 95.1095C29.7957 95.6744 29.7204 96.2016 29.4567 96.6912C27.2348 96.164 26.5946 95.4861 26.4816 94.8835C26.4063 94.5446 26.4816 94.2057 26.7452 93.942C26.8205 93.8291 26.9335 93.7161 27.0088 93.6031L26.9712 93.5654Z" fill="#7C89F7"/>
<path d="M30.8872 93.4142C30.8119 93.1882 30.7366 92.9623 30.7366 92.7363C30.6989 91.9454 30.4729 91.5688 30.1717 91.3429C29.7197 91.0416 28.7406 90.8909 27.6108 91.7571C26.9706 92.2467 26.5563 92.9999 26.6693 93.5272C26.7823 94.0544 27.1589 94.431 27.7991 94.9582C28.4393 95.4855 28.9289 95.8621 29.4938 96.088C30.0587 96.314 30.5859 95.9751 31.1132 95.3725C31.5651 94.8453 31.2638 94.2427 30.9249 93.4142H30.8872Z" fill="#A0A9FA"/>
<path d="M21.2455 94.1307C21.3208 92.549 21.3962 92.2477 22.074 91.3062C23.5428 89.2349 25.2752 87.8038 26.5933 86.8623C23.8817 88.783 22.6766 91.0049 22.2247 91.8335C21.7728 92.6996 21.4715 93.9801 21.4715 95.1099C21.4715 96.0891 21.4715 96.5786 21.8104 97.1435C21.2832 96.2397 21.2079 95.4488 21.2832 94.0931L21.2455 94.1307Z" fill="#80AF9A"/>
<path d="M21.9985 97.521C21.9985 97.4831 21.9606 97.4451 21.9227 97.4072C21.9227 97.4451 21.9606 97.4831 21.9985 97.521Z" fill="#707EFF"/>
<path d="M73.7827 111.077L82.3315 127.271L93.2153 122.074L85.5703 101.851L73.7827 111.077Z" fill="url(#paint16_linear_5145_38262)"/>
<path d="M75.063 111.906L80.825 122.338L81.5405 122.112L77.059 112.81L75.063 111.906Z" fill="url(#paint17_linear_5145_38262)"/>
<path d="M85.5709 101.851L92.2744 119.626L85.6086 104.223L85.5709 101.851Z" fill="url(#paint18_linear_5145_38262)"/>
<path d="M53.747 118.435L63.6139 134.615L76.1548 128.288L66.9657 109.156L53.747 118.435Z" fill="url(#paint19_linear_5145_38262)"/>
<path d="M55.8187 120.53L62.0326 130.096L63.8403 128.966L58.8315 118.948L55.8187 120.53Z" fill="url(#paint20_linear_5145_38262)"/>
<path d="M60.7898 101.399C61.8443 102.905 62.9365 104.6 64.1416 106.483C69.0374 108.404 67.0038 113.676 65.761 116.727C64.8948 118.836 62.7858 122.112 59.2834 122.112C55.781 122.112 52.9942 118.497 52.2786 114.429C51.6007 113.149 50.5463 111.191 49.6424 109.157L60.7898 101.361V101.399Z" fill="url(#paint21_linear_5145_38262)"/>
<path d="M60.6015 101.586C62.1079 103.733 62.9364 105.239 64.2922 107.085C65.2713 108.44 65.8362 109.269 65.9492 110.135C65.7609 107.951 64.3675 106.896 64.1415 106.52C62.9364 104.637 61.8443 102.942 60.7898 101.436L60.7144 101.511L60.6391 101.624L60.6015 101.586Z" fill="#0EB855"/>
<path d="M62.8613 105.729H62.4094C62.2211 105.729 62.1081 105.842 62.0328 106.031C61.2419 109.27 57.9655 112.207 54.2371 112.282C50.7347 112.32 49.04 109.759 49.6049 106.784L49.4543 106.558C48.5504 109.872 50.3205 112.885 54.1995 112.81C58.681 112.734 62.786 109.608 62.8237 105.729" fill="#434FD1"/>
<path d="M50.8477 111.793C49.9815 110.965 49.5295 109.76 49.5672 108.366C49.5295 107.839 49.5672 107.312 49.6425 106.785L49.4919 106.559C48.8893 108.668 49.4166 110.626 50.8477 111.793Z" fill="#35E97F"/>
<path d="M49.6416 105.09C48.3988 108.554 50.1311 111.755 53.8218 111.68C57.6632 111.605 61.1656 108.065 61.4669 104.412C61.7305 101.286 59.4709 99.2899 56.5334 99.5536C53.7089 99.7795 50.696 102.114 49.6416 105.127V105.09Z" fill="#434FD1"/>
<path d="M50.6595 110.588C49.605 109.345 49.3413 107.462 50.0569 105.466C51.1114 102.491 54.1242 100.156 56.9487 99.8922C58.3421 99.7792 59.5849 100.156 60.4888 100.947C59.5849 99.8922 58.1915 99.3649 56.5721 99.4779C53.7476 99.7039 50.7348 102.039 49.6803 105.052C48.8894 107.274 49.3037 109.383 50.6971 110.588H50.6595Z" fill="#35E97F"/>
<path d="M49.9062 105.24C48.6634 108.705 50.3958 111.906 54.0865 111.831C57.9278 111.755 61.4302 108.215 61.7315 104.562C61.9951 101.436 59.7355 99.4403 56.798 99.704C53.9735 99.9299 50.9607 102.265 49.9062 105.278V105.24Z" fill="#434FD1"/>
<path d="M56.9107 99.666L56.986 100.08C59.7352 99.9296 61.8442 101.813 61.7312 104.712C61.7312 104.675 61.7312 104.6 61.7312 104.562C61.9948 101.474 59.7729 99.4777 56.9107 99.7037V99.666Z" fill="#0EB855"/>
<path d="M65.761 116.764C64.8948 118.873 62.7858 122.15 59.2834 122.15C55.781 122.15 52.9942 118.534 52.2786 114.467C52.6176 116.049 53.8227 117.856 57.0238 118.045C59.8107 118.233 61.0911 117.367 62.1833 116.312C63.2754 115.258 63.8403 115.182 64.5182 115.823C64.5182 115.823 65.874 113.337 65.9493 110.738C66.0246 108.14 64.3676 106.897 64.1416 106.521C69.0374 108.441 67.0038 113.714 65.761 116.764Z" fill="url(#paint22_linear_5145_38262)"/>
<path d="M64.7821 106.784C66.1002 107.613 66.7405 109.496 66.5522 111.567C66.3262 113.714 65.46 115.333 64.9704 116.275C64.7821 116.049 64.5185 115.823 64.5185 115.823C64.5185 115.823 65.8743 113.337 65.9496 110.738C66.0249 108.14 64.3679 106.897 64.1419 106.521C64.3679 106.596 64.5938 106.709 64.7821 106.822V106.784Z" fill="#2D35AD"/>
<path d="M75.5912 95.5615C75.5912 95.5615 77.0223 96.1264 77.8885 96.4654C83.7258 96.2394 86.362 101.662 86.5503 106.634C86.7386 111.228 83.8764 114.241 80.0351 114.241C76.1937 114.241 75.8548 113.036 74.838 112.17C73.8965 111.379 73.7082 111.002 73.7082 110.475C72.1641 109.496 69.3396 107.575 68.0591 106.332L75.6288 95.5615H75.5912Z" fill="url(#paint23_linear_5145_38262)"/>
<path d="M75.929 95.6748C76.4186 95.8631 77.2848 96.202 77.8873 96.428C79.8457 96.654 81.3897 97.6331 82.5195 98.8759C80.5612 96.8423 77.699 96.9176 76.5692 96.315L75.929 95.6748Z" fill="#0EB855"/>
<path d="M77.8884 96.4654C83.7258 96.2394 86.362 101.663 86.5503 106.634C86.7386 111.228 83.8764 114.241 80.0351 114.241C76.1937 114.241 75.8548 113.036 74.838 112.17C73.8965 111.379 73.7082 111.002 73.7082 110.475C74.0471 111.04 74.6497 111.755 76.2314 111.755C77.8131 111.755 80.0351 111.002 81.5792 109.27C83.0479 107.613 83.2739 106.558 83.4622 104.939C83.6128 103.508 83.8764 103.018 84.7803 102.905C84.14 100.495 81.9181 96.9173 77.9261 96.4277L77.8884 96.4654Z" fill="url(#paint24_linear_5145_38262)"/>
<path d="M77.8877 96.4654C78.302 96.4654 78.6786 96.4654 79.0552 96.4654C81.8797 96.9173 84.3276 99.4029 85.2314 102.905C85.0055 102.905 84.7419 102.905 84.7419 102.905C84.1016 100.495 81.8797 96.9173 77.8877 96.4277V96.4654Z" fill="#2D35AD"/>
<path d="M67.9083 105.654C68.0589 106.219 68.7744 107.047 69.0381 107.273C69.9419 107.989 71.6743 108.817 74.3858 107.386C77.135 105.917 78.9804 102.829 78.6414 99.4775C78.3401 96.5776 78.4531 96.0127 80.3361 94.8453C80.901 94.5063 81.6166 94.657 81.9555 95.2219C82.2945 95.7868 82.1438 96.5023 81.5789 96.8413C80.4868 97.5191 80.1102 97.8204 80.1478 98.536C80.2231 99.6658 81.0893 101.812 79.6959 104.712C77.6623 108.893 73.8586 110.022 71.4107 109.307C70.4315 109.006 69.8666 108.704 68.8874 107.876C67.9083 107.047 67.6446 106.256 67.607 104.863L67.8329 105.654H67.9083Z" fill="#1D0066"/>
<path d="M69.2267 107.387C69.3397 107.462 69.4526 107.537 69.5656 107.613C69.9799 107.989 70.4318 108.291 70.959 108.479L72.3901 109.458C72.0512 109.458 71.7123 109.383 71.411 109.27C70.4318 108.968 69.8669 108.667 68.8877 107.839C68.6241 107.613 68.3982 107.387 68.2475 107.123C68.5111 107.123 68.8124 107.198 69.189 107.349L69.2267 107.387Z" fill="#35E97F"/>
<path d="M69.0374 107.236C69.9412 107.952 71.6736 108.78 74.3851 107.349C77.1343 105.88 78.9797 102.792 78.6407 99.4405C78.3395 96.5406 78.4524 95.9757 80.3354 94.8083C80.825 94.507 81.4276 94.5823 81.8042 94.9966C81.2016 94.507 80.4484 94.8836 79.3939 96.0887C78.4901 97.0679 79.1303 98.8002 79.168 100.156C79.2433 104.638 76.3058 107.462 73.8202 108.366C71.1464 109.27 69.6399 108.366 68.7361 107.65C67.9452 106.897 67.7193 106.144 67.6816 104.864L67.9076 105.654C68.0582 106.219 68.7738 107.048 69.0374 107.274V107.236Z" fill="#434FD1"/>
<path d="M71.2974 108.742C70.0922 108.629 69.3014 108.102 68.6988 107.65C67.9079 106.897 67.682 106.144 67.6443 104.863L67.8703 105.654C68.2845 107.951 70.5065 108.742 71.2597 108.78L71.2974 108.742Z" fill="#35E97F"/>
<path d="M79.244 95.6367C79.5076 95.3731 79.8842 95.1094 80.3361 94.8082C80.901 94.4692 81.6166 94.6199 81.9555 95.1848C82.2945 95.7497 82.1438 96.4652 81.5789 96.8041C81.127 97.1054 80.7881 97.3314 80.5621 97.5197C80.3361 96.8795 79.8089 96.0886 79.6206 95.825C79.4699 95.7497 79.3193 95.6743 79.2063 95.6367H79.244Z" fill="#7F41CF"/>
<path d="M79.2433 95.6368C79.5069 95.3732 79.8835 95.1095 80.3354 94.8083C80.825 94.507 81.4276 94.5823 81.8042 94.9966C81.277 94.5446 80.5991 94.8459 79.6199 95.8251C79.4693 95.7498 79.3186 95.6744 79.2056 95.6368H79.2433Z" fill="#B57AF5"/>
<path d="M67.1167 101.248C66.1375 104.675 67.8322 107.5 70.845 107.537C73.8578 107.537 76.9836 104.826 77.8875 101.474C78.7913 98.1601 77.1343 95.4109 74.1968 95.3356C71.2593 95.2602 68.0582 97.8965 67.1167 101.286V101.248Z" fill="#434FD1"/>
<path d="M77.8496 97.9344C76.9834 95.9384 74.4978 95.5241 72.6525 96.315C71.9746 96.5786 72.0123 96.202 72.3512 95.5994C72.9914 95.3735 73.6317 95.2605 74.2342 95.2982C76.0043 95.3358 77.3224 96.3903 77.8496 97.9344Z" fill="#0EB855"/>
<path d="M67.1162 101.248H67.4175C66.476 104.6 68.0577 107.349 70.9199 107.537H70.8446C67.8318 107.537 66.1371 104.675 67.1162 101.286V101.248Z" fill="#35E97F"/>
<path d="M67.0037 100.985C66.0999 104.223 67.6816 106.935 70.5438 106.935C73.4059 106.935 76.3811 104.374 77.2473 101.173C78.0758 98.0095 76.5317 95.4109 73.7449 95.3356C70.9204 95.2603 67.9075 97.7835 67.0037 100.985Z" fill="#A0A9FA"/>
<path d="M69.64 105.956C69.7906 105.956 69.9036 105.956 70.0543 105.956C72.7281 105.956 75.5527 103.545 76.3435 100.533C77.1344 97.5574 75.6656 95.1095 73.0671 95.0342C72.8788 95.0342 72.6905 95.0342 72.5022 95.0342C74.9124 95.2978 76.1929 97.6704 75.4397 100.533C74.6865 103.357 72.1632 105.692 69.64 105.956Z" fill="#7C89F7"/>
<path d="M63.0115 100.985C64.8192 103.094 66.3632 104.186 67.2671 104.977L75.2134 96.0517C74.2342 95.1478 72.3135 93.0388 70.6188 91.1182L62.9738 100.985H63.0115Z" fill="#A0A9FA"/>
<path d="M68.9626 97.9341L67.2678 95.5239L70.6573 91.1553C72.013 92.6993 73.5571 94.3941 74.6116 95.4485C76.8712 95.9758 78.0387 98.3484 77.2855 101.211C77.1725 101.587 77.0595 102.001 76.8712 102.34C76.5323 101.926 76.0427 101.813 74.9882 101.851C72.3143 99.3275 69.9794 98.8003 69.0002 97.9718L68.9626 97.9341Z" fill="#7C89F7"/>
<path d="M74.7994 95.5237C76.2681 96.3899 76.946 98.3105 76.3435 100.57C76.2305 101.022 76.0422 101.474 75.8539 101.888C75.6279 101.888 75.3266 101.851 74.95 101.888C76.946 97.5573 74.6864 95.6367 74.4228 95.373L74.7994 95.5613V95.5237Z" fill="#5D6CEF"/>
<path d="M70.6192 91.1553C71.9374 92.6617 73.3684 94.2434 74.4229 95.3356C74.4229 95.3356 74.4982 95.4109 74.5359 95.4485C74.7995 95.7122 75.3268 96.3147 75.5527 97.2939C75.3644 96.6537 71.0335 93.3396 69.7531 92.3604C69.7531 92.3604 69.7531 92.3604 69.7154 92.3227L70.6192 91.1929V91.1553Z" fill="#35E97F"/>
<path d="M48.2866 100.721C48.2866 102.378 48.2866 105.316 49.68 107.349L60.6392 101.738L58.9821 97.8213L48.2866 100.721Z" fill="#A0A9FA"/>
<path d="M49.718 104.487C48.7388 107.764 50.5841 110.664 54.0112 110.588C57.5136 110.513 60.6771 107.387 60.9407 103.998C61.1667 101.023 59.02 98.989 56.1955 99.1397C53.4087 99.2903 50.5841 101.588 49.718 104.487Z" fill="#A0A9FA"/>
<path d="M49.8692 107.312C50.1328 108.63 50.9237 109.722 52.1665 110.287C50.6224 109.722 49.6433 108.367 49.4926 106.672L49.8692 107.312Z" fill="#BBFFE1"/>
<path d="M54.2373 112.81C58.1916 112.735 61.694 109.609 62.4849 106.22C62.5602 105.881 62.7862 105.542 63.1251 105.881C63.5017 106.257 63.5017 106.822 63.4641 107.274C62.9368 110.889 59.2838 114.354 55.1035 114.429C53.3711 114.429 52.053 113.902 51.2245 112.961C50.5089 112.095 49.944 110.965 49.6051 110.174C50.283 111.793 51.8647 112.885 54.2373 112.848V112.81Z" fill="#1D0066"/>
<path d="M56.0821 109.27C58.643 107.651 56.6847 106.634 57.0236 102.491L59.1702 99.8926C60.413 100.721 61.1662 102.19 61.0156 103.998C60.865 105.805 59.8858 107.538 58.4547 108.78C58.6807 108.404 58.417 107.914 58.0404 108.178C58.0404 108.178 58.0404 108.178 58.0028 108.215C57.4379 108.667 56.7976 109.044 56.1198 109.27H56.0821Z" fill="#7C89F7"/>
<path d="M50.5088 108.065C50.1698 107.764 49.8686 107.463 49.5673 107.161C48.2868 105.165 48.2868 102.341 48.2868 100.722L48.9271 100.533C48.8141 103.885 48.9647 106.22 50.5088 108.028V108.065Z" fill="#BBFFE1"/>
<path d="M51.2247 112.923C50.5092 112.056 49.9442 110.927 49.6053 110.136C49.8689 110.738 50.2079 111.228 50.6975 111.68L52.0532 113.638C51.7143 113.412 51.4507 113.186 51.187 112.923H51.2247Z" fill="#35E97F"/>
<path d="M63.5766 72.626C63.5766 72.626 68.2841 81.6268 70.6567 89.9497C72.5397 96.5026 67.2673 101.172 59.9988 102.491C52.6174 103.809 46.3282 102.076 43.6543 95.674C40.9804 89.2718 40.0766 77.8231 40.0766 77.8231L63.5766 72.626Z" fill="#A0A9FA"/>
<path d="M56.5346 98.1976C63.8406 96.3146 69.6403 91.6071 69.5273 87.6904L70.6572 89.95C70.8455 90.6279 70.9584 91.3058 70.9961 91.946C69.791 95.9004 64.1796 99.93 57.3254 101.512C55.706 101.888 54.162 102.077 52.6932 102.152C50.7726 102.227 48.8519 101.662 47.3078 100.533C46.1403 99.6664 45.1235 98.4989 44.3327 97.1055C46.4416 99.0638 51.1492 99.6287 56.5346 98.2353V98.1976Z" fill="#7C89F7"/>
<path d="M43.09 94.13C40.868 87.6147 40.0771 77.8231 40.0771 77.8231L63.5771 72.626C63.5771 72.626 66.3263 77.9361 68.6989 84.1123C68.8119 86.2213 68.0587 88.4433 66.4393 90.2886C64.2173 92.7742 60.6396 92.5482 58.267 92.5482C55.8944 92.5482 50.9609 92.9625 48.3247 93.9417C46.1028 94.7702 44.86 95.4104 43.1276 94.13H43.09Z" fill="#7C89F7"/>
<path d="M59.397 80.5723C59.397 85.1669 54.3505 88.8952 48.1366 88.8952C41.9226 88.8952 43.2407 88.255 41.3577 87.2005C40.4539 82.3047 40.0773 77.8231 40.0773 77.8231L55.7063 74.3584C57.9659 75.8648 59.397 78.0868 59.397 80.5347V80.5723Z" fill="#5262EB"/>
<path d="M57.4755 73.9814L64.4426 74.3957C64.7439 74.9983 65.0829 75.7138 65.4595 76.5047C56.2704 81.7018 47.4955 83.4342 40.6037 82.7563C40.1895 79.8941 40.0388 77.8604 40.0388 77.8604L57.4755 74.0191V73.9814Z" fill="black"/>
<path d="M67.0789 95.7495C67.0789 95.7495 65.7231 90.7784 64.0284 87.2383L68.0204 83.2463C68.1334 83.2087 68.2464 83.1334 68.3593 83.0957C69.2255 85.28 70.054 87.6526 70.6943 89.9122C71.5981 93.0757 71.3721 95.9755 68.9996 97.8962C68.6983 97.5196 67.1165 95.7119 67.1165 95.7119L67.0789 95.7495Z" fill="#7C89F7"/>
<path d="M70.6576 89.9496C70.6576 90.025 70.6952 90.1379 70.7329 90.2133L69.942 90.5145L67.7578 84.4513L68.6993 84.1123C69.4148 86.033 70.1303 88.029 70.6576 89.9873V89.9496Z" fill="#35E97F"/>
<path d="M70.7319 90.3271C70.9956 91.3816 71.1462 92.4361 71.1085 93.3776C70.9579 93.0763 70.4683 92.0219 69.7528 91.2687C69.4138 90.8921 70.0164 90.5531 70.6943 90.3271H70.7319Z" fill="#35E97F"/>
<path d="M67.9825 83.2463C68.0955 83.2087 68.2085 83.1334 68.2838 83.0957C68.2838 83.0957 68.2838 83.171 68.2838 83.2087C68.3968 83.51 68.5098 83.8112 68.6227 84.1502C68.7357 86.2592 67.9825 88.4811 66.3631 90.3265C66.0995 90.6277 65.8359 90.8914 65.5346 91.0797C65.0827 89.7992 64.5554 88.4435 63.9529 87.2383L67.9449 83.2463H67.9825Z" fill="#5262EB"/>
<path d="M56.082 82.7198C62.8985 80.9498 68.6229 82.1926 69.9787 85.469C70.167 85.9209 70.8825 87.8416 71.0331 88.3312C71.1461 88.7078 71.2214 89.0844 71.2214 89.461C71.3721 93.8672 65.1581 98.9137 57.2872 100.721C50.1694 102.341 44.1814 100.759 43.0139 97.1813C42.9009 96.8047 42.562 95.2983 42.449 94.997C42.3737 94.6957 42.336 94.4321 42.336 94.0932C42.1854 89.7999 48.324 84.7158 56.0444 82.7198H56.082ZM56.5339 97.4073C63.84 95.5243 69.6397 90.8167 69.5267 86.9001C69.4137 82.9834 63.4258 81.2887 56.1197 83.1717C48.8136 85.0547 43.0139 89.7623 43.1269 93.6789C43.2399 97.5956 49.2279 99.2903 56.5339 97.4073Z" fill="black"/>
<path d="M69.6399 84.8281C69.7529 85.0164 69.8659 85.2424 69.9789 85.4683C70.1672 85.9203 70.8827 87.8409 71.0334 88.3305C71.1464 88.7071 71.2217 89.0837 71.2217 89.4603C71.2217 89.8369 71.2217 90.2512 71.1087 90.6278L68.9997 85.0541L69.6023 84.8281H69.6399Z" fill="#35E97F"/>
<path d="M56.082 82.7202C63.8024 80.7242 70.167 82.5696 70.3176 86.8628C70.4682 91.1561 64.3296 96.2402 56.6093 98.2362C48.8889 100.232 42.5244 98.3869 42.3737 94.0936C42.2231 89.8003 48.3617 84.7162 56.082 82.7202ZM56.534 97.4077C63.84 95.5247 69.6397 90.8172 69.5267 86.9005C69.4138 82.9838 63.4258 81.2891 56.1197 83.1721C48.8136 85.0551 43.0139 89.7627 43.1269 93.6793C43.2399 97.596 49.2279 99.2907 56.534 97.4077Z" fill="#1D0066"/>
<path d="M65.4595 97.7837C65.0829 96.9552 64.3673 95.4864 64.0284 94.8839C63.9531 94.7709 63.8777 94.6956 63.8024 94.6202C63.6518 94.5073 63.5388 94.3943 63.4258 94.319C63.3128 94.2436 63.1622 94.206 63.0492 94.2813C62.635 94.4319 62.1454 94.6956 61.7688 94.9592C61.6558 95.0722 61.5805 95.2228 61.5805 95.3734C61.6181 95.6747 61.7311 95.9383 61.7311 95.9383C62.07 96.7669 63.2375 98.9888 63.2375 98.9888L65.4218 97.7837H65.4595Z" fill="#7C89F7"/>
<path d="M43.9556 95.674L44.7841 96.3895C44.8218 96.3895 44.7841 96.5025 44.7841 96.5025L44.0686 97.0297C43.9932 97.105 43.9556 97.218 43.9932 97.331C44.1439 97.7076 44.5581 98.6868 45.123 99.7036C45.123 99.7036 45.0854 99.7413 44.9724 99.8166C44.8971 99.8919 44.8218 99.8542 44.7841 99.8166C44.5205 99.5906 44.1815 99.327 43.9556 99.101C43.8049 98.9504 43.6543 98.7621 43.5413 98.5361C43.1271 97.7076 42.7881 96.9544 42.6375 96.6155C42.5621 96.4648 42.6375 96.3142 42.7505 96.2012L43.7296 95.5986C43.7673 95.5986 43.8426 95.5986 43.9179 95.5986L43.9556 95.674Z" fill="#7C89F7"/>
<path d="M42.8253 96.2766H42.9006C42.9006 96.239 43.5408 97.0675 43.5408 97.0675L44.8213 99.892C44.5577 99.6661 44.2187 99.4024 43.9928 99.1765C43.8421 99.0258 43.6915 98.8375 43.5785 98.6116C43.1642 97.783 42.8253 97.0298 42.6747 96.6909C42.5993 96.5403 42.6747 96.3896 42.7876 96.2766H42.8253Z" fill="#BBFFE1"/>
<path d="M49.1528 96.8047L57.4004 99.9681L56.5719 101.437L48.3243 98.2358L49.1528 96.8047Z" fill="#6977F4"/>
<path d="M49.2282 97.2184C49.0022 96.8794 49.1529 96.5781 49.5671 96.5781H54.6889C55.1032 96.5781 55.6304 96.8794 55.8564 97.2184L57.3628 99.5156C57.5888 99.8546 57.4381 100.156 57.0239 100.156H51.9021C51.4878 100.156 50.9606 99.8546 50.7346 99.5156L49.2282 97.2184Z" fill="#6977F4"/>
<path d="M48.3235 99.4399C48.2482 99.2892 48.0976 99.1009 48.2859 98.2724C48.2859 98.1218 48.4742 98.0088 48.7378 98.0088H53.8596C54.2738 98.0088 54.8011 98.3101 55.027 98.649L56.5334 100.946C56.6464 101.135 56.6841 101.285 56.6088 101.398C56.3828 101.737 56.2322 101.925 56.1192 102.038C56.0062 102.151 55.8556 102.189 55.7426 102.189H50.9221C50.5078 102.189 49.9806 101.888 49.7546 101.549L48.3612 99.4399H48.3235Z" fill="#8F9AF7"/>
<path d="M48.3241 99.44C48.0981 99.1011 48.2488 98.7998 48.663 98.7998H53.4836C53.8978 98.7998 54.4251 99.1011 54.651 99.44L56.0445 101.549C56.2704 101.888 56.1198 102.189 55.7055 102.189H50.885C50.4707 102.189 49.9435 101.888 49.7175 101.549L48.3241 99.44Z" fill="#CACEFC"/>
<path d="M52.8442 102.189L50.6599 98.7998H51.3001L53.4844 102.189H52.8442Z" fill="#8F9AF7"/>
<path d="M50.8094 98.0469L50.6588 98.8001H51.299L51.4873 98.0469H50.8094Z" fill="#6977F4"/>
<path d="M50.81 98.0469L51.6762 96.5781H52.3164L51.4879 98.0469H50.81Z" fill="#434FD1"/>
<path d="M55.1782 98.5744L56.6846 100.872C56.9106 100.834 57.0989 100.796 57.3249 100.721C58.4923 100.457 59.6598 100.119 60.752 99.7042L60.413 96.0889C59.1702 96.6161 57.8898 97.068 56.534 97.407C56.308 97.4823 56.0821 97.52 55.8561 97.5576C55.7055 97.5576 55.5925 97.6706 55.5172 97.8212L55.2159 98.2732C55.1782 98.3485 55.1782 98.4615 55.2159 98.5744H55.1782Z" fill="black"/>
<path d="M55.48 97.8212C55.5553 97.7083 55.706 97.5953 55.819 97.5576C56.0449 97.52 56.2709 97.4446 56.4968 97.407C57.8526 97.068 59.1707 96.6161 60.3759 96.0889L60.4512 96.9174C59.2084 97.4446 57.8903 97.8966 56.5345 98.2355C56.0826 98.3485 55.593 98.4615 55.1411 98.5744C55.1034 98.4615 55.1034 98.3485 55.1411 98.2732L55.4424 97.8212H55.48Z" fill="#1D0066"/>
<path d="M61.7316 94.9208C62.1082 94.6195 62.5978 94.3935 63.0497 94.2052C63.1627 94.1675 63.3133 94.2052 63.4263 94.2805C63.5393 94.3558 63.6899 94.4688 63.8029 94.5818C63.8029 94.5818 63.8406 94.6195 63.8782 94.6571C63.9536 94.8078 63.8782 94.9584 62.8991 95.4103C61.9199 95.8999 61.7693 95.8999 61.6939 95.7493C61.6563 95.6363 61.6186 95.4857 61.581 95.335C61.581 95.1844 61.6186 94.9961 61.7693 94.9208H61.7316Z" fill="#A0A9FA"/>
<path d="M43.9562 95.6738L44.7471 96.3894C44.6717 96.3894 44.4834 96.5024 43.7679 97.0296C43.5796 97.1803 43.3913 97.0296 42.977 96.766C42.6758 96.5777 42.6381 96.4647 42.6758 96.3894C42.6758 96.3894 42.7134 96.3517 42.7511 96.3141L43.7302 95.7115C43.7433 95.7115 43.8599 95.6615 43.9562 95.6738Z" fill="#A0A9FA"/>
<path d="M38.646 78.9535C39.0226 81.8157 39.5499 84.9415 40.1901 87.992C40.7927 91.0425 41.3199 92.3229 42.0731 93.2267C42.864 94.2059 43.3912 94.4319 45.3495 93.6787C46.63 93.1891 48.3247 92.6995 51.5635 92.0969C54.8023 91.532 56.8359 91.0801 60.0747 90.9295C61.7694 90.8542 64.142 90.7035 65.6861 89.3854C67.6444 87.7284 69.1131 85.7324 69.1885 83.9623C69.3391 81.1755 69.0378 78.0873 67.1925 73.7188C64.6692 74.359 59.5098 76.4303 59.5098 76.4303C55.6684 78.8029 55.2918 83.2844 49.0402 84.3766C43.9561 85.2804 40.3031 81.3261 39.5875 79.7067L39.3616 78.7276L38.646 78.9159V78.9535Z" fill="#2D35AD"/>
<path d="M58.809 84.7395C57.9052 85.2291 56.6624 85.6434 55.0053 85.9446C54.7417 85.9823 54.6287 86.1706 54.7041 86.3966C54.9677 87.4134 55.4196 88.7315 55.7962 89.673C55.8339 89.786 56.0222 89.899 56.1728 89.8613C57.8675 89.5977 59.1103 89.2587 60.0142 88.8068C60.2401 88.6938 60.3154 88.5055 60.2401 88.2796C59.9388 87.3381 59.5246 86.02 59.0726 84.8525C59.035 84.7772 58.8843 84.7018 58.809 84.7395Z" fill="#161A8A"/>
<path d="M58.4321 84.551C57.6036 85.003 56.4361 85.3796 54.8544 85.6808C54.5531 85.7562 54.4025 86.0574 54.3271 86.2457C54.5908 87.2249 55.231 88.2794 55.5699 89.1832C55.6076 89.2962 55.7959 89.4092 55.9465 89.3715C57.5283 89.1456 58.6204 89.0326 59.4866 88.6183C59.6372 88.5054 59.9009 88.2417 59.7879 87.8651C59.5243 86.9613 59.11 85.7562 58.6957 84.664C58.6957 84.5887 58.5074 84.5134 58.4321 84.551Z" fill="#434FD1"/>
<path d="M58.206 84.9276C57.3774 85.3796 56.21 85.7562 54.6282 86.0198C54.4023 86.0574 54.2893 86.2081 54.327 86.434C54.5906 87.4132 55.0048 88.6183 55.3438 89.4845C55.3814 89.5975 55.5697 89.7105 55.7204 89.6728C57.3021 89.4469 58.4696 89.1079 59.3358 88.6937C59.5241 88.5807 59.6371 88.43 59.5617 88.2041C59.2981 87.3002 58.8838 86.0951 58.4696 85.003C58.4696 85.003 58.4259 84.8077 58.206 84.9276Z" fill="#6977F4"/>
<path d="M56.0218 87.7528C55.8335 87.075 56.2101 86.3971 56.9257 86.2088C57.6412 86.0205 58.3567 86.4347 58.545 87.075C58.7333 87.7152 58.3567 88.4307 57.6412 88.619C56.9257 88.8073 56.2101 88.3931 56.0218 87.7528Z" fill="#FE72DD"/>
<path d="M56.7369 87.6391C56.624 87.3002 56.8123 86.9613 57.1512 86.8483C57.4902 86.7353 57.8291 86.9236 57.9044 87.2625C57.9797 87.6015 57.8291 87.9404 57.4902 88.0534C57.1512 88.1664 56.8123 87.9781 56.7369 87.6391Z" fill="#6977F4"/>
<path d="M56.9996 87.5272C56.962 87.3389 57.0373 87.1506 57.2256 87.1129C57.4139 87.0753 57.6022 87.1506 57.6399 87.3389C57.6775 87.5272 57.6022 87.7155 57.4139 87.7532C57.2256 87.7908 57.0373 87.7155 56.9996 87.5272Z" fill="#FE72DD"/>
<path d="M55.5317 87.6015L56.5142 87.3252L56.6239 87.9028L55.833 88.1664L55.5317 87.6015Z" fill="#FE72DD"/>
<path d="M56.8882 86.2461L56.7752 86.924L55.4194 87.3382L55.1182 86.7733L56.8882 86.2461Z" fill="#FE72DD"/>
<path d="M59.5474 76.4674C60.0369 76.2791 64.7821 74.3961 67.1924 73.7559C69.0001 78.0868 69.339 81.1749 69.1884 83.9994C69.1131 85.7695 67.6443 87.7655 65.686 89.4225C64.8198 90.1381 63.7276 90.5147 62.5978 90.703C63.0874 90.59 63.464 89.9874 62.5978 86.8616C61.9953 84.7526 60.6019 79.8945 59.6227 76.4674H59.5474Z" fill="#161A8A"/>
<path d="M68.3597 78.3884L68.6987 78.2754C69.1882 80.4597 69.3012 82.2674 69.1882 83.9998C69.1506 85.0919 68.548 86.2594 67.6818 87.3892C69.1506 85.5438 68.7363 81.4389 68.3974 78.3884H68.3597Z" fill="#35E97F"/>
<path d="M69.2261 82.9073C67.569 83.8111 64.8198 84.0748 63.5017 80.723C62.4096 78.0115 62.5602 75.8648 64.2549 74.6974C65.3471 74.3208 66.4016 73.9818 67.1924 73.7559C68.7742 77.5595 69.2261 80.3841 69.2261 82.9073Z" fill="black"/>
<path d="M59.5092 76.4674C59.5092 76.4674 64.6687 74.3961 67.1919 73.7559C67.3802 74.2454 67.5685 74.6974 67.7568 75.1493C63.4259 77.8232 59.1703 79.7438 55.103 81.0243C56.4964 79.4426 57.5509 77.6725 59.5092 76.4674Z" fill="black"/>
<path d="M38.6455 78.9529L39.3611 78.7646L39.587 79.7438C39.926 80.497 40.9428 81.7775 42.4492 82.832C41.3194 82.7943 40.2273 82.6813 39.1728 82.5307C38.9845 81.2879 38.7962 80.0828 38.6455 78.9153V78.9529Z" fill="black"/>
<path d="M42.9384 94.0178C42.6371 93.8671 42.3735 93.6035 42.0722 93.2269C41.319 92.2854 40.7918 91.005 40.1892 87.9921C40.1892 87.9168 40.1892 87.8038 40.1516 87.7285C40.6411 89.8375 41.8086 93.2646 42.9761 94.0178H42.9384Z" fill="#35E97F"/>
<path d="M43.0144 84.1514C39.9262 82.6826 38.9094 80.9503 38.6458 78.9543L39.3613 78.766L39.5873 79.7451C40.3028 81.3645 43.9559 85.2812 49.04 84.415C55.2916 83.3229 55.6682 78.8413 59.5096 76.4687C59.5096 76.4687 59.7732 76.3557 60.2251 76.2051C57.7772 77.4855 55.9695 81.7035 52.6554 83.6241C49.8309 85.2435 46.1025 85.6201 43.0144 84.1514Z" fill="#161A8A"/>
<path d="M59.5096 76.4687C59.5096 76.4687 59.7732 76.3557 60.2251 76.2051C58.681 76.9959 57.4006 78.9543 55.8189 80.7996C55.5929 80.8749 55.3293 80.9503 55.1033 81.0256C56.4967 79.4439 57.5512 77.6738 59.5096 76.4687Z" fill="#000066"/>
<path d="M39.5871 79.7824C39.926 80.5357 40.9052 81.8161 42.4116 82.8706C41.8467 82.8706 41.2818 82.8329 40.7546 82.7576C39.3611 81.6278 38.8339 80.3474 38.6079 78.9539L39.3235 78.7656L39.5494 79.7448L39.5871 79.7824Z" fill="#000066"/>
<path d="M48.7758 84.9414L48.8887 84.6777L49.077 84.866C49.6043 87.0127 50.8094 89.8372 51.7886 92.0215C51.7133 92.0215 51.6379 92.0215 51.5626 92.0591C51.5626 92.0591 51.525 92.0591 51.4873 92.0591C50.5081 89.8748 49.3407 87.0503 48.8134 84.9037L48.7758 84.9414Z" fill="#161A8A"/>
<path d="M77.2093 82.7568L79.13 73.6807C83.2726 74.6975 86.6243 76.7688 88.0178 79.5933C89.1852 81.9659 88.432 84.6775 87.1892 86.1462C85.7582 87.8033 83.7245 87.8033 82.5194 85.8449C81.9168 84.8658 81.5402 83.8866 81.2013 83.1334C79.13 83.4723 77.6612 83.2087 77.2469 82.7568H77.2093Z" fill="#232B9E"/>
<path d="M85.1184 78.1627C83.3484 77.1835 79.2058 76.5056 79.2058 76.5056L79.3188 73.7188C83.3484 74.7356 86.6248 76.8069 88.0183 79.5937C89.1104 81.8534 88.5079 84.4143 87.3404 85.9583C88.1313 84.9415 88.2442 82.3053 87.943 81.1378C87.6417 79.9327 86.8508 79.1795 85.1184 78.2003V78.1627Z" fill="#35E97F"/>
<path d="M84.0637 82.6441V83.2843C85.4571 83.1337 86.2856 82.2675 86.5869 81.5896C86.6622 81.439 86.5116 81.4013 86.3609 81.552C85.8337 82.0039 85.0428 82.4935 84.0637 82.6818V82.6441Z" fill="#1D0066"/>
<path d="M88.1313 81.7778C88.4702 81.0246 88.3573 80.4597 88.169 80.0078C89.0728 82.2674 88.3196 84.753 87.1521 86.1464C85.721 87.8035 83.6874 87.8035 82.4823 85.8451C81.8797 84.866 81.5031 83.8868 81.1642 83.1336L83.2731 82.757C86.2106 83.5102 87.6794 82.757 88.1313 81.7402V81.7778Z" fill="#7C89F7"/>
<path d="M88.2446 80.1951C88.2446 80.1202 88.2072 80.0827 88.1697 80.0078C88.1697 80.0827 88.2072 80.1202 88.2446 80.1951Z" fill="#FCC0F4"/>
<path d="M88.0558 81.891C88.0558 81.8533 88.0934 81.8157 88.1311 81.778C88.4324 81.1378 88.3571 80.6106 88.2441 80.1963C88.9973 82.3053 88.5454 84.4142 87.3402 85.9583C87.9804 85.1298 88.1688 83.2091 88.0558 81.891Z" fill="#BBFFE1"/>
<path d="M83.8377 82.9834C83.9883 82.9834 84.139 82.9834 84.2896 82.9834C84.7415 83.0587 85.1558 83.0964 85.5324 83.0964C85.6077 83.8119 85.6077 84.9794 85.1181 86.1845C84.8545 86.7871 84.4402 87.0884 83.9883 87.2013C83.4611 86.9754 82.9338 86.5611 82.5196 85.8832C82.4442 85.7703 82.4066 85.6949 82.3313 85.582L83.8377 82.9834Z" fill="#5D6CEF"/>
<path d="M80.0723 82.907C80.4489 83.8109 80.9384 84.4134 81.654 85.016C81.9176 86.2588 81.9176 86.6354 82.8591 86.7107C83.8006 86.786 84.9304 86.1081 85.0811 84.0745C85.1564 83.1706 84.8928 82.4174 84.8928 82.4174C85.1564 82.1161 85.2694 81.7019 85.2317 81.25C85.194 80.798 85.0057 80.2708 84.7045 80.0072C83.8006 79.254 81.7293 79.2163 80.4112 80.7604C79.9216 81.3629 79.8086 82.1915 80.0723 82.907Z" fill="#232B9E"/>
<path d="M81.1636 84.5641C80.787 84.1875 80.4857 83.7732 80.2221 83.246C78.6404 83.359 77.5482 83.133 77.2093 82.7564L77.8495 79.7812L79.017 79.8566C80.4481 80.0072 80.9377 80.1202 80.8247 80.7604C80.7494 81.1747 80.3728 82.6434 81.4272 83.6226L81.1636 84.6018V84.5641Z" fill="#121570"/>
<path d="M82.821 86.7494C81.8795 86.6364 81.9172 86.2598 81.6159 85.0547C81.3899 84.8664 81.2016 84.6781 81.0133 84.4898C80.938 84.3768 80.8627 84.2261 81.2393 83.7742C81.8042 83.0963 82.8963 82.7574 83.6495 82.7197C84.3651 82.7197 84.93 82.8704 84.9676 83.2093C84.9676 83.4729 85.0053 83.7742 84.9676 84.1132C84.8547 86.1468 83.6872 86.8624 82.7457 86.7494H82.821Z" fill="#7C89F7"/>
<path d="M73.7454 73.0777C74.122 72.1362 74.9881 72.1739 78.2269 72.4752C79.6203 72.5881 80.1476 73.379 80.1853 74.4712C80.2606 77.4463 79.3191 81.4006 77.6997 82.9447C77.1724 83.4343 76.5699 83.4719 75.553 83.359C73.0675 83.0953 72.9921 83.02 72.8792 81.8902L73.7077 73.0777H73.7454Z" fill="#35E97F"/>
<path d="M73.5568 73.0025C73.8957 72.061 74.7619 72.0987 78.0007 72.4C79.3565 72.5129 79.9214 73.3038 79.959 74.4336C80.072 77.4088 79.2435 81.4008 77.6618 82.9448C77.1722 83.4344 76.5696 83.5097 75.5528 83.3968C73.0672 83.1331 72.9919 83.0578 72.8789 81.8903L73.5568 73.0402V73.0025Z" fill="#2D35AD"/>
<path d="M77.9248 82.6442L72.8783 81.9663C72.8783 81.9663 72.8783 81.9286 72.8783 81.891L73.142 78.4639L79.3936 79.2924C79.0546 80.6482 78.565 81.8533 77.9248 82.6065V82.6442Z" fill="#232B9E"/>
<path d="M73.5187 73.4172V73.0406C73.8953 72.0991 74.7615 72.1368 77.9626 72.4381C79.2054 72.551 79.7703 73.1913 79.8833 74.1328L73.4811 73.4172H73.5187Z" fill="#434FD1"/>
<path d="M73.7827 72.5887C74.2346 72.1744 74.8372 72.2121 75.515 72.9653C76.5319 74.0574 76.3059 77.4468 75.4397 80.2337C74.8372 82.192 73.7827 83.2465 73.2554 82.9452C72.9541 82.7569 72.9165 82.4556 72.8412 81.8907L73.519 73.0406C73.5944 72.8523 73.6697 72.7393 73.7827 72.6263V72.5887Z" fill="#4957E3"/>
<path d="M69.8666 72.8902C63.3891 72.5136 61.8074 75.4511 63.615 79.9703C65.2721 84.1506 69.1511 83.0585 70.4315 82.117C70.9588 82.2676 72.2016 82.4559 73.2561 82.3429C73.9339 82.2676 74.8001 81.7404 75.4027 77.5224C75.704 75.3005 75.591 73.0032 74.0469 72.8149C72.5029 72.6266 71.1471 72.6643 69.9043 72.8902H69.8666Z" fill="#7C89F7"/>
<path d="M63.5771 79.9696C61.7694 75.488 63.3511 72.5129 69.8287 72.8895C72.6532 75.4504 71.4104 81.4007 70.3936 82.1162C69.1131 83.0201 65.2341 84.1122 63.5771 79.9696Z" fill="#7C89F7"/>
<path d="M69.8655 72.8895C71.146 72.7012 72.5017 72.6258 74.0082 72.8141C74.0835 72.8141 74.1211 72.8142 74.1965 72.8518C74.6484 73.605 74.686 74.6595 74.686 75.0738C74.686 75.1491 74.6107 75.2244 74.4977 75.2244C74.0082 75.1867 72.4264 75.0361 71.1836 75.1114C69.263 74.0569 65.7606 74.0193 65.7606 74.0193L68.3591 72.8895C68.811 72.8895 69.3006 72.8895 69.8279 72.8895H69.8655Z" fill="#A0A9FA"/>
<path d="M69.866 72.8899C70.2426 72.8146 70.6192 72.7769 70.9958 72.7393C72.6528 74.7352 72.3139 78.426 71.3347 80.083C71.8243 77.9364 71.7866 74.6223 69.866 72.8899Z" fill="#5D6CEF"/>
<path d="M69.866 72.8903C70.0167 73.0409 70.1673 73.1916 70.2803 73.3422C69.9037 73.7188 69.3388 74.1331 68.6232 74.6227C66.7402 75.8278 64.8572 76.9199 63.0119 77.8238C62.3716 74.585 64.5183 72.589 69.866 72.8903Z" fill="#2D35AD"/>
<path d="M70.9206 81.3262C71.8998 81.6651 73.1803 81.6651 74.3101 81.5145C73.9335 82.1924 73.5569 82.343 73.2179 82.3807C72.1634 82.4936 70.9206 82.2677 70.3934 82.1547C69.5649 82.7573 67.4936 83.4728 65.9495 82.6819C67.6065 83.3598 70.2428 82.2677 70.9206 81.3638V81.3262Z" fill="#5D6CEF"/>
<path d="M84.4399 82.2676C84.9295 81.7404 85.3061 80.9872 84.8165 80.1963C85.0425 80.4976 85.1555 80.9118 85.1931 81.2884C85.2308 81.778 85.1178 82.1923 84.8542 82.4559C84.8542 82.4559 85.0802 83.2091 85.0425 84.113C84.9672 85.3934 84.4776 86.1089 83.9127 86.4855C84.8919 85.77 84.6659 83.1714 84.4399 82.2676Z" fill="#35E97F"/>
<path d="M83.7268 86.5967C83.8017 86.5967 83.8766 86.5218 83.9141 86.4844C83.8392 86.5218 83.8017 86.5593 83.7268 86.5967Z" fill="#FE72DD"/>
<path d="M82.6704 86.7117C81.8795 86.5988 81.8795 86.1845 81.6159 85.017C81.39 84.8287 81.2017 84.6404 81.0134 84.4521C80.938 84.3391 80.8627 84.1885 81.2393 83.7366C81.277 83.6613 81.3523 83.6236 81.39 83.5859C81.9172 84.2262 82.1055 84.4521 82.1055 84.8287C82.1055 85.2053 81.9925 86.5988 82.6704 86.7117Z" fill="#5D6CEF"/>
<path d="M36.1232 21.5215L36.9141 24.7226C18.3476 29.0159 8.36761 43.7787 9.15847 55.3027L4.63925 56.2819C4.112 38.3179 19.967 25.7771 36.0855 21.5215H36.1232Z" fill="#A0A9FA"/>
<path d="M35.2185 19.7892C42.035 17.9815 48.0983 17.4919 52.7305 17.8685L50.8851 22.9903C39.1351 23.3292 31.942 25.5512 25.2008 29.3549L22.075 26.1161C21.8114 25.8525 21.8491 25.3629 22.188 25.1746C25.6528 23.0656 30.2097 21.145 35.2561 19.7892H35.2185Z" fill="#C3C8FC"/>
<path d="M53.6338 23.1034L54.7636 19.2244C54.8389 18.9984 54.7636 18.7724 54.5753 18.6218C54.1234 18.2452 53.4455 17.9439 52.6546 17.9062C52.391 17.9062 52.1651 18.0569 52.1274 18.2829L50.8846 23.028L53.6338 23.1034Z" fill="#7C89F7"/>
<path d="M1.60412 65.3634C0.718378 61.0864 1.68444 57.2703 3.76187 56.8401C5.83931 56.4099 8.24144 59.5284 9.12718 63.8055C10.0129 68.0826 9.04686 71.8986 6.96942 72.3288C4.89198 72.759 2.48986 69.6405 1.60412 65.3634Z" fill="#ACB2E8"/>
<path d="M7.877 63.6637C7.23677 60.1613 5.1278 57.7134 3.16947 58.203C1.17348 58.6925 0.0813298 61.8937 0.721554 65.3961C1.36178 68.8985 3.47075 71.3464 5.42908 70.8568C7.42507 70.3672 8.51722 67.1661 7.877 63.6637Z" fill="#C3C8FC"/>
<path d="M4.45243 64.7872C3.42329 59.8177 4.55378 55.3821 6.97746 54.8802C9.40113 54.3783 12.2002 58 13.2293 62.9696C14.2585 67.9392 13.128 72.3747 10.7043 72.8766C8.28065 73.3785 5.48158 69.7568 4.45243 64.7872Z" fill="#ACB2E8"/>
<path d="M6.52109 55.0388C6.67173 54.9635 6.78471 54.9258 6.93535 54.8881C9.3456 54.3986 12.1325 58.0139 13.1493 62.9851C14.1661 67.9562 13.0363 72.3625 10.626 72.8897C10.4377 72.9274 10.2494 72.9274 10.0611 72.9274C9.3456 72.9274 6.44577 72.4001 6.18215 72.3625C4.29913 72.0612 2.34079 69.1614 1.54993 65.3953C0.759066 61.667 1.3993 58.2776 2.98103 57.1854C3.20699 57.0348 5.76788 55.3401 6.48342 55.0388H6.52109Z" fill="#A0A9FA"/>
<path d="M11.3791 72.3637L11.5298 72.5143C11.2662 72.7026 11.0025 72.8156 10.7013 72.8909C10.513 72.9286 10.3247 72.9286 10.1364 72.9286C9.42082 72.9286 6.52097 72.4013 6.25735 72.3637C5.73011 72.2884 5.20287 71.9871 4.67563 71.5352L11.3791 72.3637Z" fill="#35E97F"/>
<path d="M1.58793 65.396C1.32431 64.1155 1.21133 62.8727 1.28665 61.7429L6.97334 60.4248C7.27462 61.8936 7.53824 63.5883 7.72654 65.396C7.87718 66.7894 7.99017 68.0698 8.02783 69.3126L2.83071 68.936C2.34113 67.9192 1.88921 66.7141 1.62559 65.396H1.58793Z" fill="#8D99F7"/>
<path d="M3.01926 57.1851C3.24522 57.0344 5.80612 55.3397 6.52166 55.0385C6.6723 54.9631 6.78529 54.9255 6.93593 54.8878C7.35019 54.8125 7.76445 54.8502 8.17871 54.9631L7.35018 56.2059L2.07775 58.3526C2.34137 57.8253 2.68032 57.4111 3.05692 57.1474L3.01926 57.1851Z" fill="#C3C8FC"/>
<path d="M3.84707 56.6584C4.03537 56.5454 4.26134 56.3948 4.4873 56.2441C3.62112 56.809 3.16919 58.1272 2.98089 59.9348C2.94323 60.3114 3.09387 60.6127 3.47047 60.7634L6.25732 62.0438L6.10669 62.3828L3.31983 61.1023C2.79259 60.8387 2.52897 60.4244 2.60429 59.8972C2.98089 57.9389 3.20685 57.2233 3.84707 56.6584Z" fill="#7D83FF"/>
<path d="M3.69612 65.369C3.59489 64.8802 3.82653 64.419 4.21351 64.3388C4.60048 64.2587 4.99625 64.59 5.09747 65.0788C5.1987 65.5676 4.96705 66.0288 4.58008 66.109C4.19311 66.1891 3.79735 65.8578 3.69612 65.369Z" fill="#FF4CD2"/>
<path d="M5.83226 64.5146C4.51209 58.1398 6.34776 52.3701 9.93236 51.6278C13.517 50.8855 17.4931 55.4515 18.8132 61.8264C20.1334 68.2013 18.2977 73.9709 14.7131 74.7133C11.1285 75.4556 7.15243 70.8895 5.83226 64.5146Z" fill="#1D0066"/>
<path d="M10.1364 51.6129C10.287 51.6129 10.4753 51.5752 10.626 51.5752C10.4753 51.5752 10.287 51.5752 10.1364 51.6129Z" fill="#B3269C"/>
<path d="M15.1084 74.2082C15.7486 74.0952 16.3512 73.8316 16.8784 73.455C16.2759 74.0952 15.5226 74.5095 14.7318 74.6978C12.1332 75.225 9.38403 73.0407 7.50102 69.3877C9.49702 72.7018 12.3968 74.6978 15.1084 74.2082Z" fill="#0EB855"/>
<path d="M16.8404 73.4924C15.9742 74.3586 14.6561 74.5469 13.6392 73.9067C11.4173 72.5133 9.27065 68.7473 8.29148 64.0021C7.31232 59.2945 7.76424 54.9636 9.27065 52.7793C9.94853 51.8002 11.2666 51.4235 12.3965 51.9131C15.1833 53.0429 17.8195 56.8843 18.8363 61.8178C19.8532 66.7513 18.987 71.3081 16.878 73.4548L16.8404 73.4924Z" fill="black"/>
<path d="M76.1175 72.5143C79.1304 71.5351 80.5991 70.2547 81.0134 67.1289C81.4276 64.0031 82.1055 56.4334 81.0134 46.6417C79.8836 36.5865 74.5735 29.5063 65.0454 25.7026C56.1953 22.2002 33.5238 18.8861 17.1793 35.2307C11.1537 41.2563 9.19532 46.4158 8.66808 48.4118C8.14083 50.4078 8.14084 53.2699 10.5134 63.9654C12.8107 74.2467 17.6312 79.2931 19.0623 80.7996C20.4934 82.306 22.64 83.2098 27.1592 82.7955C38.4197 81.7787 59.5847 77.975 76.0799 72.5143H76.1175Z" fill="#434FD1"/>
<path d="M65.0458 25.7016C74.5738 29.4676 79.8462 36.5854 81.0137 46.6407C82.1435 56.4323 81.428 64.0397 81.0137 67.1278C80.5994 70.2536 79.093 71.5341 76.1179 72.5133C70.6948 74.3209 64.7445 75.9403 58.8318 77.3338C44.7846 48.4484 42.9392 30.3715 46.8559 22.8771C54.4632 22.6511 61.1291 24.1575 65.0458 25.7393V25.7016Z" fill="#323FBD"/>
<path d="M30.0966 82.4932C29.0798 82.6062 28.1006 82.7192 27.1968 82.7945C22.6775 83.2088 20.5309 82.3049 19.0998 80.7985C17.6687 79.2921 12.8482 74.2456 10.5509 63.9644C8.17835 53.2689 8.17835 50.4067 8.70559 48.4107C9.23284 46.4147 11.1535 41.2929 17.2168 35.2296C21.7737 30.6727 26.7825 27.6599 31.9043 25.7393C23.6944 28.9027 11.3042 45.5485 30.1343 82.4932H30.0966Z" fill="#5969F4"/>
<path d="M17.2167 35.2289C21.4347 31.0109 26.0669 28.1111 30.7744 26.1904C19.3257 30.9733 10.6262 42.5726 9.34575 47.6568C9.34575 47.6568 9.45872 66.6375 16.1999 77.22C14.2792 74.4708 11.982 70.1776 10.5885 63.9636C8.21593 53.2681 8.21593 50.406 8.74318 48.41C9.27042 46.414 11.1911 41.2922 17.2544 35.2289H17.2167Z" fill="#D4D7FF"/>
<path d="M31.8667 25.7393C31.4901 25.8899 31.1512 26.0029 30.7746 26.1912C31.1512 26.0405 31.4901 25.8899 31.8667 25.7393Z" fill="#D4D7FF"/>
<path d="M10.4375 46.6404C8.66744 48.0715 8.8934 50.896 9.00639 52.5154C9.11937 54.1348 10.8517 65.5459 13.3373 70.5547C15.5593 75.0362 19.2123 78.388 24.5601 78.4257C34.6153 78.4633 56.5713 74.5843 65.2331 69.4625C73.1041 64.7927 74.6105 57.9385 74.4599 53.3063C74.0456 41.4433 71.2587 36.8864 67.3421 35.493C61.4671 33.4217 55.4414 36.8111 50.0937 39.259C41.6201 43.1004 32.9959 46.7911 23.3926 46.3768C17.1033 46.1132 12.7724 44.8327 10.4375 46.6781V46.6404Z" fill="white"/>
<path d="M10.3628 46.226C8.59281 47.6571 8.81878 50.5193 8.93176 52.1386C9.04474 53.758 10.7394 65.2444 13.2627 70.2156C15.4846 74.6971 19.1377 78.0489 24.4478 78.0865C34.503 78.1242 56.4966 74.2075 65.1961 69.0857C73.1424 64.3782 74.7242 57.4487 74.5735 52.7789C74.2346 40.7653 71.4854 36.1707 67.5311 34.7773C61.6184 32.6683 55.5175 36.1707 50.132 38.6186C41.5832 42.5353 32.9213 46.2637 23.2803 45.8494C16.991 45.5858 12.6601 44.3053 10.3252 46.1883L10.3628 46.226Z" fill="#2D35AD"/>
<path d="M68.8117 53.7205L74.6113 53.5322C74.5737 57.1476 73.4815 61.8551 69.4142 65.8848L63.9158 64.529L68.8117 53.7205Z" fill="#161A8A"/>
<path d="M27.5361 69.7268L15.7861 74.02C14.807 72.8902 13.9408 71.6098 13.2629 70.1787C12.6227 68.8983 12.0578 67.2035 11.5305 65.3582L26.2933 61.3662L27.4985 69.6891L27.5361 69.7268Z" fill="#161A8A"/>
<path d="M10.3627 46.226C10.4757 46.1506 10.5887 46.0753 10.7016 46L24.1087 52.6282L26.293 61.4407L11.5302 65.4327C10.0237 60.0473 9.04458 53.3814 8.96926 52.1386C8.81862 50.5192 8.59266 47.6571 10.4003 46.226H10.3627Z" fill="#1D0066"/>
<path d="M63.7652 42.0841L67.2299 34.665C67.3429 34.665 67.4559 34.7404 67.5689 34.778C71.5232 36.1714 74.2724 40.766 74.6113 52.7796C74.6113 53.0056 74.6113 53.2692 74.6113 53.5328L68.8117 53.7211L63.7652 42.0841Z" fill="#1D0066"/>
<path d="M23.3181 45.8864C32.9215 46.3007 41.621 42.5723 50.1699 38.6557C55.48 36.2077 61.4303 32.856 67.23 34.7013L63.7652 42.1204L24.0714 53.4938L13.0369 47.2045L10.702 45.9994C13.1122 44.493 17.3302 45.6605 23.3181 45.9241V45.8864Z" fill="black"/>
<path d="M11.5298 54.2103C11.0026 50.4819 11.1909 48.26 13.0362 47.1302C14.8816 46.0004 16.8399 46.3393 22.263 46.6782C31.2638 47.2432 39.6997 44.5316 48.2109 40.8409C56.7221 37.1502 60.6388 35.3049 65.8359 36.4723C71.033 37.6398 72.2005 44.9459 72.69 52.9298C73.1796 60.9138 67.4553 66.9394 59.9232 70.2159C50.2445 74.3962 37.1011 76.2039 29.1925 76.6181C22.6396 76.9571 16.5763 74.5468 14.4673 67.0148C13.2622 62.6462 12.17 58.3529 11.5675 54.1726L11.5298 54.2103Z" fill="url(#paint25_linear_5145_38262)"/>
<g style="mix-blend-mode:multiply" opacity="0.5">
<path d="M11.53 54.2103C12.1326 58.3906 13.2247 62.6838 14.4299 67.0524C14.9194 68.8225 15.635 70.2912 16.5012 71.534C16.0116 70.5925 15.5973 69.5757 15.2584 68.4082C14.0532 64.0396 12.9611 59.7463 12.3585 55.5661C11.8313 51.8377 12.0196 49.6157 13.8649 48.4859C15.6726 47.3938 17.6686 47.6951 23.054 48.034C32.0548 48.5989 40.4907 45.8874 49.0019 42.1967C57.5132 38.506 61.4298 36.6606 66.6269 37.8281C68.1333 38.167 69.2631 38.9956 70.167 40.2383C69.1502 38.28 67.7567 36.9243 65.7607 36.4723C60.5636 35.3049 56.647 37.1502 48.1358 40.8409C39.6245 44.5316 31.1887 47.2432 22.1879 46.6782C16.8024 46.3393 14.8065 46.0004 12.9611 47.1302C11.1158 48.2223 10.9275 50.4819 11.4547 54.2103H11.53Z" fill="#3D49CC"/>
</g>
<g style="mix-blend-mode:multiply" opacity="0.5">
<path d="M25.3896 60.0475C27.4609 69.2366 30.888 69.8391 41.1692 67.8431C52.4296 65.6589 54.4633 62.759 53.1828 54.9257C51.7517 46.1885 48.513 45.3223 37.7798 47.5443C26.6324 49.8416 23.4689 51.5739 25.3519 60.0098L25.3896 60.0475Z" fill="#3D49CC"/>
</g>
<path d="M58.9068 58.1279C60.6015 61.442 61.3171 65.1703 58.1536 67.317C56.3836 68.5221 54.011 68.5974 52.0903 68.0325C50.4333 67.5429 51.1865 66.9404 51.9773 66.1118C54.7265 63.2873 55.894 60.5005 56.7978 58.3538C57.3251 57.0357 58.0783 56.5838 58.9068 58.1655V58.1279Z" fill="black"/>
<path d="M55.1408 68.3342C55.1408 67.8823 55.2538 67.4303 55.3668 66.9408C56.0823 64.6435 58.0783 62.6851 60.2626 62.0449C60.5639 64.0786 60.0743 65.9992 58.1537 67.3174C57.2498 67.9199 56.1953 68.2589 55.1408 68.3342Z" fill="#F78BCC"/>
<path d="M24.0709 59.4446C26.7071 68.1441 30.1718 68.709 40.4154 66.8637C51.6382 64.83 53.7095 62.1185 52.5044 54.6241C51.1109 45.8869 47.6838 44.9454 36.4611 47.1297C24.7864 49.3893 21.5476 51.1217 24.0709 59.4446Z" fill="#B9BFFA"/>
<path d="M24.0712 59.4452C25.1257 62.8722 26.2931 65.0565 27.9878 66.2993C26.4438 65.0189 25.3893 62.8722 24.4854 59.5958C22.1882 51.3106 25.4269 49.5782 36.9886 47.2432C41.1313 46.4147 44.1817 46.0005 46.479 46.2641C44.1441 45.8498 40.9053 46.2641 36.4614 47.0926C24.7867 49.3522 21.5479 51.0846 24.0712 59.4075V59.4452Z" fill="white"/>
<path d="M27.7621 66.1864C30.2853 67.8434 33.9007 67.6174 39.7757 66.563C50.8102 64.6046 52.8438 61.9684 51.601 54.6247C50.7349 49.4276 49.605 46.9796 46.3663 46.3018C50.0193 46.9043 51.601 49.3146 52.4672 54.6247C53.6723 62.1567 51.6387 64.8306 40.3783 66.8642C34.0514 67.9941 30.2853 68.22 27.7244 66.1864H27.7621Z" fill="#939DF5"/>
<path d="M39.9659 60.9793C39.8146 60.0346 41.157 59.0341 42.9643 58.7446C44.7716 58.4551 46.3594 58.9863 46.5107 59.931C46.662 60.8758 45.3196 61.8763 43.5123 62.1658C41.705 62.4552 40.1172 61.9241 39.9659 60.9793Z" fill="#3A45C7"/>
<path d="M28.6862 63.0509C28.5366 62.1059 29.7475 61.1289 31.391 60.8686C33.0344 60.6083 34.488 61.1633 34.6377 62.1083C34.7874 63.0533 33.5764 64.0303 31.933 64.2906C30.2895 64.5509 28.8359 63.9959 28.6862 63.0509Z" fill="#3A45C7"/>
<path d="M42.9009 58.7682C44.7085 58.4669 46.2903 58.9941 46.4409 59.9733C46.4409 59.9733 46.4409 59.9733 46.4409 60.011C45.763 59.7097 44.8215 59.6344 43.8047 59.785C42.0347 60.0863 40.7166 61.0655 40.8295 61.9693C40.3023 61.7433 39.9634 61.4044 39.9257 60.9901C39.7751 60.0486 41.0932 59.0318 42.9009 58.7305V58.7682Z" fill="#161A8A"/>
<path d="M31.3769 60.9145C32.9963 60.6508 34.4651 61.2158 34.6157 62.1573C34.0132 61.8936 33.1846 61.7807 32.3185 61.9313C30.6991 62.1949 29.4939 63.1741 29.6069 64.1156C29.1173 63.8896 28.7407 63.5507 28.7031 63.0988C28.5524 62.1573 29.7576 61.1781 31.4146 60.9145H31.3769Z" fill="#161A8A"/>
<path d="M57.6376 48.0294C57.2566 46.0693 58.338 44.2102 60.0531 43.8768C61.7681 43.5434 63.4672 44.8621 63.8482 46.8221C64.2292 48.7822 63.1478 50.6413 61.4327 50.9747C59.7177 51.3081 58.0186 49.9894 57.6376 48.0294Z" fill="black"/>
<path d="M14.0299 57.352C13.6728 55.5145 14.4094 53.8254 15.6752 53.5793C16.9411 53.3333 18.2568 54.6234 18.614 56.4609C18.9712 58.2985 18.2346 59.9876 16.9687 60.2336C15.7029 60.4797 14.3871 59.1895 14.0299 57.352Z" fill="black"/>
<path d="M14.7986 56.5777C14.5124 56.5242 14.3641 56.0333 14.4674 55.4813C14.5707 54.9293 14.8865 54.5252 15.1727 54.5788C15.4589 54.6324 15.6072 55.1233 15.5039 55.6753C15.4006 56.2272 15.0848 56.6313 14.7986 56.5777Z" fill="#B9BFFA"/>
<path d="M58.551 47.3322C58.2102 47.2377 58.0782 46.6411 58.2561 45.9998C58.4339 45.3584 58.8543 44.9151 59.1951 45.0096C59.5358 45.1041 59.6678 45.7006 59.49 46.342C59.3121 46.9833 58.8917 47.4267 58.551 47.3322Z" fill="#B9BFFA"/>
<path d="M80.1094 65.396C80.6743 60.5378 82.256 38.3936 71.5605 29.2422C77.0212 33.3095 80.147 39.1468 81.0132 46.6036C82.143 56.3952 81.4275 64.0026 81.0132 67.0907C80.599 70.2165 79.0925 71.497 76.1174 72.4761C75.4772 72.7021 74.8369 72.8904 74.1967 73.1164C77.5108 71.9489 79.5821 70.1035 80.1094 65.396Z" fill="#35E97F"/>
<path d="M78.5273 37.6777C79.8078 40.314 80.6363 43.3268 81.0129 46.6032C81.7285 53.0054 81.6908 58.4285 81.4648 62.3075C79.5818 61.705 77.5858 59.4453 76.2301 50.8588C74.8743 42.2723 76.1924 38.1673 78.5273 37.6777Z" fill="black"/>
<path d="M76.7202 49.8038C78.6408 60.6123 81.3524 61.8927 83.8379 61.2902C86.2482 60.6876 87.491 56.4697 86.0222 48.1467C84.5535 39.8238 81.8796 36.2838 79.4317 36.585C76.9085 36.8863 74.7995 38.9953 76.7578 49.8038H76.7202Z" fill="#1D0066"/>
<path d="M79.8837 49.24C81.0888 56.0188 83.4614 60.9523 85.0808 60.3498C86.6248 59.7472 86.9261 54.3241 85.834 48.1855C84.7418 42.0469 82.5575 37.0381 80.9005 37.0381C79.1681 37.0381 78.6409 42.4988 79.8837 49.24Z" fill="#161A8A"/>
<path d="M83.6496 60.952C86.0975 60.3494 87.4156 56.1315 86.1351 47.8086L86.3234 48.1475C87.6039 56.4328 86.2858 60.6884 83.8379 61.291C82.4068 61.6299 80.9004 61.3663 79.5823 58.9937C80.8627 61.065 82.2938 61.291 83.6496 60.952Z" fill="#0EB855"/>
<path d="M82.03 37.9415C82.2936 37.9038 88.0933 38.883 88.0933 38.883C88.7335 39.0713 89.901 42.649 90.6919 47.0929C91.5204 51.5745 91.7087 55.3405 91.1438 55.7171C90.3529 56.2444 86.135 58.6923 85.8337 58.7676C84.8922 58.9559 83.2728 54.4367 82.2183 48.6747C81.1638 42.9126 81.0508 38.1298 82.03 37.9415Z" fill="#A0A9FA"/>
<path d="M82.2624 48.581C81.2073 42.8325 81.1149 38.0324 82.056 37.8596C82.997 37.6869 84.6152 42.207 85.6702 47.9556C86.7253 53.7041 86.8177 58.5043 85.8767 58.677C84.9356 58.8497 83.3175 54.3296 82.2624 48.581Z" fill="#A0A9FA"/>
<path d="M82.2564 48.6379C81.9174 46.8679 81.6915 45.1355 81.5408 43.6668L88.621 43.2148L88.9976 50.2196L83.0849 52.4416C82.7836 51.2741 82.52 49.956 82.2564 48.6003V48.6379Z" fill="#8D99F7"/>
<path d="M91.1061 55.3408L91.332 55.4538C91.2944 55.5668 91.2567 55.6421 91.1814 55.6798C90.3905 56.207 86.1726 58.6549 85.8713 58.7302C85.7207 58.7302 85.5324 58.6549 85.3441 58.4666L91.1061 55.3408Z" fill="#35E97F"/>
<path d="M89.169 47.3362C88.5157 43.7766 88.3841 40.8179 88.875 40.7278C89.366 40.6377 90.2937 43.4503 90.947 47.0099C91.6003 50.5695 91.7319 53.5281 91.2409 53.6182C90.7499 53.7084 89.8223 50.8958 89.169 47.3362Z" fill="#C2C6F2"/>
<path d="M88.462 47.5318C87.6186 42.9365 87.449 39.117 88.0832 39.0006C88.7174 38.8842 89.9152 42.515 90.7586 47.1103C91.6019 51.7055 91.7715 55.525 91.1374 55.6414C90.5032 55.7578 89.3054 52.127 88.462 47.5318Z" fill="#C3C8FC"/>
<path d="M88.8845 47.4815C88.1847 43.5921 88.0323 40.3645 88.544 40.2724C89.0558 40.1804 90.038 43.2587 90.7378 47.1481C91.4376 51.0375 91.59 54.2651 91.0783 54.3572C90.5665 54.4492 89.5843 51.3709 88.8845 47.4815Z" fill="#FE72DD"/>
<path d="M88.8845 40.766C89.1105 40.7283 91.5584 40.9543 91.5961 40.9543C92.0103 40.9919 92.7635 43.4775 93.3284 46.5656C93.8933 49.6538 94.044 52.2147 93.705 52.4406C93.705 52.4406 91.4831 53.5328 91.2571 53.6081C90.7675 53.6834 89.8637 50.8966 89.1858 47.3565C88.5079 43.8164 88.3949 40.8413 88.8845 40.766Z" fill="#A0A9FA"/>
<path d="M91.8591 42.3096L93.1772 47.8456L89.5619 49.1261C89.4489 48.5612 89.2982 47.9586 89.1853 47.356C88.8087 45.36 88.6204 43.5147 88.5827 42.3096H91.8591Z" fill="#8D99F7"/>
<path d="M93.7054 52.1387H93.8184C93.8184 52.327 93.743 52.44 93.6677 52.4776C93.6677 52.4776 91.4458 53.5698 91.2198 53.6451C91.1068 53.6451 90.9938 53.5698 90.8809 53.3815L93.7054 52.1763V52.1387Z" fill="#35E97F"/>
<path d="M91.8805 46.8402C91.2948 43.6488 91.1351 41.0039 91.5237 40.9326C91.9124 40.8612 92.7024 43.3905 93.2881 46.5819C93.8738 49.7732 94.0335 52.4182 93.6448 52.4895C93.2562 52.5609 92.4662 50.0316 91.8805 46.8402Z" fill="#C3C8FC"/>
<path d="M91.3705 41.2559C91.7095 41.1806 92.425 43.2519 93.0652 46.1894C93.7431 49.4282 94.0444 52.4034 93.6678 52.5163C94.0444 52.441 93.8937 49.8048 93.3288 46.6413C92.7263 43.4779 91.9354 40.9546 91.5588 41.03C91.4835 41.03 91.4458 41.1429 91.4082 41.2936L91.3705 41.2559Z" fill="#63F9B3"/>
<path d="M83.7981 48.6913C83.7091 48.1158 84.0534 47.5848 84.5672 47.5052C85.0811 47.4257 85.5699 47.8277 85.659 48.4032C85.7481 48.9788 85.4037 49.5098 84.8899 49.5893C84.376 49.6689 83.8872 49.2668 83.7981 48.6913Z" fill="#FF4CD2"/>
<path d="M85.2694 43.7034L81.8799 46.3773C81.8799 46.2266 81.8423 46.076 81.8046 45.963L85.0057 43.4398C85.0811 43.3645 85.1564 43.2515 85.1564 43.1385C85.0811 41.7074 85.0434 39.3348 85.646 38.5439C85.8343 38.5439 86.0602 38.6193 86.2485 38.6569C86.1732 38.6569 86.1356 38.6569 86.0979 38.6569C85.7213 38.7322 85.3447 40.2763 85.533 43.1385C85.533 43.4021 85.4577 43.6281 85.2694 43.7787V43.7034Z" fill="#7D83FF"/>
<path d="M60.7528 24.3087C58.079 23.6308 54.9155 23.1035 51.4131 22.9152L52.204 19.9401C52.2793 19.7141 52.4676 19.5635 52.7312 19.5635C67.5317 20.1284 79.9596 26.8696 85.119 38.3936C85.1567 38.5066 85.119 38.6196 85.0437 38.7325L84.7424 39.0338C84.5918 39.1845 84.4035 39.2598 84.1775 39.2598L81.5413 39.0715C77.8883 32.4433 71.0717 26.6436 60.7905 24.3463L60.7528 24.3087Z" fill="#A0A9FA"/>
<path d="M54.8764 19.6758C68.6978 20.8056 80.1841 27.4338 85.08 38.3929C85.1176 38.5059 85.08 38.6189 85.0046 38.7319L84.7033 39.0331C84.5904 39.1461 84.4774 39.2214 84.3267 39.2214C84.2138 39.2214 84.1008 39.2214 84.0631 39.0708C81.5776 33.8737 75.5896 21.4835 54.8764 19.6758Z" fill="#7C89F7"/>
<path d="M39.7375 8.00186C44.0685 7.92654 47.5332 10.1485 47.5332 12.7094C47.5332 15.2703 45.2359 16.0988 38.6454 16.1741C35.8585 16.1741 32.5444 16.2494 29.6069 16.2871L29.5316 14.0275C31.6782 10.9017 35.5573 8.11484 39.7375 8.03952V8.00186Z" fill="#72F3A5"/>
<path d="M36.4619 1.44865C36.6125 0.243522 37.7046 -0.0200993 38.3449 0.318843C39.55 0.921406 39.7006 1.71227 39.663 2.76676C39.6253 3.78358 38.8345 10.3741 36.4242 13.6882L30.2856 14.4414C35.445 11.6169 35.784 7.06002 36.4619 1.48631V1.44865Z" fill="#008046"/>
<path d="M39.0224 0.770508C39.5873 1.29775 39.6626 1.93797 39.6626 2.72884C39.6626 3.3314 39.3613 5.704 38.6834 8.26489H38.3068C39.286 4.76249 39.9262 1.67435 39.0224 0.770508Z" fill="#A7FFCA"/>
<path d="M37.3649 8.75464C37.6286 8.37804 38.0428 8.15208 38.4947 8.07676C38.909 8.00143 39.3233 8.00144 39.7375 7.96377C44.0685 7.88845 47.5332 10.1104 47.5332 12.6713C47.5332 15.2322 45.2359 16.0607 38.6454 16.136L32.8457 14.253C35.4066 12.5583 36.3105 10.1857 37.4026 8.75464H37.3649Z" fill="#48F08A"/>
<path d="M36.4616 1.44865C36.6122 0.243522 37.7044 -0.0200993 38.3446 0.318843C38.3446 0.318843 38.3823 0.318843 38.4199 0.356503C37.2525 -0.13308 37.1771 1.18503 36.6122 5.59127C36.0097 10.4494 34.4656 11.9935 31.4528 14.2531L30.2477 14.4038C35.4071 11.5792 35.746 7.02236 36.4239 1.44865H36.4616Z" fill="#12A459"/>
<path d="M29.5698 16.2495C32.5073 16.2119 35.8214 16.1742 38.6083 16.1365C45.1988 16.0612 47.4961 14.8937 47.4961 12.6718C47.4961 12.2343 47.2325 11.316 46.8935 10.8641C48.1363 12.6718 46.5922 14.5548 43.3535 14.4795C38.1187 14.3665 28.1764 10.0732 21.9248 10.3745C15.2213 10.6758 12.1708 15.4586 12.2461 18.5844C12.3214 21.3336 14.8823 22.8024 17.5939 22.4634C22.2261 21.8985 25.6532 19.7519 29.5698 16.2495Z" fill="#17D171"/>
<path d="M12.3214 19.2621C11.7565 16.1363 15.3343 11.3534 22.0001 11.0898C28.2517 10.8262 38.194 15.1194 43.4288 15.1948C45.6131 15.2324 47.1195 14.1779 47.4961 12.9351C47.3455 15.0064 44.9729 16.0609 38.6083 16.1363C35.8214 16.1363 32.5073 16.2116 29.5698 16.2492C25.6532 19.7516 22.2261 21.8606 17.5939 22.4632C15.0706 22.7645 12.7734 21.597 12.3214 19.2621Z" fill="#12A459"/>
<path d="M14.92 22.1625C18.1964 23.3299 24.6363 20.3171 27.3479 17.5303L27.7998 17.7562C24.5987 20.3548 21.5105 22.0118 17.5939 22.4638C15.8992 22.6521 14.8823 22.2001 14.8823 22.2001L14.92 22.1625Z" fill="#A7FFCA"/>
<path d="M20.7571 14.6674C21.4349 16.4751 25.6152 18.3204 28.967 18.2828C31.3019 18.2828 33.2979 17.3413 34.729 16.1738C32.9966 16.1738 31.2266 16.2115 29.5696 16.2491C27.084 16.2491 24.7867 15.3453 23.5439 14.6674C22.4894 14.0648 21.9245 13.8389 21.3973 13.8389C20.87 13.8389 20.5688 14.2155 20.7571 14.7051V14.6674Z" fill="#008046"/>
<path d="M34.0888 16.1748C34.3147 16.1748 34.503 16.1748 34.729 16.1748C33.2979 17.3423 31.2643 18.2838 28.967 18.2838C28.3268 18.2838 27.6112 18.2085 26.9333 18.0955C29.4566 18.4721 32.3188 17.6059 34.0888 16.1748Z" fill="#A7FFCA"/>
<defs>
<linearGradient id="paint0_linear_5145_38262" x1="45.5747" y1="115.257" x2="37.2894" y2="102.717" gradientUnits="userSpaceOnUse">
<stop offset="0.1" stop-color="#35ED7E" stop-opacity="0"/>
<stop offset="0.5" stop-color="#35ED7E" stop-opacity="0.2"/>
<stop offset="1" stop-color="#35ED7E"/>
</linearGradient>
<linearGradient id="paint1_linear_5145_38262" x1="46.0277" y1="109.721" x2="41.8097" y2="101.21" gradientUnits="userSpaceOnUse">
<stop stop-color="#35D993" stop-opacity="0"/>
<stop offset="0.4" stop-color="#35D993" stop-opacity="0.1"/>
<stop offset="1" stop-color="#35D993"/>
</linearGradient>
<linearGradient id="paint2_linear_5145_38262" x1="41.1307" y1="115.634" x2="36.6115" y2="107.951" gradientUnits="userSpaceOnUse">
<stop stop-color="#35D993" stop-opacity="0"/>
<stop offset="0.4" stop-color="#35D993" stop-opacity="0.1"/>
<stop offset="1" stop-color="#35D993"/>
</linearGradient>
<linearGradient id="paint3_linear_5145_38262" x1="40.9052" y1="109.044" x2="34.9925" y2="98.5744" gradientUnits="userSpaceOnUse">
<stop stop-color="#35D993"/>
<stop offset="1" stop-color="#0EB855"/>
</linearGradient>
<linearGradient id="paint4_linear_5145_38262" x1="35.9727" y1="100.321" x2="34.5062" y2="97.4572" gradientUnits="userSpaceOnUse">
<stop stop-color="#0EB855"/>
<stop offset="1" stop-color="#2327A1"/>
</linearGradient>
<linearGradient id="paint5_linear_5145_38262" x1="35.9424" y1="100.366" x2="34.4688" y2="97.4648" gradientUnits="userSpaceOnUse">
<stop stop-color="#0EB855"/>
<stop offset="1" stop-color="#2327A1"/>
</linearGradient>
<linearGradient id="paint6_linear_5145_38262" x1="34.4279" y1="96.5409" x2="21.4728" y2="75.1122" gradientUnits="userSpaceOnUse">
<stop stop-color="#35ED7E"/>
<stop offset="0.53" stop-color="#323FBD"/>
<stop offset="1" stop-color="#161A8A"/>
</linearGradient>
<linearGradient id="paint7_linear_5145_38262" x1="35.6323" y1="95.7877" x2="22.6395" y2="74.359" gradientUnits="userSpaceOnUse">
<stop stop-color="#35ED7E"/>
<stop offset="0.53" stop-color="#323FBD"/>
<stop offset="0.9" stop-color="#161A8A"/>
</linearGradient>
<linearGradient id="paint8_linear_5145_38262" x1="107.225" y1="91.3437" x2="112.46" y2="113.111" gradientUnits="userSpaceOnUse">
<stop stop-color="#35ED7E" stop-opacity="0.9"/>
<stop offset="0.35615" stop-color="#35ED7E" stop-opacity="0.2"/>
<stop offset="0.6" stop-color="#35ED7E" stop-opacity="0.1"/>
<stop offset="0.826467" stop-color="#35ED7E" stop-opacity="0.0139977"/>
<stop offset="0.958" stop-color="#35ED7E" stop-opacity="0"/>
</linearGradient>
<linearGradient id="paint9_linear_5145_38262" x1="111.67" y1="89.9502" x2="116.226" y2="104.186" gradientUnits="userSpaceOnUse">
<stop stop-color="#35D993" stop-opacity="0.9"/>
<stop offset="0.769265" stop-color="#35D993" stop-opacity="0"/>
<stop offset="1" stop-color="#35D993" stop-opacity="0"/>
</linearGradient>
<linearGradient id="paint10_linear_5145_38262" x1="104.525" y1="94.3659" x2="108.071" y2="107.743" gradientUnits="userSpaceOnUse">
<stop stop-color="#35D993" stop-opacity="0.9"/>
<stop offset="0.6" stop-color="#35D993" stop-opacity="0.1"/>
<stop offset="1" stop-color="#35D993" stop-opacity="0"/>
</linearGradient>
<linearGradient id="paint11_linear_5145_38262" x1="108.883" y1="98.1068" x2="105.275" y2="83.4677" gradientUnits="userSpaceOnUse">
<stop stop-color="#35D993"/>
<stop offset="1" stop-color="#0EB855"/>
</linearGradient>
<linearGradient id="paint12_linear_5145_38262" x1="106.621" y1="87.6521" x2="105.642" y2="84.338" gradientUnits="userSpaceOnUse">
<stop stop-color="#0EB855"/>
<stop offset="1" stop-color="#2327A1"/>
</linearGradient>
<linearGradient id="paint13_linear_5145_38262" x1="106.547" y1="87.6528" x2="105.606" y2="84.3764" gradientUnits="userSpaceOnUse">
<stop stop-color="#0EB855"/>
<stop offset="1" stop-color="#2327A1"/>
</linearGradient>
<linearGradient id="paint14_linear_5145_38262" x1="105.154" y1="82.8318" x2="97.0951" y2="56.8839" gradientUnits="userSpaceOnUse">
<stop stop-color="#35ED7E"/>
<stop offset="0.548096" stop-color="#323FBD"/>
<stop offset="1" stop-color="#161A8A"/>
</linearGradient>
<linearGradient id="paint15_linear_5145_38262" x1="105.229" y1="82.7947" x2="97.207" y2="56.8468" gradientUnits="userSpaceOnUse">
<stop stop-color="#35ED7E"/>
<stop offset="0.531703" stop-color="#323FBD"/>
<stop offset="1" stop-color="#161A8A"/>
</linearGradient>
<linearGradient id="paint16_linear_5145_38262" x1="87.7169" y1="124.221" x2="80.2226" y2="107.688" gradientUnits="userSpaceOnUse">
<stop offset="0.0478856" stop-color="#35ED7E" stop-opacity="0"/>
<stop offset="0.317311" stop-color="#35ED7E" stop-opacity="0.0397698"/>
<stop offset="0.53848" stop-color="#35ED7E" stop-opacity="0.16"/>
<stop offset="0.750032" stop-color="#35ED7E" stop-opacity="0.4"/>
<stop offset="1" stop-color="#35ED7E"/>
</linearGradient>
<linearGradient id="paint17_linear_5145_38262" x1="81.1263" y1="122.15" x2="75.9668" y2="112.132" gradientUnits="userSpaceOnUse">
<stop stop-color="#35D993" stop-opacity="0"/>
<stop offset="0.5" stop-color="#35D993" stop-opacity="0.2"/>
<stop offset="1" stop-color="#35D993"/>
</linearGradient>
<linearGradient id="paint18_linear_5145_38262" x1="91.8602" y1="118.157" x2="86.1358" y2="104.374" gradientUnits="userSpaceOnUse">
<stop stop-color="#35D993" stop-opacity="0"/>
<stop offset="0.5" stop-color="#35D993" stop-opacity="0.2"/>
<stop offset="1" stop-color="#35D993"/>
</linearGradient>
<linearGradient id="paint19_linear_5145_38262" x1="70.1668" y1="130.886" x2="60.9777" y2="114.994" gradientUnits="userSpaceOnUse">
<stop stop-color="#35ED7E" stop-opacity="0"/>
<stop offset="0.423088" stop-color="#35ED7E" stop-opacity="0.08"/>
<stop offset="0.644256" stop-color="#35ED7E" stop-opacity="0.24"/>
<stop offset="0.812537" stop-color="#35ED7E" stop-opacity="0.454517"/>
<stop offset="1" stop-color="#35ED7E"/>
</linearGradient>
<linearGradient id="paint20_linear_5145_38262" x1="62.2963" y1="128.175" x2="57.2875" y2="119.664" gradientUnits="userSpaceOnUse">
<stop stop-color="#35D993" stop-opacity="0"/>
<stop offset="0.447834" stop-color="#35D993" stop-opacity="0.156169"/>
<stop offset="1" stop-color="#35D993"/>
</linearGradient>
<linearGradient id="paint21_linear_5145_38262" x1="64.0286" y1="119.099" x2="58.823" y2="111.292" gradientUnits="userSpaceOnUse">
<stop stop-color="#34E780"/>
<stop offset="1" stop-color="#2D35AD"/>
</linearGradient>
<linearGradient id="paint22_linear_5145_38262" x1="64.1416" y1="119.513" x2="56.7602" y2="108.441" gradientUnits="userSpaceOnUse">
<stop stop-color="#35EB7E"/>
<stop offset="0.8" stop-color="#35EB7E" stop-opacity="0"/>
</linearGradient>
<linearGradient id="paint23_linear_5145_38262" x1="85.1945" y1="110.4" x2="77.6138" y2="105.164" gradientUnits="userSpaceOnUse">
<stop stop-color="#35E781"/>
<stop offset="1" stop-color="#2D35AD"/>
</linearGradient>
<linearGradient id="paint24_linear_5145_38262" x1="86.5126" y1="108.705" x2="71.7122" y2="101.926" gradientUnits="userSpaceOnUse">
<stop stop-color="#35EB7E"/>
<stop offset="0.7" stop-color="#35EB7E" stop-opacity="0"/>
</linearGradient>
<linearGradient id="paint25_linear_5145_38262" x1="12.3583" y1="54.5492" x2="72.0121" y2="58.014" gradientUnits="userSpaceOnUse">
<stop stop-color="#6977F4"/>
<stop offset="1" stop-color="#5262EB"/>
</linearGradient>
</defs>
</svg>
