<svg width="1128" height="1124" viewBox="0 0 1128 1124" fill="none" xmlns="http://www.w3.org/2000/svg">
<g clip-path="url(#clip0_5126_22536)">
<circle cx="213" cy="207" r="2" fill="#D9D9D9"/>
<circle cx="268" cy="67" r="2" fill="#D9D9D9"/>
<circle cx="296" cy="88" r="2" fill="#D9D9D9"/>
<circle cx="766" cy="660" r="2" fill="#D9D9D9"/>
<circle cx="449.414" cy="898.695" r="2" transform="rotate(-165 449.414 898.695)" fill="#D9D9D9"/>
<circle cx="296" cy="249" r="2" fill="#4EE593"/>
<circle cx="380.113" cy="836.644" r="2" transform="rotate(-165 380.113 836.644)" fill="#4EE593"/>
<circle cx="716" cy="369" r="2" fill="#FF70F9"/>
<circle cx="5.48178" cy="612.029" r="2" transform="rotate(-165 5.48178 612.029)" fill="#FF70F9"/>
<circle cx="681" cy="497" r="2" fill="#D9D9D9"/>
<circle cx="72.4183" cy="497.449" r="2" transform="rotate(-165 72.4183 497.449)" fill="#D9D9D9"/>
<circle cx="752" cy="453" r="2" fill="#8166F1"/>
<circle cx="169" cy="293" r="2" fill="#42B0FF"/>
<circle cx="48" cy="148" r="2" fill="#FF903E"/>
<circle cx="12" cy="169" r="2" fill="#FF70F9"/>
<circle cx="1101" cy="909.84" r="2" transform="rotate(-180 1101 909.84)" fill="#D9D9D9"/>
<g opacity="0.3">
<circle cx="834.84" cy="264" r="2" transform="rotate(90 834.84 264)" fill="#D9D9D9"/>
<circle cx="143.144" cy="500.414" r="2" transform="rotate(-75 143.144 500.414)" fill="#D9D9D9"/>
<circle cx="792.84" cy="347" r="2" transform="rotate(90 792.84 347)" fill="#4EE593"/>
<circle cx="205.195" cy="431.113" r="2" transform="rotate(-75 205.195 431.113)" fill="#4EE593"/>
<circle cx="672.84" cy="767" r="2" transform="rotate(90 672.84 767)" fill="#FF70F9"/>
<circle cx="429.81" cy="56.4818" r="2" transform="rotate(-75 429.81 56.4818)" fill="#FF70F9"/>
<circle cx="544.39" cy="123.418" r="2" transform="rotate(-75 544.39 123.418)" fill="#D9D9D9"/>
<circle cx="588.84" cy="803" r="2" transform="rotate(90 588.84 803)" fill="#8166F1"/>
<circle cx="520.266" cy="43.4496" r="2" transform="rotate(-75 520.266 43.4496)" fill="#8166F1"/>
<circle cx="748.84" cy="220" r="2" transform="rotate(90 748.84 220)" fill="#42B0FF"/>
<circle cx="214.825" cy="565.173" r="2" transform="rotate(-75 214.825 565.173)" fill="#42B0FF"/>
<circle cx="893.84" cy="99" r="2" transform="rotate(90 893.84 99)" fill="#FF903E"/>
<circle cx="43.4495" cy="644.521" r="2" transform="rotate(-75 43.4495 644.521)" fill="#FF903E"/>
<circle cx="872.84" cy="63" r="2" transform="rotate(90 872.84 63)" fill="#FF70F9"/>
<circle cx="54.4163" cy="684.729" r="2" transform="rotate(-75 54.4163 684.729)" fill="#FF70F9"/>
</g>
<g opacity="0.3">
<circle cx="967.84" cy="226" r="2" transform="rotate(90 967.84 226)" fill="#FF70F9"/>
<circle cx="839.84" cy="191" r="2" transform="rotate(90 839.84 191)" fill="#D9D9D9"/>
<circle cx="883.84" cy="262" r="2" transform="rotate(90 883.84 262)" fill="#8166F1"/>
<circle cx="509.825" cy="24.1732" r="2" transform="rotate(-75 509.825 24.1732)" fill="#42B0FF"/>
<circle cx="338.449" cy="103.521" r="2" transform="rotate(-75 338.449 103.521)" fill="#FF903E"/>
<circle cx="349.416" cy="143.73" r="2" transform="rotate(-75 349.416 143.73)" fill="#FF70F9"/>
</g>
<g opacity="0.6">
<circle cx="481" cy="301.793" r="2" fill="#D9D9D9"/>
<circle cx="631.195" cy="303.113" r="2" transform="rotate(-75 631.195 303.113)" fill="#4EE593"/>
<circle cx="1098.84" cy="639" r="2" transform="rotate(90 1098.84 639)" fill="#FF70F9"/>
<circle cx="970.84" cy="604" r="2" transform="rotate(90 970.84 604)" fill="#D9D9D9"/>
<circle cx="437" cy="387.793" r="2" fill="#42B0FF"/>
<circle cx="469.449" cy="516.521" r="2" transform="rotate(-75 469.449 516.521)" fill="#FF903E"/>
<circle cx="480.416" cy="556.73" r="2" transform="rotate(-75 480.416 556.73)" fill="#FF70F9"/>
</g>
<g opacity="0.3">
<circle cx="45.8398" cy="878" r="2" transform="rotate(90 45.8398 878)" fill="#D9D9D9"/>
<circle cx="3.83984" cy="961" r="2" transform="rotate(90 3.83984 961)" fill="#4EE593"/>
<circle cx="104.84" cy="713" r="2" transform="rotate(90 104.84 713)" fill="#FF903E"/>
<circle cx="83.8398" cy="677" r="2" transform="rotate(90 83.8398 677)" fill="#FF70F9"/>
</g>
</g>
<defs>
<clipPath id="clip0_5126_22536">
<rect width="1440" height="1124" fill="white" transform="translate(-62)"/>
</clipPath>
</defs>
</svg>
