<svg width="500" height="201" viewBox="0 0 500 201" fill="none" xmlns="http://www.w3.org/2000/svg" xmlns:xlink="http://www.w3.org/1999/xlink">
<g clip-path="url(#clip0_3716_17743)">
<rect width="500" height="201" fill="url(#pattern0_3716_17743)"/>
<rect width="500" height="201" fill="url(#paint0_linear_3716_17743)"/>
<path d="M-0.0842285 86H145.916C131.068 70.7401 114.984 76.0005 114.984 76.0005C114.984 76.0005 101.534 54.3513 84.571 65.8024C77.271 19.4273 45.9429 34.6996 45.9429 34.6996C38.4944 8.67099 9.67797 6.351 -0.0842285 13.4847V86Z" fill="white" fill-opacity="0.12"/>
<path d="M500.416 192H354.416C369.264 176.74 385.348 182 385.348 182C385.348 182 398.798 160.351 415.761 171.802C423.061 125.427 454.389 140.7 454.389 140.7C461.838 114.671 490.654 112.351 500.416 119.485V192Z" fill="white" fill-opacity="0.12"/>
<path d="M64.1957 154.508C64.1957 154.508 91.9157 108.983 126.903 147.424C126.903 147.424 160.055 142.774 171.874 171H27.0139C27.0139 171 49.1395 141.255 64.1957 154.508Z" fill="white" fill-opacity="0.12"/>
<path d="M397.576 28.1194C397.576 28.1194 383.269 3.60605 365.211 24.3051C365.211 24.3051 348.1 21.8012 342 37H416.766C416.766 37 405.347 20.9833 397.576 28.1194Z" fill="white" fill-opacity="0.12"/>
<path d="M248.642 54H250.189C263.112 54 275.506 59.1625 284.644 68.3518C293.782 77.541 298.916 90.0044 298.916 103C298.916 115.996 293.782 128.459 284.644 137.648C275.506 146.838 263.112 152 250.189 152H248.642C235.719 152 223.325 146.838 214.187 137.648C205.049 128.459 199.916 115.996 199.916 103C199.916 90.0044 205.049 77.541 214.187 68.3518C223.325 59.1625 235.719 54 248.642 54Z" fill="white"/>
<path d="M249.572 72L231 90.227V115.857L249.572 134L268.143 115.773V90.213L249.572 72ZM258.857 112.071L249.572 121.171L240.286 112.071V93.9706L249.572 84.8571L258.857 93.9706V112.071Z" fill="#FA6EF6"/>
<path d="M249.571 72V84.8054L258.857 93.8824L268.143 90.1399L249.571 72Z" fill="#FFADFB"/>
<path d="M240.286 112.118L231 115.895L249.572 134V121.17L240.286 112.118Z" fill="#E655D4"/>
<path d="M240.286 93.9175V112.096L249.572 121.235L258.857 112.096V93.9175L249.572 84.7646L240.286 93.9175Z" fill="#FFCFF9"/>
<path d="M258.857 93.7256L240.371 112.118H240.286V107.117L256.315 91.147L258.857 93.7256Z" fill="white"/>
<path d="M258.857 101.177V106.187L246.547 118.5L244 115.869L258.857 101.177Z" fill="white"/>
</g>
<defs>
<pattern id="pattern0_3716_17743" patternContentUnits="objectBoundingBox" width="1" height="1">
<use xlink:href="#image0_3716_17743" transform="matrix(0.00177985 0 0 0.00442233 -0.297253 -0.771144)"/>
</pattern>
<linearGradient id="paint0_linear_3716_17743" x1="299.603" y1="-3.03563" x2="299.603" y2="267.665" gradientUnits="userSpaceOnUse">
<stop stop-color="#3736BB"/>
<stop offset="0.339235" stop-color="#4670E8"/>
<stop offset="0.492065" stop-color="#8377EB"/>
<stop offset="0.823236" stop-color="#E782F1"/>
<stop offset="0.899558" stop-color="#DF90AF"/>
</linearGradient>
<clipPath id="clip0_3716_17743">
<rect width="500" height="201" fill="white"/>
</clipPath>

</defs>
</svg>
