<svg width="43" height="42" viewBox="0 0 43 42" fill="none" xmlns="http://www.w3.org/2000/svg">
<path d="M8.99302 3.68859L9.91838 5.58447C9.96906 5.68233 9.98727 5.79378 9.97038 5.90268C9.9535 6.01159 9.9024 6.11229 9.82447 6.19022C9.74654 6.26815 9.64584 6.31925 9.53693 6.33613C9.42803 6.35302 9.31658 6.33481 9.21872 6.28413L7.32284 5.35877C7.25246 5.32478 7.1753 5.30713 7.09714 5.30713C7.01898 5.30713 6.94183 5.32478 6.87144 5.35877L4.97557 6.28413C4.87771 6.33481 4.76626 6.35302 4.65735 6.33613C4.54845 6.31925 4.44774 6.26815 4.36982 6.19022C4.29189 6.11229 4.24079 6.01159 4.2239 5.90268C4.20702 5.79378 4.22523 5.68233 4.2759 5.58447L5.20127 3.68859C5.23525 3.61821 5.2529 3.54105 5.2529 3.46289C5.2529 3.38473 5.23525 3.30758 5.20127 3.23719L4.2759 1.34132C4.24014 1.24534 4.23358 1.14092 4.25703 1.04122C4.28049 0.941512 4.33292 0.850973 4.40772 0.780999C4.48252 0.711026 4.57634 0.664744 4.67739 0.647981C4.77844 0.631217 4.88218 0.644721 4.97557 0.686793L6.87144 1.61216C6.94183 1.64614 7.01898 1.66379 7.09714 1.66379C7.1753 1.66379 7.25246 1.64614 7.32284 1.61216L9.21872 0.686793C9.31658 0.63612 9.42803 0.617907 9.53693 0.634791C9.64584 0.651675 9.74654 0.70278 9.82447 0.780706C9.9024 0.858633 9.9535 0.959337 9.97038 1.06824C9.98727 1.17715 9.96906 1.2886 9.91838 1.38646L8.99302 3.28233C8.9657 3.34657 8.95162 3.41566 8.95162 3.48546C8.95162 3.55527 8.9657 3.62435 8.99302 3.68859Z" fill="#FFD836"/>
<path d="M21.7221 0.00927734L9.39893 12.3324V29.6661L21.7221 41.9893L34.0453 29.6661V12.3324L21.7221 0.00927734ZM27.8837 27.0932L21.7221 33.2773L15.5605 27.1157V14.8828L21.7221 8.72126L27.8837 14.8828V27.0932Z" fill="#FF73FA"/>
<path d="M21.7217 0.00927734V8.72126L27.8833 14.8829L34.0449 12.3325L21.7217 0.00927734Z" fill="#FFC0FF"/>
<path d="M15.5605 27.1165L9.39893 29.6669L21.7221 41.99V33.278L15.5605 27.1165Z" fill="#E655D4"/>
<path d="M31.2461 33.8639H31.2686C31.8171 33.8639 32.2617 33.4193 32.2617 32.8708V30.8621C32.2617 30.3136 31.8171 29.869 31.2686 29.869H31.2461C30.6976 29.869 30.253 30.3136 30.253 30.8621V32.8708C30.253 33.4193 30.6976 33.8639 31.2461 33.8639Z" fill="#D4E4FF"/>
<path d="M31.2461 41.8766H31.2686C31.8171 41.8766 32.2617 41.432 32.2617 40.8835V38.8748C32.2617 38.3263 31.8171 37.8817 31.2686 37.8817H31.2461C30.6976 37.8817 30.253 38.3263 30.253 38.8748V40.8835C30.253 41.432 30.6976 41.8766 31.2461 41.8766Z" fill="#D4E4FF"/>
<path d="M29.2598 35.8738V35.8512C29.2598 35.3028 28.8152 34.8582 28.2667 34.8582H26.258C25.7095 34.8582 25.2649 35.3028 25.2649 35.8512V35.8738C25.2649 36.4223 25.7095 36.8669 26.258 36.8669H28.2667C28.8152 36.8669 29.2598 36.4223 29.2598 35.8738Z" fill="#D4E4FF"/>
<path d="M37.25 35.8738V35.8512C37.25 35.3028 36.8054 34.8582 36.2569 34.8582H34.2482C33.6997 34.8582 33.2551 35.3028 33.2551 35.8512V35.8738C33.2551 36.4223 33.6997 36.8669 34.2482 36.8669H36.2569C36.8054 36.8669 37.25 36.4223 37.25 35.8738Z" fill="#D4E4FF"/>
<path d="M15.5601 14.8851V27.118L21.7216 33.2796L27.8832 27.118V14.8851L21.7216 8.72351L15.5601 14.8851Z" fill="#FFDEF9"/>
<path d="M27.8615 14.8838V14.9064L15.6061 27.1618L15.5835 27.1392V23.8215L26.1914 13.191L27.8615 14.8838Z" fill="white"/>
<path d="M27.8606 19.511V22.8965L19.6 31.1571L17.9072 29.4643L27.8606 19.511Z" fill="white"/>
</svg>
