<svg width="120" height="46" viewBox="0 0 120 46" fill="none" xmlns="http://www.w3.org/2000/svg">
<path d="M85.8131 0C73.589 0 62.1799 5.78607 54.3565 14.6689C51.2597 14.0985 47.9184 13.854 44.4142 13.854C23.4703 13.854 3.66723 24.3667 0 37.3242C0 37.4872 0.0814952 37.7317 0.325977 37.7317H44.0882H76.6858L119.796 37.8947C121.915 17.1137 106.676 0.0814989 85.8131 0.0814989V0Z" fill="#35ED7E"/>
<path d="M95.3479 1.30391C92.3326 0.488969 89.1543 0 85.7316 0C73.5075 0 62.0983 5.78607 54.2749 14.6689L63.7282 18.6621C65.2766 19.6401 67.4769 21.4329 69.4328 23.5518C77.4192 9.04584 86.0576 2.36333 95.2664 1.30391H95.3479Z" fill="#8FFABA"/>
<path d="M49.9558 14.8315L48.7334 14.0165C47.348 13.935 45.8811 13.8535 44.4142 13.8535C23.4703 13.8535 3.66723 24.3662 0 37.3238C0 37.4868 0.0814952 37.7312 0.325977 37.7312H11.1647L14.5059 33.4121C25.7521 16.4613 42.7028 14.261 49.8743 14.9129L49.9558 14.8315Z" fill="#8FFABA"/>
<path d="M91.0292 0.40747C89.3178 0.162988 87.6065 0 85.8136 0C73.5895 0 62.1804 5.78607 54.3569 14.6689L56.1498 16.2988C66.418 4.31918 78.4791 0.162995 91.0292 0.325983V0.40747Z" fill="#DEFFF6"/>
<path d="M107.328 7.33442C117.922 16.0543 119.144 31.1307 118.411 37.1612C118.411 37.4057 118.411 37.6502 118.411 37.8132H119.796C121.1 25.3446 116.047 14.1799 107.328 7.25293V7.33442Z" fill="#A0FAC4"/>
<path d="M9.53467 24.6922C22.7367 14.9944 47.5923 12.3051 63.8096 18.6617C62.3427 17.6022 58.757 15.8094 54.3563 14.6685C51.2596 14.098 47.9183 13.8535 44.4141 13.8535C30.9676 13.8535 18.01 18.1727 9.53467 24.6922Z" fill="#DEFFF6"/>
<path d="M88.5844 16.5432C73.671 14.6688 58.3501 18.0101 51.8306 24.3666C47.6744 28.3598 47.3485 33.2494 50.7712 37.6501H76.1973L114.662 37.8131C114.825 37.5686 114.907 37.3241 114.988 37.0796C119.389 27.5448 106.024 18.662 88.5029 16.4617L88.5844 16.5432Z" fill="url(#paint0_linear_4960_175738)"/>
<path d="M59.8981 45.8808C92.9788 45.8808 119.796 42.2322 119.796 37.7314C119.796 33.2306 92.9788 29.582 59.8981 29.582C26.8173 29.582 0 33.2306 0 37.7314C0 42.2322 26.8173 45.8808 59.8981 45.8808Z" fill="url(#paint1_linear_4960_175738)"/>
<path d="M106.675 32.6787C121.833 35.6125 121.263 38.5463 111.158 40.9911C101.052 43.4359 72.448 45.8807 59.8979 45.8807C92.9845 45.8807 119.796 42.2135 119.796 37.7313C119.796 33.2492 114.906 34.0641 106.675 32.6787Z" fill="#A0FAC4"/>
<defs>
<linearGradient id="paint0_linear_4960_175738" x1="49.1413" y1="-3.83033" x2="92.1701" y2="43.5177" gradientUnits="userSpaceOnUse">
<stop stop-color="#23C96B"/>
<stop offset="1" stop-color="#35ED7E"/>
</linearGradient>
<linearGradient id="paint1_linear_4960_175738" x1="57.0458" y1="15.3206" x2="61.6909" y2="52.3188" gradientUnits="userSpaceOnUse">
<stop stop-color="#36ED7F"/>
<stop offset="0.9" stop-color="#4A6CD9"/>
</linearGradient>
</defs>
</svg>
