<svg width="1128" height="600" viewBox="0 0 1128 600" fill="none" xmlns="http://www.w3.org/2000/svg">
<g clip-path="url(#clip0_1_210)">
<mask id="mask0_1_210" style="mask-type:alpha" maskUnits="userSpaceOnUse" x="0" y="0" width="1128" height="600">
<path d="M559.5 600H0V0H1128V600H559.5Z" fill="url(#paint0_linear_1_210)"/>
</mask>
<g mask="url(#mask0_1_210)">
<path d="M566.905 554.697C361.963 685.282 216.886 675.85 0 675.85V0H1128V451.568C922.733 451.568 752 436.759 566.905 554.697Z" fill="url(#paint1_linear_1_210)"/>
<path d="M875.9 0H891.1L0 526.1V600V453.1L875.9 0Z" fill="url(#paint2_linear_1_210)"/>
<g style="mix-blend-mode:screen" opacity="0.7">
<path d="M849.6 176L846.4 169.8L849.6 163.6L852.8 169.8L849.6 176Z" fill="white"/>
</g>
<path d="M1058.4 387L1055.8 381.9L1058.4 376.9L1061 381.9L1058.4 387Z" fill="#66BCFF"/>
<path d="M1128 33.7C1121.91 22.0961 1115.16 10.8449 1107.8 0L787.8 0C798.2 21.7 814.3 42.7 836.6 60.7C823.8 131.9 878.5 186.3 948.5 186.3C1005.7 228.3 1066.2 246.3 1121.1 210.9C1123.53 209.38 1125.83 207.675 1128 205.8V33.7Z" fill="#D0BAFF"/>
<path d="M1128 26.5C1123.3 17.8 1118.1 8.9 1112.3 0H790.6C801.808 19.3515 816.527 36.4435 834 50.4C821.2 121.7 875.9 176.1 945.9 176.1C1003.1 218 1070.2 242.8 1126.6 207L1128 206.1V26.5Z" fill="#C1A3FF"/>
<path d="M1128 26.5C1123.3 17.8 1118.1 8.9 1112.3 0H875.9C885.5 89 946.4 105.5 970 110.6C995.9 116.2 997.9 117 1003 137.3C1018.1 196.3 1079.8 233.7 1128 205.3V26.5Z" fill="#B095FF"/>
<path d="M116.4 350.4C87.9 354.8 82.4 356.6 65.4 344.3C56.4 337.8 28.3 320.4 0 319V600H247.6C244.3 576.1 234.2 552.1 218.8 529C283 503.9 288.6 443.7 251.1 394C213.6 344.3 152.4 345 116.4 350.4Z" fill="#CAB0FF"/>
<path d="M110.3 352.7C82.8 355.7 77.5 357.3 61.2 344.6C52.7 338.1 26.7 320.6 0 317.7V600H237.8C233.9 577.4 224.2 554.5 209.9 532.2C272.8 510.5 277.8 451.3 240.9 400.9C204 350.5 145 349 110.3 352.7Z" fill="#C09EFF"/>
<path d="M149.5 533.6C158.7 528.2 195.7 491 159.9 445.3C124.1 399.6 92 393 73.7 387.9C58.9 383.8 36.9 328.6 0 318.9V600H178.1C172.246 588.365 165.666 577.11 158.4 566.3C146.3 548.5 140.2 539 149.5 533.6Z" fill="#AD93FF"/>
<path d="M46.3999 0C20.6999 31.3 7.89992 65.3 8.99992 92C10.7999 131.7 50.6999 133.6 84.4999 118.7C120.8 135.3 166.1 112.3 190.5 56.7C232.2 52.9 250.7 24.3 259.4 0H46.3999Z" fill="#D0BAFF"/>
<path d="M41.4 0C18 30.2 6.4 62.4 7.5 88C9.2 128 49.4 129.9 83.3 114.8C119.9 131.6 165.5 108.4 190 52.5C229.4 48.9 248.2 23.3 257.6 0H41.4Z" fill="#C1A3FF"/>
<path d="M41.4 0C18 30.2 6.4 62.4 7.5 88C8 101.6 13.1 110.8 20.8 116.4C41.7 129.9 79.5 115.1 112.1 63.6C146.8 75.9 180.8 43.4 195.1 0L41.4 0Z" fill="#B095FF"/>
<path opacity="0.22" d="M686.7 484.4C714 469.8 721.1 457.7 721.5 451.5C721.9 445.3 711.8 440.8 693 453.3C692.329 453.681 691.572 453.888 690.8 453.9C667.2 452.7 651.6 468.9 645.2 478.3C635.2 493.1 645.9 506.3 686.7 484.4Z" fill="#C9FAFF"/>
<path d="M820.9 353.7C832.5 336.2 832.5 324.9 826.6 320.8C820.7 316.7 811.6 319.6 808.7 321.8C797.8 320.6 787.5 327.3 788 338C788.416 343.52 790.751 348.721 794.6 352.7C790.9 367.8 799.4 386.2 820.9 353.7Z" fill="#C1B0FF"/>
<path d="M820.9 353.7C831.9 337 832.4 325.9 827.3 321.4C822.2 316.9 817.1 321.1 813.5 327.8C800.6 324.8 797.3 337.1 799.2 352C796.7 358.6 793.5 369.6 799.2 371.5H799.9C804.4 372.5 811.3 368.1 820.9 353.7Z" fill="#B19CFF"/>
<path opacity="0.7" d="M191.3 271.5C194.3 260.1 199 251.5 201.8 252.2C204.6 252.9 201.4 262 198.4 273.3C195.4 284.6 193.6 294.1 190.9 293.4C188.2 292.7 188.3 282.8 191.3 271.5Z" fill="#96C0FF"/>
<path opacity="0.22" d="M785 80C794.1 87.4 799.6 95.8 797.3 98.6C795 101.4 788.2 94.6 779.1 87.2C770 79.8 762 74.5 764.2 71.7C766.4 68.9 775.8 72.5 785 80Z" fill="#C9FAFF"/>
<path opacity="0.43" d="M362.3 413L385.9 442.1C389.7 447 394 451.5 398.2 456.2L410.7 470C414.8 474.5 413.9 482.2 408.8 487.1C403.7 492 397.9 492.2 393.7 489.1L392.4 488.2C387.145 484.426 382.165 480.282 377.5 475.8C375.2 473.7 373 471.4 370.7 469.1C368.4 466.8 366.5 464.3 364.3 461.8C360.3 456.8 356.4 451.7 352.8 446.3C349.07 440.961 345.696 435.383 342.7 429.6L342 428.3C339.2 422.8 341.7 415.3 347.6 411.5C353.5 407.7 359 408.9 362.3 413Z" fill="#FD96FF"/>
<path d="M633.2 141.3C634.028 141.3 634.7 140.628 634.7 139.8C634.7 138.972 634.028 138.3 633.2 138.3C632.372 138.3 631.7 138.972 631.7 139.8C631.7 140.628 632.372 141.3 633.2 141.3Z" fill="#B7CCFF"/>
<path d="M1085.6 433.4C1086.43 433.4 1087.1 432.728 1087.1 431.9C1087.1 431.072 1086.43 430.4 1085.6 430.4C1084.77 430.4 1084.1 431.072 1084.1 431.9C1084.1 432.728 1084.77 433.4 1085.6 433.4Z" fill="#B7CCFF"/>
<path d="M453.7 457.5C454.528 457.5 455.2 456.828 455.2 456C455.2 455.172 454.528 454.5 453.7 454.5C452.872 454.5 452.2 455.172 452.2 456C452.2 456.828 452.872 457.5 453.7 457.5Z" fill="#B7CCFF"/>
<path d="M723.5 283.7C725.102 283.7 726.4 282.402 726.4 280.8C726.4 279.198 725.102 277.9 723.5 277.9C721.898 277.9 720.6 279.198 720.6 280.8C720.6 282.402 721.898 283.7 723.5 283.7Z" fill="url(#paint3_linear_1_210)"/>
<path d="M975.4 335.2C977.002 335.2 978.3 333.902 978.3 332.3C978.3 330.698 977.002 329.4 975.4 329.4C973.798 329.4 972.5 330.698 972.5 332.3C972.5 333.902 973.798 335.2 975.4 335.2Z" fill="url(#paint4_linear_1_210)"/>
<path d="M634.9 217.2C635.618 217.2 636.2 216.618 636.2 215.9C636.2 215.182 635.618 214.6 634.9 214.6C634.182 214.6 633.6 215.182 633.6 215.9C633.6 216.618 634.182 217.2 634.9 217.2Z" fill="#FFE75C"/>
<path d="M450.7 384.3C451.142 384.3 451.5 383.942 451.5 383.5C451.5 383.058 451.142 382.7 450.7 382.7C450.258 382.7 449.9 383.058 449.9 383.5C449.9 383.942 450.258 384.3 450.7 384.3Z" fill="#FFE75C"/>
<path d="M365.1 323.9C365.652 323.9 366.1 323.452 366.1 322.9C366.1 322.348 365.652 321.9 365.1 321.9C364.548 321.9 364.1 322.348 364.1 322.9C364.1 323.452 364.548 323.9 365.1 323.9Z" fill="#B7CCFF"/>
<path d="M263.9 214.5C264.452 214.5 264.9 214.052 264.9 213.5C264.9 212.948 264.452 212.5 263.9 212.5C263.348 212.5 262.9 212.948 262.9 213.5C262.9 214.052 263.348 214.5 263.9 214.5Z" fill="#B7CCFF"/>
<path d="M334.7 305.1C335.142 305.1 335.5 304.742 335.5 304.3C335.5 303.858 335.142 303.5 334.7 303.5C334.258 303.5 333.9 303.858 333.9 304.3C333.9 304.742 334.258 305.1 334.7 305.1Z" fill="#B7CCFF"/>
<path d="M480.8 156.4C481.131 156.4 481.4 156.131 481.4 155.8C481.4 155.469 481.131 155.2 480.8 155.2C480.469 155.2 480.2 155.469 480.2 155.8C480.2 156.131 480.469 156.4 480.8 156.4Z" fill="#B7CCFF"/>
<path d="M144.6 329.8C144.931 329.8 145.2 329.531 145.2 329.2C145.2 328.869 144.931 328.6 144.6 328.6C144.269 328.6 144 328.869 144 329.2C144 329.531 144.269 329.8 144.6 329.8Z" fill="#B7CCFF"/>
<path d="M44 101.8C44.3314 101.8 44.6 101.531 44.6 101.2C44.6 100.869 44.3314 100.6 44 100.6C43.6686 100.6 43.4 100.869 43.4 101.2C43.4 101.531 43.6686 101.8 44 101.8Z" fill="#B7CCFF"/>
<path d="M438.1 109.9C438.431 109.9 438.7 109.631 438.7 109.3C438.7 108.969 438.431 108.7 438.1 108.7C437.769 108.7 437.5 108.969 437.5 109.3C437.5 109.631 437.769 109.9 438.1 109.9Z" fill="#B7CCFF"/>
<path d="M80.5 243.6C80.8314 243.6 81.1 243.331 81.1 243C81.1 242.669 80.8314 242.4 80.5 242.4C80.1686 242.4 79.9 242.669 79.9 243C79.9 243.331 80.1686 243.6 80.5 243.6Z" fill="#B7CCFF"/>
<path d="M681.4 396.2C681.731 396.2 682 395.931 682 395.6C682 395.269 681.731 395 681.4 395C681.069 395 680.8 395.269 680.8 395.6C680.8 395.931 681.069 396.2 681.4 396.2Z" fill="#B7CCFF"/>
<path d="M347.8 85.6C348.131 85.6 348.4 85.3314 348.4 85C348.4 84.6686 348.131 84.4 347.8 84.4C347.469 84.4 347.2 84.6686 347.2 85C347.2 85.3314 347.469 85.6 347.8 85.6Z" fill="#B7CCFF"/>
<path d="M538.1 101.2C538.763 101.2 539.3 100.663 539.3 100C539.3 99.3373 538.763 98.8 538.1 98.8C537.437 98.8 536.9 99.3373 536.9 100C536.9 100.663 537.437 101.2 538.1 101.2Z" fill="#B7CCFF"/>
<path d="M382 156.4C382.663 156.4 383.2 155.863 383.2 155.2C383.2 154.537 382.663 154 382 154C381.337 154 380.8 154.537 380.8 155.2C380.8 155.863 381.337 156.4 382 156.4Z" fill="#B7CCFF"/>
<path d="M67.9 128.5C68.5627 128.5 69.1 127.963 69.1 127.3C69.1 126.637 68.5627 126.1 67.9 126.1C67.2373 126.1 66.7 126.637 66.7 127.3C66.7 127.963 67.2373 128.5 67.9 128.5Z" fill="#B7CCFF"/>
<path d="M296.1 372.8C296.763 372.8 297.3 372.263 297.3 371.6C297.3 370.937 296.763 370.4 296.1 370.4C295.437 370.4 294.9 370.937 294.9 371.6C294.9 372.263 295.437 372.8 296.1 372.8Z" fill="#B7CCFF"/>
<path d="M785.5 429.3C786.163 429.3 786.7 428.763 786.7 428.1C786.7 427.437 786.163 426.9 785.5 426.9C784.837 426.9 784.3 427.437 784.3 428.1C784.3 428.763 784.837 429.3 785.5 429.3Z" fill="#B7CCFF"/>
<path d="M758.7 396.8C759.363 396.8 759.9 396.263 759.9 395.6C759.9 394.937 759.363 394.4 758.7 394.4C758.037 394.4 757.5 394.937 757.5 395.6C757.5 396.263 758.037 396.8 758.7 396.8Z" fill="#B7CCFF"/>
<path d="M908.4 252.5C908.952 252.5 909.4 252.052 909.4 251.5C909.4 250.948 908.952 250.5 908.4 250.5C907.848 250.5 907.4 250.948 907.4 251.5C907.4 252.052 907.848 252.5 908.4 252.5Z" fill="#B7CCFF"/>
<path d="M982.9 251.8C983.452 251.8 983.9 251.352 983.9 250.8C983.9 250.248 983.452 249.8 982.9 249.8C982.348 249.8 981.9 250.248 981.9 250.8C981.9 251.352 982.348 251.8 982.9 251.8Z" fill="#B7CCFF"/>
<path d="M837.2 396.6C837.752 396.6 838.2 396.152 838.2 395.6C838.2 395.048 837.752 394.6 837.2 394.6C836.648 394.6 836.2 395.048 836.2 395.6C836.2 396.152 836.648 396.6 837.2 396.6Z" fill="#B7CCFF"/>
<path d="M423.2 109.3C423.752 109.3 424.2 108.852 424.2 108.3C424.2 107.748 423.752 107.3 423.2 107.3C422.648 107.3 422.2 107.748 422.2 108.3C422.2 108.852 422.648 109.3 423.2 109.3Z" fill="#B7CCFF"/>
<path d="M948.7 249.3C949.252 249.3 949.7 248.852 949.7 248.3C949.7 247.748 949.252 247.3 948.7 247.3C948.148 247.3 947.7 247.748 947.7 248.3C947.7 248.852 948.148 249.3 948.7 249.3Z" fill="#B7CCFF"/>
<path d="M963 236.2C963.552 236.2 964 235.752 964 235.2C964 234.648 963.552 234.2 963 234.2C962.448 234.2 962 234.648 962 235.2C962 235.752 962.448 236.2 963 236.2Z" fill="#B7CCFF"/>
<path d="M706.1 68.7L704.6 65.7L706.1 62.7L707.7 65.7L706.1 68.7Z" fill="#B7CCFF"/>
<path d="M540.4 470.5L537.7 465.4L540.4 460.4L543 465.4L540.4 470.5Z" fill="#91FFAD"/>
<path d="M813.1 137.4L810.5 132.3L813.1 127.3L815.7 132.3L813.1 137.4Z" fill="#91FFAD"/>
<path d="M706.1 68.7L704.6 65.7L706.1 62.7L707.7 65.7L706.1 68.7Z" fill="#B7CCFF"/>
<path d="M315.2 444L313.7 441L315.2 438L316.8 441L315.2 444Z" fill="#B7CCFF"/>
<path d="M471.1 278.8C471.652 278.8 472.1 278.352 472.1 277.8C472.1 277.248 471.652 276.8 471.1 276.8C470.548 276.8 470.1 277.248 470.1 277.8C470.1 278.352 470.548 278.8 471.1 278.8Z" fill="#B7CCFF"/>
<path d="M194.9 231C195.452 231 195.9 230.552 195.9 230C195.9 229.448 195.452 229 194.9 229C194.348 229 193.9 229.448 193.9 230C193.9 230.552 194.348 231 194.9 231Z" fill="#B7CCFF"/>
<path d="M224.1 266.8C224.652 266.8 225.1 266.352 225.1 265.8C225.1 265.248 224.652 264.8 224.1 264.8C223.548 264.8 223.1 265.248 223.1 265.8C223.1 266.352 223.548 266.8 224.1 266.8Z" fill="#B7CCFF"/>
<path d="M196.9 193.9C197.452 193.9 197.9 193.452 197.9 192.9C197.9 192.348 197.452 191.9 196.9 191.9C196.348 191.9 195.9 192.348 195.9 192.9C195.9 193.452 196.348 193.9 196.9 193.9Z" fill="#B7CCFF"/>
<path d="M947.2 298.9C947.752 298.9 948.2 298.452 948.2 297.9C948.2 297.348 947.752 296.9 947.2 296.9C946.648 296.9 946.2 297.348 946.2 297.9C946.2 298.452 946.648 298.9 947.2 298.9Z" fill="#B7CCFF"/>
<path d="M877.7 391.8C878.252 391.8 878.7 391.352 878.7 390.8C878.7 390.248 878.252 389.8 877.7 389.8C877.148 389.8 876.7 390.248 876.7 390.8C876.7 391.352 877.148 391.8 877.7 391.8Z" fill="#B7CCFF"/>
<path d="M1097.5 262.1C1098.05 262.1 1098.5 261.652 1098.5 261.1C1098.5 260.548 1098.05 260.1 1097.5 260.1C1096.95 260.1 1096.5 260.548 1096.5 261.1C1096.5 261.652 1096.95 262.1 1097.5 262.1Z" fill="#B7CCFF"/>
<path d="M1021.5 305.3C1022.05 305.3 1022.5 304.852 1022.5 304.3C1022.5 303.748 1022.05 303.3 1021.5 303.3C1020.95 303.3 1020.5 303.748 1020.5 304.3C1020.5 304.852 1020.95 305.3 1021.5 305.3Z" fill="#B7CCFF"/>
<path d="M662.4 92.6C662.952 92.6 663.4 92.1523 663.4 91.6C663.4 91.0477 662.952 90.6 662.4 90.6C661.848 90.6 661.4 91.0477 661.4 91.6C661.4 92.1523 661.848 92.6 662.4 92.6Z" fill="#B7CCFF"/>
<g style="mix-blend-mode:screen" opacity="0.7">
<path d="M453.7 296.5L450.5 290.2L453.7 284L457 290.2L453.7 296.5Z" fill="white"/>
</g>
<g style="mix-blend-mode:screen" opacity="0.29">
<path d="M624.9 232.4L624 230.6L624.9 228.8L625.9 230.6L624.9 232.4Z" fill="white"/>
</g>
<path d="M204.2 82.2C202.435 81.094 200.931 79.6183 199.791 77.8745C198.652 76.1308 197.904 74.1607 197.6 72.1L196.6 65C196.548 64.8461 196.456 64.7092 196.333 64.6035C196.209 64.4979 196.06 64.4276 195.9 64.4C195.73 64.3982 195.566 64.4581 195.437 64.5685C195.308 64.6788 195.224 64.8322 195.2 65L194.1 72.1C193.814 74.1541 193.084 76.1215 191.962 77.8655C190.839 79.6095 189.351 81.0886 187.6 82.2L186.6 82.8C186.426 82.9539 186.319 83.1688 186.3 83.4C186.319 83.6312 186.426 83.8461 186.6 84L187.6 84.6C189.351 85.7114 190.839 87.1904 191.962 88.9345C193.084 90.6785 193.814 92.6458 194.1 94.7L195.2 101.8C195.224 101.968 195.308 102.121 195.437 102.232C195.566 102.342 195.73 102.402 195.9 102.4C196.06 102.372 196.209 102.302 196.333 102.196C196.456 102.091 196.548 101.954 196.6 101.8L197.6 94.7C197.904 92.6393 198.652 90.6691 199.791 88.9254C200.931 87.1817 202.435 85.706 204.2 84.6L205.1 84C205.273 83.8461 205.381 83.6312 205.4 83.4C205.381 83.1688 205.273 82.9539 205.1 82.8L204.2 82.2Z" fill="#66BCFF"/>
<path opacity="0.6" d="M514.4 34.1C513.832 33.7592 513.347 33.2944 512.984 32.7403C512.62 32.1862 512.386 31.5571 512.3 30.9L512 28.6H511.5L511.2 30.9C511.094 31.5509 510.852 32.1721 510.49 32.7234C510.129 33.2748 509.655 33.7438 509.1 34.1L508.8 34.3V34.5C508.8 34.6 508.8 34.7 508.9 34.7L509.2 34.9C509.755 35.2562 510.229 35.7252 510.59 36.2766C510.952 36.8279 511.194 37.4491 511.3 38.1L511.6 40.4L511.8 40.6L512.1 40.4L512.4 38.1C512.486 37.4429 512.72 36.8138 513.084 36.2597C513.447 35.7056 513.932 35.2408 514.5 34.9L514.8 34.7V34.5V34.3L514.4 34.1Z" fill="#FFF2A6"/>
<path opacity="0.7" d="M804.1 270.8C803.529 270.438 803.045 269.955 802.682 269.384C802.319 268.814 802.086 268.171 802 267.5L801.6 265.3C801.6 265.247 801.579 265.196 801.541 265.159C801.504 265.121 801.453 265.1 801.4 265.1C801.347 265.1 801.296 265.121 801.259 265.159C801.221 265.196 801.2 265.247 801.2 265.3L800.9 267.5C800.795 268.165 800.555 268.801 800.194 269.369C799.832 269.936 799.358 270.424 798.8 270.8L798.5 271C798.4 271 798.4 271.1 798.4 271.2C798.406 271.277 798.442 271.349 798.5 271.4H798.8C799.358 271.776 799.832 272.264 800.194 272.831C800.555 273.399 800.795 274.035 800.9 274.7L801.2 276.9C801.2 276.953 801.221 277.004 801.259 277.041C801.296 277.079 801.347 277.1 801.4 277.1C801.453 277.1 801.504 277.079 801.541 277.041C801.579 277.004 801.6 276.953 801.6 276.9L802 274.7C802.086 274.029 802.319 273.386 802.682 272.816C803.045 272.245 803.529 271.762 804.1 271.4H804.4V271.2V271L804.1 270.8Z" fill="#96FFFD"/>
<path d="M726.1 114C725.545 113.644 725.071 113.175 724.709 112.623C724.348 112.072 724.106 111.451 724 110.8L723.7 108.5C723.7 108.447 723.679 108.396 723.641 108.359C723.604 108.321 723.553 108.3 723.5 108.3L723.2 108.5L722.9 110.8C722.794 111.451 722.552 112.072 722.19 112.623C721.829 113.175 721.355 113.644 720.8 114L720.5 114.2C720.5 114.3 720.4 114.3 720.4 114.4V114.6L720.7 114.8C721.255 115.156 721.729 115.625 722.091 116.177C722.452 116.728 722.694 117.349 722.8 118L723.1 120.3L723.4 120.5C723.453 120.5 723.504 120.479 723.541 120.441C723.579 120.404 723.6 120.353 723.6 120.3L723.9 118C724.006 117.349 724.248 116.728 724.609 116.177C724.971 115.625 725.445 115.156 726 114.8L726.3 114.6C726.4 114.6 726.4 114.5 726.4 114.4C726.4 114.3 726.4 114.3 726.3 114.2L726.1 114Z" fill="#765EFF"/>
<path d="M647.5 365.3C646.665 364.739 645.952 364.017 645.402 363.175C644.853 362.333 644.478 361.389 644.3 360.4L643.8 357C643.8 356.92 643.768 356.844 643.712 356.788C643.656 356.732 643.58 356.7 643.5 356.7C643.42 356.7 643.344 356.732 643.288 356.788C643.232 356.844 643.2 356.92 643.2 357L642.6 360.4C642.463 361.391 642.116 362.341 641.581 363.186C641.046 364.031 640.337 364.752 639.5 365.3L639 365.6C638.964 365.641 638.936 365.688 638.919 365.74C638.902 365.791 638.895 365.846 638.9 365.9C638.9 366 638.9 366.2 639 366.2L639.5 366.5C640.337 367.048 641.046 367.769 641.581 368.614C642.116 369.459 642.463 370.409 642.6 371.4L643.2 374.8C643.2 374.88 643.232 374.956 643.288 375.012C643.344 375.068 643.42 375.1 643.5 375.1C643.58 375.1 643.656 375.068 643.712 375.012C643.768 374.956 643.8 374.88 643.8 374.8L644.3 371.4C644.478 370.41 644.853 369.467 645.402 368.625C645.952 367.783 646.665 367.061 647.5 366.5L648 366.2C648.1 366.2 648.1 366 648.1 365.9C648.105 365.846 648.098 365.791 648.081 365.74C648.064 365.688 648.036 365.641 648 365.6L647.5 365.3Z" fill="#8C4FFD"/>
<g style="mix-blend-mode:screen" opacity="0.7">
<path d="M216.6 440.4L213.3 434.3L216.6 428.1L219.8 434.3L216.6 440.4Z" fill="white"/>
</g>
<path opacity="0.7" d="M947.2 145.8L929 110.8L947.2 75.8L965.4 110.8L947.2 145.8Z" fill="#FD96FF"/>
<path opacity="0.7" d="M925 383.6L912.4 359.3L925 335L937.7 359.3L925 383.6Z" fill="#96FFFD"/>
<path d="M169.3 232.7C169.852 232.7 170.3 232.252 170.3 231.7C170.3 231.148 169.852 230.7 169.3 230.7C168.748 230.7 168.3 231.148 168.3 231.7C168.3 232.252 168.748 232.7 169.3 232.7Z" fill="#7C78FF"/>
<path d="M413.3 179.2C414.073 179.2 414.7 178.573 414.7 177.8C414.7 177.027 414.073 176.4 413.3 176.4C412.527 176.4 411.9 177.027 411.9 177.8C411.9 178.573 412.527 179.2 413.3 179.2Z" fill="#B7CCFF"/>
<path d="M55.2 192.3C58.9 181.2 64.3 172.9 67 173.8C69.7 174.7 65.9 183.5 62.1 194.7C58.3 205.9 55.9 215.1 53.3 214.2C50.7 213.3 51.4 203.4 55.2 192.3Z" fill="#8C4FFD"/>
<path d="M855.6 372.7C856.207 372.7 856.7 372.207 856.7 371.6C856.7 370.992 856.207 370.5 855.6 370.5C854.992 370.5 854.5 370.992 854.5 371.6C854.5 372.207 854.992 372.7 855.6 372.7Z" fill="url(#paint5_linear_1_210)"/>
<path d="M780.8 164.3C781.408 164.3 781.9 163.808 781.9 163.2C781.9 162.592 781.408 162.1 780.8 162.1C780.192 162.1 779.7 162.592 779.7 163.2C779.7 163.808 780.192 164.3 780.8 164.3Z" fill="#7C78FF"/>
</g>
</g>
<path d="M286.388 133.087V133.769" stroke="#FEBCFF" stroke-width="3" stroke-linecap="round"/>
<defs>
<linearGradient id="paint0_linear_1_210" x1="564" y1="236.5" x2="564" y2="600" gradientUnits="userSpaceOnUse">
<stop/>
<stop offset="0.374078" stop-opacity="0.501857"/>
<stop offset="0.870202" stop-opacity="0"/>
</linearGradient>
<linearGradient id="paint1_linear_1_210" x1="564" y1="8.8556" x2="564" y2="660.441" gradientUnits="userSpaceOnUse">
<stop stop-color="#4C33FF"/>
<stop offset="1" stop-color="#FF75FA"/>
</linearGradient>
<linearGradient id="paint2_linear_1_210" x1="812.31" y1="-37.79" x2="-48.96" y2="583" gradientUnits="userSpaceOnUse">
<stop stop-color="#D044E0" stop-opacity="0.1"/>
<stop offset="0.42" stop-color="#CF44E0" stop-opacity="0.11"/>
<stop offset="0.57" stop-color="#CA45E2" stop-opacity="0.13"/>
<stop offset="0.68" stop-color="#C147E5" stop-opacity="0.18"/>
<stop offset="0.77" stop-color="#B549E9" stop-opacity="0.24"/>
<stop offset="0.85" stop-color="#A54BEE" stop-opacity="0.33"/>
<stop offset="0.92" stop-color="#924FF5" stop-opacity="0.43"/>
<stop offset="0.98" stop-color="#7B53FC" stop-opacity="0.55"/>
<stop offset="1" stop-color="#7354FF" stop-opacity="0.6"/>
</linearGradient>
<linearGradient id="paint3_linear_1_210" x1="720.57" y1="280.8" x2="726.36" y2="280.8" gradientUnits="userSpaceOnUse">
<stop stop-color="#C7D4FF"/>
<stop offset="1" stop-color="#A8BDFF"/>
</linearGradient>
<linearGradient id="paint4_linear_1_210" x1="972.47" y1="332.33" x2="978.27" y2="332.33" gradientUnits="userSpaceOnUse">
<stop stop-color="#C7D4FF"/>
<stop offset="1" stop-color="#A8BDFF"/>
</linearGradient>
<linearGradient id="paint5_linear_1_210" x1="857.16" y1="373.15" x2="853.74" y2="369.73" gradientUnits="userSpaceOnUse">
<stop stop-color="#593FD1"/>
<stop offset="0.68" stop-color="#8354FF"/>
</linearGradient>
<clipPath id="clip0_1_210">
<rect width="1128" height="600" fill="white"/>
</clipPath>
</defs>
</svg>
