<svg width="233" height="176" viewBox="0 0 233 176" fill="none" xmlns="http://www.w3.org/2000/svg">
<g clip-path="url(#clip0_961_27276)">
<path d="M189.091 112.25C186.768 112.25 184.654 109.696 182.47 104.269C180.572 99.5504 178.882 93.3649 177.249 87.3824C175.952 82.6338 174.727 78.1489 173.507 74.8127C171.876 70.3538 170.843 69.643 170.373 69.6162C167.12 69.4308 165.711 73.5932 163.298 81.5865C162.249 85.0623 161.061 89.0019 159.408 93.2656C156.798 99.9972 154.957 102.653 152.882 102.653C152.848 102.653 152.815 102.653 152.781 102.651C150.06 102.54 147.721 97.8567 143.84 84.7557C139.725 70.8633 135.273 67.147 132.916 66.1794H131.875L131.857 65.8841L131.795 65.8759L131.826 65.3664L131.795 64.8569L131.857 64.8488L131.875 64.5535H132.916C135.273 63.5857 139.725 59.8691 143.841 45.9766C147.721 32.8758 150.06 28.193 152.781 28.0816C154.901 27.993 156.756 30.6268 159.408 37.4667C161.062 41.732 162.251 45.6725 163.301 49.1492C165.713 57.1412 167.133 61.3032 170.373 61.1167C170.843 61.0899 171.875 60.3792 173.505 55.9215C174.725 52.5859 175.95 48.1021 177.246 43.3539C178.88 37.3708 180.569 31.1839 182.469 26.4657C184.769 20.7488 186.997 18.2189 189.462 18.504C194.667 19.1043 197.903 32.5627 201.034 45.5779C202.776 52.8214 204.751 61.0325 206.325 61.9256C206.41 61.9744 206.443 61.9644 206.464 61.9578C208.416 61.3506 209.345 56.4042 210.165 52.0401C211.144 46.8335 212.068 41.9154 214.899 41.6804C217.845 41.4367 219.037 47.2 220.425 53.8731C221.365 58.3869 222.429 63.5026 223.908 64.6742L224.159 64.8736L224.162 65.859L223.909 66.0585C222.43 67.23 221.366 72.3456 220.427 76.859C219.067 83.3959 217.888 89.06 215.078 89.06C215.019 89.06 214.96 89.0575 214.9 89.0527C212.069 88.817 211.145 83.8989 210.166 78.692C209.347 74.3282 208.416 69.3824 206.465 68.775C206.443 68.7684 206.411 68.7586 206.326 68.8072C204.753 69.701 202.777 77.9114 201.035 85.155C197.905 98.1704 194.668 111.629 189.463 112.229C189.339 112.243 189.215 112.25 189.091 112.25ZM170.143 68.2798C170.244 68.2798 170.345 68.2829 170.449 68.2886C173.319 68.4526 175.292 75.171 178.531 87.0318C180.155 92.9779 181.834 99.1265 183.703 103.772C185.689 108.707 187.577 111.108 189.311 110.908C193.593 110.414 197.147 95.6345 199.744 84.8428C202.203 74.6153 203.692 68.7742 205.67 67.6505C205.847 67.5442 206.045 67.4762 206.25 67.4511C206.455 67.4261 206.663 67.4444 206.861 67.5049C209.576 68.35 210.498 73.2539 211.473 78.4455C212.278 82.7249 213.189 87.5754 215.011 87.7269C216.768 87.8722 218.135 81.3504 219.126 76.5872C220.133 71.7487 221.088 67.1605 222.715 65.3656C221.088 63.5713 220.133 58.9818 219.126 54.1426C218.135 49.38 216.77 42.856 215.011 43.0033C213.19 43.1546 212.278 48.0048 211.474 52.2847C210.498 57.4768 209.576 62.3809 206.861 63.2257C206.664 63.2863 206.456 63.3046 206.25 63.2796C206.045 63.2546 205.848 63.1866 205.67 63.0804C203.692 61.9566 202.204 56.1151 199.744 45.887C197.148 35.0957 193.593 20.3165 189.312 19.8225C187.575 19.6231 185.69 22.0241 183.704 26.9601C181.834 31.6065 180.155 37.7558 178.531 43.7023C175.292 55.5608 173.32 62.2781 170.451 62.4424C166.005 62.6961 164.423 57.4595 162.03 49.5322C160.988 46.0784 159.806 42.1637 158.171 37.947C157.345 35.8151 154.833 29.327 152.837 29.4094C150.414 29.5088 147.439 38.5169 145.117 46.3539C141.499 58.5653 137.527 63.4182 134.5 65.2384L134.934 65.3675L134.501 65.4962C137.528 67.3169 141.5 72.1702 145.116 84.3799C147.438 92.2168 150.413 101.225 152.838 101.325C154.823 101.403 157.345 94.9185 158.171 92.7869C159.805 88.5706 160.986 84.6574 162.028 81.204C164.363 73.4584 165.926 68.2798 170.143 68.2798Z" fill="url(#paint0_linear_961_27276)"/>
<path d="M208.457 61.8107C203.613 61.8107 202.377 55.409 199.8 55.409C197.224 55.409 198.358 61.0992 192.071 61.0992C185.784 61.0992 184.961 54.6991 181.456 44.7427C177.952 34.7863 174.963 24.1174 167.749 36.9187C160.534 49.72 157.341 61.0983 155.072 50.4311C152.803 39.7639 150.558 40.5679 148.167 50.4311C148.13 50.5841 148.091 50.7348 148.051 50.8825C146.934 54.9841 144.261 57.9749 141.076 58.9184L119.312 65.3661L130.316 68.6248L138.379 71.0126C140.94 71.7709 143.768 72.0398 145.703 74.6477C146.114 75.2078 146.475 75.8037 146.781 76.428C147.92 78.7318 148.313 81.3758 149.137 83.8401C149.572 85.1377 150.138 87.0992 151.162 87.7877C153.439 89.3176 154.728 81.924 155.073 80.3005C157.342 69.6331 160.536 81.012 167.751 93.8129C174.967 106.614 177.954 95.9462 181.458 85.9896C184.962 76.033 185.786 69.633 192.073 69.633C198.36 69.633 197.226 75.3226 199.802 75.3226C202.378 75.3226 203.615 68.9209 208.459 68.9209C213.304 68.9209 228.226 65.3667 228.226 65.3667C228.226 65.3667 213.301 61.8107 208.457 61.8107Z" fill="url(#paint1_linear_961_27276)"/>
<path d="M214.973 58.5151C211.834 53.6145 209.764 52.6877 206.624 61.1637C203.483 69.6397 198.095 57.5679 194.374 50.6312C190.652 43.6945 185.685 49.3267 182.279 57.9985C178.873 66.6703 161.529 65.1248 160.188 61.0184C158.847 56.9119 157.345 50.6312 155.965 50.6312C154.585 50.6312 153.203 54.7378 151.823 59.6979C150.442 64.6581 150.239 62.2257 149.102 59.3272C147.965 56.4287 145.771 50.1478 141.953 57.3949C138.134 64.6419 135.536 65.3663 135.536 65.3663C135.536 65.3663 138.135 66.0922 141.953 73.3384C145.77 80.5845 147.963 74.3046 149.102 71.4054C150.24 68.5062 150.442 66.0751 151.823 71.0348C153.204 75.9945 154.584 80.1019 155.965 80.1019C157.346 80.1019 158.849 73.8206 160.189 69.7148C161.529 65.6091 178.873 64.062 182.279 72.7341C185.685 81.4061 190.651 87.0388 194.374 80.1019C198.097 73.165 203.485 61.0928 206.624 69.5688C209.762 78.0448 211.833 77.1185 214.973 72.2179C218.113 67.3174 232.55 65.3663 232.55 65.3663C232.55 65.3663 218.112 63.4154 214.973 58.5151Z" fill="url(#paint2_linear_961_27276)"/>
<path d="M6.93846 63.9707H5.60938V66.7622H6.93846V63.9707Z" fill="#00EE70"/>
<path d="M10.6377 61.6904H9.30859V69.0414H10.6377V61.6904Z" fill="#00EE70"/>
<path d="M14.3359 63.0576H13.0068V67.6744H14.3359V63.0576Z" fill="#00EE70"/>
<path d="M18.0361 61.084H16.707V69.649H18.0361V61.084Z" fill="#00EE70"/>
<path d="M21.7353 60.0518H20.4062V70.6813H21.7353V60.0518Z" fill="#00EE70"/>
<path d="M25.4336 39.4365H24.1045V91.296H25.4336V39.4365Z" fill="#00EE70"/>
<path d="M29.1338 54.4238H27.8047V76.3081H29.1338V54.4238Z" fill="#00EE70"/>
<path d="M32.833 59.8398H31.5039V70.8925H32.833V59.8398Z" fill="#00EE70"/>
<path d="M36.5312 62.376H35.2021V68.3555H36.5312V62.376Z" fill="#00EE70"/>
<path d="M40.2314 57.6895H38.9023V73.0433H40.2314V57.6895Z" fill="#009647"/>
<path d="M43.9306 59.6221H42.6016V71.1107H43.9306V59.6221Z" fill="#009647"/>
<path d="M47.6289 61.2588H46.2998V69.4736H47.6289V61.2588Z" fill="#009647"/>
<path d="M51.3281 37.8262H49.999V92.9069H51.3281V37.8262Z" fill="#009647"/>
<path d="M55.0283 59.2051H53.6992V71.527H55.0283V59.2051Z" fill="#009647"/>
<path d="M58.7265 60.4268H57.3975V70.3047H58.7265V60.4268Z" fill="#006833"/>
<path d="M62.4258 62.8652H61.0967V67.8666H62.4258V62.8652Z" fill="#006833"/>
<path d="M66.126 56.8701H64.7969V73.8613H66.126V56.8701Z" fill="#006833"/>
<path d="M69.8242 59.6221H68.4951V71.1107H69.8242V59.6221Z" fill="#01391C"/>
<path d="M73.5234 61.832H72.1943V68.9005H73.5234V61.832Z" fill="#01391C"/>
<path d="M77.2226 46.5332H75.8936V84.1983H77.2226V46.5332Z" fill="#006833"/>
<path d="M80.9219 58.1211H79.5928V72.6105H80.9219V58.1211Z" fill="#006833"/>
<path d="M84.6211 60.2217H83.292V70.5112H84.6211V60.2217Z" fill="#006833"/>
<path d="M173.694 108.756C168.313 108.026 165.107 101.682 162.007 95.546C161.3 94.1454 160.567 92.6975 159.824 91.3436C158.929 89.7145 158.294 89.3304 157.919 89.2948C157.253 89.2323 156.493 90.1543 155.685 91.1305C154.57 92.4779 153.306 94.005 151.489 94.005C148.326 94.005 146.512 88.6364 146.437 88.4081L147.488 88.0596C147.935 89.405 149.526 92.8974 151.489 92.8974C152.785 92.8974 153.825 91.6402 154.832 90.4243C155.832 89.2159 156.777 88.074 158.023 88.1923C158.982 88.2831 159.862 89.1149 160.794 90.8103C161.547 92.1808 162.283 93.6375 162.995 95.0466C165.966 100.927 169.038 107.007 173.842 107.658L173.694 108.756Z" fill="url(#paint3_linear_961_27276)"/>
<path d="M145.405 50.8046L144.348 50.4737L146.436 43.8027C146.767 42.8537 147.191 41.9399 147.703 41.0748C148.848 39.1654 150.122 38.1971 151.491 38.1971C153.307 38.1971 154.572 39.7242 155.687 41.0717C156.495 42.0481 157.266 42.9696 157.921 42.9072C158.295 42.8717 158.93 42.4876 159.826 40.8586C160.57 39.5047 161.302 38.0566 162.009 36.656C165.109 30.5201 168.315 24.176 173.696 23.4463L173.844 24.5437C169.04 25.1952 165.968 31.2755 162.998 37.1556C162.286 38.5644 161.55 40.0213 160.797 41.3918C159.865 43.0873 158.985 43.9191 158.026 44.0099C156.78 44.1284 155.835 42.9864 154.835 41.7779C153.828 40.562 152.788 39.3047 151.492 39.3047C149.528 39.3047 147.938 42.7969 147.491 44.1426L145.405 50.8046Z" fill="url(#paint4_linear_961_27276)"/>
<path d="M190.596 93.6304C187.853 93.6304 183.754 91.5198 179.804 81.4646C178.172 77.3088 175.006 72.289 171.015 70.6636C170.127 70.292 169.17 70.1121 168.207 70.1354C167.244 70.1587 166.297 70.3847 165.427 70.7988C163.974 71.4675 162.767 72.5754 161.977 73.9664C161.432 74.9189 161.124 75.9822 160.797 77.1073C160.589 77.8775 160.339 78.6359 160.049 79.3793C159.993 79.5155 159.935 79.6635 159.872 79.8199C159.238 81.4204 158.174 84.0994 155.919 83.8721C153.197 83.5979 151.78 81.0566 150.318 76.4569C149.338 78.4111 147.812 80.4754 145.306 80.4754C142.451 80.4754 140.682 77.745 139.6 75.6907C136.747 70.2751 132.885 69.1039 132.454 68.9883L132.371 68.9593L132.742 68.1543L132.556 68.5568L132.678 68.1309C133.688 68.438 134.64 68.911 135.494 69.5306C137.444 70.8845 139.088 72.818 140.384 75.2777C141.358 77.1282 142.93 79.5886 145.306 79.5886C147.726 79.5886 149.083 77.1617 149.994 75.0475L150.476 73.9312L150.826 75.0955C152.531 80.7795 153.84 82.7715 156.009 82.9899C157.602 83.1496 158.472 80.9494 159.049 79.493C159.112 79.333 159.173 79.1828 159.23 79.0422C159.507 78.328 159.746 77.5997 159.947 76.8602C160.273 75.7345 160.611 74.5707 161.209 73.5258C162.093 71.9731 163.441 70.7368 165.065 69.9913C166.043 69.5262 167.109 69.2725 168.192 69.2471C169.275 69.2216 170.351 69.4249 171.351 69.8436C175.601 71.5745 178.931 76.8146 180.63 81.1408C184.397 90.7324 188.13 92.7443 190.598 92.7443C193.215 92.7443 194.945 90.5445 195.936 88.6989L196.717 89.1179C195.61 91.1764 193.652 93.6304 190.596 93.6304Z" fill="url(#paint5_linear_961_27276)"/>
<path d="M132.685 62.5996L132.57 62.2024L132.372 61.7727L132.455 61.7439C132.886 61.6283 136.747 60.4571 139.601 55.0413C140.683 52.9876 142.452 50.2567 145.307 50.2567C147.813 50.2567 149.338 52.3209 150.319 54.2751C151.781 49.6751 153.199 47.1341 155.92 46.8599C158.175 46.6332 159.239 49.3115 159.873 50.9121C159.935 51.0685 159.993 51.2164 160.05 51.3527C160.34 52.096 160.59 52.8543 160.798 53.6245C161.125 54.7498 161.433 55.8124 161.978 56.7656C162.768 58.1566 163.975 59.2645 165.428 59.9332C166.298 60.3473 167.245 60.5734 168.208 60.5968C169.171 60.6201 170.128 60.4401 171.016 60.0686C175.007 58.4431 178.173 53.4231 179.805 49.2675C183.755 39.2123 187.854 37.1016 190.597 37.1016C193.653 37.1016 195.611 39.5557 196.716 41.6143L195.935 42.0334C194.945 40.1877 193.215 37.9876 190.597 37.9876C188.129 37.9876 184.397 40.0009 180.629 49.5914C178.93 53.918 175.6 59.1581 171.35 60.8886C170.35 61.3072 169.274 61.5104 168.191 61.485C167.108 61.4595 166.042 61.2059 165.064 60.7408C163.44 59.9954 162.092 58.7591 161.208 57.2063C160.61 56.1615 160.272 54.9975 159.945 53.8719C159.745 53.1325 159.506 52.4041 159.229 51.69C159.172 51.5505 159.112 51.3991 159.048 51.2392C158.472 49.783 157.606 47.5823 156.008 47.7422C153.84 47.9606 152.532 49.9524 150.825 55.6365L150.475 56.8011L149.993 55.6846C149.082 53.5703 147.725 51.1436 145.305 51.1436C142.929 51.1436 141.358 53.6039 140.383 55.4544C139.087 57.9133 137.442 59.8475 135.493 61.2014C134.641 61.8197 133.692 62.2922 132.685 62.5996Z" fill="url(#paint6_linear_961_27276)"/>
<path d="M149.882 85.7294C149.829 85.5106 149.767 85.3041 149.7 85.1054C149.122 83.3878 148.043 82.4324 146.858 82.4499V82.4473H140.294L140.178 85.1054L139.886 91.7509L139.737 95.1524H145.972V95.144C146.63 95.0944 147.251 94.818 147.728 94.3619C148.493 93.638 149.075 92.7432 149.426 91.7509C150.161 89.8308 150.319 87.7381 149.882 85.7294Z" fill="#2B35B1"/>
<path d="M139.737 95.1525H145.972V95.1439C146.63 95.0943 147.251 94.8179 147.728 94.3618C148.493 93.638 149.075 92.7432 149.426 91.751H139.886L139.737 95.1525Z" fill="#151A8D"/>
<path d="M146.859 82.4496V82.4473H140.295L140.179 85.1054H149.701C149.123 83.3874 148.044 82.4321 146.859 82.4496Z" fill="#5566F8"/>
<path d="M149.882 85.7292C149.829 85.5104 149.767 85.3039 149.701 85.1055H140.178L139.887 91.7509H149.427C150.161 89.8307 150.319 87.7379 149.882 85.7292Z" fill="#2B35B1"/>
<path d="M145.621 124.991L135.424 83.6515L139.026 80.4834L149.545 123.127L145.621 124.991Z" fill="#3E1688"/>
<path d="M60.6716 17.4229C60.6716 17.4229 58.9015 20.6607 59.2468 26.273L60.6716 17.4229Z" fill="#2B35B1"/>
<path d="M133.613 93.8896L143.811 135.229L146.569 121.545" fill="#3E1688"/>
<path d="M133.208 83.6514L143.405 124.991L149.797 123.918L150.366 119.528" fill="#3E1688"/>
<path d="M142.147 80.4834H139.026L149.154 121.545L148.234 123.127L92.8411 123.129L91.979 122.52L81.3133 79.8955H78.0918L89.0237 124.191L91.6236 126.039L150.576 126.037L152.444 123.505L142.147 80.4834Z" fill="#A851F7"/>
<path d="M134.649 98.0866L137.418 109.309L144.503 102.737L144.493 102.649L142.008 92.5723L134.649 98.0866Z" fill="black"/>
<path d="M144.504 102.689L141.845 91.9125L140.689 91.0771L135.345 100.903L137.979 111.582L144.503 102.737L144.504 102.689Z" fill="black"/>
<path d="M133.613 93.8896L143.811 135.229L144.01 134.241L134.549 95.887L133.613 93.8896Z" fill="#00EE70"/>
<path d="M108.741 15.4077C103.486 23.8917 88.6721 30.7598 75.6785 30.7598C62.685 30.7598 56.416 23.8906 61.6712 15.4077C66.9264 6.92485 81.7405 0.0556641 94.734 0.0556641C107.728 0.0556641 113.997 6.92485 108.741 15.4077Z" fill="#150049"/>
<path d="M112.967 10.1205C111.743 6.70361 107.128 3.23633 107.128 3.23633L109.309 5.80807C109.438 6.01076 109.507 6.13483 109.507 6.13483L110.581 9.12365C110.518 8.19705 112.542 11.5339 112.154 10.7159L112.967 10.1205Z" fill="#BFC5FD"/>
<path d="M63.3048 13.1729C62.7067 13.8772 62.1606 14.6241 61.6709 15.4077C57.7672 21.7089 60.2238 27.1186 67.0703 29.4851L62.6996 17.3136C62.6996 17.3136 62.3572 14.904 63.3048 13.1729Z" fill="#2B35B1"/>
<path d="M100.477 0.570756C98.5834 0.216029 96.6603 0.0433877 94.7339 0.0552606C87.6395 0.0552606 80.0032 2.10317 73.6745 5.34347C73.2253 7.32248 73.6735 8.68479 73.6735 8.68479C76.1955 15.8735 78.7624 23.0941 81.3742 30.3464C92.1276 28.8322 103 23.3121 107.951 16.5741L103.296 3.62295C103.296 3.62295 102.294 1.69516 100.477 0.570756Z" fill="#5566F8"/>
<path d="M110.582 9.12348L109.508 6.13466C108.898 5.09808 108.137 4.15812 107.251 3.34595C105.564 2.07135 103.277 1.11555 100.478 0.571289C102.294 1.69569 103.297 3.62349 103.297 3.62349L107.952 16.5746C108.235 16.1895 108.498 15.8005 108.742 15.4079C110.128 13.1677 110.712 11.0411 110.582 9.12348Z" fill="#9BA6FD"/>
<path d="M73.6746 5.34375C69.4506 7.50683 65.8109 10.2016 63.3051 13.1728C62.3575 14.9039 62.6999 17.3135 62.6999 17.3135L67.0706 29.485C69.4408 30.3046 72.3367 30.7597 75.6785 30.7597C77.5844 30.7548 79.4876 30.6168 81.3743 30.3467C78.7718 23.1013 76.2048 15.8807 73.6735 8.68506C73.6735 8.68506 73.2254 7.32276 73.6746 5.34375Z" fill="#2B35B1"/>
<path d="M69.0049 11.6614C69.0049 11.6614 68.551 10.4691 69.0049 8.125C66.8916 9.5502 64.9755 11.2479 63.3061 13.1742C62.3585 14.9053 62.7009 17.3149 62.7009 17.3149L63.875 20.5812L69.0049 11.6614Z" fill="#151A8D"/>
<path d="M115.004 99.0081L81.4053 5.5166" stroke="#FF0000" stroke-width="4" stroke-miterlimit="10"/>
<path d="M120.02 60.0326C118.294 57.5025 114.674 57.391 114.722 59.9048L114.78 62.93C114.813 63.4447 114.676 63.9557 114.39 64.3851C114.105 64.8146 113.687 65.1388 113.2 65.3084L110.657 66.2748C108.735 67.0058 110.203 69.6968 112.723 70.3527L115.877 71.1741C117.053 71.4693 118.118 72.0981 118.944 72.9847L120.679 74.9485C121.919 76.3524 124.492 76.301 124.715 74.8833L125.025 72.9191C125.155 72.0995 125.764 71.4319 126.696 71.1105L129.065 70.2931C130.907 69.6576 130.459 67.1178 128.241 66.4001L125.228 65.4253C123.947 64.9966 122.841 64.1618 122.078 63.0474L120.02 60.0326Z" fill="#00EE70"/>
<path d="M114.741 60.9004C114.727 61.0105 114.72 61.1216 114.722 61.2327L114.762 63.32C114.777 63.1901 114.783 63.0594 114.78 62.9287L114.741 60.9004Z" fill="black"/>
<path d="M120.02 61.3617L122.077 64.3765C122.84 65.4908 123.946 66.3257 125.227 66.7544L128.24 67.7291C128.653 67.8477 129.035 68.0589 129.354 68.3467C129.674 68.6346 129.924 68.9916 130.085 69.3905C130.515 68.3755 129.835 66.9166 128.24 66.4001L125.227 65.4253C123.946 64.9966 122.84 64.1618 122.077 63.0474L120.02 60.0326C118.294 57.5025 114.674 57.391 114.722 59.9048L114.741 60.9016C115.011 58.7376 118.374 58.9499 120.02 61.3617Z" fill="black"/>
<path d="M110.656 67.604L113.199 66.6376C113.686 66.4681 114.104 66.1438 114.39 65.7144C114.675 65.2849 114.812 64.7739 114.78 64.2593L114.762 63.3213C114.72 63.7678 114.551 64.1928 114.273 64.5452C113.996 64.8977 113.623 65.1627 113.199 65.3085L110.656 66.275C109.763 66.6145 109.603 67.377 109.939 68.162C110.107 67.8997 110.36 67.7028 110.656 67.604Z" fill="black"/>
<path d="M108.998 62.1521C107.739 60.6494 105.216 61.08 105.188 62.8452L105.15 65.1448C105.14 65.6 105.014 66.0449 104.783 66.4372C104.552 66.8296 104.224 67.1562 103.831 67.386L101.717 68.693C100.057 69.72 101.021 72.058 103.149 72.2168L105.84 72.4178C106.859 72.4849 107.813 72.9383 108.509 73.6856L110.126 75.4824C111.342 76.835 113.667 76.1801 113.695 74.5163L113.732 72.3477C113.738 71.9242 113.848 71.5087 114.05 71.1366C114.252 70.7646 114.542 70.4471 114.894 70.2113L116.678 68.993C118.018 68.0772 117.254 65.9637 115.488 65.7422L113.121 65.4452C112.141 65.3164 111.245 64.8266 110.608 64.0717L108.998 62.1521Z" fill="#44138C"/>
<path d="M113.201 10.7699C113.157 10.6325 113.107 10.4966 113.055 10.3619L112.968 10.1201L112.958 10.1235C111.101 5.80042 105.24 2.96484 96.6034 2.96484C82.6924 2.96484 66.8319 10.319 61.2054 19.4011C59.2384 22.5763 58.7813 25.5398 59.6106 28.0522L59.6049 28.0541L88.2333 107.726L141.773 90.29L113.201 10.7699Z" fill="#00006B"/>
<path d="M88.4277 108.208C88.4153 108.18 88.4024 108.152 88.3906 108.124C88.4024 108.153 88.4153 108.18 88.4277 108.208Z" fill="#6928B3"/>
<path d="M89.7626 98.8802C95.3891 89.7981 111.25 82.4438 125.161 82.4438C133.855 82.4438 139.736 85.3167 141.553 89.6873C141.592 89.7828 141.626 89.8805 141.661 89.9773C141.649 89.9441 132.039 63.1892 132.037 63.1896C132.265 63.1138 130.496 60.5589 130.321 60.3655C129.435 59.4184 128.398 58.6261 127.251 58.0215C124.316 56.4226 120.9 55.7981 117.595 55.61C110.027 55.1792 102.113 56.9835 95.2456 60.1148C91.7091 61.718 88.391 63.765 85.3716 66.2064C82.9349 68.1861 80.6678 70.4854 79.33 73.3247C76.7857 78.7241 79.7035 83.9796 81.5452 89.1065L86.7087 103.48C87.2168 104.895 87.725 106.31 88.2333 107.725C87.3143 105.172 87.7446 102.138 89.7626 98.8802Z" fill="#6928B3"/>
<path d="M140.74 98.1373C139.868 98.1373 139.869 96.7831 140.74 96.7831C140.775 96.784 140.809 96.7874 140.843 96.7933C140.79 96.6546 140.791 96.5011 140.845 96.3629C141.169 95.4494 141.198 94.5124 141.2 93.5523C141.196 93.4092 141.24 93.2691 141.325 93.1536C135.307 90.0161 92.1826 112.353 92.1826 112.353C92.1826 112.353 96.3347 115.297 103.462 117.622L134.198 109.253C134.198 109.253 137.508 106.313 140.766 98.1346C140.757 98.135 140.75 98.1373 140.74 98.1373Z" fill="#21006B"/>
<path d="M139.12 93.113C139.052 93.0482 138.997 92.9699 138.96 92.8828C136.819 93.052 133.702 93.9119 130.075 95.1865C130.137 96.0367 130.213 96.8858 130.304 97.7339C130.712 101.59 131.321 105.428 131.909 109.26C131.939 109.458 131.971 109.655 132.001 109.853L134.199 109.255C134.199 109.255 138.078 105.771 141.571 95.9599C140.82 94.9564 140.001 94.0052 139.12 93.113Z" fill="#CF99FC"/>
<path d="M91.1409 96.5129C90.9858 96.0797 62.7049 17.3261 62.7004 17.3135C62.158 17.9765 61.6586 18.6737 61.2054 19.4008C59.2384 22.576 58.7813 25.5394 59.6106 28.0518L59.6049 28.0538L88.2333 107.725L98.0773 104.519C97.6456 104.182 97.2195 103.837 96.8059 103.478C94.6665 101.616 92.1184 99.234 91.1409 96.5129Z" fill="#00006B"/>
<path d="M136.269 92.0821L141.774 90.2895L113.201 10.7694C113.157 10.632 113.107 10.4961 113.055 10.3614L112.968 10.1196L112.958 10.123C112.297 8.5848 111.127 7.23644 109.508 6.13574L137.821 84.9061C137.821 84.9061 137.681 87.8301 136.269 92.0821Z" fill="#00006B"/>
<path d="M131.713 82.6836L103.299 3.62933C101.097 3.17041 98.8525 2.94764 96.6036 2.96479C88.8798 2.96479 80.5559 5.23262 73.7158 8.80386C82.846 34.8249 92.6724 61.3419 101.962 87.4413C101.962 87.4413 104.876 95.232 109.868 100.681L129.007 94.4478C132.075 87.4442 131.713 82.6836 131.713 82.6836Z" fill="#00006B"/>
<path d="M137.82 84.9061L109.507 6.13576C107.876 5.02686 105.789 4.17029 103.298 3.62891L131.713 82.6832C131.713 82.6832 132.074 87.4437 129.007 94.4471L136.269 92.0823C137.681 87.8308 137.82 84.9061 137.82 84.9061Z" fill="#00006B"/>
<path d="M73.7154 8.80371C69.195 11.1637 65.3223 14.0926 62.7002 17.3136C62.7046 17.3262 90.9849 96.0798 91.1406 96.5131C92.1182 99.2341 94.6663 101.616 96.8059 103.477C97.2194 103.837 97.6456 104.182 98.0773 104.519L109.868 100.679C104.875 95.2299 101.961 87.4399 101.961 87.4399C92.672 61.342 82.8456 34.825 73.7154 8.80371Z" fill="#00006B"/>
<path d="M136.269 92.0821L141.774 90.2895L113.201 10.7694C113.157 10.632 113.107 10.4961 113.055 10.3614L112.968 10.1196L112.958 10.123C112.297 8.5848 111.127 7.23644 109.508 6.13574L137.821 84.9061C137.821 84.9061 137.681 87.8301 136.269 92.0821Z" fill="#5566F8"/>
<path d="M141.773 90.2897L113.201 10.7696C113.156 10.6322 113.107 10.4962 113.054 10.3616L112.967 10.1198L112.957 10.1232C112.475 9.03223 111.772 8.05298 110.893 7.24707C111.571 7.95738 112.12 8.7808 112.514 9.68015L112.611 9.91854C112.664 10.0532 112.713 10.1892 112.758 10.3265L141.33 89.8467L136.479 91.4264C136.413 91.6415 136.342 91.8596 136.268 92.0823L141.773 90.2897Z" fill="#E3E5FF"/>
<path d="M131.713 82.6836L103.299 3.62933C101.097 3.17041 98.8525 2.94764 96.6036 2.96479C88.8798 2.96479 80.5559 5.23262 73.7158 8.80386C82.846 34.8249 92.6724 61.3419 101.962 87.4413C101.962 87.4413 104.876 95.232 109.868 100.681L129.007 94.4478C132.075 87.4442 131.713 82.6836 131.713 82.6836Z" fill="#151A8D"/>
<path d="M137.82 84.9061L109.507 6.13576C107.876 5.02686 105.789 4.17029 103.298 3.62891L131.713 82.6832C131.713 82.6832 132.074 87.4437 129.007 94.4471L136.269 92.0823C137.681 87.8308 137.82 84.9061 137.82 84.9061Z" fill="#2B35B1"/>
<path d="M73.7154 8.80371C69.195 11.1637 65.3223 14.0926 62.7002 17.3136C62.7046 17.3262 90.9849 96.0798 91.1406 96.5131C92.1182 99.2341 94.6663 101.616 96.8059 103.477C97.2194 103.837 97.6456 104.182 98.0773 104.519L109.868 100.679C104.875 95.2299 101.961 87.4399 101.961 87.4399C92.672 61.342 82.8456 34.825 73.7154 8.80371Z" fill="#00006B"/>
<path d="M62.7002 17.314C62.7029 17.3218 73.3145 46.8722 81.5732 69.8707C82.7192 68.5309 83.9911 67.3041 85.3715 66.2075C86.1916 65.5409 87.0356 64.9058 87.9035 64.3024C81.5383 46.7156 75.1154 29.0769 69.0045 11.6603L68.9968 11.6426C66.5014 13.3711 64.3527 15.2843 62.7002 17.314Z" fill="#000938"/>
<path d="M91.1409 96.5129C90.9858 96.0797 62.7049 17.3261 62.7004 17.3135C62.158 17.9765 61.6586 18.6737 61.2054 19.4008C59.2384 22.576 58.7813 25.5394 59.6106 28.0518L59.6049 28.0538L88.2333 107.725L98.0773 104.519C97.6456 104.182 97.2195 103.837 96.8059 103.478C94.6665 101.616 92.1184 99.234 91.1409 96.5129Z" fill="#00006B"/>
<path d="M59.6103 28.0518L59.6045 28.0538L88.2327 107.725L89.026 107.467L59.6045 28.0538" fill="#00EE70"/>
<path d="M95.0946 91.0835C86.2105 91.0835 79.5328 88.2418 76.7736 83.2863C74.6976 79.558 75.0757 75.0486 77.8382 70.589C80.8287 65.7622 86.4159 61.2748 93.5712 57.9539C100.601 54.6914 108.387 52.8945 115.496 52.8945C124.38 52.8945 131.057 55.7366 133.817 60.6919C135.893 64.4204 135.515 68.9297 132.753 73.3892C129.763 78.2162 124.175 82.7034 117.02 86.0244C109.99 89.2868 102.203 91.0835 95.0946 91.0835Z" fill="#6928B3"/>
<path d="M133.816 60.692C132.784 58.8988 131.322 57.3909 129.562 56.3047L134.435 69.8697C135.542 66.6081 135.345 63.4384 133.816 60.692Z" fill="#CF99FC"/>
<path d="M76.7745 83.2859C77.806 85.0791 79.2681 86.5868 81.0287 87.6731L76.1554 74.1094C75.0494 77.3705 75.2454 80.5402 76.7745 83.2859Z" fill="#44138C"/>
<path d="M133.324 72.3981C133.765 71.5879 134.137 70.742 134.436 69.8695L129.562 56.3045C128.767 55.7984 127.932 55.3573 127.066 54.9854L133.324 72.3981Z" fill="#CF99FC"/>
<path d="M115.495 52.8948C108.387 52.8948 100.6 54.6917 93.5709 57.9541C92.9288 58.2523 92.2997 58.5597 91.6836 58.8763C95.1407 68.4237 98.5667 77.9454 101.962 87.4412C101.962 87.4412 102.4 88.6102 103.224 90.3559C107.992 89.5174 112.629 88.0613 117.02 86.0244C122.229 83.6068 126.606 80.5708 129.756 77.2359L121.161 53.3232C119.287 53.0311 117.392 52.8878 115.495 52.8948Z" fill="#6928B3"/>
<path d="M121.16 53.3232L129.755 77.2359C130.881 76.0578 131.885 74.7691 132.752 73.3893C132.957 73.059 133.147 72.7287 133.325 72.3982L127.066 54.9855C125.174 54.1879 123.19 53.6295 121.16 53.3232Z" fill="#A851F7"/>
<path d="M91.6831 58.876C90.0511 59.7103 88.4687 60.6384 86.944 61.6556C87.2634 62.538 87.5829 63.4201 87.9025 64.3022C87.0368 64.9077 86.1928 65.5427 85.3706 66.2072C83.9901 67.3039 82.7182 68.5306 81.5723 69.8704C84.5674 78.2116 87.253 85.69 89.0109 90.5852C91.0205 90.9257 93.0556 91.0924 95.0937 91.0834C97.8194 91.0738 100.539 90.8304 103.223 90.3556C102.399 88.6099 101.961 87.4409 101.961 87.4409C98.5859 77.9602 95.1601 68.4386 91.6831 58.876Z" fill="#44138C"/>
<path d="M85.3712 66.2069C86.1913 65.5403 87.0353 64.9053 87.9032 64.3019C87.5839 63.4199 87.2644 62.5378 86.9446 61.6553C84.61 63.1915 82.4657 64.9989 80.5566 67.04C80.8987 67.9926 81.2374 68.9361 81.5729 69.8701C82.7189 68.5303 83.9908 67.3036 85.3712 66.2069Z" fill="#21006B"/>
<path d="M81.5727 69.8702C81.2377 68.9372 80.8989 67.9937 80.5565 67.04C79.5413 68.1353 78.6311 69.3234 77.8378 70.5887C77.1448 71.6945 76.5799 72.8757 76.1543 74.1094L81.0276 87.6732C83.1783 89.0519 85.8788 90.0387 89.0116 90.585C87.2535 85.6909 84.5678 78.2113 81.5727 69.8702Z" fill="#44138C"/>
<path d="M117.019 86.0232C122.028 83.6986 126.266 80.802 129.386 77.618C126.313 80.6275 122.237 83.3639 117.462 85.5801C110.433 88.8428 102.646 90.6395 95.5376 90.6395C86.6536 90.6395 79.9758 87.7977 77.2166 82.8423C75.1406 79.1137 75.5188 74.6043 78.2813 70.1448C79.2452 68.6157 80.3743 67.1973 81.6482 65.915C80.1956 67.3144 78.9164 68.8832 77.8382 70.5878C75.0757 75.0473 74.6976 79.5568 76.7736 83.2853C79.5328 88.2405 86.2101 91.0825 95.0946 91.0825" fill="#00EE70"/>
<path d="M92.6038 61.4199C90.0445 62.7795 87.6223 64.3827 85.3706 66.2071C83.9901 67.3038 82.7182 68.5305 81.5723 69.8703L91.1397 96.5131C91.174 96.6086 91.2146 96.7024 91.2527 96.7973C93.879 93.5689 97.7616 90.6341 102.294 88.271C102.075 87.7454 101.961 87.4408 101.961 87.4408C98.8859 78.8019 95.7668 70.1282 92.6038 61.4199Z" fill="#6928B3"/>
<path d="M141.41 89.2775C139.895 85.0601 132.04 63.19 132.038 63.1905C132.265 63.1147 130.496 60.5598 130.321 60.3664C129.435 59.4193 128.398 58.627 127.251 58.0223C124.316 56.4234 120.9 55.799 117.595 55.611C110.027 55.1801 102.113 56.9844 95.2457 60.1157C91.7092 61.7189 88.3911 63.7659 85.3717 66.2073C82.935 68.187 80.6679 70.486 79.3299 73.3256C76.7858 78.725 79.7036 83.9804 81.5451 89.1074L86.7086 103.481C87.2167 104.896 87.7249 106.311 88.2332 107.725C87.3141 105.172 87.7445 102.137 89.7616 98.88C95.3881 89.7979 111.249 82.4436 125.16 82.4436C133.592 82.4436 139.379 85.146 141.376 89.297C141.387 89.2899 141.398 89.2834 141.41 89.2775Z" fill="#6928B3"/>
<path d="M81.5723 69.8701L91.1397 96.5129C91.174 96.6084 91.2146 96.7022 91.2527 96.7968C91.4015 96.6141 91.5554 96.4322 91.7123 96.2515C91.7473 96.2107 91.7829 96.1704 91.8184 96.1299C91.9659 95.962 92.1159 95.7947 92.27 95.6286L92.3026 95.5929C92.4695 95.4137 92.6404 95.2358 92.8154 95.0589C92.8502 95.0234 92.8854 94.9882 92.9204 94.953C93.0815 94.7916 93.2453 94.6309 93.4119 94.4709L93.4616 94.4229C93.6473 94.2457 93.8371 94.0702 94.0307 93.8964C94.0604 93.8693 94.0907 93.8425 94.1208 93.8157C94.3004 93.6544 94.4831 93.4943 94.6691 93.3354C94.6866 93.3206 94.7036 93.3056 94.7211 93.2912C94.9271 93.1158 95.1367 92.9418 95.3499 92.7693L95.41 92.721C95.6132 92.5574 95.8194 92.395 96.0286 92.2337L96.073 92.1987C96.3003 92.0244 96.5309 91.8517 96.765 91.6806L96.7756 91.6728C97.0072 91.5039 97.2421 91.3364 97.4803 91.1706C97.4911 91.1633 97.5024 91.1557 97.5124 91.1484L97.5729 91.1061C97.3595 90.5936 97.2486 90.2976 97.2486 90.2976C94.1769 81.6674 91.0609 73.0025 87.9007 64.3027C87.035 64.9082 86.1911 65.5432 85.3688 66.2078C83.9891 67.3043 82.7177 68.5307 81.5723 69.8701Z" fill="#44138C"/>
<path d="M141.317 89.0199C139.658 84.3993 132.52 64.53 132.062 63.2579C132.048 63.2472 132.036 63.2339 132.028 63.2186C132.02 63.2034 132.015 63.1866 132.013 63.1693C132.013 63.164 132.013 63.1631 132.013 63.1613L132.009 63.1404C132.006 63.1262 132.002 63.1121 131.998 63.0981C131.991 63.0747 131.982 63.052 131.971 63.0303C131.944 62.9754 131.913 62.923 131.884 62.8702C131.854 62.8175 131.827 62.7628 131.799 62.7092C131.785 62.6822 131.771 62.6554 131.755 62.6295C131.747 62.6166 131.738 62.6039 131.73 62.5915L131.724 62.5847L131.712 62.5697C131.693 62.5499 131.682 62.5241 131.681 62.4971C131.68 62.47 131.689 62.4435 131.706 62.4223C131.232 61.6298 130.436 60.4935 130.321 60.3671C129.752 59.7485 129.112 59.1995 128.413 58.7314L137.821 84.9066C137.821 84.9066 137.813 85.089 137.778 85.4237C139.342 86.4258 140.515 87.6487 141.249 89.0432C141.271 89.0334 141.294 89.0256 141.317 89.0199Z" fill="#E1BEFD"/>
<path d="M132.013 63.1682C132.013 63.1629 132.013 63.1621 132.013 63.1604L132.009 63.1395C132.006 63.1253 132.002 63.1111 131.998 63.0972C131.991 63.0738 131.982 63.0511 131.971 63.0294C131.944 62.9744 131.913 62.922 131.884 62.8693C131.854 62.8166 131.827 62.7618 131.799 62.7082C131.785 62.6812 131.771 62.6543 131.755 62.6284C131.747 62.6156 131.738 62.603 131.73 62.5906L131.724 62.5837L131.712 62.5686C131.693 62.5489 131.682 62.5232 131.681 62.4961C131.68 62.4691 131.689 62.4425 131.706 62.4213C131.334 61.7986 130.764 60.9657 130.48 60.5752L140.132 87.4276C140.565 87.9209 140.94 88.4628 141.249 89.0422C141.271 89.0328 141.294 89.0254 141.318 89.0201C139.658 84.3995 132.521 64.5302 132.062 63.258C132.048 63.2473 132.037 63.2338 132.028 63.2183C132.02 63.2029 132.015 63.1858 132.013 63.1682Z" fill="#F3E2FF"/>
<path d="M128.412 58.7303C128.037 58.4749 127.648 58.2385 127.25 58.0214C125.661 57.178 123.959 56.567 122.196 56.207L131.713 82.6826C131.713 82.6826 131.723 82.8197 131.725 83.0787C134.128 83.5882 136.161 84.387 137.777 85.4221C137.811 85.0874 137.82 84.9051 137.82 84.9051L128.412 58.7303Z" fill="#CF99FC"/>
<path d="M81.5733 69.8701C80.6811 70.9215 79.9272 72.0827 79.33 73.3256C76.7857 78.725 79.7035 83.9805 81.5452 89.1074L86.7087 103.481C87.2168 104.896 87.725 106.311 88.2333 107.726C87.3143 105.172 87.7446 102.137 89.7618 98.88C90.2137 98.1547 90.7117 97.4592 91.2528 96.7978C91.2147 96.703 91.1742 96.609 91.1398 96.5135L81.5733 69.8701Z" fill="#6928B3"/>
<path d="M122.197 56.2072C120.681 55.8892 119.143 55.6892 117.596 55.609C110.028 55.1782 102.113 56.9825 95.2462 60.1138C94.3529 60.5211 93.4726 60.9559 92.6055 61.4182C95.7532 70.1155 98.8721 78.7891 101.962 87.4391C101.962 87.4391 102.076 87.7437 102.294 88.2694C109.13 84.7047 117.446 82.4417 125.16 82.4417C127.365 82.4256 129.565 82.6387 131.725 83.0777C131.723 82.8188 131.713 82.6816 131.713 82.6816L122.197 56.2072Z" fill="#A851F7"/>
<path d="M139.632 97.4021C134.006 106.484 118.146 113.838 104.235 113.838C90.3235 113.838 83.6116 106.484 89.2381 97.4021C94.8645 88.32 110.725 80.9658 124.636 80.9658C133.33 80.9658 139.213 83.8386 141.028 88.2093C142.117 90.8335 141.742 93.9963 139.632 97.4021Z" fill="#A851F7"/>
<path d="M139.772 97.8025C134.146 106.885 118.285 114.239 104.374 114.239C90.4632 114.239 83.7513 106.885 89.3777 97.8025C95.0042 88.7204 110.865 81.3662 124.776 81.3662C133.47 81.3662 139.351 84.239 141.168 88.6097C142.257 91.2339 141.882 94.3967 139.772 97.8025Z" fill="black"/>
<path d="M114.186 60.5542C112.759 58.8514 109.901 59.3392 109.868 61.3395L109.826 63.9452C109.814 64.4608 109.671 64.9648 109.409 65.4093C109.147 65.8538 108.776 66.224 108.331 66.4844L105.936 67.9658C104.055 69.1294 105.146 71.7785 107.558 71.9586L110.607 72.1864C111.761 72.2624 112.843 72.7762 113.631 73.6229L115.462 75.6588C116.841 77.1912 119.474 76.4492 119.506 74.5641L119.548 72.1068C119.556 71.627 119.68 71.1562 119.909 70.7347C120.138 70.3131 120.466 69.9533 120.865 69.6861L122.886 68.3052C124.405 67.2677 123.539 64.8728 121.538 64.6218L118.856 64.2853C117.746 64.1396 116.731 63.5851 116.009 62.7304L114.186 60.5542Z" fill="#FCE2FF"/>
<path d="M105.936 69.2208L108.331 67.7395C108.776 67.479 109.147 67.1089 109.409 66.6644C109.671 66.2198 109.814 65.7158 109.826 65.2001L109.868 62.5944C109.901 60.5943 112.759 60.1064 114.186 61.8091L116.009 63.9852C116.731 64.84 117.746 65.3945 118.856 65.5403L121.538 65.8767C121.989 65.9268 122.416 66.1029 122.771 66.3847C123.126 66.6664 123.394 67.0426 123.545 67.47C123.969 66.3256 123.104 64.8183 121.538 64.6219L118.856 64.2854C117.746 64.1396 116.731 63.5852 116.009 62.7304L114.186 60.554C112.759 58.8515 109.901 59.3392 109.868 61.3395L109.826 63.9452C109.814 64.4609 109.671 64.9649 109.409 65.4094C109.147 65.8539 108.776 66.224 108.331 66.4844L105.936 67.9659C105.551 68.1774 105.254 68.5198 105.099 68.9311C104.945 69.3424 104.942 69.7956 105.093 70.2085C105.254 69.7933 105.551 69.445 105.936 69.2208Z" fill="black"/>
<path d="M140.157 98.8797C134.53 107.962 118.67 115.316 104.759 115.316C90.8479 115.316 84.136 107.962 89.7625 98.8797C95.3889 89.7977 111.249 82.4434 125.16 82.4434C133.855 82.4434 139.736 85.3162 141.553 89.6869C142.642 92.3112 142.267 95.474 140.157 98.8797Z" fill="#44138C"/>
<path d="M128.381 95.8021C131.527 89.2931 131.738 84.4519 131.725 83.0792C129.565 82.6402 127.364 82.4271 125.16 82.4432C117.444 82.4432 109.13 84.7062 102.294 88.2708C103.124 90.2631 105.481 95.4732 109.02 99.7109C113.853 97.1961 119.725 95.599 125.175 95.599C126.247 95.5958 127.318 95.6636 128.381 95.8021Z" fill="#6928B3"/>
<path d="M141.553 89.6881C140.861 88.0234 139.579 86.5769 137.778 85.4229C137.619 86.9692 136.91 91.8288 133.948 97.6101C135.305 98.4423 136.268 99.5005 136.777 100.726C137.024 101.326 137.165 101.965 137.191 102.613C138.312 101.48 139.307 100.228 140.157 98.8798C142.267 95.474 142.642 92.3112 141.553 89.6881Z" fill="#CF99FC"/>
<path d="M135.788 107.231C131.806 113.659 120.582 118.863 110.737 118.863C100.892 118.863 96.1424 113.658 100.124 107.231C104.106 100.805 115.33 95.5996 125.175 95.5996C131.328 95.5996 135.491 97.6327 136.776 100.727C137.546 102.583 137.281 104.821 135.788 107.231Z" fill="black"/>
<path d="M127.923 96.7261L132.917 99.4977C136.752 92.9081 137.602 87.1346 137.778 85.4225C136.162 84.3874 134.128 83.5879 131.726 83.0791C131.739 84.5167 131.509 89.7529 127.923 96.7261Z" fill="#A851F7"/>
<path d="M96.8052 103.479C99.2181 105.581 101.942 107.297 104.88 108.566L109.955 100.779C105.895 96.3929 103.195 90.4355 102.294 88.2725C97.7618 90.6358 93.8792 93.5705 91.2529 96.7988C92.3 99.4 94.7407 101.682 96.8052 103.479Z" fill="#44138C"/>
<path d="M98.0768 104.52L98.083 104.518C99.2613 105.443 100.505 106.281 101.804 107.027L105.156 103.536C104.849 103.201 104.549 102.858 104.258 102.506C100.734 98.2645 98.3923 93.0737 97.5735 91.1064C95.068 92.84 92.9093 94.7599 91.252 96.7969V96.7987C91.3133 96.9516 91.3804 97.1028 91.4513 97.2532C91.475 97.3035 91.5012 97.3534 91.526 97.4035C91.5754 97.504 91.6255 97.6044 91.6786 97.7038C91.7099 97.7621 91.7429 97.8199 91.7752 97.8778C91.826 97.9684 91.8775 98.0587 91.9302 98.1486C91.9661 98.2077 92.0026 98.2668 92.0397 98.3259C92.0942 98.4136 92.15 98.5007 92.2071 98.5874C92.2457 98.6459 92.2842 98.7042 92.3238 98.762C92.3839 98.8506 92.4457 98.9376 92.5081 99.0249C92.5473 99.0794 92.5859 99.1342 92.6258 99.1882C92.6956 99.2828 92.7673 99.3762 92.8395 99.4695C92.8745 99.5138 92.9087 99.5603 92.9443 99.6053C93.0523 99.7416 93.1623 99.8767 93.2746 100.01C93.2786 100.015 93.2828 100.02 93.2868 100.025C93.3972 100.156 93.5097 100.285 93.6241 100.414C93.6636 100.458 93.7041 100.502 93.7442 100.547C93.8233 100.634 93.9024 100.721 93.9828 100.807C94.0304 100.858 94.0785 100.909 94.1266 100.959C94.2011 101.038 94.2762 101.116 94.3519 101.194C94.4019 101.245 94.4523 101.296 94.503 101.347C94.5778 101.423 94.6531 101.498 94.7287 101.573C94.7793 101.623 94.8302 101.673 94.8813 101.723C94.9582 101.798 95.0353 101.872 95.1125 101.946C95.1619 101.993 95.2113 102.04 95.2607 102.087C95.3455 102.167 95.4304 102.246 95.5154 102.324C95.5562 102.362 95.597 102.401 95.638 102.438C95.7634 102.553 95.8884 102.667 96.0132 102.779L96.0684 102.828C96.1532 102.904 96.2376 102.979 96.322 103.054C96.351 103.08 96.3803 103.106 96.4091 103.132C96.542 103.248 96.6732 103.363 96.8027 103.476C97.0335 103.677 97.2696 103.871 97.5062 104.065C97.6962 104.218 97.8865 104.37 98.0768 104.52Z" fill="#21006B"/>
<path d="M135.788 107.231C131.806 113.659 120.582 118.863 110.737 118.863C100.892 118.863 96.1424 113.658 100.124 107.231C104.106 100.805 115.33 95.5996 125.175 95.5996C131.328 95.5996 135.491 97.6327 136.776 100.727C137.546 102.583 137.281 104.821 135.788 107.231Z" fill="black"/>
<path d="M89.0235 124.191L78.5625 133.381L81.1626 135.229L91.6234 126.039L89.0235 124.191Z" fill="#21006B"/>
<path d="M89.0239 124.191L78.093 79.8965L67.7607 88.9529L78.5629 133.381" fill="#44138C"/>
<path d="M81.9843 134.51L81.1629 135.229L78.5628 133.381L79.3842 132.663L81.9843 134.51L81.1629 135.229L78.5628 133.381L69.2045 94.8915L68.582 88.2344L79.3842 132.663" fill="#00EE70"/>
<path d="M77.3473 85.7292C76.8379 83.6184 75.6457 82.4302 74.3239 82.4496V82.4473H67.7603L67.2031 95.1524H73.4379V95.1438C74.0961 95.0942 74.7169 94.8178 75.1941 94.3616C77.1164 92.6735 78.085 88.789 77.3473 85.7292Z" fill="#5566F8"/>
<path d="M67.2041 95.1525H73.4388V95.1439C74.0971 95.0943 74.7179 94.8179 75.195 94.3618C75.9595 93.6381 76.5415 92.7433 76.893 91.751H67.3525L67.2041 95.1525Z" fill="#151A8D"/>
<path d="M74.3237 82.4496V82.4473H67.76L67.6436 85.1054H77.1657C76.588 83.3874 75.5086 82.4321 74.3237 82.4496Z" fill="#5566F8"/>
<path d="M77.3475 85.7292C77.2948 85.5104 77.233 85.3039 77.1663 85.1055H67.6441L67.3525 91.7509H76.893C77.6273 89.8307 77.7852 87.7379 77.3475 85.7292Z" fill="#2B35B1"/>
<path d="M67.2265 94.6309L66.7861 95.1527H73.4384V95.1443C73.948 95.1123 74.4377 94.9341 74.8486 94.6309H67.2265Z" fill="#008E46"/>
<path d="M68.2038 82.8903H74.7674V82.8929C75.3249 82.8928 75.8637 83.0937 76.285 83.4587C75.7312 82.7928 75.0474 82.4397 74.3244 82.4499V82.4473H67.7607" fill="#00EE70"/>
<path d="M70.8566 89.2515C71.2831 85.7511 69.9897 82.7137 67.9676 82.4673C65.9455 82.2209 63.9605 84.8589 63.534 88.3593C63.1075 91.8597 64.4009 94.897 66.423 95.1434C68.4451 95.3898 70.4301 92.7519 70.8566 89.2515Z" fill="#9BA6FD"/>
<path d="M65.268 84.0047H70.0219C69.0173 82.3123 67.3626 81.9174 65.8628 83.235C65.6023 83.4686 65.3665 83.7284 65.1592 84.0103C65.1944 84.0078 65.2306 84.0047 65.268 84.0047Z" fill="#00EE70"/>
<path d="M64.2568 93.3613C65.2443 95.246 66.9786 95.7371 68.5444 94.3617C68.8744 94.0659 69.1659 93.7298 69.4121 93.3613H64.2568Z" fill="#00EE70"/>
<path d="M91.6239 126.039L81.1631 135.229L143.798 135.227L150.576 126.037L91.6239 126.039Z" fill="#0F0032"/>
<path d="M143.577 134.784L81.1631 135.229L143.798 135.227L150.576 126.037L143.577 134.784Z" fill="#FF33D4"/>
<path d="M149.16 121.544L147.992 123.127H148.984" fill="#A851F7"/>
<path d="M70.2903 88.8834C70.6995 85.525 69.4584 82.6108 67.5183 82.3744C65.5781 82.138 63.6736 84.6689 63.2644 88.0273C62.8552 91.3858 64.0962 94.3 66.0364 94.5364C67.9765 94.7728 69.8811 92.2419 70.2903 88.8834Z" fill="#5566F8"/>
<path d="M69.1455 90.6832C68.8979 91.4925 68.4481 92.2254 67.8386 92.8127C66.4089 94.0686 64.766 93.1323 64.1874 90.732C63.8979 89.4414 63.9183 88.1005 64.247 86.8193" fill="#434FCE"/>
<path d="M130.815 162.954L127.041 147.663L130.815 162.954Z" fill="#151A8D"/>
<path d="M105.936 70.181L108.331 68.6995C108.776 68.4391 109.147 68.069 109.409 67.6245C109.671 67.18 109.814 66.676 109.826 66.1603L109.868 63.5546C109.901 61.5543 112.759 61.0666 114.186 62.7693L116.009 64.9455C116.731 65.8003 117.746 66.3547 118.856 66.5005L121.538 66.837C121.893 66.8778 122.235 66.9961 122.539 67.1833C122.843 67.3705 123.102 67.6221 123.298 67.9204C124.201 66.7685 123.321 64.8453 121.538 64.6218L118.856 64.2853C117.746 64.1396 116.731 63.5851 116.009 62.7304L114.186 60.5542C112.759 58.8514 109.901 59.3392 109.868 61.3395L109.826 63.9452C109.814 64.4608 109.671 64.9648 109.409 65.4093C109.147 65.8538 108.776 66.224 108.331 66.4844L105.936 67.9658C104.846 68.6401 104.755 69.8131 105.341 70.7155C105.504 70.5017 105.706 70.3204 105.936 70.181Z" fill="black"/>
<path d="M92.6044 61.4202C92.8298 60.4687 92.6759 59.4669 92.1753 58.627L91.6836 58.8762" fill="#44138C"/>
<path d="M121.16 53.3232C121.16 53.3232 122.898 54.0717 122.197 56.2082L121.16 53.3232Z" fill="#6928B3"/>
<path d="M127.066 54.9854C127.066 54.9854 129.418 56.4266 128.413 58.731L127.066 54.9854Z" fill="#A851F7"/>
<path d="M132.16 63.534L134.436 69.8692C135.51 66.7038 135.353 63.6257 133.945 60.9365C134.081 63.2073 132.262 63.5174 132.16 63.534Z" fill="#E1BEFD"/>
<path d="M133.878 69.7533C133.98 69.7698 134.076 69.8098 134.159 69.87C134.242 69.9302 134.31 70.0089 134.357 70.0999C135.552 66.7575 135.382 63.5031 133.817 60.6923C133.245 59.6758 132.522 58.7518 131.673 57.9521C132.334 58.6432 132.906 59.415 133.374 60.2493C134.954 63.0869 135.111 66.377 133.878 69.7533Z" fill="#F3E2FF"/>
<path d="M87.9029 64.302C88.3083 62.4325 87.2196 61.4727 87.2196 61.4727L86.7949 61.7561" fill="#21006B"/>
<path d="M80.5566 67.04C80.5566 67.04 81.6954 67.5838 81.5729 69.8701L80.5566 67.04Z" fill="#44138C"/>
<path d="M80.3109 72.537C85.9373 63.4549 101.798 56.1007 115.709 56.1007C124.487 56.1007 130.396 59.0295 132.15 63.4724C130.713 58.6877 124.671 55.4893 115.496 55.4893C101.585 55.4893 85.7245 62.8436 80.098 71.9256C78.022 75.2769 77.6275 78.3923 78.6533 80.9904C77.9113 78.5205 78.3952 75.6291 80.3109 72.537Z" fill="black"/>
<path d="M124.24 128.968H124.238C124.088 128.392 123.369 128.031 122.125 128.031C119.688 128.031 116.125 129.41 114.207 131.095C113.273 131.915 112.896 132.662 113.035 133.214H113.033L118.925 156.364L130.125 152.088L124.24 128.968Z" fill="#151A8D"/>
<path d="M121.964 128.038C120.506 128.072 118.686 128.572 117.053 129.323L123.393 154.659L128.169 152.836L121.964 128.038Z" fill="#151A8D"/>
<path d="M113.035 133.215H113.033L118.925 156.365L120.195 155.88L114.033 131.254C113.227 132.012 112.905 132.7 113.035 133.215Z" fill="#00006B"/>
<path d="M130.125 152.089L124.239 128.968H124.238C124.183 128.799 124.089 128.646 123.962 128.521C123.836 128.397 123.682 128.304 123.513 128.251L129.534 152.314L130.125 152.089Z" fill="#5566F8"/>
<path d="M114.207 131.096C114.147 131.149 114.089 131.201 114.033 131.254L120.195 155.88L123.393 154.659L117.053 129.322C116.026 129.777 115.068 130.374 114.207 131.096Z" fill="#150049"/>
<path d="M129.535 152.314L123.514 128.252C123.069 128.092 122.598 128.017 122.125 128.032C122.073 128.032 122.018 128.036 121.965 128.038L128.17 152.835L129.535 152.314Z" fill="#2B35B1"/>
<path d="M125.37 156.339C128.449 155.106 130.569 153.167 130.105 152.009C129.641 150.85 126.769 150.91 123.69 152.143C120.611 153.376 118.49 155.314 118.954 156.473C119.418 157.632 122.291 157.572 125.37 156.339Z" fill="#0F0032"/>
<path d="M156.802 158.442C156.564 156.658 155.612 153.698 155.612 153.698C154.608 150.497 148.488 148.392 138.699 148.484C123.92 148.623 106.158 153.719 99.2292 159.807C96.9919 161.772 96.1483 163.61 96.5267 165.193C96.5267 165.195 96.7912 167.736 97.6873 169.821C98.2094 171.037 98.4904 169.409 98.6344 167.837C101.348 169.625 106.48 170.689 113.5 170.623C128.278 170.484 146.04 165.389 152.97 159.3C153.438 158.893 153.876 158.452 154.28 157.98C155.024 158.538 156.995 159.892 156.802 158.442Z" fill="#00006B"/>
<path d="M97.5437 169.474C95.9761 163.543 97.6557 162.214 99.8917 160.249C104.599 156.113 114.199 151.889 124.573 149.912C124.499 149.741 124.57 150.1 124.573 149.912C113.99 151.861 104.019 155.596 99.2271 159.806C96.9899 161.771 96.1464 163.609 96.5247 165.192C96.5247 165.194 96.7892 167.735 97.6852 169.821" fill="#00EE70"/>
<path d="M128.99 173.581C145.351 170.534 157.813 163.766 156.826 158.464C155.838 153.162 141.775 151.334 125.414 154.381C109.054 157.428 96.5915 164.196 97.5789 169.498C98.5663 174.8 112.63 176.628 128.99 173.581Z" fill="black"/>
<path d="M148.186 105.715H145.25L149.154 121.545L148.234 123.127L92.8411 123.129L91.979 122.52L81.3133 79.8955H78.0918L89.0237 124.191L91.6236 126.039L150.576 126.037L152.444 123.505L148.186 105.715Z" fill="#A851F7"/>
<path d="M103.478 117.618C97.1989 115.569 94.1015 113.046 93.2455 112.473C90.5171 110.799 88.3036 108.654 87.8231 105.928C87.7265 106.015 87.9471 105.895 87.8231 105.928C88.1111 108.577 89.6913 110.836 92.3595 112.473C93.2154 113.046 97.1836 115.573 103.462 117.622" fill="#00EE70"/>
<path d="M139.806 152.914C134.415 153.004 129.045 153.607 123.769 154.715C128.688 153.745 133.685 153.216 138.699 153.136C153.477 152.996 159.898 157.864 152.968 163.952C148.467 167.907 139.393 171.442 129.536 173.473C139.816 171.484 149.406 167.833 154.076 163.73C161.006 157.642 154.584 152.775 139.806 152.914Z" fill="#FF33D4"/>
<path d="M136.777 100.727C135.492 97.6327 131.329 95.5996 125.176 95.5996C125.119 95.5996 125.061 95.602 125.004 95.6022C131.007 95.6616 135.068 97.6785 136.334 100.727C137.104 102.583 136.839 104.821 135.346 107.231C131.384 113.626 120.253 118.809 110.444 118.861C110.542 118.862 110.64 118.863 110.738 118.863C120.583 118.863 131.807 113.658 135.789 107.232C137.282 104.821 137.547 102.583 136.777 100.727Z" fill="#FF33D4"/>
<path d="M134.198 109.253C134.198 109.253 138.077 105.77 141.57 95.9586L141.567 95.955C142.356 93.6666 142.321 91.5425 141.552 89.6884C141.451 89.4466 141.338 89.2099 141.213 88.9795C141.254 89.0681 141.293 89.1554 141.33 89.2454C142.1 91.0994 142.134 93.2235 141.346 95.512L141.349 95.5156C137.856 105.327 134.088 109.01 134.088 109.01" fill="#FF33D4"/>
<path d="M142.147 80.4834H141.482L152.444 123.505L142.147 80.4834Z" fill="#F3E2FF"/>
<path d="M149.882 85.7294C149.83 85.5106 149.768 85.3041 149.701 85.1054C149.123 83.3878 148.043 82.4324 146.859 82.4499V82.4473H142.171C142.242 82.5835 142.274 82.737 142.262 82.8903H146.417V82.8929C147.602 82.8754 148.681 83.8308 149.259 85.5485C149.326 85.7478 149.388 85.9536 149.44 86.1724C149.878 88.1811 149.72 90.2737 148.986 92.1939C148.691 92.9931 148.258 93.7341 147.705 94.3826C147.714 94.3753 147.723 94.3692 147.731 94.3619C148.495 93.638 149.077 92.7432 149.429 91.7509C150.163 89.8306 150.32 87.7379 149.882 85.7294Z" fill="#F3E2FF"/>
<path d="M81.984 134.511L79.3839 132.663L78.5625 133.381L81.1626 135.229L81.984 134.511Z" fill="#008E46"/>
<path d="M121.538 64.6224L118.856 64.2859C118.627 64.2555 118.401 64.2069 118.181 64.1406L119.037 66.5236L121.538 66.8375C121.893 66.8784 122.234 66.9966 122.539 67.1838C122.843 67.371 123.102 67.6226 123.298 67.921C124.201 66.7698 123.321 64.8468 121.538 64.6224Z" fill="#21006B"/>
</g>
<defs>
<linearGradient id="paint0_linear_961_27276" x1="224.162" y1="65.3657" x2="131.794" y2="65.3657" gradientUnits="userSpaceOnUse">
<stop offset="0.001" stop-color="#01763A"/>
<stop offset="1" stop-color="#01391C"/>
</linearGradient>
<linearGradient id="paint1_linear_961_27276" x1="228.225" y1="65.3662" x2="119.312" y2="65.3662" gradientUnits="userSpaceOnUse">
<stop stop-color="#15B963"/>
<stop offset="1" stop-color="#064924"/>
</linearGradient>
<linearGradient id="paint2_linear_961_27276" x1="135.535" y1="65.3665" x2="232.55" y2="65.3665" gradientUnits="userSpaceOnUse">
<stop stop-color="#08934A"/>
<stop offset="0.504" stop-color="#12C164"/>
<stop offset="0.976" stop-color="#97FFC8"/>
</linearGradient>
<linearGradient id="paint3_linear_961_27276" x1="173.843" y1="98.4078" x2="146.437" y2="98.4078" gradientUnits="userSpaceOnUse">
<stop stop-color="#18C268"/>
<stop offset="1" stop-color="#034F29"/>
</linearGradient>
<linearGradient id="paint4_linear_961_27276" x1="173.843" y1="37.1252" x2="144.347" y2="37.1252" gradientUnits="userSpaceOnUse">
<stop stop-color="#18C268"/>
<stop offset="1" stop-color="#034F29"/>
</linearGradient>
<linearGradient id="paint5_linear_961_27276" x1="132.372" y1="80.8805" x2="196.715" y2="80.8805" gradientUnits="userSpaceOnUse">
<stop stop-color="#066634"/>
<stop offset="0.505" stop-color="#1EBA68"/>
<stop offset="0.976" stop-color="#7BD0A2"/>
</linearGradient>
<linearGradient id="paint6_linear_961_27276" x1="132.372" y1="49.8503" x2="196.716" y2="49.8503" gradientUnits="userSpaceOnUse">
<stop stop-color="#066634"/>
<stop offset="0.505" stop-color="#1EBA68"/>
<stop offset="0.976" stop-color="#7BD0A2"/>
</linearGradient>
<clipPath id="clip0_961_27276">
<rect width="232.55" height="175" fill="white" transform="translate(0 0.0556641)"/>
</clipPath>
</defs>
</svg>
