<svg width="140" height="159" viewBox="0 0 140 159" fill="none" xmlns="http://www.w3.org/2000/svg">
<path d="M39.1317 119.847L46.3438 116.351C48.6406 116.895 50.1106 118.348 50.9834 120.573C51.8562 122.798 52.04 124.75 51.5806 125.477C51.5806 125.477 52.3156 127.928 52.1778 129.699C52.04 131.243 51.1212 130.97 50.57 130.426C49.1 129.018 48.365 128.564 47.9516 128.746C47.4003 128.973 47.4463 129.744 47.5381 131.833C47.5841 132.877 46.941 132.787 46.3897 132.559C45.5628 132.242 44.5982 131.334 43.5876 130.062C42.8985 130.062 41.9798 129.608 40.7854 127.838C39.1776 125.477 38.7183 123.751 39.1776 119.847H39.1317Z" fill="url(#paint0_linear_5145_55246)"/>
<path d="M39.0396 119.62C38.5343 121.118 39.8665 121.935 42.0255 121.527C44.1846 121.118 46.3436 119.529 46.8489 118.076C47.3542 116.578 46.022 115.761 43.863 116.169C41.704 116.578 39.5449 118.167 39.0396 119.62Z" fill="#1D0066"/>
<path d="M39.2695 121.073L46.9409 117.168L45.7925 111.538L35.2729 117.032L39.2695 121.073Z" fill="#1D0066"/>
<path d="M42.6227 117.078L43.6793 116.76C43.5874 118.122 43.2199 119.893 42.3931 121.436C42.2552 121.436 42.1634 121.482 42.0255 121.527C41.7499 121.572 41.4743 121.618 41.2446 121.618C42.2093 119.983 42.6227 117.986 42.6687 117.078H42.6227Z" fill="#232B9E"/>
<path d="M39.683 117.531L40.6936 117.122C40.7395 118.393 40.5558 119.982 40.0046 121.481C39.683 121.39 39.4533 121.254 39.2696 121.072L39.2236 121.027C39.6371 119.665 39.7749 118.257 39.7289 117.576L39.683 117.531Z" fill="#232B9E"/>
<path d="M44.0928 120.755C44.9196 118.938 44.9656 116.759 44.8737 115.806L45.8384 115.352C45.9762 116.668 45.8843 118.348 45.379 119.937C45.0115 120.255 44.5521 120.528 44.0928 120.755Z" fill="#232B9E"/>
<path d="M38.6263 113.535L41.1069 112.173L33.1598 96.8271L30.6333 98.0984L38.6263 113.535Z" fill="#7C89F7"/>
<path d="M33.6191 115.897C32.6544 118.576 35.0431 120.119 38.9937 119.302C42.8983 118.485 46.8489 115.67 47.7676 112.946C48.6864 110.267 46.2977 108.769 42.439 109.54C38.5343 110.358 34.6297 113.173 33.665 115.851L33.6191 115.897Z" fill="#434FD1"/>
<path d="M30.1279 117.804L49.5133 107.679L47.7677 112.9L35.4566 119.347L30.1279 117.804Z" fill="#434FD1"/>
<path d="M38.2132 117.122L40.8316 118.757C40.2344 118.984 39.6372 119.165 38.9941 119.301C38.2132 119.483 37.4782 119.528 36.8351 119.528L32.0576 117.667L38.1672 117.122H38.2132Z" fill="#232B9E"/>
<path d="M27.4638 112.491C25.9479 116.668 29.6688 119.075 35.7784 117.804C41.888 116.532 47.9517 112.128 49.4216 107.996C50.8457 103.865 47.1248 101.549 41.1071 102.775C35.0893 104.001 28.9797 108.36 27.4638 112.537V112.491Z" fill="#7C89F7"/>
<path d="M13.0394 87.656L34.5838 76.5322L38.9938 77.8943L11.4775 92.1055L13.0394 87.656Z" fill="#2327A1"/>
<path d="M13.8205 84.9321L31.1387 75.6699L34.584 76.5326L13.0396 87.6563L13.8205 84.9321Z" fill="#2327A1"/>
<path d="M27.8771 116.396L49.5594 105.273L42.2554 80.8457L11.937 96.2374L27.8771 116.396Z" fill="#7C89F7"/>
<path d="M35.7784 117.804C34.0327 118.167 32.4709 118.213 31.1387 118.031L16.5308 97.5543L25.2129 95.2842L38.1671 117.123C37.3861 117.395 36.5593 117.623 35.7324 117.804H35.7784Z" fill="#5D6CEF"/>
<path d="M14.5557 99.4156C15.7041 101.64 19.2413 102.548 24.3403 101.55C32.1495 99.9604 40.5101 94.3758 43.0366 89.1545C43.1285 88.9729 43.2204 88.7913 43.2663 88.6097L42.8529 87.293C42.761 87.4746 42.6691 87.7016 42.5772 87.8832C40.0048 93.2408 31.5064 98.8708 23.5593 100.46C19.3331 101.323 16.1635 100.868 14.5098 99.4156H14.5557Z" fill="#FE72DD"/>
<path d="M11.9831 90.7889C9.18095 96.3735 13.5909 99.5517 21.8595 97.9172C30.0823 96.2373 38.9021 90.3803 41.5665 84.8865C44.1849 79.3927 39.775 76.3053 31.6901 77.8944C23.5592 79.4835 14.7393 85.2497 11.9372 90.7889H11.9831Z" fill="#2327A1"/>
<path d="M11.6616 91.5608L13.0397 87.6562L13.8206 84.932L15.6122 83.9785L12.3507 96.646C11.1104 95.4655 10.8347 93.6948 11.6616 91.5608Z" fill="#4A57E6"/>
<path d="M13.3153 87.9287C11.0185 92.5599 14.6475 95.1932 21.4921 93.8311C28.2908 92.4691 35.6407 87.6109 37.8457 83.0706C40.0506 78.5303 36.3757 75.9423 29.6689 77.259C22.9161 78.5757 15.6122 83.343 13.3153 87.9287Z" fill="#FF4CD2"/>
<path d="M12.9019 88.9268C12.9938 88.609 13.1316 88.2912 13.3154 87.928C15.6122 83.3423 22.9621 78.575 29.6689 77.2583C32.3333 76.7134 34.4923 76.8042 36.0082 77.3945C37.5241 78.3933 37.8916 80.1187 36.8351 82.298C34.722 86.6567 27.7855 91.2424 21.3084 92.5591C15.8878 93.6488 12.5344 92.0597 12.9019 88.9268Z" fill="#D91EB1"/>
<path d="M13.4988 86.5204C11.3398 90.8337 14.785 93.3309 21.1703 92.0596C27.5555 90.7883 34.446 86.248 36.5132 81.9347C38.5804 77.6669 35.1351 75.2605 28.8417 76.4864C22.5024 77.7577 15.6119 82.2072 13.4529 86.5204H13.4988Z" fill="#2327A1"/>
<path d="M14.9689 84.3413L15.612 84.0234L13.7745 91.1517C12.672 90.1075 12.4883 88.5638 13.4989 86.566C13.8664 85.8396 14.3717 85.0677 15.0148 84.3413H14.9689Z" fill="#4A57E6"/>
<path d="M35.7785 87.8375L40.8775 84.5685L34.5382 82.0713L30.8633 84.4323L35.7785 87.8375Z" fill="#2327A1"/>
<path d="M15.2905 94.6022L21.0786 94.7385L20.4814 89.7441L15.704 89.9257L15.2905 94.6022Z" fill="#2327A1"/>
<path d="M14.3715 83.706C12.3503 87.2021 14.8768 89.2906 19.9758 88.3371C25.0748 87.3837 30.8169 83.7514 32.7922 80.2554C34.7215 76.7594 32.2409 74.7616 27.1879 75.6697C22.1348 76.6232 16.3927 80.21 14.3715 83.706Z" fill="#434FD1"/>
<path d="M15.1986 83.524C13.2233 86.7476 15.4283 88.6545 20.0679 87.7919C24.7075 86.9292 29.9903 83.6148 31.9196 80.3912C33.803 77.213 31.644 75.3514 27.0503 76.1687C22.4566 77.0314 17.1739 80.3004 15.1986 83.524Z" fill="#B57AF5"/>
<path d="M18.7817 84.8864C20.022 82.707 23.651 80.4369 26.8206 79.8466C29.6228 79.3018 31.1846 80.2553 30.6793 81.9806C28.2447 84.614 23.9266 87.0203 20.0679 87.7922C19.976 87.7922 19.8382 87.7922 19.7463 87.8376C18.3682 87.4744 17.9548 86.3847 18.7817 84.9318V84.8864Z" fill="#FF4CD2"/>
<path d="M15.107 87.1563C14.5557 86.3845 14.6476 85.2948 15.4745 83.9327C17.3579 80.7999 22.5487 77.5763 27.0506 76.759C30.7255 76.078 32.8386 77.213 32.3792 79.3924C33.252 76.8498 31.093 75.4423 27.0506 76.2142C22.4569 77.0768 17.1741 80.3458 15.1988 83.5695C14.2342 85.1586 14.2801 86.4299 15.107 87.2017V87.1563Z" fill="#FBE6FF"/>
<path d="M30.725 80.9813L28.1066 82.4796L27.3257 81.3445L29.1632 79.8008C30.0819 79.8008 30.725 80.3456 30.725 80.9813Z" fill="#5F2BAC"/>
<path d="M22.1349 85.3403L24.2021 85.8398V86.43C23.0537 86.9294 21.9053 87.3381 20.7568 87.6105L22.1349 85.2949V85.3403Z" fill="#5F2BAC"/>
<path d="M29.209 83.3877C28.2902 84.1595 27.1878 84.8859 26.0853 85.5216L25.7178 84.8405L26.8662 83.1152L29.209 83.4331V83.3877Z" fill="#5F2BAC"/>
<path d="M18.5978 84.8866C18.6897 84.7504 18.7816 84.5688 19.0572 84.4326L21.2622 84.0693L21.6296 85.386L18.4141 86.5665C18.1384 86.3395 18.2763 85.5222 18.6437 84.8412L18.5978 84.8866Z" fill="#5F2BAC"/>
<path d="M21.4458 82.2072C22.5943 81.1629 23.9724 80.5727 25.2586 80.2549L25.5342 82.4796L22.9618 83.7509L21.3999 82.2526L21.4458 82.2072Z" fill="#5F2BAC"/>
<path d="M20.9404 84.8412L27.9229 81.2998L28.3363 82.0717L21.3539 85.6131L20.9404 84.8412Z" fill="black"/>
<path d="M21.5379 84.4773C20.8029 85.7486 21.7217 86.4751 23.5591 86.1572C25.3966 85.794 27.4638 84.5227 28.1528 83.2514C28.8419 81.9802 27.9691 81.2537 26.1316 81.6169C24.2941 81.9802 22.227 83.2515 21.5379 84.5227V84.4773Z" fill="black"/>
<path d="M21.1243 83.7058C20.3893 84.9771 21.3081 85.7036 23.1456 85.3858C24.983 85.0679 27.0502 83.7513 27.7393 82.48C28.4283 81.2087 27.5555 80.4822 25.718 80.8455C23.8805 81.2087 21.8134 82.48 21.1243 83.7513V83.7058Z" fill="#4A57E6"/>
<path d="M18.5523 84.7504C19.8385 82.4803 23.5594 80.1647 26.8669 79.5291C29.8068 78.9842 31.4146 79.9831 30.8174 81.8446C30.8174 81.89 30.7256 81.9354 30.6796 81.9808C31.1849 80.2555 29.6231 79.302 26.8209 79.8469C23.6513 80.4371 20.0223 82.7073 18.782 84.8866C17.9551 86.3395 18.3685 87.4292 19.6548 87.7924C18.1388 87.4746 17.6335 86.3395 18.5523 84.7504Z" fill="#DEC2FC"/>
<path d="M14.3715 83.706C12.3503 87.2021 14.8768 89.2906 19.9758 88.3371C25.0748 87.3837 30.8169 83.7514 32.7922 80.2554C34.7215 76.7594 32.2409 74.7616 27.1879 75.6697C22.1348 76.6232 16.3927 80.21 14.3715 83.706ZM20.0677 87.7923C15.428 88.655 13.269 86.748 15.1983 83.5244C17.1277 80.3462 22.4564 77.0318 27.0501 76.1691C31.6438 75.3065 33.8028 77.168 31.9194 80.3916C29.99 83.6152 24.7073 86.8842 20.0677 87.7923Z" fill="#4A57E6"/>
<path d="M104.408 79.9372C101.974 82.9792 97.5177 75.3515 92.7402 80.7091" stroke="#5969F4" stroke-width="4" stroke-miterlimit="10"/>
<path d="M78.9589 101.458L109.553 87.3834L108.267 81.7988L76.1567 88.9271L78.9589 101.458Z" fill="#7C89F7"/>
<path d="M77.0755 93.0588L108.864 84.3868L108.267 81.7988L76.1567 88.9271L77.0755 93.0588Z" fill="black"/>
<path d="M76.5243 90.607L108.542 82.8885L108.267 81.7988L76.1567 88.9271L76.5243 90.607Z" fill="#161A8A"/>
<path d="M77.0757 93.0587L108.864 84.3867L109.002 84.977L77.2594 93.8306L77.0757 93.0587Z" fill="#D939B7"/>
<path d="M105.005 81.0727L108.956 88.3826L108.175 88.5642C107.945 88.6096 107.715 88.5189 107.623 88.2918L104.224 81.9808C104.04 81.6176 104.224 81.209 104.637 81.1182L105.005 81.0273V81.0727Z" fill="black"/>
<path d="M102.984 80.5275C103.49 81.8895 104.179 81.9349 104.914 81.6625C105.649 81.3901 106.108 80.8907 105.557 79.574C105.006 78.2573 104.363 78.1665 103.628 78.4389C102.939 78.7113 102.433 79.2108 102.984 80.5275Z" fill="black"/>
<path d="M124.896 103.502L133.073 100.868C136.058 102.412 137.161 105.045 137.437 107.724C137.574 109.313 137.437 110.63 136.839 110.948C136.839 111.447 136.839 112.401 136.564 113.263C136.334 114.171 135.507 113.763 135.094 113.672C134.68 113.581 134.267 114.08 134.129 114.898C133.808 117.531 133.67 117.849 133.256 117.94C132.705 118.031 131.97 117.213 130.408 115.488C129.719 114.761 129.26 114.307 129.26 115.488C129.26 117.168 129.168 117.758 128.754 117.804C127.928 117.849 126.412 116.26 125.171 114.353C122.645 110.312 123.655 106.407 124.896 103.456V103.502Z" fill="url(#paint1_linear_5145_55246)"/>
<path d="M125.171 103.32C124.345 104.773 125.585 105.908 127.928 105.908C130.27 105.908 132.843 104.682 133.67 103.23C134.497 101.777 133.256 100.642 130.914 100.642C128.571 100.642 125.998 101.867 125.171 103.32Z" fill="#1D0066"/>
<path d="M125.126 104.909L133.9 102.367L133.854 96.2373L121.727 99.9149L125.126 104.909Z" fill="#1D0066"/>
<path d="M129.444 101.414L130.592 101.277C130.225 102.73 129.49 104.456 128.295 105.908C128.158 105.908 128.02 105.908 127.928 105.908C127.606 105.908 127.331 105.908 127.055 105.863C128.433 104.365 129.214 102.322 129.444 101.414Z" fill="#232B9E"/>
<path d="M126.274 101.322L127.422 101.095C127.239 102.411 126.733 104.046 125.815 105.499C125.493 105.317 125.263 105.136 125.126 104.909L125.08 104.818C125.815 103.456 126.228 102.048 126.32 101.322H126.274Z" fill="#232B9E"/>
<path d="M130.225 105.545C131.419 103.82 131.97 101.504 132.016 100.505L133.165 100.188C133.073 101.595 132.613 103.32 131.741 104.909C131.281 105.136 130.776 105.363 130.225 105.545Z" fill="#232B9E"/>
<path d="M120.164 98.417C118.648 101.05 120.899 103.139 125.171 103.093C129.444 103.093 134.129 100.869 135.645 98.2808C137.161 95.6474 134.91 93.5588 130.638 93.6042C126.366 93.6042 121.68 95.829 120.164 98.417Z" fill="#7C89F7"/>
<path d="M116.076 99.6879L138.539 93.0137L135.645 98.1896L121.451 102.412L116.076 99.6879Z" fill="#7C89F7"/>
<path d="M136.518 95.5563L138.539 93.0137L135.691 98.1896C135.691 98.1896 135.691 98.235 135.691 98.2804C135.278 99.0069 134.589 99.7333 133.716 100.369L136.564 95.6017L136.518 95.5563Z" fill="#8F9AF7"/>
<path d="M119.2 100.642L122.645 102.821C123.38 103.003 124.207 103.093 125.126 103.093C125.769 103.093 126.366 103.048 127.009 102.957L125.952 100.46L119.2 100.642Z" fill="#5D6CEF"/>
<path d="M123.11 78.2783L120.209 79.1494L125.738 97.1345L128.638 96.2634L123.11 78.2783Z" stroke="#FF33BB" stroke-width="0.2" stroke-miterlimit="10"/>
<path d="M114.285 93.5583C111.942 97.6446 115.433 100.914 122.094 100.823C128.755 100.732 136.059 97.3721 138.402 93.2859C140.745 89.1996 137.253 85.9306 130.593 86.0214C123.932 86.1122 116.628 89.472 114.285 93.5583Z" fill="#A0A9FA"/>
<path d="M113.963 97.7357L139.045 90.4712L136.105 62.5938L100.733 73.0819L113.963 97.7357Z" fill="#A0A9FA"/>
<path d="M139.045 90.4707C139.137 91.3334 138.907 92.2869 138.356 93.2857C137.897 94.0576 137.299 94.8294 136.518 95.5105L132.017 69.5399L133.441 63.3651L136.151 62.5479L139.091 90.4707H139.045Z" fill="#B9BFFA"/>
<g style="mix-blend-mode:multiply" opacity="0.2">
<path d="M122.048 100.823C121.037 100.823 120.072 100.777 119.2 100.641L108.312 76.7592L117.27 76.1689L125.952 100.414C124.666 100.641 123.334 100.777 122.048 100.823Z" fill="#5969F4"/>
</g>
<path d="M104.684 61.2319L125.126 54.5576L128.663 56.2829L103.397 64.0015L104.684 61.2319Z" fill="#2327A1"/>
<path d="M103.398 64.0008L128.663 56.2822L133.211 58.6886L100.917 68.5411L103.398 64.0008Z" fill="#2327A1"/>
<path d="M112.953 81.2992C121.543 81.2084 131.557 76.9405 135.278 71.8099C135.416 71.6283 135.554 71.4467 135.646 71.2651L134.957 64.7725C133.257 63.4104 130.317 62.5931 126.504 62.6385C117.914 62.7293 107.9 66.9972 104.179 72.1277C100.412 77.3037 104.363 81.39 112.953 81.2992Z" fill="#FE72DD"/>
<path d="M102.938 77.1226C104.224 79.2565 107.623 80.6186 112.631 80.5732C121.267 80.4824 131.327 76.2145 135.094 70.9932C135.278 70.7661 135.415 70.5391 135.553 70.3121L134.956 64.7275C133.256 63.3654 130.316 62.5482 126.504 62.5936C117.913 62.6844 107.899 66.9523 104.178 72.0828C102.846 73.9444 102.479 75.6243 102.984 77.0318L102.938 77.1226Z" fill="#FF4CD2"/>
<path d="M103.444 70.6752C99.6308 75.942 103.627 80.1191 112.355 80.0283C121.083 79.9375 131.281 75.6242 135.094 70.3574C138.907 65.0907 134.91 60.9136 126.182 61.0044C117.454 61.0952 107.256 65.4085 103.444 70.6752Z" fill="#161A8A"/>
<path d="M101.744 67.179C97.7934 72.6274 101.928 76.9861 111.023 76.8953C120.119 76.8045 130.684 72.3096 134.635 66.8612C138.585 61.4128 134.451 57.0541 125.356 57.1449C116.26 57.2358 105.695 61.7307 101.744 67.179Z" fill="#2327A1"/>
<path d="M134.635 66.8616C135.737 65.3179 136.243 63.865 136.105 62.5938L136.518 66.5438C136.518 67.7243 136.059 68.9956 135.094 70.3577C134.451 71.2657 133.578 72.1284 132.614 72.9457L132.246 70.4031C132.154 69.8582 132.384 69.3134 132.797 68.9048C133.532 68.2237 134.13 67.5427 134.681 66.8162L134.635 66.8616Z" fill="#2D35AD"/>
<path d="M111.069 64.0005L116.352 64.3637L117.179 75.3966C117.179 75.9415 117.317 76.4863 117.5 76.9858L118.327 79.3467C116.306 79.7553 114.239 79.9824 112.263 80.0278C111.345 80.0278 110.472 80.0278 109.645 79.8916L108.818 78.03C108.451 77.2128 108.359 76.2593 108.543 75.3966L111.023 63.9551L111.069 64.0005Z" fill="#161A8A"/>
<path d="M103.673 64.3644C100.366 68.9047 103.811 72.4915 111.345 72.4461C118.878 72.4007 127.652 68.6322 130.96 64.0919C134.267 59.5516 130.822 55.9648 123.288 56.0102C115.755 56.101 106.981 59.824 103.673 64.3644Z" fill="#FF4CD2"/>
<path d="M103.673 64.3639C106.981 59.8236 115.709 56.1006 123.288 56.0098C126.688 56.0098 129.306 56.6908 130.776 57.9167C131.695 59.2788 131.557 61.0495 130.179 62.9564C127.009 67.3151 118.557 70.9474 111.299 70.9928C105.924 71.0382 102.709 69.1313 102.663 66.3617C102.846 65.726 103.214 64.9996 103.719 64.3185L103.673 64.3639Z" fill="#D91EB1"/>
<path d="M104.086 62.8663C101.008 67.1342 104.224 70.5394 111.298 70.4486C118.373 70.3578 126.641 66.8617 129.719 62.5939C132.797 58.326 129.581 54.9207 122.507 55.0115C115.433 55.1023 107.164 58.5984 104.086 62.8663Z" fill="#2327A1"/>
<path d="M111.299 70.4482C110.747 70.4482 110.196 70.4482 109.691 70.4028L111.069 64.001L116.352 64.3642L116.765 69.8126C114.928 70.2212 113.044 70.4482 111.253 70.4936L111.299 70.4482Z" fill="#161A8A"/>
<path d="M120.762 74.0352L126.917 71.4926L123.058 64.8184L118.648 66.6345L120.762 74.0352Z" fill="#2327A1"/>
<path d="M106.475 59.9601C103.811 63.0929 105.786 65.5901 110.885 65.5901C116.03 65.5901 122.324 63.0475 125.034 59.9601C127.698 56.8272 125.723 54.3301 120.624 54.3301C115.479 54.3301 109.186 56.8726 106.475 59.9601Z" fill="#B57AF5"/>
<path d="M125.86 56.1462L122.737 59.506H119.475C119.475 59.4606 120.256 54.3301 120.256 54.3301C120.348 54.3301 120.486 54.3301 120.578 54.3301C123.288 54.3301 125.125 55.0565 125.86 56.1916V56.1462Z" fill="#CA9EF9"/>
<path d="M110.059 62.1849C111.804 60.051 116.122 58.2803 119.659 58.2803C123.196 58.2803 124.299 59.6424 123.38 61.4131C120.257 63.8194 115.158 65.5448 110.885 65.5448C106.613 65.5448 110.656 65.5448 110.564 65.5448C109.14 64.8637 108.864 63.5924 110.059 62.1395V62.1849Z" fill="#FF4CD2"/>
<path d="M109.645 64.8637C109.461 64.2281 109.645 63.5016 110.334 62.6844C112.079 60.5504 116.397 58.7797 119.935 58.7797C123.472 58.7797 123.058 59.2337 123.61 60.0056C123.288 58.9613 121.91 58.2803 119.705 58.2803C116.168 58.2803 111.85 60.0056 110.104 62.1849C109.277 63.2292 109.139 64.1373 109.691 64.8637H109.645Z" fill="#FE72DD"/>
<path d="M105.74 63.9101C105.281 62.9567 105.556 61.7762 106.705 60.4595C109.323 57.4175 115.479 54.9657 120.486 54.9657C125.493 54.9657 126.687 56.6456 125.768 58.9612C127.238 56.3278 125.171 54.3301 120.578 54.3301C115.433 54.3301 109.139 56.8726 106.475 59.9601C105.143 61.5038 104.959 62.9113 105.74 63.9101Z" fill="#FBE6FF"/>
<path d="M123.61 60.3689L120.486 61.4586L119.843 60.0511L122.14 58.7344C123.242 59.0068 123.564 59.6878 123.61 60.3689Z" fill="#5F2BAC"/>
<path d="M117.868 58.416L117.776 60.9132L114.744 61.7758L113.366 59.7781C114.744 58.87 116.398 58.5068 117.868 58.416Z" fill="#5F2BAC"/>
<path d="M113.549 63.3652L115.663 64.3641L115.525 64.9997C114.422 65.59 112.814 65.7262 111.62 65.59L113.549 63.3652Z" fill="#5F2BAC"/>
<path d="M121.542 62.6844C120.486 63.5471 119.154 64.0011 117.776 64.3644L117.5 63.5471L119.062 61.8672L121.497 62.6844H121.542Z" fill="#5F2BAC"/>
<path d="M109.874 62.185C109.966 62.0488 110.15 61.8672 110.426 61.7764H112.86C112.86 61.8218 112.998 63.3655 112.998 63.3655L109.323 64.0011C109.185 63.4563 109.323 62.866 109.874 62.2304V62.185Z" fill="#161A8A"/>
<path d="M112.401 62.5484L120.578 60.0967L120.854 61.0501C120.946 61.4134 120.854 61.822 120.44 62.276C119.43 63.5019 116.949 64.5008 114.928 64.5008C112.907 64.5008 112.815 64.0922 112.677 63.5019L112.401 62.5484Z" fill="black"/>
<path d="M120.472 60.3663L112.296 62.8213L112.59 63.777L120.765 61.3221L120.472 60.3663Z" fill="black"/>
<path d="M120.211 60.1875L120.716 61.8674C120.67 62.0036 120.578 62.1398 120.44 62.276C120.348 62.4123 120.211 62.5031 120.119 62.6393L119.43 60.4145L120.211 60.1875Z" fill="#8C1381"/>
<path d="M118.235 63.8194C117.179 64.2734 115.984 64.5458 114.928 64.5458C113.871 64.5458 114.101 64.5004 113.779 64.4096L113.136 62.3211L117.362 61.0498L118.189 63.8194H118.235Z" fill="#3E1689"/>
<path d="M112.769 61.3673C111.758 62.5932 112.585 63.5921 114.652 63.5921C116.719 63.5921 119.154 62.5932 120.164 61.3673C121.175 60.1414 120.348 59.1426 118.281 59.1426C116.214 59.1426 113.779 60.1414 112.769 61.3673Z" fill="#4A57E6"/>
<path d="M114.239 63.5018C116.352 63.5018 118.878 62.4575 119.889 61.1862C120.44 60.5052 120.44 59.915 120.027 59.4609C120.67 59.8696 120.808 60.5506 120.165 61.3225C119.154 62.5483 116.673 63.5472 114.652 63.5472C112.631 63.5472 113.733 63.5018 113.412 63.3656C113.642 63.3656 113.917 63.411 114.239 63.411V63.5018Z" fill="#A0A9FA"/>
<path d="M110.701 66.1807C116.352 66.1807 123.196 63.4111 125.998 59.9604C128.8 56.5098 126.458 53.7402 120.807 53.7402C115.157 53.7402 108.313 56.5098 105.51 59.9604C102.708 63.4111 105.051 66.1807 110.701 66.1807ZM110.885 65.5904C105.74 65.5904 103.765 63.0479 106.429 59.9604C109.094 56.8276 115.433 54.3305 120.578 54.3305C125.723 54.3305 127.698 56.873 125.034 59.9604C122.369 63.0933 116.03 65.5904 110.885 65.5904Z" fill="#434FD1"/>
<path d="M110.701 66.1807C116.352 66.1807 123.196 63.4111 125.998 59.9604C128.8 56.5098 126.458 53.7402 120.807 53.7402C115.157 53.7402 108.313 56.5098 105.51 59.9604C102.708 63.4111 105.051 66.1807 110.701 66.1807ZM110.885 65.5904C105.74 65.5904 103.765 63.0479 106.429 59.9604C109.094 56.8276 115.433 54.3305 120.578 54.3305C125.723 54.3305 127.698 56.873 125.034 59.9604C122.369 63.0933 116.03 65.5904 110.885 65.5904Z" fill="#434FD1"/>
<path d="M125.677 60.1416C128.433 56.7364 126.136 53.9668 120.532 53.9668C114.927 53.9668 109.048 56.3731 105.97 59.4605C109.002 56.2823 115.433 53.7852 120.807 53.7852C126.458 53.7852 128.8 56.5547 125.998 60.0054C124.758 61.5491 122.645 62.9566 120.21 64.0462C122.507 63.002 124.482 61.6399 125.677 60.1416Z" fill="#A0A9FA"/>
<path d="M110.472 65.5442C108.91 64.8632 108.588 63.5465 109.829 62.0028C111.62 59.778 116.076 57.9619 119.751 57.9619C123.012 57.9619 124.574 59.4148 123.564 61.3217C123.518 61.3217 123.472 61.4126 123.38 61.458C124.253 59.6872 122.783 58.3251 119.659 58.3251C116.535 58.3251 111.804 60.0505 110.058 62.2298C108.91 63.6373 109.139 64.9086 110.472 65.5896V65.5442Z" fill="#DEC2FC"/>
<path d="M135.002 61.1864C134.588 60.7778 134.083 60.5054 133.532 60.233C133.073 60.006 132.705 59.6427 132.521 59.1887C132.2 58.4623 131.603 57.9628 131.005 57.5088L133.21 58.6893C136.426 60.4146 137.161 63.4112 134.634 66.8618C134.129 67.5429 133.532 68.2239 132.797 68.905C134.956 66.771 136.931 62.9572 135.002 61.1864Z" fill="#4A57E6"/>
<path d="M53.0967 102.367C53.7399 105.953 51.3052 107.951 47.4924 108.269C47.3087 109.132 46.6196 109.858 43.45 111.22L37.2944 102.185C38.6266 100.868 40.2803 99.9602 41.7044 99.4153C42.715 97.5538 46.9412 95.5107 49.6974 97.2814C51.7186 98.5981 52.7292 100.187 53.0967 102.412V102.367Z" fill="#A0A9FA"/>
<path d="M45.7465 107.452C44.3684 106.226 41.75 102.594 41.7041 99.3704C42.7147 97.5089 46.9409 95.4657 49.6971 97.2365C51.7184 98.5531 52.729 100.142 53.0965 102.367C53.7396 105.954 51.3049 107.952 47.4922 108.269C46.9869 108.269 46.4356 108.133 45.7465 107.498V107.452Z" fill="#A0A9FA"/>
<path d="M41.7043 99.3697C42.4393 98.0984 44.6443 96.6909 46.8952 96.5547H46.9871C43.8174 96.9633 42.2556 100.232 42.0259 101.322C40.3722 101.821 39.04 102.866 38.305 103.547L37.3403 102.139C38.6725 100.823 40.3262 99.9145 41.7503 99.3697H41.7043Z" fill="#DEC2FC"/>
<path d="M52.2236 99.8242C52.637 100.551 52.9126 101.413 53.0964 102.321C53.7395 105.908 51.3048 107.906 47.4921 108.224C47.3083 109.086 46.6192 109.813 43.4496 111.175L41.2446 107.906C41.2446 107.906 43.128 107.089 44.3683 105.954C47.7677 104.183 49.2836 103.093 52.2236 99.8242Z" fill="#7C89F7"/>
<path d="M42.3931 102.548C43.2659 104.727 44.7818 106.634 45.7465 107.497C46.4814 108.132 46.9868 108.314 47.4921 108.269C47.4921 108.405 47.4002 108.541 47.3543 108.677C44.9196 109.086 42.7606 104.455 42.3931 102.593V102.548Z" fill="#5D6CEF"/>
<path d="M50.7998 106.498C50.7998 106.453 50.9376 106.316 51.0295 106.226C51.0295 106.271 50.9376 106.362 50.7998 106.498Z" fill="#FE72DD"/>
<path d="M43.4039 111.129L43.2661 110.902C45.0117 110.357 46.8951 108.95 47.2167 108.223C48.3192 108.223 50.1107 107.361 50.7538 106.498L50.9835 107.225C50.0648 107.769 48.8245 108.133 47.4464 108.223C47.2626 109.086 46.5736 109.812 43.4039 111.175V111.129Z" fill="#FE72DD"/>
<path d="M39.7292 114.49C39.6374 114.49 39.5455 114.58 39.4536 114.58C38.1674 114.853 35.6868 112.719 33.8493 109.677C32.1037 106.726 31.5065 103.956 32.5171 103.32C33.5278 102.685 34.4924 102.095 35.4112 101.595C36.3299 101.096 36.7433 100.914 37.5702 101.323C39.4077 102.185 41.7964 105.318 42.7611 107.634C43.7257 109.995 44.0932 111.675 43.2204 112.31C41.8423 113.309 40.0508 114.308 39.6374 114.49H39.7292Z" fill="#434FD1"/>
<path d="M39.3154 112.719L37.6616 109.45L42.485 106.816C42.6228 107.089 42.7606 107.361 42.8525 107.634C43.2659 108.633 43.5875 109.541 43.7253 110.267L39.3154 112.719Z" fill="#2D35AD"/>
<path d="M32.6088 103.32C33.6194 102.685 34.5841 102.095 35.5028 101.595C36.4216 101.096 36.835 100.914 37.6619 101.323C37.9375 101.459 38.1672 101.595 38.4428 101.822L32.3332 105.273L32.1035 104.819C32.1035 104.138 32.2413 103.638 32.6088 103.366V103.32Z" fill="#4957E3"/>
<path d="M37.1106 101.095L32.1953 103.819C32.2872 103.592 32.425 103.411 32.5628 103.32C33.5734 102.684 34.5381 102.094 35.4568 101.595C36.1459 101.231 36.5593 101.004 37.0646 101.095H37.1106Z" fill="#CA9EF9"/>
<path d="M36.5132 113.036C37.6616 114.126 38.7641 114.716 39.4532 114.58C39.545 114.58 39.6369 114.534 39.7288 114.489C40.1422 114.262 41.9338 113.263 43.3119 112.309C43.5875 112.128 43.7253 111.81 43.7712 111.401C43.6794 111.583 43.5875 111.765 43.4037 111.855C41.9337 112.9 39.9585 113.989 39.545 114.216C39.4532 114.262 39.3613 114.307 39.2694 114.307C38.5803 114.443 37.5697 113.989 36.5132 113.036Z" fill="#FE72DD"/>
<path d="M38.7641 108.541C36.9266 105.318 34.2622 102.82 32.8841 103.184C31.506 103.547 32.0113 106.498 33.8947 109.676C35.7322 112.718 38.1669 114.852 39.499 114.58C40.7853 114.307 40.5097 111.674 38.7641 108.541Z" fill="#606DEB"/>
<path d="M38.856 108.995C37.1103 106.044 34.446 103.774 33.0679 104.137C31.6898 104.455 32.1492 107.224 33.9866 110.13C35.7782 112.9 38.1669 114.852 39.4991 114.58C40.7853 114.307 40.5556 111.855 38.856 109.04V108.995Z" fill="#161A8A"/>
<path d="M25.9021 113.263C25.9939 111.356 26.0858 110.993 26.9127 109.858C28.842 107.134 31.1389 105.318 32.7926 104.228C32.8845 104.183 32.9764 104.137 33.0682 104.092C34.2626 103.82 36.6054 106.044 38.2591 108.905C39.821 111.629 40.0047 113.763 38.9941 114.126C38.0754 114.489 36.9269 114.444 36.2379 114.398C36.4676 116.215 35.411 117.622 33.0223 119.03C30.4958 120.528 28.5205 119.393 27.2342 117.804C25.9939 116.215 25.8102 115.261 25.9021 113.218V113.263Z" fill="#434FD1"/>
<path d="M33.6193 106.725C33.16 105.999 32.9303 105.726 34.2165 104.364C35.4568 105.045 37.0646 106.771 38.259 108.905C39.8208 111.629 40.0046 113.763 38.994 114.126C38.259 114.398 37.3402 114.444 36.6512 114.444L34.584 109.858C34.9056 109.722 34.9974 108.995 33.6193 106.725Z" fill="#232B9E"/>
<path d="M33.4817 112.718V113.399C31.782 113.263 30.7714 112.355 30.3579 111.583C30.2661 111.401 30.4498 111.401 30.6336 111.538C31.2767 112.037 32.2873 112.536 33.4357 112.718H33.4817Z" fill="#1D0066"/>
<path d="M36.3755 112.673L36.8808 113.173C38.0292 111.947 38.167 110.585 37.9373 109.768C37.8914 109.586 37.7077 109.677 37.6617 109.904C37.5239 110.721 37.1105 111.765 36.3755 112.673Z" fill="#1D0066"/>
<path d="M27.2343 117.849C27.0965 117.668 26.9586 117.531 26.8668 117.35C26.683 117.032 26.7749 116.805 27.3261 116.079C27.8774 115.398 28.6583 114.807 30.1283 114.353C31.5983 113.899 32.3792 113.4 32.9304 112.537L36.2838 114.399C36.5135 116.215 35.457 117.622 33.0683 119.03C30.5417 120.528 28.5664 119.393 27.2802 117.804L27.2343 117.849Z" fill="#A0A9FA"/>
<path d="M32.8844 112.582L36.2378 114.444C36.3296 115.125 36.2378 115.76 35.9162 116.35C33.2059 115.715 32.425 114.898 32.2872 114.171C32.1953 113.763 32.2872 113.354 32.6087 113.036C32.7006 112.9 32.8384 112.764 32.9303 112.627L32.8844 112.582Z" fill="#7C89F7"/>
<path d="M37.6617 112.4C37.5698 112.128 37.4779 111.856 37.4779 111.583C37.432 110.63 37.1564 110.176 36.7889 109.903C36.2376 109.54 35.0433 109.358 33.6652 110.403C32.8843 110.993 32.379 111.901 32.5168 112.537C32.6546 113.172 33.1139 113.626 33.8949 114.262C34.6758 114.898 35.273 115.352 35.962 115.624C36.6511 115.896 37.2942 115.488 37.9373 114.761C38.4886 114.126 38.1211 113.399 37.7076 112.4H37.6617Z" fill="#A0A9FA"/>
<path d="M25.9019 113.263C25.9937 111.356 26.0856 110.993 26.9125 109.858C28.704 107.36 30.8171 105.635 32.4249 104.5C29.1174 106.816 27.6474 109.494 27.0962 110.493C26.545 111.537 26.1775 113.081 26.1775 114.443C26.1775 115.624 26.1775 116.214 26.5909 116.895C25.9478 115.805 25.8559 114.852 25.9478 113.217L25.9019 113.263Z" fill="#CA9EF9"/>
<path d="M26.8655 117.348C26.8655 117.303 26.82 117.258 26.7744 117.213C26.7744 117.258 26.82 117.303 26.8655 117.348Z" fill="#707EFF"/>
<path d="M74.1359 122.026C75.4221 123.842 76.7543 125.885 78.2243 128.155C84.1961 130.471 81.7155 136.827 80.1996 140.505C79.143 143.047 76.5706 146.998 72.2984 146.998C67.521 146.998 64.627 142.639 63.7542 137.735C62.9273 136.192 61.6411 133.831 60.5386 131.379L74.1359 121.98V122.026Z" fill="#2D35AD"/>
<path d="M73.9521 122.253C75.7896 124.841 76.8002 126.657 78.454 128.882C79.6483 130.516 80.3374 131.515 80.4752 132.559C80.2455 129.926 78.5459 128.655 78.2702 128.201C76.8003 125.931 75.4681 123.887 74.1818 122.071L74.09 122.162L73.9981 122.298L73.9521 122.253Z" fill="#FE72DD"/>
<path d="M76.7078 127.247H76.1565C75.9268 127.247 75.789 127.383 75.6971 127.61C74.7325 131.515 70.736 135.056 66.1882 135.147C61.9161 135.193 59.8489 132.105 60.538 128.518L60.3542 128.246C59.2517 132.241 61.4108 135.874 66.1423 135.783C71.6088 135.692 76.6159 131.924 76.6618 127.247" fill="#434FD1"/>
<path d="M62.0083 134.557C60.9518 133.558 60.4006 132.105 60.4465 130.425C60.4006 129.79 60.4465 129.154 60.5384 128.519L60.3546 128.246C59.6196 130.789 60.2627 133.15 62.0083 134.557Z" fill="#FE72DD"/>
<path d="M60.5386 126.43C59.0227 130.607 61.1358 134.466 65.6376 134.375C70.3232 134.285 74.5953 130.017 74.9628 125.613C75.2844 121.844 72.5282 119.438 68.9451 119.756C65.4998 120.028 61.8249 122.843 60.5386 126.475V126.43Z" fill="#434FD1"/>
<path d="M61.7785 133.104C60.4923 131.606 60.1707 129.336 61.0435 126.93C62.3297 123.343 66.0047 120.528 69.45 120.21C71.1496 120.074 72.6656 120.528 73.768 121.481C72.6656 120.21 70.9659 119.574 68.9906 119.711C65.5453 119.983 61.8704 122.798 60.5841 126.43C59.6195 129.109 60.1248 131.652 61.8244 133.104H61.7785Z" fill="#FE72DD"/>
<path d="M60.9058 126.657C59.3899 130.835 61.503 134.694 66.0048 134.603C70.6904 134.512 74.9625 130.244 75.33 125.84C75.6516 122.072 72.8954 119.665 69.3123 119.983C65.867 120.256 62.1921 123.071 60.9058 126.703V126.657Z" fill="#434FD1"/>
<path d="M69.4043 119.938L69.4961 120.437C72.8495 120.255 75.422 122.525 75.2842 126.021C75.2842 125.976 75.2842 125.885 75.2842 125.84C75.6058 122.117 72.8955 119.71 69.4043 119.983V119.938Z" fill="#FE72DD"/>
<path d="M80.1993 140.551C79.1428 143.093 76.5703 147.043 72.2982 147.043C67.5207 147.043 64.6267 142.685 63.7539 137.781C64.1673 139.688 65.6373 141.868 69.542 142.095C72.9413 142.322 74.5032 141.277 75.8353 140.006C77.1675 138.735 77.8565 138.644 78.6834 139.416C78.6834 139.416 80.3372 136.419 80.429 133.286C80.5209 130.154 78.4997 128.655 78.224 128.201C84.1958 130.517 81.7153 136.873 80.1993 140.551Z" fill="#7C89F7"/>
<path d="M79.0051 128.519C80.6128 129.518 81.3938 131.788 81.1641 134.285C80.8885 136.873 79.8319 138.826 79.2347 139.961C79.0051 139.688 78.6835 139.416 78.6835 139.416C78.6835 139.416 80.3372 136.419 80.4291 133.286C80.521 130.154 78.4997 128.655 78.2241 128.201C78.4997 128.292 78.7754 128.428 79.0051 128.564V128.519Z" fill="#5D6CEF"/>
<path d="M92.1889 114.988C92.1889 114.988 93.9344 115.669 94.991 116.078C102.111 115.806 105.327 122.344 105.556 128.337C105.786 133.876 102.295 137.508 97.6094 137.508C92.9238 137.508 92.5104 136.055 91.2701 135.011C90.1217 134.058 89.892 133.604 89.892 132.968C88.0086 131.787 84.5633 129.472 83.0015 127.974L92.2348 114.988H92.1889Z" fill="#2D35AD"/>
<path d="M92.6025 115.125C93.1997 115.352 94.2562 115.761 94.9912 116.033C97.38 116.305 99.2634 117.486 100.642 118.984C98.2528 116.532 94.7616 116.623 93.3834 115.897L92.6025 115.125Z" fill="#FE72DD"/>
<path d="M94.9911 116.079C102.111 115.806 105.327 122.344 105.557 128.337C105.786 133.877 102.295 137.509 97.6095 137.509C92.9239 137.509 92.5105 136.056 91.2702 135.012C90.1218 134.058 89.8921 133.604 89.8921 132.969C90.3055 133.65 91.0405 134.512 92.9699 134.512C94.8992 134.512 97.6095 133.604 99.4929 131.516C101.284 129.518 101.56 128.247 101.79 126.294C101.974 124.569 102.295 123.979 103.398 123.843C102.617 120.937 99.9063 116.623 95.037 116.033L94.9911 116.079Z" fill="#7C89F7"/>
<path d="M94.9912 116.079C95.4965 116.079 95.9559 116.079 96.4153 116.079C99.8605 116.623 102.846 119.62 103.949 123.843C103.673 123.843 103.352 123.843 103.352 123.843C102.571 120.937 99.8605 116.623 94.9912 116.033V116.079Z" fill="#5D6CEF"/>
<path d="M82.8177 127.111C83.0014 127.792 83.8742 128.791 84.1958 129.063C85.2983 129.926 87.4114 130.925 90.7188 129.2C94.0722 127.429 96.3231 123.706 95.9097 119.665C95.5422 116.169 95.68 115.488 97.9769 114.08C98.6659 113.672 99.5388 113.853 99.9522 114.534C100.366 115.215 100.182 116.078 99.4928 116.487C98.1606 117.304 97.7013 117.667 97.7472 118.53C97.8391 119.892 98.8956 122.48 97.196 125.976C94.7154 131.016 90.0757 132.378 87.0898 131.515C85.8955 131.152 85.2064 130.789 84.0121 129.79C82.8177 128.791 82.4961 127.837 82.4502 126.158L82.7258 127.111H82.8177Z" fill="#1D0066"/>
<path d="M84.4253 129.246C84.5631 129.336 84.7009 129.427 84.8387 129.518C85.3441 129.972 85.8953 130.335 86.5384 130.562L88.284 131.743C87.8706 131.743 87.4572 131.652 87.0897 131.516C85.8953 131.152 85.2063 130.789 84.0119 129.79C83.6903 129.518 83.4147 129.246 83.231 128.928C83.5525 128.928 83.92 129.019 84.3794 129.2L84.4253 129.246Z" fill="#FF4CD2"/>
<path d="M84.2416 129.063C85.3441 129.926 87.4572 130.925 90.7647 129.2C94.1181 127.429 96.369 123.706 95.9556 119.665C95.5881 116.169 95.7259 115.488 98.0227 114.08C98.6199 113.717 99.3549 113.808 99.8142 114.307C99.0793 113.717 98.1605 114.171 96.8743 115.624C95.7718 116.805 96.5527 118.893 96.5987 120.528C96.6905 125.931 93.1075 129.336 90.0756 130.425C86.8141 131.515 84.9766 130.425 83.8741 129.563C82.9095 128.655 82.6338 127.747 82.5879 126.203L82.8635 127.156C83.0473 127.837 83.9201 128.836 84.2416 129.109V129.063Z" fill="#434FD1"/>
<path d="M86.9979 130.88C85.5279 130.743 84.5632 130.108 83.8282 129.563C82.8635 128.655 82.5879 127.747 82.542 126.203L82.8176 127.157C83.3229 129.926 86.0332 130.88 86.9519 130.925L86.9979 130.88Z" fill="#FE72DD"/>
<path d="M96.6446 115.079C96.9661 114.761 97.4255 114.444 97.9767 114.08C98.6658 113.672 99.5386 113.853 99.9521 114.534C100.365 115.215 100.182 116.078 99.4927 116.487C98.9414 116.85 98.528 117.122 98.2524 117.349C97.9768 116.578 97.3336 115.624 97.104 115.306C96.9202 115.215 96.7364 115.125 96.5986 115.079H96.6446Z" fill="#A0A9FA"/>
<path d="M96.6446 115.079C96.9661 114.761 97.4255 114.444 97.9767 114.08C98.5739 113.717 99.3089 113.808 99.7683 114.307C99.1252 113.762 98.2983 114.126 97.104 115.306C96.9202 115.215 96.7364 115.125 96.5986 115.079H96.6446Z" fill="#CACEFC"/>
<path d="M81.8531 121.844C80.6588 125.976 82.7259 129.381 86.4009 129.426C90.0758 129.426 93.8886 126.157 94.9911 122.116C96.0936 118.121 94.0723 114.807 90.4893 114.716C86.9062 114.625 83.0015 117.803 81.8531 121.889V121.844Z" fill="#434FD1"/>
<path d="M94.9453 117.849C93.8888 115.443 90.8569 114.943 88.606 115.897C87.7792 116.214 87.8251 115.76 88.2385 115.034C89.0195 114.762 89.8004 114.625 90.5354 114.671C92.6944 114.716 94.3022 115.987 94.9453 117.849Z" fill="#FE72DD"/>
<path d="M81.8531 121.845H82.2206C81.0722 125.886 83.0015 129.2 86.4927 129.427H86.4009C82.7259 129.427 80.6588 125.976 81.8531 121.89V121.845Z" fill="#FE72DD"/>
<path d="M81.7154 121.526C80.6129 125.431 82.5423 128.7 86.0335 128.7C89.5247 128.7 93.1537 125.613 94.2103 121.753C95.2209 117.939 93.3375 114.807 89.9381 114.716C86.4929 114.625 82.8179 117.667 81.7154 121.526Z" fill="#A0A9FA"/>
<path d="M84.9307 127.519C85.1144 127.519 85.2522 127.519 85.436 127.519C88.6975 127.519 92.1428 124.614 93.1074 120.981C94.0721 117.395 92.2806 114.443 89.1109 114.353C88.8812 114.353 88.6515 114.353 88.4219 114.353C91.3618 114.67 92.9237 117.531 92.0049 120.981C91.0862 124.387 88.0084 127.202 84.9307 127.519Z" fill="#7C89F7"/>
<path d="M76.8462 121.526C79.0512 124.069 80.9346 125.386 82.0371 126.339L91.7298 115.579C90.5354 114.489 88.1926 111.946 86.1255 109.631L76.8003 121.526H76.8462Z" fill="#A0A9FA"/>
<path d="M84.1038 117.849L82.0366 114.944L86.1709 109.677C87.8247 111.538 89.7081 113.581 90.9943 114.853C93.7505 115.488 95.1746 118.349 94.2558 121.799C94.118 122.253 93.9802 122.753 93.7505 123.161C93.3371 122.662 92.7399 122.526 91.4537 122.571C88.1922 119.529 85.3441 118.894 84.1497 117.895L84.1038 117.849Z" fill="#7C89F7"/>
<path d="M91.2704 114.943C93.0619 115.988 93.8888 118.303 93.1538 121.027C93.016 121.572 92.7863 122.117 92.5566 122.616C92.281 122.616 91.9135 122.571 91.4542 122.616C93.8888 117.395 91.1326 115.08 90.811 114.762L91.2704 114.989V114.943Z" fill="#5D6CEF"/>
<path d="M86.1713 109.677C87.7791 111.493 89.5247 113.4 90.811 114.717C90.811 114.717 90.9028 114.807 90.9488 114.853C91.2703 115.171 91.9135 115.897 92.1891 117.077C91.9594 116.306 86.6766 112.31 85.1148 111.13C85.1148 111.13 85.1148 111.13 85.0688 111.084L86.1713 109.722V109.677Z" fill="#FE72DD"/>
<path d="M58.8848 121.209C58.8848 123.207 58.8848 126.748 60.5844 129.2L73.9521 122.435L71.9309 117.713L58.8848 121.209Z" fill="#A0A9FA"/>
<path d="M60.6763 125.75C59.482 129.7 61.7329 133.196 65.9131 133.105C70.1853 133.014 74.044 129.246 74.3656 125.159C74.6412 121.573 72.0228 119.121 68.5775 119.302C65.1782 119.484 61.7329 122.254 60.6763 125.75Z" fill="#A0A9FA"/>
<path d="M60.8598 129.155C61.1813 130.744 62.146 132.06 63.6619 132.741C61.7785 132.06 60.5841 130.426 60.4004 128.383L60.8598 129.155Z" fill="#FD99E9"/>
<path d="M66.1888 135.783C71.0122 135.692 75.2843 131.924 76.249 127.838C76.3409 127.429 76.6165 127.02 77.0299 127.429C77.4893 127.883 77.4893 128.564 77.4434 129.109C76.8003 133.468 72.3444 137.645 67.2454 137.736C65.1323 137.736 63.5245 137.1 62.5139 135.965C61.6411 134.921 60.952 133.558 60.5386 132.605C61.3654 134.557 63.2948 135.874 66.1888 135.829V135.783Z" fill="#1D0066"/>
<path d="M68.3936 131.515C71.5173 129.563 69.1285 128.337 69.542 123.343L72.1604 120.21C73.6763 121.209 74.595 122.98 74.4113 125.159C74.2275 127.338 73.0332 129.427 71.2876 130.925C71.5632 130.471 71.2417 129.881 70.7823 130.199C70.7823 130.199 70.7823 130.199 70.7363 130.244C70.0473 130.789 69.2663 131.243 68.4395 131.515H68.3936Z" fill="#7C89F7"/>
<path d="M61.595 130.062C61.1816 129.699 60.8141 129.336 60.4466 128.972C58.8848 126.566 58.8848 123.161 58.8848 121.208L59.6657 120.981C59.5279 125.022 59.7116 127.837 61.595 130.017V130.062Z" fill="#FD99E9"/>
<path d="M62.468 135.919C61.5952 134.875 60.9061 133.513 60.4927 132.56C60.8142 133.286 61.2277 133.876 61.8248 134.421L63.4786 136.782C63.0651 136.51 62.7436 136.237 62.422 135.919H62.468Z" fill="#FF4CD2"/>
<path d="M77.5807 87.3379C77.5807 87.3379 83.3228 98.1892 86.2168 108.223C88.5137 116.123 82.0825 121.753 73.2167 123.343C64.213 124.932 56.5415 122.843 53.28 115.125C50.0644 107.451 48.916 93.6035 48.916 93.6035L77.5807 87.3379Z" fill="#A0A9FA"/>
<path d="M68.9446 118.166C77.8564 115.896 84.9307 110.221 84.7929 105.499L86.171 108.223C86.4007 109.04 86.5384 109.858 86.5844 110.63C85.1144 115.397 78.2698 120.255 69.9093 122.162C67.934 122.616 66.0506 122.843 64.259 122.934C61.9163 123.025 59.5735 122.344 57.6901 120.981C56.266 119.937 55.0257 118.53 54.061 116.85C56.6335 119.211 62.3756 119.892 68.9446 118.212V118.166Z" fill="#7C89F7"/>
<path d="M52.5451 113.263C49.8348 105.408 48.8701 93.6035 48.8701 93.6035L77.5348 87.3379C77.5348 87.3379 80.8882 93.7397 83.7822 101.186C83.92 103.728 83.0013 106.407 81.026 108.632C78.3157 111.629 73.9517 111.356 71.0577 111.356C68.1636 111.356 62.1459 111.856 58.9303 113.036C56.22 114.035 54.7041 114.807 52.591 113.263H52.5451Z" fill="#7C89F7"/>
<path d="M72.4358 96.9183C72.4358 102.457 66.2802 106.952 58.7006 106.952C51.121 106.952 52.7288 106.18 50.432 104.909C49.3295 99.0068 48.8701 93.6038 48.8701 93.6038L67.9339 89.4268C70.6902 91.2429 72.4358 93.9216 72.4358 96.8728V96.9183Z" fill="#5262EB"/>
<path d="M70.1389 88.9727L78.6373 89.4721C79.0047 90.1985 79.4182 91.0612 79.8776 92.0147C68.6689 98.2803 57.9656 100.369 49.5592 99.5516C49.0539 96.1009 48.8701 93.6492 48.8701 93.6492L70.1389 88.9727Z" fill="black"/>
<path d="M81.8068 115.215C81.8068 115.215 80.1531 109.222 78.0859 104.954L82.9553 100.142C83.0931 100.096 83.2309 100.005 83.3687 99.96C84.4252 102.593 85.4359 105.454 86.2168 108.178C87.3193 111.992 87.0436 115.488 84.1496 117.803C83.7821 117.349 81.8528 115.17 81.8528 115.17L81.8068 115.215Z" fill="#7C89F7"/>
<path d="M86.1709 108.224C86.1709 108.315 86.2169 108.451 86.2628 108.542L85.2981 108.905L82.6338 101.595L83.7822 101.187C84.655 103.502 85.5278 105.908 86.1709 108.269V108.224Z" fill="#D939B7"/>
<path d="M86.3092 108.678C86.6307 109.949 86.8145 111.22 86.7686 112.355C86.5848 111.992 85.9876 110.721 85.1148 109.813C84.7014 109.359 85.4364 108.95 86.2632 108.678H86.3092Z" fill="#FE72DD"/>
<path d="M82.9099 100.142C83.0477 100.096 83.1855 100.005 83.2774 99.96C83.2774 99.96 83.2774 100.051 83.2774 100.096C83.4152 100.459 83.553 100.823 83.6908 101.231C83.8286 103.774 82.9099 106.453 80.9346 108.677C80.613 109.041 80.2915 109.358 79.924 109.585C79.3727 108.042 78.7296 106.407 77.9946 104.954L82.864 100.142H82.9099Z" fill="#5262EB"/>
<path d="M51.6724 113.218C51.6724 113.581 51.7183 113.944 51.8102 114.307C51.9021 114.671 52.3155 116.487 52.4992 116.941C53.9233 121.299 61.2273 123.161 69.9093 121.209C79.4642 119.029 87.0898 112.991 86.906 107.633C86.906 107.134 86.8141 106.68 86.6763 106.271C86.4926 105.681 85.6198 103.32 85.3901 102.82C83.7364 98.9158 76.708 97.4175 68.4393 99.506C59.0223 101.912 51.5346 108.042 51.7183 113.218H51.6724ZM52.5911 112.718C52.4533 107.996 59.5276 102.321 68.4393 100.051C77.3511 97.7807 84.6551 99.8238 84.7929 104.546C84.9307 109.268 77.8564 114.943 68.9447 117.213C60.0329 119.483 52.7289 117.44 52.5911 112.718Z" fill="black"/>
<path d="M84.9767 102.049C85.1145 102.276 85.2524 102.548 85.3902 102.821C85.6199 103.366 86.4927 105.681 86.6764 106.271C86.8142 106.725 86.9061 107.179 86.9061 107.633C86.9061 108.087 86.9061 108.587 86.7683 109.041L84.1958 102.321L84.9308 102.049H84.9767Z" fill="#D939B7"/>
<path d="M68.3938 99.5066C58.9767 101.913 51.489 108.042 51.6727 113.218C51.8565 118.394 59.6198 120.619 69.0369 118.213C78.454 115.806 85.9417 109.677 85.758 104.501C85.5742 99.325 77.8109 97.1003 68.3938 99.5066ZM52.5915 112.719C52.4537 107.997 59.528 102.322 68.4397 100.051C77.3515 97.7813 84.6555 99.8245 84.7933 104.546C84.9311 109.268 77.8568 114.944 68.9451 117.214C60.0333 119.484 52.7293 117.441 52.5915 112.719Z" fill="#1D0066"/>
<path d="M79.8321 117.668C79.3727 116.669 78.4999 114.898 78.0865 114.171C77.9946 114.035 77.9028 113.944 77.8109 113.854C77.6271 113.717 77.4893 113.581 77.3515 113.49C77.2137 113.4 77.0299 113.354 76.8921 113.445C76.3868 113.627 75.7896 113.944 75.3303 114.262C75.1925 114.398 75.1006 114.58 75.1006 114.762C75.1465 115.125 75.2843 115.443 75.2843 115.443C75.6978 116.442 77.1218 119.12 77.1218 119.12L79.7862 117.668H79.8321Z" fill="#7C89F7"/>
<path d="M53.6477 115.125L54.6583 115.988C54.7042 115.988 54.6583 116.124 54.6583 116.124L53.7855 116.76C53.6936 116.85 53.6477 116.987 53.6936 117.123C53.8774 117.577 54.3827 118.757 55.0718 119.983C55.0718 119.983 55.0258 120.029 54.888 120.119C54.7961 120.21 54.7042 120.165 54.6583 120.119C54.3368 119.847 53.9233 119.529 53.6477 119.257C53.464 119.075 53.2802 118.848 53.1424 118.576C52.6371 117.577 52.2237 116.669 52.0399 116.26C51.948 116.078 52.0399 115.897 52.1777 115.761L53.3721 115.034C53.418 115.034 53.5099 115.034 53.6018 115.034L53.6477 115.125Z" fill="#7C89F7"/>
<path d="M52.2237 115.851H52.3155C52.3155 115.806 53.0965 116.805 53.0965 116.805L54.6583 120.21C54.3368 119.937 53.9233 119.62 53.6477 119.347C53.464 119.166 53.2802 118.938 53.1424 118.666C52.6371 117.667 52.2237 116.759 52.0399 116.351C51.948 116.169 52.0399 115.987 52.1777 115.851H52.2237Z" fill="#FD99E9"/>
<path d="M59.9413 116.486L70.0015 120.3L68.9909 122.071L58.9307 118.212L59.9413 116.486Z" fill="#6977F4"/>
<path d="M60.0333 116.987C59.7577 116.578 59.9414 116.215 60.4467 116.215H66.6942C67.1995 116.215 67.8426 116.578 68.1182 116.987L69.9557 119.756C70.2313 120.165 70.0476 120.528 69.5423 120.528H63.2948C62.7895 120.528 62.1464 120.165 61.8708 119.756L60.0333 116.987Z" fill="#6977F4"/>
<path d="M58.9762 119.665C58.8843 119.483 58.7006 119.256 58.9302 118.257C58.9302 118.076 59.1599 117.939 59.4815 117.939H65.7289C66.2342 117.939 66.8773 118.303 67.153 118.711L68.9904 121.481C69.1282 121.708 69.1742 121.89 69.0823 122.026C68.8067 122.434 68.623 122.661 68.4851 122.798C68.3473 122.934 68.1636 122.979 68.0258 122.979H62.1458C61.6405 122.979 60.9974 122.616 60.7218 122.207L59.0221 119.665H58.9762Z" fill="#8F9AF7"/>
<path d="M58.9767 119.665C58.701 119.257 58.8848 118.894 59.3901 118.894H65.27C65.7753 118.894 66.4184 119.257 66.6941 119.665L68.3937 122.208C68.6694 122.617 68.4856 122.98 67.9803 122.98H62.1004C61.5951 122.98 60.9519 122.617 60.6763 122.208L58.9767 119.665Z" fill="#CACEFC"/>
<path d="M64.4427 122.98L61.7783 118.894H62.5593L65.2695 122.98H64.4427Z" fill="#8F9AF7"/>
<path d="M62.008 117.985L61.7783 118.893H62.5593L62.7889 117.985H62.008Z" fill="#6977F4"/>
<path d="M62.0083 117.986L63.0189 116.215H63.7999L62.7892 117.986H62.0083Z" fill="#434FD1"/>
<path d="M67.3369 118.621L69.1744 121.39C69.45 121.345 69.6797 121.299 69.9553 121.209C71.3794 120.891 72.8034 120.482 74.1356 119.983L73.7221 115.624C72.2062 116.26 70.6444 116.805 68.9906 117.213C68.715 117.304 68.4394 117.349 68.1638 117.395C67.98 117.395 67.8422 117.531 67.7503 117.713L67.3829 118.257C67.3369 118.348 67.3369 118.484 67.3829 118.621H67.3369Z" fill="black"/>
<path d="M67.6588 117.713C67.7507 117.576 67.9344 117.44 68.0722 117.395C68.3479 117.349 68.6235 117.259 68.8991 117.213C70.5528 116.805 72.1606 116.26 73.6306 115.624L73.7225 116.623C72.2066 117.259 70.5988 117.803 68.9451 118.212C68.3938 118.348 67.7966 118.484 67.2454 118.621C67.1995 118.484 67.1995 118.348 67.2454 118.257L67.6129 117.713H67.6588Z" fill="#1D0066"/>
<path d="M75.2843 114.216C75.7437 113.853 76.3409 113.581 76.8921 113.354C77.0299 113.308 77.2137 113.354 77.3515 113.445C77.4893 113.535 77.6731 113.672 77.8109 113.808C77.8109 113.808 77.8568 113.853 77.9028 113.899C77.9946 114.08 77.9027 114.262 76.7084 114.807C75.514 115.397 75.3303 115.397 75.2384 115.215C75.1925 115.079 75.1465 114.897 75.1006 114.716C75.1006 114.534 75.1465 114.307 75.3303 114.216H75.2843Z" fill="#A0A9FA"/>
<path d="M53.6478 115.125L54.6125 115.988C54.5206 115.988 54.291 116.124 53.4182 116.76C53.1885 116.941 52.9588 116.76 52.4535 116.442C52.086 116.215 52.0401 116.078 52.086 115.988C52.086 115.988 52.1319 115.942 52.1779 115.897L53.3722 115.17C53.4182 115.17 53.51 115.17 53.6019 115.17L53.6478 115.125Z" fill="#A0A9FA"/>
<path d="M47.125 94.9663C47.5844 98.4169 48.2275 102.185 49.0084 105.863C49.7434 109.541 50.3865 111.084 51.3053 112.174C52.2699 113.355 52.9131 113.627 55.3018 112.719C56.8636 112.129 58.9308 111.538 62.8814 110.812C66.832 110.131 69.3125 109.586 73.2631 109.404C75.3303 109.314 78.2243 109.132 80.1077 107.543C82.4965 105.545 84.288 103.139 84.3799 101.005C84.5636 97.6451 84.1961 93.922 81.9452 88.6553C78.8674 89.4271 72.5741 91.9243 72.5741 91.9243C67.8885 94.7847 67.4291 100.188 59.8036 101.504C53.6021 102.594 49.1003 97.8267 48.2734 95.8744L47.9978 94.6939L47.125 94.9209V94.9663Z" fill="#2D35AD"/>
<path d="M72.666 91.9692C73.2632 91.7422 79.0512 89.472 81.9912 88.7002C84.1962 93.9215 84.6096 97.6446 84.4259 101.05C84.334 103.184 82.5425 105.59 80.1537 107.588C79.0972 108.451 77.765 108.905 76.3869 109.132C76.9841 108.995 77.4434 108.269 76.3869 104.5C75.6519 101.958 73.9523 96.1009 72.7579 91.9692H72.666Z" fill="#161A8A"/>
<path d="M83.3689 94.2847L83.7823 94.1484C84.3795 96.7818 84.5173 98.9612 84.3795 101.05C84.3335 102.366 83.5985 103.774 82.542 105.136C84.3335 102.911 83.8282 97.9623 83.4148 94.2847H83.3689Z" fill="#FF4CD2"/>
<path d="M84.4257 99.7332C82.4045 100.823 79.0511 101.141 77.4433 97.0998C76.1112 93.8307 76.2949 91.2428 78.3621 89.8353C79.6942 89.3812 80.9805 88.9726 81.9452 88.7002C83.8745 93.2859 84.4257 96.6912 84.4257 99.7332Z" fill="black"/>
<path d="M72.5743 91.9692C72.5743 91.9692 78.8677 89.472 81.9455 88.7002C82.1752 89.2904 82.4048 89.8353 82.6345 90.3801C77.3518 93.6037 72.1609 95.9193 67.1997 97.463C68.8994 95.5561 70.1856 93.4221 72.5743 91.9692Z" fill="black"/>
<path d="M47.125 94.9653L47.9978 94.7383L48.2734 95.9188C48.6869 96.8268 49.9272 98.3705 51.7646 99.6418C50.3865 99.5964 49.0543 99.4602 47.7681 99.2786C47.5384 97.7803 47.3087 96.3274 47.125 94.9199V94.9653Z" fill="black"/>
<path d="M52.3617 113.127C51.9942 112.946 51.6727 112.628 51.3052 112.174C50.3865 111.039 49.7433 109.495 49.0083 105.863C49.0083 105.772 49.0083 105.636 48.9624 105.545C49.5596 108.087 50.9836 112.219 52.4077 113.127H52.3617Z" fill="#FE72DD"/>
<path d="M52.4537 101.231C48.6869 99.4607 47.4466 97.3722 47.125 94.9658L47.9978 94.7388L48.2734 95.9193C49.1462 97.8716 53.6021 102.594 59.8036 101.549C67.4291 100.233 67.8885 94.8296 72.5741 91.9692C72.5741 91.9692 72.8956 91.833 73.4469 91.6514C70.461 93.1951 68.256 98.2802 64.2135 100.596C60.7683 102.548 56.2205 103.002 52.4537 101.231Z" fill="#161A8A"/>
<path d="M72.5733 91.9692C72.5733 91.9692 72.8949 91.833 73.4462 91.6514C71.5627 92.6048 70.0009 94.9658 68.0715 97.1905C67.7959 97.2814 67.4744 97.3722 67.1987 97.463C68.8984 95.5561 70.1846 93.4221 72.5733 91.9692Z" fill="#000066"/>
<path d="M48.273 95.9651C48.6864 96.8732 49.8808 98.4169 51.7182 99.6882C51.0292 99.6882 50.3401 99.6428 49.697 99.552C47.9974 98.1899 47.3542 96.6462 47.0786 94.9663L47.9514 94.7393L48.227 95.9197L48.273 95.9651Z" fill="#000066"/>
<path d="M59.4819 102.185L59.6198 101.867L59.8494 102.094C60.4926 104.682 61.9625 108.087 63.1569 110.721C63.065 110.721 62.9732 110.721 62.8813 110.766C62.8813 110.766 62.8353 110.766 62.7894 110.766C61.595 108.133 60.171 104.728 59.5279 102.14L59.4819 102.185Z" fill="#161A8A"/>
<path d="M72.206 101.822C71.1035 102.412 69.5876 102.866 67.5663 103.275C67.2448 103.32 67.107 103.547 67.1988 103.819C67.5204 105.045 68.0716 106.634 68.531 107.769C68.5769 107.906 68.8066 108.042 68.9904 107.996C71.0575 107.679 72.5735 107.27 73.676 106.725C73.9516 106.589 74.0434 106.362 73.9516 106.09C73.5841 104.954 73.0788 103.365 72.5275 101.958C72.4816 101.867 72.2978 101.776 72.206 101.822Z" fill="#161A8A"/>
<path d="M71.7469 101.549C70.7363 102.094 69.3122 102.548 67.3829 102.911C67.0154 103.002 66.8316 103.365 66.7397 103.592C67.0613 104.773 67.8422 106.044 68.2557 107.134C68.3016 107.27 68.5313 107.406 68.715 107.361C70.6444 107.088 71.9765 106.952 73.0331 106.453C73.2168 106.317 73.5384 105.999 73.4006 105.545C73.079 104.455 72.5737 103.002 72.0684 101.685C72.0684 101.595 71.8387 101.504 71.7469 101.549Z" fill="#434FD1"/>
<path d="M71.4712 102.003C70.4606 102.548 69.0365 103.002 67.1072 103.365C66.8315 103.411 66.6937 103.592 66.7397 103.865C67.0612 105.045 67.5665 106.498 67.98 107.542C68.0259 107.679 68.2556 107.815 68.4393 107.769C70.3687 107.497 71.7927 107.088 72.8493 106.589C73.079 106.453 73.2168 106.271 73.1249 105.999C72.8033 104.909 72.298 103.456 71.7927 102.139C71.7927 102.049 71.563 101.958 71.4712 102.003Z" fill="#6977F4"/>
<path d="M68.8068 105.409C68.5771 104.592 69.0365 103.774 69.9093 103.547C70.7821 103.32 71.6549 103.82 71.8846 104.592C72.1143 105.363 71.6549 106.226 70.7821 106.453C69.9093 106.68 69.0365 106.181 68.8068 105.409Z" fill="#FE72DD"/>
<path d="M69.6797 105.272C69.5419 104.864 69.7716 104.455 70.185 104.319C70.5984 104.183 71.0119 104.41 71.1037 104.818C71.1956 105.227 71.0119 105.636 70.5985 105.772C70.185 105.908 69.7716 105.681 69.6797 105.272Z" fill="#6977F4"/>
<path d="M70.0012 105.136C69.9553 104.909 70.0472 104.682 70.2768 104.636C70.5065 104.591 70.7362 104.682 70.7822 104.909C70.8281 105.136 70.7362 105.363 70.5065 105.408C70.2768 105.454 70.0472 105.363 70.0012 105.136Z" fill="#FE72DD"/>
<path d="M68.21 105.226L69.6799 104.772L69.5421 105.59L68.5775 105.908L68.21 105.226Z" fill="#FE72DD"/>
<path d="M69.8636 103.547L69.7258 104.41L68.0721 104.909L67.7046 104.228L69.8636 103.547Z" fill="#FE72DD"/>
<path d="M94.1641 99.5515L96.5069 88.6094C101.56 89.8353 105.648 92.3324 107.348 95.7376C108.772 98.598 107.853 101.867 106.337 103.638C104.592 105.636 102.111 105.636 100.641 103.275C99.9062 102.094 99.4468 100.914 99.0334 100.006C96.5069 100.414 94.7153 100.096 94.21 99.5515H94.1641Z" fill="#232B9E"/>
<path d="M103.811 94.0128C101.652 92.8324 96.5986 92.0151 96.5986 92.0151L96.7365 88.6553C101.652 89.8812 105.648 92.3783 107.348 95.7381C108.68 98.4623 107.945 101.55 106.521 103.411C107.486 102.185 107.624 99.0072 107.256 97.5997C106.889 96.1468 105.924 95.2387 103.811 94.0583V94.0128Z" fill="#434FD1"/>
<path d="M102.571 99.4157V100.188C104.27 100.006 105.281 98.9617 105.649 98.1444C105.74 97.9628 105.557 97.9174 105.373 98.099C104.73 98.6438 103.765 99.2341 102.571 99.4611V99.4157Z" fill="#1D0066"/>
<path d="M107.486 98.3713C107.9 97.4632 107.762 96.7821 107.532 96.2373C108.635 98.9615 107.716 101.958 106.292 103.638C104.546 105.636 102.066 105.636 100.596 103.275C99.8606 102.094 99.4012 100.914 98.9878 100.006L101.56 99.5517C105.143 100.46 106.935 99.5517 107.486 98.3258V98.3713Z" fill="#7C89F7"/>
<path d="M107.624 96.4643C107.624 96.3735 107.578 96.3281 107.532 96.2373C107.532 96.3281 107.578 96.3735 107.624 96.4643Z" fill="#FCC0F4"/>
<path d="M107.44 98.507C107.44 98.4616 107.486 98.4162 107.532 98.3708C107.899 97.5989 107.807 96.9633 107.669 96.4639C108.588 99.0064 108.037 101.549 106.567 103.411C107.348 102.412 107.578 100.096 107.44 98.507Z" fill="#FCC0F4"/>
<path d="M102.295 99.8242C102.479 99.8242 102.662 99.8242 102.846 99.8242C103.397 99.915 103.903 99.9605 104.362 99.9605C104.454 100.823 104.454 102.231 103.857 103.683C103.535 104.41 103.03 104.773 102.479 104.909C101.836 104.637 101.193 104.138 100.687 103.32C100.595 103.184 100.549 103.093 100.458 102.957L102.295 99.8242Z" fill="#5D6CEF"/>
<path d="M97.6552 99.7333C98.1145 100.823 98.7117 101.549 99.5845 102.276C99.906 103.774 99.906 104.228 101.054 104.319C102.203 104.41 103.581 103.593 103.765 101.141C103.857 100.051 103.535 99.143 103.535 99.143C103.857 98.7798 103.994 98.2804 103.948 97.7355C103.903 97.1907 103.673 96.555 103.305 96.2372C102.203 95.3292 99.6764 95.2838 98.0686 97.1453C97.4714 97.8717 97.3336 98.8706 97.6552 99.7333Z" fill="#232B9E"/>
<path d="M98.9874 101.731C98.5281 101.277 98.1606 100.778 97.839 100.142C95.9097 100.278 94.5775 100.006 94.1641 99.5517L94.945 95.9648L96.369 96.0557C98.1146 96.2373 98.7118 96.3735 98.574 97.1453C98.4822 97.6448 98.0228 99.4155 99.309 100.596L98.9874 101.776V101.731Z" fill="#121570"/>
<path d="M101.009 104.364C99.8606 104.228 99.9065 103.774 99.539 102.321C99.2634 102.094 99.0337 101.867 98.804 101.64C98.7121 101.504 98.6203 101.322 99.0796 100.777C99.7687 99.9599 101.101 99.5513 102.02 99.5059C102.892 99.5059 103.581 99.6875 103.627 100.096C103.627 100.414 103.673 100.777 103.627 101.186C103.49 103.638 102.066 104.5 100.917 104.364H101.009Z" fill="#7C89F7"/>
<path d="M89.9379 87.8832C90.3973 86.7482 91.4538 86.7936 95.4044 87.1568C97.1041 87.293 97.7472 88.2465 97.7931 89.5632C97.885 93.15 96.7366 97.9173 94.7613 99.7789C94.1182 100.369 93.3832 100.414 92.1429 100.278C89.111 99.9605 89.0192 99.8697 88.8813 98.5076L89.892 87.8832H89.9379Z" fill="#FE72DD"/>
<path d="M89.7082 87.7924C90.1216 86.6573 91.1782 86.7028 95.1288 87.066C96.7825 87.2022 97.4716 88.1557 97.5175 89.5178C97.6553 93.1046 96.6447 97.9173 94.7153 99.7788C94.1182 100.369 93.3832 100.46 92.1429 100.324C89.111 100.006 89.0192 99.9151 88.8813 98.5076L89.7082 87.8378V87.7924Z" fill="#2D35AD"/>
<path d="M95.0369 99.4157L88.8813 98.5985C88.8813 98.5985 88.8813 98.5531 88.8813 98.5077L89.2029 94.376L96.8284 95.3748C96.415 97.0094 95.8178 98.4623 95.0369 99.3703V99.4157Z" fill="#232B9E"/>
<path d="M89.6621 88.2914V87.8374C90.1215 86.7023 91.1781 86.7477 95.0827 87.1109C96.5986 87.2471 97.2877 88.019 97.4255 89.154L89.6162 88.2914H89.6621Z" fill="#434FD1"/>
<path d="M90.0298 87.2922C90.581 86.7928 91.316 86.8382 92.1429 87.7463C93.3832 89.063 93.1076 93.1492 92.051 96.5091C91.316 98.87 90.0298 100.141 89.3867 99.7781C89.0192 99.5511 88.9732 99.1879 88.8813 98.5068L89.7082 87.8371C89.8001 87.6101 89.892 87.4738 90.0298 87.3376V87.2922Z" fill="#4957E3"/>
<path d="M85.2064 87.6561C77.3052 87.2021 75.3759 90.7435 77.5809 96.1919C79.6021 101.232 84.3336 99.9149 85.8955 98.7798C86.5386 98.9615 88.0545 99.1885 89.3407 99.0523C90.1676 98.9615 91.2241 98.3258 91.9591 93.2407C92.3266 90.5619 92.1888 87.7923 90.3054 87.5653C88.422 87.3383 86.7683 87.3837 85.2524 87.6561H85.2064Z" fill="#7C89F7"/>
<path d="M77.5809 96.1916C75.3759 90.7887 77.3052 87.2018 85.2064 87.6559C88.6517 90.7433 87.1358 97.9169 85.8955 98.7796C84.3336 99.8693 79.6021 101.186 77.5809 96.1916Z" fill="#7C89F7"/>
<path d="M85.2063 87.6559C86.7682 87.4289 88.4219 87.3381 90.2594 87.5651C90.3513 87.5651 90.3972 87.5651 90.4891 87.6105C91.0403 88.5186 91.0863 89.7898 91.0863 90.2893C91.0863 90.3801 90.9944 90.4709 90.8566 90.4709C90.2594 90.4255 88.33 90.2439 86.8141 90.3347C84.4713 89.0634 80.1992 89.018 80.1992 89.018L83.3689 87.6559C83.9201 87.6559 84.5173 87.6559 85.1604 87.6559H85.2063Z" fill="#CA9EF9"/>
<path d="M85.2065 87.6562C85.6659 87.5654 86.1253 87.52 86.5847 87.4746C88.6059 89.881 88.1925 94.3305 86.9981 96.3282C87.5953 93.7402 87.5493 89.7447 85.2065 87.6562Z" fill="#5D6CEF"/>
<path d="M85.2062 87.6562C85.39 87.8378 85.5738 88.0194 85.7116 88.2011C85.2522 88.6551 84.5631 89.1545 83.6903 89.7448C81.3935 91.1977 79.0966 92.5144 76.8457 93.604C76.0648 89.6994 78.6832 87.293 85.2062 87.6562Z" fill="#2D35AD"/>
<path d="M86.5388 97.8262C87.7331 98.2348 89.295 98.2348 90.6731 98.0532C90.2137 98.8704 89.7544 99.052 89.3409 99.0975C88.0547 99.2337 86.5388 98.9613 85.8957 98.825C84.885 99.5515 82.3585 100.414 80.4751 99.4607C82.4963 100.278 85.7119 98.9612 86.5388 97.8716V97.8262Z" fill="#5D6CEF"/>
<path d="M103.03 98.961C103.627 98.3254 104.087 97.4173 103.49 96.4639C103.765 96.8271 103.903 97.3265 103.949 97.7805C103.995 98.3708 103.857 98.8702 103.536 99.1881C103.536 99.1881 103.811 100.096 103.765 101.186C103.673 102.729 103.076 103.592 102.387 104.046C103.582 103.184 103.306 100.051 103.03 98.961Z" fill="#FE72DD"/>
<path d="M102.111 104.182C102.203 104.182 102.295 104.091 102.341 104.046C102.249 104.091 102.203 104.137 102.111 104.182Z" fill="#FE72DD"/>
<path d="M100.871 104.319C99.9065 104.183 99.9065 103.684 99.5849 102.276C99.3093 102.049 99.0796 101.822 98.8499 101.595C98.758 101.459 98.6662 101.277 99.1255 100.732C99.1715 100.642 99.2634 100.596 99.3093 100.551C99.9524 101.323 100.182 101.595 100.182 102.049C100.182 102.503 100.044 104.183 100.871 104.319Z" fill="#5D6CEF"/>
<path d="M44.0468 25.7266L45.0115 29.5858C22.3646 34.7618 10.1913 52.5598 11.156 66.4531L5.64354 67.6336C5.00042 45.9763 24.3399 30.8571 44.0009 25.7266H44.0468Z" fill="#A0A9FA"/>
<path d="M42.9906 23.6381C51.3052 21.4588 58.701 20.8685 64.3512 21.3226L62.1003 27.4974C47.768 27.906 38.9941 30.5848 30.7713 35.1705L26.9586 31.2658C26.637 30.948 26.683 30.3578 27.0964 30.1308C31.3226 27.5882 36.881 25.2726 43.0365 23.6381H42.9906Z" fill="#C3C8FC"/>
<path d="M65.4076 27.6328L66.7857 22.9563C66.8776 22.6839 66.7857 22.4115 66.556 22.2299C66.0048 21.7758 65.1779 21.4126 64.2132 21.3672C63.8917 21.3672 63.6161 21.5488 63.5701 21.8212L62.0542 27.542L65.4076 27.6328Z" fill="#7C89F7"/>
<path d="M8.5007 87.0181C11.0347 86.4995 12.2131 81.8989 11.1327 76.7425C10.0523 71.586 7.12222 67.8264 4.58822 68.345C2.05422 68.8637 0.875839 73.4643 1.95624 78.6207C3.03664 83.7772 5.9667 87.5368 8.5007 87.0181Z" fill="#ACB2E8"/>
<path d="M9.59438 76.5316C8.81345 72.3092 6.24098 69.358 3.85226 69.9482C1.4176 70.5384 0.0854318 74.3977 0.86636 78.6202C1.64729 82.8427 4.21976 85.7939 6.60848 85.2036C9.04314 84.6134 10.3753 80.7541 9.59438 76.5316Z" fill="#C3C8FC"/>
<path d="M13.0097 87.6642C15.966 87.0591 17.345 81.7116 16.0897 75.7204C14.8343 69.7291 11.4201 65.3627 8.46377 65.9678C5.50743 66.5729 4.12848 71.9204 5.38381 77.9117C6.63913 83.9029 10.0534 88.2693 13.0097 87.6642Z" fill="#ACB2E8"/>
<path d="M7.94048 66.1345C8.12423 66.0437 8.26204 65.9983 8.44579 65.9529C11.3858 65.3627 14.7851 69.7214 16.0254 75.7146C17.2657 81.7078 15.8876 87.02 12.9476 87.6556C12.7179 87.701 12.4882 87.701 12.2585 87.701C11.3857 87.701 7.84861 87.0654 7.52705 87.02C5.2302 86.6568 2.84147 83.1607 1.8768 78.6204C0.912121 74.1255 1.69306 70.0392 3.62241 68.7225C3.89803 68.5409 7.02174 66.4978 7.89454 66.1345H7.94048Z" fill="#A0A9FA"/>
<path d="M13.9121 87.0204L14.0959 87.202C13.7743 87.429 13.4528 87.5652 13.0853 87.656C12.8556 87.7014 12.6259 87.7014 12.3962 87.7014C11.5234 87.7014 7.98627 87.0658 7.66471 87.0204C7.02159 86.9296 6.37847 86.5663 5.73535 86.0215L13.9121 87.0204Z" fill="#FD99E9"/>
<path d="M1.96869 78.6211C1.64713 77.0774 1.50931 75.5791 1.60118 74.217L8.53766 72.6279C8.90516 74.3987 9.22672 76.4418 9.4564 78.6211C9.64015 80.3011 9.77797 81.8447 9.82391 83.343L3.4846 82.889C2.88742 81.6631 2.33618 80.2103 2.01463 78.6211H1.96869Z" fill="#8D99F7"/>
<path d="M3.71434 68.7231C3.98996 68.5415 7.11368 66.4983 7.98649 66.1351C8.17023 66.0443 8.30803 65.9989 8.49178 65.9535C8.99709 65.8627 9.5024 65.9081 10.0077 66.0443L8.99709 67.5426L2.56592 70.1306C2.88748 69.4949 3.30091 68.9955 3.76028 68.6777L3.71434 68.7231Z" fill="#C3C8FC"/>
<path d="M4.72522 68.0873C4.9549 67.9511 5.23051 67.7695 5.50613 67.5879C4.44959 68.2689 3.89834 69.8581 3.66866 72.0374C3.62272 72.4914 3.80648 72.8546 4.26585 73.0362L7.66518 74.58L7.48143 74.9886L4.0821 73.4449C3.43898 73.1271 3.11741 72.6276 3.20929 71.992C3.66866 69.631 3.94429 68.7684 4.72522 68.0873Z" fill="#7D83FF"/>
<path d="M5.57281 79.5168C6.04483 79.4202 6.32737 78.8641 6.2039 78.2748C6.08042 77.6855 5.59768 77.2861 5.12566 77.3827C4.65364 77.4793 4.37109 78.0354 4.49457 78.6247C4.61804 79.214 5.10079 79.6134 5.57281 79.5168Z" fill="#FF4CD2"/>
<path d="M17.8885 89.8939C22.2609 88.999 24.5 82.0431 22.8897 74.3576C21.2794 66.672 16.4295 61.1672 12.0571 62.0622C7.68467 62.9571 5.44555 69.913 7.05586 77.5985C8.66618 85.284 13.5161 90.7889 17.8885 89.8939Z" fill="#1D0066"/>
<path d="M12.396 62.0034C12.5797 62.0034 12.8094 61.958 12.9932 61.958C12.8094 61.958 12.5797 61.958 12.396 62.0034Z" fill="#B3269C"/>
<path d="M18.414 89.2452C19.1949 89.109 19.9299 88.7912 20.5731 88.3371C19.8381 89.109 18.9193 89.6084 17.9547 89.8354C14.785 90.4711 11.4316 87.8377 9.13477 83.4336C11.5694 87.4291 15.1066 89.8354 18.414 89.2452Z" fill="#B3269C"/>
<path d="M20.5271 88.3823C19.4706 89.4265 17.8628 89.6535 16.6225 88.8817C13.9122 87.2018 11.2938 82.6615 10.0995 76.9407C8.90509 71.2653 9.45634 66.0439 11.2938 63.4106C12.1207 62.2301 13.7285 61.7761 15.1066 62.3663C18.5059 63.7284 21.7215 68.3595 22.9618 74.3073C24.2021 80.2551 23.1456 85.7489 20.5731 88.3368L20.5271 88.3823Z" fill="black"/>
<path d="M92.832 87.2017C96.507 86.0212 98.2985 84.4775 98.8038 80.7091C99.3092 76.9406 100.136 67.8146 98.8038 56.0098C97.4257 43.8872 90.9486 35.3514 79.3266 30.7657C68.5314 26.5432 40.8773 22.5477 20.9407 42.2527C13.5908 49.5172 11.2021 55.7374 10.559 58.1438C9.91584 60.5501 9.91585 64.0007 12.8099 76.8952C15.612 89.2903 21.492 95.3743 23.2376 97.1904C24.9832 99.0065 27.6016 100.096 33.114 99.5968C46.8491 98.3709 72.6657 93.7852 92.7861 87.2017H92.832Z" fill="#434FD1"/>
<path d="M79.3724 30.7655C90.9944 35.3058 97.4256 43.887 98.8497 56.0096C100.228 67.8144 99.355 76.9858 98.8497 80.7089C98.3443 84.4773 96.5069 86.021 92.8778 87.2015C86.2629 89.3808 79.0049 91.3332 71.7928 93.0131C54.6583 58.1889 52.4074 36.3955 57.1848 27.3602C66.4641 27.0878 74.5949 28.9039 79.3724 30.8109V30.7655Z" fill="#323FBD"/>
<path d="M36.7429 99.234C35.5026 99.3702 34.3083 99.5064 33.2058 99.5972C27.6934 100.097 25.075 99.0069 23.3294 97.1908C21.5838 95.3747 15.7038 89.2907 12.9017 76.8956C10.0076 64.0012 10.0076 60.5505 10.6508 58.1442C11.2939 55.7378 13.6367 49.563 21.0325 42.2531C26.5909 36.7593 32.7005 33.1271 38.9479 30.8115C28.9337 34.6254 13.8204 54.6935 36.7889 99.234H36.7429Z" fill="#5969F4"/>
<path d="M20.9866 42.2532C26.1315 37.168 31.7818 33.672 37.5239 31.3564C23.559 37.1226 12.9476 51.1068 11.3858 57.2362C11.3858 57.2362 11.5236 80.1194 19.7463 92.8776C17.4035 89.5632 14.6013 84.3872 12.9017 76.8957C10.0076 64.0013 10.0076 60.5506 10.6508 58.1443C11.2939 55.7379 13.6367 49.5631 21.0325 42.2532H20.9866Z" fill="#D4D7FF"/>
<path d="M38.8561 30.8115C38.3967 30.9931 37.9833 31.1293 37.5239 31.3564C37.9833 31.1747 38.3967 30.9931 38.8561 30.8115Z" fill="#D4D7FF"/>
<path d="M12.7179 56.0097C10.5589 57.735 10.8345 61.1403 10.9723 63.0926C11.1101 65.0449 13.2232 78.802 16.255 84.8407C18.9653 90.2436 23.4212 94.2845 29.9443 94.3299C42.2094 94.3753 68.9907 89.6988 79.5562 83.524C89.157 77.894 90.9945 69.6306 90.8107 64.0461C90.3054 49.7441 86.9061 44.2503 82.1286 42.5704C74.9624 40.0732 67.6125 44.1595 61.0895 47.1107C50.7537 51.7418 40.2341 56.1913 28.5202 55.6919C20.8487 55.3741 15.566 53.8304 12.7179 56.0551V56.0097Z" fill="white"/>
<path d="M12.672 55.511C10.513 57.2363 10.7886 60.6869 10.9264 62.6393C11.0642 64.5916 13.1314 78.4395 16.2091 84.4327C18.9194 89.8357 23.3753 93.8766 29.8524 93.922C42.1176 93.9674 68.9448 89.2455 79.5562 83.0707C89.2489 77.3953 91.1782 69.0411 90.9945 63.4111C90.5811 48.9275 87.2277 43.3884 82.4043 41.7084C75.1922 39.1659 67.7504 43.3884 61.1814 46.3396C50.7537 51.0615 40.1882 55.5564 28.4284 55.0569C20.7569 54.7391 15.4742 53.1954 12.6261 55.4656L12.672 55.511Z" fill="#2D35AD"/>
<path d="M83.9664 64.5454L91.0407 64.3184C90.9948 68.6771 89.6626 74.3524 84.7014 79.2106L77.9946 77.576L83.9664 64.5454Z" fill="#161A8A"/>
<path d="M33.5735 83.8422L19.2412 89.0181C18.0468 87.656 16.9903 86.1123 16.1634 84.387C15.3825 82.8433 14.6934 80.8002 14.0503 78.5754L32.0576 73.7627L33.5276 83.7968L33.5735 83.8422Z" fill="#161A8A"/>
<path d="M12.672 55.5107C12.8098 55.4199 12.9476 55.3291 13.0854 55.2383L29.439 63.2292L32.1033 73.8536L14.0961 78.6663C12.2586 72.1736 11.0642 64.1373 10.9723 62.639C10.7886 60.6867 10.513 57.236 12.7179 55.5107H12.672Z" fill="#1D0066"/>
<path d="M77.8105 50.5167L82.0368 41.5723C82.1746 41.5723 82.3124 41.6631 82.4502 41.7085C87.2735 43.3884 90.6269 48.9276 91.0404 63.4112C91.0404 63.6836 91.0404 64.0014 91.0404 64.3192L83.9661 64.5462L77.8105 50.5167Z" fill="#1D0066"/>
<path d="M28.4743 55.1021C40.1882 55.6016 50.7997 51.1067 61.2274 46.3848C67.7045 43.4336 74.9625 39.3927 82.0368 41.6174L77.8106 50.5618L29.3931 64.2736L15.9335 56.6913L13.0854 55.2384C16.0254 53.4222 21.1704 54.8297 28.4743 55.1476V55.1021Z" fill="black"/>
<path d="M14.0501 65.1358C13.407 60.6409 13.6367 57.9621 15.8876 56.6C18.1385 55.2379 20.5272 55.6466 27.1421 56.0552C38.121 56.7363 48.4109 53.4672 58.7927 49.0177C69.1744 44.5682 73.9518 42.3435 80.2911 43.751C86.6304 45.1585 88.0545 53.9667 88.6517 63.5921C89.2489 73.263 82.2665 80.4821 73.0791 84.4321C61.2733 89.4719 45.2413 91.6512 35.5945 92.1507C27.6015 92.5593 20.2057 89.6535 17.6332 80.5729C16.1632 75.3061 14.831 70.1302 14.096 65.0904L14.0501 65.1358Z" fill="url(#paint2_linear_5145_55246)"/>
<g style="mix-blend-mode:multiply" opacity="0.5">
<path d="M14.0502 65.1358C14.7852 70.1756 16.1173 75.3515 17.5873 80.6183C18.1845 82.7522 19.0573 84.5229 20.1138 86.0212C19.5167 84.8862 19.0113 83.6603 18.5979 82.2528C17.1279 76.986 15.7958 71.8101 15.0608 66.7703C14.4177 62.2754 14.6473 59.5966 16.8983 58.2345C19.1032 56.9179 21.5379 57.2811 28.1069 57.6897C39.0858 58.3708 49.3757 55.1017 59.7574 50.6522C70.1392 46.2027 74.9166 43.978 81.2559 45.3855C83.0934 45.7941 84.4715 46.793 85.574 48.2913C84.3337 45.9303 82.634 44.2958 80.1994 43.751C73.8601 42.3435 69.0826 44.5682 58.7009 49.0177C48.3191 53.4672 38.0293 56.7363 27.0503 56.0552C20.4813 55.6466 18.0467 55.2833 15.7958 56.6C13.5449 57.9167 13.3152 60.6409 13.9583 65.1358H14.0502Z" fill="#3D49CC"/>
</g>
<g style="mix-blend-mode:multiply" opacity="0.5">
<path d="M30.9552 72.1732C33.4818 83.2516 37.662 83.978 50.2028 81.5716C63.938 78.9383 66.4186 75.4422 64.8567 65.9984C63.1111 55.4649 59.1605 54.4206 46.0685 57.0994C32.4712 59.869 28.6125 61.9575 30.9093 72.1278L30.9552 72.1732Z" fill="#3D49CC"/>
</g>
<path d="M71.839 69.8583C73.9062 73.8537 74.779 78.3487 70.9203 80.9366C68.7612 82.3895 65.8672 82.4803 63.5244 81.7993C61.5032 81.2091 62.4219 80.4826 63.3866 79.4837C66.74 76.0785 68.164 72.7187 69.2665 70.1307C69.9096 68.5416 70.8284 67.9968 71.839 69.9037V69.8583Z" fill="black"/>
<path d="M67.2451 82.1624C67.2451 81.6176 67.3829 81.0727 67.5207 80.4825C68.3935 77.7129 70.8282 75.3519 73.4925 74.5801C73.86 77.0318 73.2629 79.3474 70.9201 80.9365C69.8176 81.663 68.5314 82.0716 67.2451 82.1624Z" fill="#F78BCC"/>
<path d="M29.3471 71.4473C32.5627 81.9354 36.7889 82.6165 49.2838 80.3917C62.973 77.9399 65.4995 74.6709 64.0295 65.6357C62.3299 55.1022 58.1496 53.9671 44.4604 56.6005C30.2199 59.3247 26.2694 61.4132 29.3471 71.4473Z" fill="#B9BFFA"/>
<path d="M29.3471 71.4473C30.6334 75.579 32.0574 78.2124 34.1246 79.7107C32.2412 78.167 30.9549 75.579 29.8524 71.629C27.0503 61.6403 31.0009 59.5518 45.1035 56.7368C50.1566 55.7379 53.8775 55.2385 56.6796 55.5563C53.8315 55.0568 49.881 55.5563 44.4604 56.5551C30.2199 59.2793 26.2694 61.3679 29.3471 71.402V71.4473Z" fill="white"/>
<path d="M33.8951 79.5744C36.9728 81.5721 41.3828 81.2997 48.5489 80.0284C62.0085 77.6675 64.4891 74.4892 62.9731 65.6356C61.9166 59.37 60.5385 56.4188 56.5879 55.6016C61.0438 56.328 62.9731 59.2338 64.0297 65.6356C65.4997 74.7162 63.0191 77.9399 49.2839 80.3916C41.5665 81.7537 36.9728 82.0262 33.8491 79.5744H33.8951Z" fill="#939DF5"/>
<path d="M52.8997 74.9184C55.1042 74.5694 56.7417 73.3631 56.5571 72.2242C56.3725 71.0852 54.4358 70.4449 52.2313 70.7939C50.0268 71.1429 48.3894 72.3491 48.5739 73.488C48.7585 74.627 50.6952 75.2674 52.8997 74.9184Z" fill="#3A45C7"/>
<path d="M38.9305 77.365C40.9351 77.0512 42.4122 75.8733 42.2296 74.734C42.0471 73.5947 40.274 72.9256 38.2694 73.2394C36.2647 73.5532 34.7876 74.7312 34.9702 75.8704C35.1528 77.0097 36.9258 77.6789 38.9305 77.365Z" fill="#3A45C7"/>
<path d="M52.3616 70.6303C54.5666 70.2671 56.4959 70.9027 56.6797 72.0832C56.6797 72.0832 56.6797 72.0832 56.6797 72.1286C55.8528 71.7654 54.7044 71.6746 53.4641 71.8562C51.305 72.2194 49.6972 73.3999 49.835 74.4896C49.1919 74.2171 48.7785 73.8085 48.7326 73.3091C48.5488 72.174 50.1566 70.9481 52.3616 70.5849V70.6303Z" fill="#161A8A"/>
<path d="M38.259 73.2178C40.2343 72.9 42.0258 73.5811 42.2095 74.7161C41.4746 74.3983 40.4639 74.2621 39.4074 74.4437C37.4321 74.7616 35.9621 75.942 36.0999 77.0771C35.5027 76.8047 35.0434 76.3961 34.9974 75.8512C34.8137 74.7161 36.2837 73.5357 38.3049 73.2178H38.259Z" fill="#161A8A"/>
<path d="M74.9209 61.2651C77.0128 60.8631 78.332 58.6217 77.8673 56.2587C77.4025 53.8957 75.3299 52.3059 73.238 52.7078C71.146 53.1097 69.8269 55.3512 70.2917 57.7142C70.7564 60.0772 72.829 61.667 74.9209 61.2651Z" fill="black"/>
<path d="M20.6518 72.4628C22.1959 72.1662 23.0944 70.1298 22.6587 67.9145C22.223 65.6992 20.6181 64.1438 19.0741 64.4404C17.53 64.7371 16.6315 66.7734 17.0672 68.9888C17.5029 71.2041 19.1078 72.7595 20.6518 72.4628Z" fill="black"/>
<path d="M18.8181 66.6929C18.9441 66.0275 18.7633 65.4356 18.4141 65.3711C18.065 65.3065 17.6798 65.7936 17.5538 66.4591C17.4278 67.1246 17.6087 67.7164 17.9578 67.781C18.307 67.8456 18.6921 67.3584 18.8181 66.6929Z" fill="#B9BFFA"/>
<path d="M72.7197 55.8914C72.9366 55.1182 72.7756 54.399 72.36 54.2851C71.9444 54.1711 71.4316 54.7056 71.2146 55.4788C70.9977 56.2521 71.1587 56.9713 71.5743 57.0852C71.9899 57.1991 72.5027 56.6646 72.7197 55.8914Z" fill="#B9BFFA"/>
<path d="M97.747 78.6211C98.4361 72.7642 100.365 46.0671 87.3193 35.0342C93.9802 39.9377 97.7929 46.9752 98.8495 55.965C100.228 67.7698 99.3548 76.9412 98.8495 80.6643C98.3442 84.4327 96.5067 85.9764 92.8777 87.1569C92.0968 87.4293 91.3158 87.6564 90.5349 87.9288C94.5774 86.5213 97.1039 84.2965 97.747 78.6211Z" fill="#FE72DD"/>
<path d="M95.8177 45.2041C97.3796 48.3823 98.3902 52.0146 98.8496 55.9646C99.7224 63.6832 99.6764 70.2212 99.4008 74.8977C97.104 74.1713 94.6693 71.4471 93.0156 61.0952C91.3618 50.7433 92.9696 45.7943 95.8177 45.2041Z" fill="black"/>
<path d="M93.5672 59.824C95.9099 72.8547 99.2174 74.3984 102.249 73.6719C105.189 72.9455 106.705 67.8603 104.914 57.8263C103.122 47.7922 99.8605 43.5243 96.8746 43.8875C93.7968 44.2507 91.2244 46.7933 93.6131 59.824H93.5672Z" fill="#1D0066"/>
<path d="M97.4257 59.1432C98.8956 67.3158 101.79 73.2636 103.765 72.5371C105.648 71.8107 106.016 65.2726 104.684 57.8719C103.352 50.4712 100.687 44.4326 98.6659 44.4326C96.5528 44.4326 95.9097 51.0161 97.4257 59.1432Z" fill="#161A8A"/>
<path d="M102.019 73.2626C105.005 72.5362 106.613 67.4511 105.051 57.417L105.281 57.8256C106.843 67.8143 105.235 72.9448 102.249 73.6713C100.503 74.0799 98.6659 73.7621 97.0581 70.9017C98.62 73.3989 100.366 73.6713 102.019 73.2626Z" fill="#B3269C"/>
<path d="M100.09 45.5218C100.412 45.4764 107.486 46.6569 107.486 46.6569C108.267 46.8839 109.691 51.1972 110.656 56.5547C111.666 61.9577 111.896 66.498 111.207 66.952C110.242 67.5877 105.097 70.5389 104.73 70.6297C103.581 70.8567 101.606 65.4083 100.32 58.4617C99.0335 51.515 98.8956 45.7488 100.09 45.5218Z" fill="#A0A9FA"/>
<path d="M104.624 70.8023C105.772 70.5941 105.66 64.8071 104.373 57.8767C103.086 50.9462 101.112 45.4968 99.9641 45.705C98.8163 45.9132 98.929 51.7003 100.216 58.6307C101.503 65.5611 103.477 71.0106 104.624 70.8023Z" fill="#A0A9FA"/>
<path d="M100.32 58.416C99.9062 56.282 99.6305 54.1935 99.4468 52.4228L108.083 51.8779L108.542 60.3229L101.33 63.0017C100.963 61.5942 100.641 60.0051 100.32 58.3706V58.416Z" fill="#8D99F7"/>
<path d="M111.161 66.498L111.436 66.6343C111.39 66.7705 111.344 66.8613 111.253 66.9067C110.288 67.5423 105.143 70.4935 104.775 70.5843C104.592 70.5843 104.362 70.4935 104.132 70.2665L111.161 66.498Z" fill="#FD99E9"/>
<path d="M111.13 64.6809C111.729 64.5723 111.568 61.0053 110.771 56.7138C109.974 52.4224 108.843 49.0316 108.244 49.1402C107.645 49.2488 107.806 52.8158 108.603 57.1073C109.399 61.3987 110.531 64.7895 111.13 64.6809Z" fill="#C2C6F2"/>
<path d="M111.044 67.1443C111.817 67.004 111.602 62.3516 110.562 56.753C109.523 51.1544 108.053 46.7296 107.279 46.8699C106.506 47.0103 106.721 51.6626 107.761 57.2612C108.8 62.8598 110.27 67.2846 111.044 67.1443Z" fill="#C3C8FC"/>
<path d="M111.209 65.0754C111.833 64.9644 111.647 61.0732 110.793 56.3841C109.94 51.6951 108.742 47.9839 108.118 48.0949C107.493 48.2059 107.679 52.0971 108.533 56.7861C109.387 61.4752 110.585 65.1864 111.209 65.0754Z" fill="#FE72DD"/>
<path d="M108.405 48.927C108.68 48.8816 111.666 49.154 111.712 49.154C112.218 49.1994 113.136 52.196 113.825 55.9191C114.514 59.6421 114.698 62.7295 114.285 63.0019C114.285 63.0019 111.574 64.3186 111.299 64.4094C110.702 64.5002 109.599 61.1404 108.772 56.8725C107.991 52.6046 107.808 49.0178 108.405 48.927Z" fill="#A0A9FA"/>
<path d="M112.034 50.7881L113.641 57.4623L109.231 59.006C109.094 58.325 108.91 57.5985 108.772 56.8721C108.313 54.4657 108.083 52.241 108.037 50.7881H112.034Z" fill="#8D99F7"/>
<path d="M114.331 62.6387H114.468C114.468 62.8657 114.376 63.0019 114.285 63.0473C114.285 63.0473 111.574 64.364 111.299 64.4548C111.161 64.4548 111.023 64.364 110.885 64.137L114.331 62.6841V62.6387Z" fill="#FD99E9"/>
<path d="M114.138 63.3291C114.612 63.2431 114.417 60.0543 113.702 56.2068C112.988 52.3593 112.024 49.31 111.55 49.396C111.076 49.482 111.271 52.6708 111.986 56.5183C112.7 60.3658 113.664 63.4151 114.138 63.3291Z" fill="#C3C8FC"/>
<path d="M111.437 49.5176C111.85 49.4267 112.723 51.9239 113.504 55.4654C114.331 59.37 114.698 62.9569 114.239 63.0931C114.698 63.0023 114.514 59.8241 113.825 56.0102C113.09 52.1963 112.126 49.1543 111.666 49.2451C111.574 49.2451 111.528 49.3813 111.482 49.563L111.437 49.5176Z" fill="#FD99E9"/>
<path d="M103.502 59.632C104.128 59.5361 104.548 58.8958 104.44 58.202C104.331 57.5081 103.735 57.0234 103.108 57.1193C102.481 57.2152 102.061 57.8555 102.17 58.5493C102.279 59.2431 102.875 59.7279 103.502 59.632Z" fill="#FF4CD2"/>
<path d="M103.995 52.4683L99.8604 55.6919C99.8604 55.5103 99.8145 55.3287 99.7686 55.1924L103.673 52.1504C103.765 52.0596 103.857 51.9234 103.857 51.7872C103.765 50.0619 103.719 47.2015 104.454 46.248C104.684 46.248 104.959 46.3388 105.189 46.3843C105.097 46.3843 105.051 46.3843 105.005 46.3843C104.546 46.4751 104.087 48.3366 104.316 51.7872C104.316 52.105 104.224 52.3775 103.995 52.5591V52.4683Z" fill="#7D83FF"/>
<path d="M74.0896 29.086C70.8281 28.2688 66.9694 27.6331 62.6973 27.4061L63.6619 23.8193C63.7538 23.5468 63.9835 23.3652 64.3051 23.3652C82.3583 24.0463 97.5175 32.1734 103.811 46.0668C103.857 46.203 103.811 46.3392 103.719 46.4754L103.351 46.8386C103.168 47.0202 102.938 47.111 102.662 47.111L99.4468 46.884C94.9909 38.8931 86.6764 31.901 74.1356 29.1314L74.0896 29.086Z" fill="#A0A9FA"/>
<path d="M66.9238 23.501C83.7827 24.8631 97.7935 32.854 103.765 46.0663C103.811 46.2025 103.765 46.3387 103.673 46.4749L103.306 46.8382C103.168 46.9744 103.03 47.0652 102.847 47.0652C102.709 47.0652 102.571 47.0652 102.525 46.8836C99.4931 40.6179 92.1891 25.6803 66.9238 23.501Z" fill="#7C89F7"/>
<path d="M48.4572 9.42607C53.7399 9.33527 57.9662 12.014 57.9662 15.1015C57.9662 18.1889 55.164 19.1877 47.125 19.2785C43.7257 19.2785 39.6832 19.3693 36.1002 19.4147L36.0083 16.6906C38.6267 12.9221 43.3582 9.56228 48.4572 9.47148V9.42607Z" fill="#72F3A5"/>
<path d="M44.4604 1.52633C44.6442 0.073427 45.9763 -0.244395 46.7573 0.164233C48.2272 0.890683 48.411 1.84415 48.3651 3.11543C48.3191 4.34132 47.3544 12.2869 44.4145 16.2823L36.9268 17.1904C43.2201 13.7852 43.6335 8.29139 44.4604 1.57173V1.52633Z" fill="#008046"/>
<path d="M47.6301 0.708984C48.3192 1.34463 48.4111 2.11649 48.4111 3.06995C48.4111 3.7964 48.0436 6.6568 47.2167 9.74421H46.7573C47.9517 5.52172 48.7326 1.79866 47.6301 0.708984Z" fill="#FD99E9"/>
<path d="M45.6091 10.3346C45.9307 9.88059 46.436 9.60817 46.9872 9.51737C47.4925 9.42656 47.9978 9.42655 48.5031 9.38115C53.7859 9.29034 58.0121 11.9691 58.0121 15.0565C58.0121 18.1439 55.2099 19.1428 47.171 19.2336L40.0967 16.9635C43.2204 14.9203 44.3229 12.0599 45.6551 10.3346H45.6091Z" fill="#48F08A"/>
<path d="M44.4605 1.52633C44.6442 0.073427 45.9764 -0.244395 46.7573 0.164233C46.7573 0.164233 46.8032 0.164236 46.8492 0.209639C45.4251 -0.380601 45.3333 1.2085 44.6442 6.52067C43.9092 12.3777 42.0258 14.2392 38.3508 16.9634L36.8809 17.145C43.1742 13.7398 43.5877 8.24598 44.4145 1.52633H44.4605Z" fill="#12A459"/>
<path d="M36.0999 19.3697C39.683 19.3243 43.7255 19.2789 47.1248 19.2335C55.1638 19.1427 57.9659 17.7352 57.9659 15.0564C57.9659 14.0749 57.6444 13.4219 57.2309 12.8771C58.7469 15.0564 56.8634 17.3266 52.9129 17.2358C46.5276 17.0995 34.4003 11.9236 26.7747 12.2868C18.598 12.65 14.8771 18.4162 14.9689 22.1847C15.0608 25.4991 18.1845 27.2698 21.492 26.8612C27.1422 26.1802 31.3225 23.5922 36.0999 19.3697Z" fill="#17D171"/>
<path d="M15.0611 23.0023C14.3721 19.2338 18.7361 13.4676 26.8669 13.1498C34.4924 12.832 46.6198 18.0079 53.005 18.0987C55.6694 18.1441 57.5069 16.8728 57.9662 15.3745C57.8808 18.3885 54.849 19.2058 47.0856 19.2966C43.6863 19.2966 39.6833 19.3246 36.1002 19.37C31.3228 23.5925 27.1425 26.1351 21.4923 26.8615C18.4145 27.2247 15.6124 25.8172 15.0611 23.0023Z" fill="#12A459"/>
<path d="M18.1846 26.4977C22.1811 27.9052 30.0363 24.2729 33.3438 20.9131L33.8951 21.1855C29.9904 24.3183 26.2236 26.3161 21.4461 26.8609C19.379 27.0879 18.1387 26.5431 18.1387 26.5431L18.1846 26.4977Z" fill="#FD99E9"/>
<path d="M25.3051 17.4627C26.1319 19.6421 31.2309 21.8668 35.3193 21.8214C38.1674 21.8214 40.6021 20.6864 42.3477 19.2789C40.2346 19.2789 38.0755 19.3243 36.0543 19.3697C33.0225 19.3697 30.2203 18.28 28.7044 17.4627C27.4182 16.7363 26.7291 16.4639 26.086 16.4639C25.4429 16.4639 25.0754 16.9179 25.3051 17.5081V17.4627Z" fill="#008046"/>
<path d="M41.5664 19.2793C41.842 19.2793 42.0717 19.2793 42.3473 19.2793C40.6017 20.6868 38.1211 21.8219 35.319 21.8219C34.5381 21.8219 33.6652 21.7311 32.8384 21.5948C35.9162 22.0489 39.4074 21.0046 41.5664 19.2793Z" fill="#FD99E9"/>
<defs>
<linearGradient id="paint0_linear_5145_55246" x1="49.9269" y1="131.197" x2="42.8416" y2="118.55" gradientUnits="userSpaceOnUse">
<stop stop-color="#FD6ADA"/>
<stop offset="0.4" stop-color="#EB26C0"/>
<stop offset="1" stop-color="#8C1381"/>
</linearGradient>
<linearGradient id="paint1_linear_5145_55246" x1="132.956" y1="118.187" x2="128.651" y2="100.514" gradientUnits="userSpaceOnUse">
<stop stop-color="#FD6ADA"/>
<stop offset="0.4" stop-color="#EB26C0"/>
<stop offset="1" stop-color="#8C1381"/>
</linearGradient>
<linearGradient id="paint2_linear_5145_55246" x1="15.1066" y1="65.5444" x2="87.865" y2="69.82" gradientUnits="userSpaceOnUse">
<stop stop-color="#6977F4"/>
<stop offset="1" stop-color="#5262EB"/>
</linearGradient>
</defs>
</svg>
