<svg width="408" height="48" viewBox="0 0 408 48" fill="none" xmlns="http://www.w3.org/2000/svg">
<g clip-path="url(#clip0_879_35431)">
<g clip-path="url(#clip1_879_35431)">
<mask id="mask0_879_35431" style="mask-type:luminance" maskUnits="userSpaceOnUse" x="0" y="0" width="408" height="48">
<path d="M408 0.0195312H0V47.9995H408V0.0195312Z" fill="white"/>
</mask>
<g mask="url(#mask0_879_35431)">
<path d="M408 0.0195312H0V47.9995H408V0.0195312Z" fill="url(#paint0_linear_879_35431)"/>
<path d="M70.4191 19.7689C71.1371 19.7689 71.7191 19.1869 71.7191 18.4689C71.7191 17.751 71.1371 17.1689 70.4191 17.1689C69.7012 17.1689 69.1191 17.751 69.1191 18.4689C69.1191 19.1869 69.7012 19.7689 70.4191 19.7689Z" fill="#F3B931"/>
<path d="M15.3098 8.26895C16.0277 8.26895 16.6098 7.68692 16.6098 6.96895C16.6098 6.25097 16.0277 5.66895 15.3098 5.66895C14.5918 5.66895 14.0098 6.25097 14.0098 6.96895C14.0098 7.68692 14.5918 8.26895 15.3098 8.26895Z" fill="#F3B931"/>
<path d="M42.0898 28.5596L49.2898 31.1196" stroke="#544DEF" stroke-width="3.4" stroke-linejoin="bevel"/>
<path d="M55.7896 10.0596L52.8896 12.9096L58.8596 15.8096L55.7896 10.0596Z" fill="#F3B931"/>
<path d="M279.33 -16.4805C279.33 -16.4805 282.1 -10.8505 280.03 -8.99047C276.1 -5.45047 271.91 -14.9505 269.01 -12.4405C266.11 -9.93047 270.31 -2.20047 270.23 0.599531C270.16 3.40953 265.24 -0.240469 263.28 3.48953C263.28 3.48953 261.7 4.69953 262.03 8.02953" stroke="#FF4CD2" stroke-width="3.45" stroke-linejoin="bevel"/>
<path d="M303.409 43.949C303.409 43.949 308.989 41.079 310.889 43.119C314.499 46.989 305.079 51.339 307.639 54.189C310.199 57.039 317.849 52.719 320.659 52.739C323.469 52.759 319.909 57.739 323.669 59.639C323.669 59.639 324.909 61.199 328.229 60.809" stroke="#FF4CD2" stroke-width="3.45" stroke-linejoin="bevel"/>
<path d="M416.53 40.9994C416.53 40.9994 412.38 45.6994 409.87 44.4994C405.1 42.2094 412.3 34.7294 408.87 32.9994C405.44 31.2694 399.89 38.0894 397.27 39.0894C394.65 40.0894 396.15 34.1594 391.95 33.7594C391.95 33.7594 390.23 32.7494 387.27 34.3294" stroke="#FF4CD2" stroke-width="3.45" stroke-linejoin="bevel"/>
<path d="M336.079 42.389C337.095 42.389 337.919 41.5652 337.919 40.549C337.919 39.5328 337.095 38.709 336.079 38.709C335.063 38.709 334.239 39.5328 334.239 40.549C334.239 41.5652 335.063 42.389 336.079 42.389Z" stroke="#FF4CD2" stroke-width="1.9" stroke-linejoin="bevel"/>
<path d="M360.37 30.1196L359.68 25.8096L351.5 28.6196L352.4 31.5596L360.37 30.1196Z" fill="#544DEF"/>
<path d="M385.53 41.2991L384.12 45.1191L379.01 40.8691L385.53 41.2991Z" fill="#F3B931"/>
<path d="M58.8594 31.8694C58.8594 31.8694 63.9594 28.2194 66.1394 29.9594C70.2794 33.2594 61.5794 38.9394 64.5294 41.3894C67.4794 43.8394 74.4194 38.4494 77.1994 38.0594C79.9794 37.6694 79.9194 49.5794 94.1794 48.8694" stroke="#F3B931" stroke-width="3.45" stroke-linejoin="bevel"/>
<path d="M91.5293 -13.9804C91.5293 -13.9804 96.6993 -17.5404 98.8393 -15.7604C102.909 -12.3804 94.1193 -6.87039 97.0193 -4.36039C99.9193 -1.85039 106.959 -7.12039 109.749 -7.45039C112.539 -7.78039 119.739 -6.65039 126.529 6.96961" stroke="#F3B931" stroke-width="3.45" stroke-linejoin="bevel"/>
<path d="M173.609 -16.0811C174.639 -1.81105 185.679 -3.72105 187.669 -7.46105C190.319 -12.4511 181.549 -16.5211 180.519 -7.38105C179.489 1.76894 190.639 1.09895 190.639 1.09895C190.639 1.09895 196.969 1.57895 194.099 8.00895" stroke="#544DEF" stroke-width="3.4" stroke-linejoin="bevel"/>
<path d="M-0.94043 23.5088C1.97957 37.5188 12.6696 34.1488 14.1496 30.1788C16.1196 24.8788 6.86957 22.0088 7.07957 31.2188C7.27957 40.4188 18.2396 38.2788 18.2396 38.2788C18.2396 38.2788 24.5696 37.9088 22.5896 44.6688" stroke="#F3B931" stroke-width="3.45" stroke-linejoin="bevel"/>
<path d="M21.6991 23.5095C22.7319 23.5095 23.5691 22.6723 23.5691 21.6395C23.5691 20.6068 22.7319 19.7695 21.6991 19.7695C20.6663 19.7695 19.8291 20.6068 19.8291 21.6395C19.8291 22.6723 20.6663 23.5095 21.6991 23.5095Z" fill="#FF4CD2"/>
<path d="M246.729 42.0992C247.254 42.0992 247.679 41.6739 247.679 41.1492C247.679 40.6245 247.254 40.1992 246.729 40.1992C246.205 40.1992 245.779 40.6245 245.779 41.1492C245.779 41.6739 246.205 42.0992 246.729 42.0992Z" fill="#544DEF"/>
<path d="M103.67 43.0592C104.194 43.0592 104.62 42.6339 104.62 42.1092C104.62 41.5845 104.194 41.1592 103.67 41.1592C103.145 41.1592 102.72 41.5845 102.72 42.1092C102.72 42.6339 103.145 43.0592 103.67 43.0592Z" fill="#544DEF"/>
<path d="M359.999 9.34926C361.203 9.34926 362.179 8.37324 362.179 7.16926C362.179 5.96528 361.203 4.98926 359.999 4.98926C358.795 4.98926 357.819 5.96528 357.819 7.16926C357.819 8.37324 358.795 9.34926 359.999 9.34926Z" fill="#FF4CD2"/>
<path d="M31.9699 37.4691C32.9861 37.4691 33.8099 36.6453 33.8099 35.6291C33.8099 34.6129 32.9861 33.7891 31.9699 33.7891C30.9537 33.7891 30.1299 34.6129 30.1299 35.6291C30.1299 36.6453 30.9537 37.4691 31.9699 37.4691Z" stroke="#FF4CD2" stroke-width="1.9" stroke-linejoin="bevel"/>
<path d="M156.21 7.85914C157.381 7.85914 158.33 6.90998 158.33 5.73914C158.33 4.5683 157.381 3.61914 156.21 3.61914C155.039 3.61914 154.09 4.5683 154.09 5.73914C154.09 6.90998 155.039 7.85914 156.21 7.85914Z" fill="#F3B931"/>
<path d="M159.229 45.1795C160.4 45.1795 161.349 44.2303 161.349 43.0595C161.349 41.8886 160.4 40.9395 159.229 40.9395C158.059 40.9395 157.109 41.8886 157.109 43.0595C157.109 44.2303 158.059 45.1795 159.229 45.1795Z" fill="#F3B931"/>
<path d="M233.76 -0.69125L231.26 -4.03125L225.59 1.96875L227.65 4.05875L233.76 -0.69125Z" fill="#F3B931"/>
<path d="M92.5597 8.64887L87.2197 2.83887" stroke="#544DEF" stroke-width="3.4" stroke-linejoin="bevel"/>
<path d="M341.639 14.1992L346.369 18.5692L337.069 23.4692L341.639 14.1992Z" fill="#F3B931"/>
<path d="M334.879 -23.0908C334.879 -23.0908 328.629 -22.0508 328.319 -19.2508C327.729 -13.9408 337.989 -16.1008 337.639 -12.2508C337.289 -8.39082 328.479 -7.28082 326.219 -5.56082C323.959 -3.84082 329.849 -1.96082 327.949 1.84918C327.949 1.84918 326.269 8.79918 317.569 4.92918" stroke="#F3B931" stroke-width="3.45" stroke-linejoin="bevel"/>
<path d="M374.189 20.8092C374.189 20.8092 391.999 27.4992 382.399 8.10922C380.419 4.09922 389.719 12.3992 390.719 14.5792C390.829 14.8092 391.169 14.7592 391.199 14.5092L393.289 -0.550781" stroke="#544DEF" stroke-width="3.4" stroke-linejoin="bevel"/>
<path d="M26.5195 -3.28125C27.9595 -3.05125 29.3895 -2.66125 30.6895 -2.00125C31.7695 -1.45125 32.7995 -0.74125 33.5795 0.18875C34.4195 1.17875 34.8495 2.39875 35.0095 3.66875C35.0995 4.36875 35.0995 5.05875 34.8495 5.72875C34.6195 6.33875 34.2195 6.87875 33.7395 7.31875C32.8495 8.12875 31.7095 8.61875 30.5995 9.04875C30.4295 9.11875 30.2595 9.17875 30.0795 9.24875C32.4595 8.79875 34.8095 9.46875 36.8995 10.5988C38.4095 11.3788 39.6895 12.5587 40.9295 13.8587C41.1895 14.0687 41.3595 14.3888 41.6595 14.6788C42.6795 15.8488 43.6195 17.0488 44.2595 18.4688" stroke="#FF4CD2" stroke-width="3.45" stroke-linejoin="bevel"/>
<path d="M150.339 60.4094C145.909 59.2294 143.629 57.1894 143.629 57.1894C137.129 51.7694 142.469 45.9194 144.119 47.1794C148.879 50.8194 139.519 55.3794 134.649 52.9294C132.199 51.6994 130.119 49.0294 131.779 45.1394C133.899 40.1694 139.789 42.2994 133.909 48.7094C128.029 55.1194 122.709 50.2894 122.709 50.2894C122.709 50.2894 119.969 47.9494 119.189 43.2094" stroke="#FF4CD2" stroke-width="3.45" stroke-linejoin="bevel"/>
<path d="M198.91 43.6689C190.63 45.5189 184.23 53.6689 184.39 62.1489" stroke="#F3B931" stroke-width="3.45" stroke-linejoin="bevel"/>
<path d="M270.26 44.4795C276.03 47.2495 280.17 53.1595 280.8 59.5295" stroke="#544DEF" stroke-width="3.4" stroke-linejoin="bevel"/>
<path d="M353.06 -4.2207C350.55 -1.4707 348.05 1.2893 345.54 4.0393" stroke="#FF4CD2" stroke-width="3.45" stroke-linejoin="bevel"/>
<path d="M344.68 47.3989C354.57 39.2889 371.63 42.8489 377.45 54.2389" stroke="#544DEF" stroke-width="3.4" stroke-linejoin="bevel"/>
<path d="M45.0791 -16.0811C47.9891 -4.75105 59.1591 3.89894 70.8591 3.88894" stroke="#544DEF" stroke-width="3.4" stroke-linejoin="bevel"/>
<path d="M36.9395 58.2592C38.9795 50.3592 45.3895 43.7492 53.2195 41.4492" stroke="#544DEF" stroke-width="3.4" stroke-linejoin="bevel"/>
</g>
</g>
</g>
<defs>
<linearGradient id="paint0_linear_879_35431" x1="204" y1="-9.23047" x2="204" y2="64.1195" gradientUnits="userSpaceOnUse">
<stop offset="0.11" stop-color="#E782F1"/>
<stop offset="0.89" stop-color="#DF90B0"/>
</linearGradient>
<clipPath id="clip0_879_35431">
<rect width="408" height="48" rx="4" fill="white"/>
</clipPath>
<clipPath id="clip1_879_35431">
<rect width="408" height="48" fill="white"/>
</clipPath>
</defs>
</svg>
