<svg width="120" height="47" viewBox="0 0 120 47" fill="none" xmlns="http://www.w3.org/2000/svg">
<path d="M85.8527 0C73.6114 0 62.1861 5.76146 54.3516 14.8152C51.2505 14.239 47.9045 13.9921 44.3953 13.9921C23.4218 13.9921 3.67241 24.5274 0 37.6964C0 37.861 0.0816041 38.1079 0.326431 38.1079H44.0689H76.6309L119.802 38.2726C121.924 17.2844 106.745 0.082299 85.7711 0.082299L85.8527 0Z" fill="url(#paint0_linear_5115_29758)"/>
<path d="M95.7304 1.31517C92.6558 0.493184 89.415 0 86.008 0C73.6266 0 61.9099 5.7539 53.9326 14.7957L63.5719 18.8235C65.1507 19.8099 67.3943 21.6182 69.3887 23.7554C77.4491 9.12404 86.2573 2.38375 95.7304 1.31517Z" fill="#D05EF1"/>
<path d="M49.8876 15.4905L48.6649 14.6797C47.2791 14.5987 45.8119 14.5176 44.3446 14.5176C23.395 14.5176 3.66821 24.8954 0 37.8676C0 38.0297 0.0815108 38.273 0.326058 38.273H11.1677L14.5098 33.9759C25.6775 17.112 42.7143 14.923 49.8061 15.5716L49.8876 15.4905Z" fill="#FE72DD"/>
<path d="M91.6854 0.428917C89.9236 0.171567 88.1618 0 86.3161 0C73.7319 0 61.9866 6.00483 53.9326 15.441L55.7783 17.1567C66.3491 4.54652 78.7656 0.171567 91.6015 0.428917H91.6854Z" fill="#FEA5E9"/>
<path d="M107.865 7.91797C118.01 16.6022 119.181 31.5357 118.478 37.6228C118.478 37.8663 118.478 38.1097 118.478 38.2721H119.805C121.054 25.8545 116.215 14.7355 107.943 7.91797H107.865Z" fill="#FF4CD2"/>
<path d="M9.43848 25.0755C22.8852 15.6289 48.1185 13.0093 64.7194 19.2012C63.3083 18.1692 59.5731 16.4228 55.0909 15.3114C51.9367 14.7557 48.5335 14.5176 44.9643 14.5176C31.2686 14.5176 18.1539 18.7249 9.43848 25.0755Z" fill="#FEA5E9"/>
<path d="M88.693 16.3711C73.8546 14.4411 58.4454 17.8815 51.923 24.4268C47.765 28.5386 47.4388 33.5734 50.9446 38.1047H76.382L114.783 38.2726C114.946 38.0208 115.027 37.7691 115.109 37.5173C119.511 27.6994 106.14 18.6367 88.693 16.3711Z" fill="url(#paint1_linear_5115_29758)"/>
<path d="M60 46.1908C93.1371 46.1908 120 42.3502 120 37.6125C120 32.8748 93.1371 29.0342 60 29.0342C26.8629 29.0342 0 32.8748 0 37.6125C0 42.3502 26.8629 46.1908 60 46.1908Z" fill="url(#paint2_linear_5115_29758)"/>
<path d="M106.987 32.9941C121.94 35.9269 121.455 38.8597 111.433 41.3036C101.41 43.6661 73.1214 46.1916 60.6743 46.1916C93.4894 46.1916 120 42.5256 120 38.045C120 33.5644 115.151 34.3791 106.987 32.9941Z" fill="#FF4CD2"/>
<defs>
<linearGradient id="paint0_linear_5115_29758" x1="117.68" y1="19.0951" x2="17.5459" y2="19.0951" gradientUnits="userSpaceOnUse">
<stop stop-color="#5969F4"/>
<stop offset="0.4" stop-color="#9D5CE5"/>
<stop offset="0.7" stop-color="#D253DB"/>
<stop offset="0.9" stop-color="#F24ED4"/>
<stop offset="1" stop-color="#FF4CD2"/>
</linearGradient>
<linearGradient id="paint1_linear_5115_29758" x1="96.683" y1="27.0281" x2="47.0312" y2="27.0281" gradientUnits="userSpaceOnUse">
<stop stop-color="#5969F4"/>
<stop offset="1" stop-color="#9442E5"/>
</linearGradient>
<linearGradient id="paint2_linear_5115_29758" x1="0" y1="37.6125" x2="120" y2="37.6125" gradientUnits="userSpaceOnUse">
<stop stop-color="#8E4AE8"/>
<stop offset="0.5" stop-color="#5A3ED0"/>
<stop offset="0.8" stop-color="#3A36C2"/>
<stop offset="1" stop-color="#2E34BD"/>
</linearGradient>
</defs>
</svg>
