<svg width="156" height="63" viewBox="0 0 156 63" fill="none" xmlns="http://www.w3.org/2000/svg">
<rect x="11" y="12" width="134" height="47.2589" rx="4.78571" fill="#F2F3F5"/>
<rect x="15.7852" y="16.7852" width="44.8661" height="4.1875" rx="2.09375" fill="#80848E" fill-opacity="0.24"/>
<rect x="15.7852" y="25.7578" width="29" height="29" rx="2.39286" fill="#80848E" fill-opacity="0.24"/>
<rect x="49.2852" y="31.4414" width="55.0357" height="8.375" rx="4.1875" fill="#80848E" fill-opacity="0.24"/>
<rect x="49.2852" y="42.2109" width="44.8661" height="6.58036" rx="3.29018" fill="#80848E" fill-opacity="0.24"/>
<g filter="url(#filter0_d_17187_123714)">
<rect x="103.125" y="2.42969" width="37.0893" height="19.1429" rx="9.57143" fill="#EBEDEF"/>
<rect x="102.826" y="2.13058" width="37.6875" height="19.7411" rx="9.87054" stroke="black" stroke-opacity="0.04" stroke-width="0.598214"/>
<g clip-path="url(#clip0_17187_123714)">
<path fill-rule="evenodd" clip-rule="evenodd" d="M112.697 17.4829C115.725 17.4829 118.18 15.0278 118.18 11.9993C118.18 8.97073 115.725 6.51562 112.697 6.51562C109.668 6.51562 107.213 8.97073 107.213 11.9993C107.213 15.0278 109.668 17.4829 112.697 17.4829ZM109.955 12.4978C110.368 12.4978 110.702 12.163 110.702 11.75C110.702 11.337 110.368 11.0022 109.955 11.0022C109.542 11.0022 109.207 11.337 109.207 11.75C109.207 12.163 109.542 12.4978 109.955 12.4978ZM115.438 12.4978C115.851 12.4978 116.186 12.163 116.186 11.75C116.186 11.337 115.851 11.0022 115.438 11.0022C115.025 11.0022 114.691 11.337 114.691 11.75C114.691 12.163 115.025 12.4978 115.438 12.4978ZM110.554 13.0805C110.782 12.9274 111.092 12.9887 111.245 13.2175C111.559 13.6863 112.092 13.9933 112.696 13.9933C113.301 13.9933 113.834 13.6863 114.148 13.2175C114.301 12.9887 114.611 12.9274 114.839 13.0805C115.068 13.2337 115.129 13.5433 114.976 13.7721C114.485 14.5056 113.648 14.9903 112.696 14.9903C111.745 14.9903 110.908 14.5056 110.417 13.7721C110.264 13.5433 110.325 13.2337 110.554 13.0805Z" fill="#4E5058"/>
</g>
<path d="M125.804 9.6542C125.61 9.84888 125.61 10.1645 125.804 10.3592L128.297 12.8518C128.491 13.0464 128.807 13.0464 129.002 12.8518C129.196 12.6571 129.196 12.3414 129.002 12.1468L127.36 10.5052H130.145C132.072 10.5052 133.634 12.0675 133.634 13.9948V15.9888C133.634 16.2642 133.858 16.4874 134.133 16.4874C134.408 16.4874 134.631 16.2642 134.631 15.9888V13.9948C134.631 11.5169 132.623 9.50818 130.145 9.50818H127.36L129.002 7.86664C129.196 7.67196 129.196 7.35632 129.002 7.16164C128.807 6.96695 128.491 6.96695 128.297 7.16164L125.804 9.6542Z" fill="#4E5058"/>
</g>
<path fill-rule="evenodd" clip-rule="evenodd" d="M89.6628 49.9416C89.8431 50.1108 89.9676 50.2324 90.3524 50.6131C90.7293 50.986 90.9116 51.1622 91.0782 51.3097C91.1477 51.3706 91.207 51.5337 91.2304 51.7761C91.2498 51.9756 91.243 52.198 91.2196 52.4124C91.2115 52.4865 91.2037 52.54 91.1992 52.5655C91.149 52.8515 91.3582 53.1156 91.6373 53.1186C91.8885 53.1212 92.082 53.1245 92.5942 53.134C92.7224 53.1364 92.7224 53.1364 92.851 53.1387C94.2433 53.1636 94.9545 53.1568 95.4648 53.0899C96.0104 53.0185 96.5722 52.3322 97.0579 51.471C97.4694 52.233 98.0403 52.9771 98.6167 53.0739C98.7998 53.1043 99.0214 53.1138 99.2781 53.1076C99.4695 53.1031 99.6721 53.0899 99.8766 53.0709C100.031 53.0565 100.154 53.0421 100.227 53.0322C100.498 52.9956 100.675 52.7177 100.603 52.4431C100.587 52.3838 100.562 52.275 100.537 52.138C100.507 51.9792 100.486 51.824 100.477 51.6827C100.47 51.5931 100.469 51.512 100.473 51.4419C100.48 51.3197 100.482 51.2512 100.485 51.0931C100.487 51.0342 100.487 51.0342 100.488 50.9827C100.495 50.8141 100.516 50.654 100.587 50.3049C100.617 50.1534 100.763 49.8635 100.994 49.5046C101.063 49.3978 101.138 49.2861 101.219 49.1709C101.371 48.9524 101.535 48.7317 101.7 48.5204C101.798 48.3939 101.874 48.2992 101.917 48.2478C102.272 47.7173 102.651 46.8489 102.791 46.3411C102.924 45.8531 103.031 44.9544 103.097 44.0711C103.133 43.57 103.146 43.166 103.146 42.5323C103.146 42.4212 103.146 42.4212 103.147 42.3294C103.147 42.1791 103.147 42.1222 103.146 42.052C103.145 41.86 103.14 41.6697 103.122 41.1844C103.084 40.1674 102.549 39.5098 101.76 39.383C101.089 39.2751 100.273 39.8554 100.273 39.8554C100.273 39.8554 100.091 39.2019 99.9684 39.0002C99.769 38.676 99.2554 38.2629 98.8628 38.1824C98.459 38.1007 97.9803 38.1098 97.5407 38.1908C97.1558 38.2625 96.7723 38.6205 96.5505 39.0067C96.3918 39.2822 96.541 38.9921 96.3823 38.7071C96.1627 38.3146 95.6511 37.9631 95.164 37.8594C94.7513 37.7704 94.2784 37.8043 93.8465 37.938C93.2908 38.111 93.2024 38.5514 93.1803 38.4253C93.1064 38.0025 93.0996 38.0303 93.0535 37.7287C92.8824 36.6096 92.6909 35.8353 92.4006 35.1596C92.4173 35.1985 92.2943 34.9069 92.2495 34.8064C92.172 34.6323 92.0946 34.4748 92.0095 34.3232C91.7473 33.8562 91.4468 33.5065 91.0698 33.3078C90.4151 32.9625 89.4337 33.1305 88.9685 33.6961C88.5066 34.2582 88.4296 35.198 88.5459 36.3609C88.5903 36.8124 88.7461 37.6368 88.8873 38.2461C88.9372 38.4576 88.9809 38.6504 89.0611 39.0067C89.0749 39.0673 89.0749 39.0673 89.0889 39.128C89.1509 39.3976 89.2054 39.6195 89.2703 39.8629C89.2635 39.8375 89.3867 40.293 89.413 40.3938C89.4217 40.4275 89.4217 40.4275 89.4304 40.4613C89.4794 40.6535 89.5273 40.8608 89.6021 41.2066C89.643 41.3968 89.683 41.6 89.7221 41.8154C89.8287 42.4028 89.8292 42.2805 89.7266 42.1552C89.6557 42.0687 89.589 41.9901 89.5246 41.9177C89.4049 41.783 89.2949 41.6717 89.1904 41.5829C88.4291 40.9341 87.9626 40.6474 87.3222 40.5844C86.2717 40.4793 85.2747 41.2523 85.1248 42.2955C85.0327 42.9351 85.0624 43.2295 85.3464 43.7947C85.5027 44.1002 85.7671 44.469 86.2605 45.1039C86.2907 45.1428 86.2907 45.1428 86.3208 45.1815C86.9264 45.9589 86.9924 46.0452 87.1364 46.2624C87.5256 46.8508 88.4731 48.5401 88.6454 48.7669L89.6628 49.9416Z" fill="black"/>
<path fill-rule="evenodd" clip-rule="evenodd" d="M87.0186 44.5908C86.9888 44.5524 86.9888 44.5524 86.959 44.5141C86.5062 43.9314 86.258 43.5851 86.1411 43.3568C85.9577 42.9919 85.9477 42.893 86.0138 42.4344C86.0915 41.8938 86.652 41.4593 87.2358 41.5177C87.6397 41.5574 87.9926 41.7743 88.6199 42.3089C88.6878 42.3666 88.7697 42.4494 88.8633 42.5548C88.9187 42.6171 88.9775 42.6863 89.0409 42.7638C89.1362 42.8801 89.4574 43.2894 89.4101 43.2298C89.4798 43.3172 89.5297 43.3849 89.5867 43.4679C89.6996 43.6358 89.7632 43.7291 89.8492 43.8486C89.8089 43.7925 90.1069 44.2216 90.17 44.2844C90.5043 44.6168 90.9884 44.3368 90.9581 43.8938C90.9531 43.8199 90.9364 43.74 90.9015 43.6005C90.7637 42.5764 90.7154 42.2478 90.6054 41.6412C90.5645 41.4159 90.5225 41.2025 90.4791 41.001C90.4019 40.644 90.3515 40.4259 90.2992 40.2207C90.2899 40.1843 90.2899 40.1843 90.2805 40.1484C90.2529 40.0424 90.1278 39.58 90.1362 39.611C90.0746 39.3802 90.0227 39.1689 89.963 38.9094C89.9494 38.8502 89.9494 38.8502 89.9359 38.7907C89.8561 38.4363 89.8112 38.2385 89.7606 38.0241C89.6286 37.4545 89.4795 36.6651 89.4401 36.2645C89.3495 35.3593 89.412 34.5968 89.6511 34.3059C89.8377 34.079 90.3668 33.9884 90.6623 34.1443C90.8556 34.2461 91.0488 34.4709 91.2315 34.7965C91.3007 34.9197 91.3656 35.0518 91.432 35.201C91.4723 35.2913 91.5916 35.5739 91.5781 35.5427C91.8305 36.1301 92.0039 36.8313 92.1636 37.8761C92.2109 38.1856 92.2694 38.5364 92.3444 38.9654C92.3667 39.0927 92.3667 39.0927 92.3891 39.2194C92.7507 41.2635 92.7243 41.1086 92.7295 41.2717C92.7484 41.8664 93.5912 41.8803 93.6283 41.2865C93.64 41.0982 93.6358 40.9301 93.615 40.4472C93.612 40.3789 93.612 40.3789 93.6092 40.3108C93.5909 39.8659 93.592 39.61 93.6172 39.4645C93.6633 39.1992 93.8919 38.902 94.1025 38.8365C94.3982 38.7449 94.7221 38.7217 94.9817 38.7776C95.2301 38.8305 95.5201 39.0298 95.6033 39.1784C95.7035 39.3584 95.7894 39.6326 95.8553 39.9725C95.9085 40.2469 95.9451 40.5412 95.9708 40.8553C95.9788 40.9531 95.9841 41.0286 95.9921 41.1535C95.9955 41.2058 95.9955 41.2058 95.9989 41.249C96.0008 41.2706 96.0009 41.2706 96.0055 41.3048C96.0092 41.3288 96.0092 41.3288 96.0264 41.3895C96.0351 41.5618 96.0351 41.5618 96.6993 41.6256C96.8977 41.3759 96.8977 41.3759 96.8923 41.3321C96.9248 41.1841 96.9446 41.0192 96.973 40.7094C96.9911 40.508 97.0002 40.409 97.0109 40.3063C97.055 39.8811 97.1111 39.611 97.1795 39.4923C97.2644 39.3445 97.5632 39.1387 97.6973 39.1138C98.0339 39.0517 98.4036 39.0448 98.689 39.1025C98.8183 39.129 99.1337 39.3827 99.2083 39.504C99.3616 39.756 99.5107 40.5682 99.5946 41.3742C99.5814 41.427 99.5814 41.427 99.7875 41.7337C100.496 41.6495 100.496 41.6495 100.476 41.5163C100.495 41.4688 100.51 41.4139 100.531 41.3286C100.581 41.129 100.615 41.0131 100.665 40.8832C100.699 40.7933 100.736 40.7165 100.773 40.6553C100.918 40.4179 101.293 40.2566 101.622 40.3095C101.975 40.3663 102.2 40.6428 102.222 41.2207C102.239 41.6963 102.244 41.8791 102.245 42.0585C102.246 42.1247 102.246 42.1779 102.245 42.3274C102.245 42.4198 102.245 42.4198 102.245 42.5323C102.245 43.1435 102.233 43.5243 102.198 43.9998C102.138 44.8164 102.035 45.6784 101.924 46.0837C101.811 46.4969 101.472 47.2723 101.204 47.6756C101.185 47.6947 101.104 47.7961 101 47.9301C100.826 48.1532 100.652 48.3864 100.49 48.6193C100.403 48.7439 100.321 48.8654 100.245 48.9829C99.953 49.4376 99.7654 49.8088 99.7046 50.1132C99.6249 50.5087 99.5964 50.7185 99.5879 50.9459C99.5858 51.0103 99.5858 51.0103 99.5844 51.0728C99.5814 51.2204 99.5795 51.2799 99.5736 51.3879C99.5673 51.5012 99.5691 51.6218 99.5778 51.7493C99.5902 51.9318 99.5778 52.1811 99.5778 52.1811C99.5778 52.1811 99.4258 52.1663 99.2564 52.1704C99.0493 52.1753 98.8772 52.168 98.7582 52.1482C98.5865 52.1194 98.123 51.5151 97.8856 51.0444C97.5229 50.3239 96.6424 50.3588 96.2814 50.9951C95.9558 51.5724 95.4898 52.1416 95.3515 52.1597C94.902 52.2186 94.2058 52.2253 92.8654 52.2013C92.7372 52.199 92.7372 52.199 92.6092 52.1966C92.0945 52.1871 92.1143 52.2776 92.1248 52.1811C92.1549 51.9057 92.1515 51.9573 92.1248 51.682C92.0801 51.2203 91.9433 50.8439 91.6583 50.5938C91.5109 50.4634 91.3345 50.2929 90.9803 49.9424C90.5756 49.542 90.4489 49.4183 90.2927 49.2753L89.3311 48.1619C89.2256 48.0213 88.2991 46.3694 87.8762 45.7301C87.7116 45.4819 87.6501 45.4013 87.0186 44.5908ZM98.4291 44.5955V48.9192C98.4291 49.5442 99.3291 49.5442 99.3291 48.9192V44.5955C99.3291 43.9705 98.4291 43.9705 98.4291 44.5955ZM95.9912 44.5947L96.0104 48.936C96.0132 49.561 96.9131 49.5567 96.9104 48.9317L96.8912 44.5904C96.8884 43.9654 95.9884 43.9698 95.9912 44.5947ZM94.5403 48.9117L94.5151 44.6292C94.5114 44.0042 93.6114 44.01 93.6151 44.635L93.6403 48.9175C93.6439 49.5424 94.5439 49.5367 94.5403 48.9117Z" fill="white"/>
<defs>
<filter id="filter0_d_17187_123714" x="100.134" y="0.0373884" width="43.0709" height="25.1256" filterUnits="userSpaceOnUse" color-interpolation-filters="sRGB">
<feFlood flood-opacity="0" result="BackgroundImageFix"/>
<feColorMatrix in="SourceAlpha" type="matrix" values="0 0 0 0 0 0 0 0 0 0 0 0 0 0 0 0 0 0 127 0" result="hardAlpha"/>
<feOffset dy="0.598214"/>
<feGaussianBlur stdDeviation="1.19643"/>
<feColorMatrix type="matrix" values="0 0 0 0 0 0 0 0 0 0 0 0 0 0 0 0 0 0 0.14 0"/>
<feBlend mode="normal" in2="BackgroundImageFix" result="effect1_dropShadow_17187_123714"/>
<feBlend mode="normal" in="SourceGraphic" in2="effect1_dropShadow_17187_123714" result="shape"/>
</filter>
<clipPath id="clip0_17187_123714">
<rect width="11.9643" height="11.9643" fill="white" transform="translate(106.715 6.01953)"/>
</clipPath>
</defs>
</svg>
