<svg width="400" height="210" viewBox="0 0 800 419" fill="none" xmlns="http://www.w3.org/2000/svg">
    <g clip-path="url(#clip0_523_22221)">
        <path
            d="M793.156 354.351C793.156 354.351 790.5 353.498 784.812 352.022L784.249 351.877H784.16L783.06 351.596L782.97 351.571L782.424 351.434L782.194 351.374L781.056 351.093L780.962 351.067L780.45 350.944L780.088 350.854L779.555 350.722L779.128 350.624L778.275 350.419L777.789 350.304L777.295 350.185L776.706 350.044L776.054 349.891L775.346 349.724L774.86 349.613L774.182 349.456L773.756 349.358L772.707 349.115L772.28 349.016L771.496 348.837L771.07 348.739L769.901 348.479L769.59 348.407L768.592 348.185L768.196 348.1L767.07 347.852L766.848 347.805L765.522 347.516L765.121 347.43L764 347.191L763.676 347.119L762.252 346.821L761.881 346.74L760.687 346.492L760.312 346.411L758.76 346.091L758.581 346.053L757.161 345.763L756.734 345.678L755.144 345.358H755.097L753.392 345.021L752.965 344.94L751.503 344.65L751.196 344.591L749.435 344.249L749.047 344.173L747.554 343.887L747.128 343.802L745.269 343.452L745.03 343.405L743.325 343.085L742.898 343.004L738.907 342.271L738.438 342.186L736.677 341.866L736.34 341.806L734.255 341.435L733.829 341.359L732.03 341.039L731.578 340.962L729.394 340.582L729.058 340.523L727.122 340.194L726.589 340.101L721.984 339.329L721.383 339.227L719.34 338.894L718.986 338.834L716.569 338.442L716.031 338.357L714.019 338.033L713.435 337.939L710.945 337.547L710.518 337.483L708.348 337.146L707.661 337.039L705.065 336.638C661.236 329.948 634.672 335.615 622.691 339.623L615.869 337.244C615.413 337.086 614.939 336.988 614.457 336.954L605.047 336.246C604.019 335.952 603.009 335.662 602.02 335.393L621.101 330.452C624.034 329.347 622.41 326.081 622.41 326.081L573.46 309.35L456.208 332.055L504.884 349.225C505.899 349.652 506.888 350.104 507.869 350.568C510.245 351.706 512.926 352.044 515.51 351.532C519.974 350.705 524.464 350.014 528.916 349.157C529.666 349.012 530.412 348.88 531.154 348.795C533.092 348.83 535.017 349.116 536.88 349.647C537.136 349.747 537.392 349.832 537.648 349.903C543.191 351.976 546.841 350.871 546.841 350.871L564.152 346.232L592.643 348.518L595.918 351.728C596.451 352.252 597.133 352.598 597.871 352.717C596.809 355.357 596.042 360.316 600.749 366.652C604.292 371.619 611.23 377.678 624.797 382.978C653.967 394.371 706.519 413.299 706.519 413.299C715.128 416.108 728.87 413.755 737.278 410.911C742.706 409.077 748.168 407.261 753.409 404.971C767.872 398.661 781.32 390.794 791.941 378.817C795.672 374.608 798.704 370.012 799.757 364.426C800.729 359.442 798.567 355.335 793.156 354.351Z"
            fill="black" />
        <path
            d="M492.784 0.674805C473.673 1.32291 456.37 3.6851 442.645 6.82331C443.353 32.5259 447.544 107.34 472.347 136.906C473.212 137.945 474.335 138.739 475.602 139.209C476.87 139.68 478.239 139.809 479.573 139.585C480.906 139.361 482.158 138.792 483.202 137.933C484.247 137.075 485.049 135.957 485.527 134.693C487.305 130.002 489.074 122.903 490.217 112.201C492.417 91.1116 492.758 31.1828 492.784 0.674805Z"
            fill="#C3C7F7" />
        <path
            d="M574.697 283.314L574.654 309.814L516.111 324.482L438.794 323.267L432.266 296.234C431.997 295.12 432.17 293.945 432.749 292.956C433.328 291.967 434.268 291.241 435.371 290.93L484.179 277.11L570.233 278.748C571.427 278.77 572.565 279.262 573.401 280.116C574.236 280.971 574.702 282.119 574.697 283.314Z"
            fill="#B57AF5" />
        <path
            d="M452.87 285.975L435.388 290.929C434.285 291.24 433.345 291.967 432.766 292.956C432.187 293.945 432.014 295.12 432.284 296.233V296.289L435.78 296.613L436.569 293.705L438.274 293.027L451.71 289.441L452.87 285.975Z"
            fill="#7E88EF" />
        <path
            d="M437.516 296.78C437.03 295.006 438.266 293.028 438.266 293.028L435.78 292.78C435.78 292.78 434.544 294.759 435.026 296.532"
            fill="white" />
        <path
            d="M534.907 169.852L506.552 163.554V162.16L503.409 162.855L500.271 162.16V163.554L471.916 169.852C471.783 169.884 471.661 169.953 471.566 170.051C471.47 170.15 471.404 170.273 471.377 170.408C471.349 170.542 471.36 170.681 471.409 170.81C471.458 170.938 471.542 171.049 471.652 171.131C474.696 173.263 481.361 179.736 481.983 195.674L488.439 202.292H518.384L524.835 195.674C525.462 179.736 532.122 173.268 535.171 171.131C535.281 171.049 535.365 170.938 535.414 170.81C535.463 170.681 535.474 170.542 535.446 170.408C535.419 170.273 535.353 170.15 535.257 170.051C535.162 169.953 535.04 169.884 534.907 169.852Z"
            fill="#7E88EF" />
        <path
            d="M595.739 20.8898C595.739 11.9826 554.32 0.5 503.213 0.5C452.106 0.5 410.968 13.2063 410.968 22.1093C410.794 21.7085 410.968 22.5357 410.968 22.1093C410.384 33.4342 407.404 120.848 451.377 157.274C459.986 164.408 468.113 169.507 475.647 173.093C486.14 178.086 495.487 180.133 503.362 180.576C511.255 180.15 520.605 178.086 531.077 173.093C538.612 169.507 546.739 164.408 555.347 157.274C602.476 118.285 595.739 20.8898 595.739 20.8898Z"
            fill="url(#paint0_linear_523_22221)" />
        <path
            d="M450.768 151.544L438.347 149.357C436.763 149.077 435.26 148.453 433.943 147.53C432.627 146.606 431.529 145.404 430.727 144.01C427.176 137.84 420.92 125.219 415.71 105.379C407.916 75.7792 397.96 58.9028 415.71 57.5938C433.461 56.2848 403.571 42.8877 403.571 42.8877L392.314 50.5627L390.583 61.4952C390.583 61.4952 400.974 118.205 409.634 135.964C418.294 153.723 429.981 160.208 429.981 160.208L467.209 164.536"
            fill="#5C19BF" />
        <path
            d="M406.167 63.6143H390.979C391.329 65.4563 391.892 68.3983 392.634 72.0908H406.321C405.694 68.6797 405.57 65.8485 406.167 63.6143Z"
            fill="#1D0066" />
        <path
            d="M415.693 57.5929C433.443 56.3138 403.571 42.874 403.571 42.874L392.314 50.549L390.583 61.4816C390.583 61.4816 390.724 62.2448 390.98 63.6135H406.167C407.131 60.0532 409.971 58.0108 415.693 57.5929Z"
            fill="black" />
        <path
            d="M450.768 151.543L438.347 149.356C438.159 149.322 437.972 149.283 437.788 149.241L437.601 149.194L437.238 149.1L437.017 149.032L436.697 148.93L436.462 148.844L436.168 148.733L435.934 148.635L435.652 148.512L435.418 148.401C435.324 148.354 435.23 148.307 435.14 148.256C435.051 148.205 434.991 148.183 434.919 148.141C433.169 147.171 431.717 145.742 430.719 144.009C430.395 143.44 430.051 142.826 429.687 142.167L413.876 143.489C416.497 147.591 419.588 151.373 423.086 154.758L423.112 154.78C427.09 158.583 429.99 160.203 429.99 160.203L464.629 164.233L465.422 163.115L450.768 151.543Z"
            fill="#1D0066" />
        <path
            d="M476.457 167.486L472.032 168.245L468.488 159.85L429.533 154.639C423.266 154.008 416.742 147.996 414.61 142.065C408.046 123.777 402.538 105.128 398.113 86.2082C392.523 62.0619 391.679 56.2331 401.46 52.5662C411.241 48.8993 422.238 59.495 422.238 59.495L418.976 41.9748C418.976 41.9748 413.825 36.679 399.085 41.9748C384.345 47.2705 386.383 59.0857 389.236 72.939C391.248 82.7118 403.596 123.901 410.7 147.327C412.192 152.246 415.057 156.638 418.959 159.986C422.861 163.333 427.638 165.497 432.727 166.224L461.521 170.296C464.241 170.722 474.982 172.748 478.125 179.046C481.753 186.269 476.457 167.486 476.457 167.486Z"
            fill="#9CA3F3" />
        <path
            d="M595.739 20.8898C595.739 11.9826 554.32 0.5 503.213 0.5C452.107 0.5 410.969 13.2063 410.969 22.1093C410.969 22.1477 410.969 22.169 410.969 22.1903C410.402 33.8179 407.532 120.916 451.407 157.283C457.628 162.504 464.354 167.092 471.486 170.978C471.532 171.042 471.588 171.098 471.652 171.145C474.697 173.276 481.361 179.749 481.984 195.687L488.439 202.305H518.384L524.835 195.687C525.462 179.749 532.122 173.281 535.171 171.145C535.234 171.097 535.29 171.041 535.337 170.978C542.469 167.092 549.195 162.504 555.416 157.283C602.476 118.285 595.739 20.8898 595.739 20.8898Z"
            fill="url(#paint1_linear_523_22221)" />
        <path
            d="M410.994 22.1907C410.992 22.1637 410.992 22.1366 410.994 22.1096C410.841 21.7421 410.969 22.3873 410.994 22.1907Z"
            fill="url(#paint2_linear_523_22221)" />
        <path
            d="M488.439 156.05C500.937 156.05 510.564 148.802 517.395 140.764C525.889 130.774 530.886 118.307 532.148 105.259C532.307 103.656 532.441 102.016 532.549 100.339C534.493 71.2292 536.566 23.542 537.448 2.24398C526.084 1.0756 514.667 0.49352 503.243 0.500054C470.382 0.500054 441.635 5.75741 425.3 11.8761C425.3 11.8761 420.064 85.4279 448.751 133.861C451.569 138.445 464.05 156.05 488.439 156.05Z"
            fill="url(#paint3_linear_523_22221)" />
        <path
            d="M479.084 96.186C481.161 97.8915 483.22 99.5971 485.305 101.264L486.665 102.347L486.819 102.471L486.878 102.514C487.578 103.034 488.273 103.562 488.989 104.061C489.577 104.488 490.174 104.884 490.776 105.302C492.481 80.1453 492.763 28.3136 492.784 0.670898C473.673 1.31901 456.37 3.6812 442.645 6.81941C443.042 21.2526 444.538 51.1637 450.167 79.8638C461.253 81.7911 470.526 89.2401 479.084 96.186Z"
            fill="#C3C7F7" />
        <path
            d="M517.028 277.737L570.233 278.748C571.428 278.77 572.566 279.262 573.401 280.116C574.236 280.971 574.702 282.12 574.697 283.314L574.655 309.814L529.649 323.382"
            fill="#5C19BF" />
        <path
            d="M574.697 283.314C574.702 282.119 574.236 280.97 573.401 280.116C572.565 279.261 571.427 278.77 570.233 278.747L553.983 278.44L556.482 281.681L567.346 282.009L569.636 286.081L574.697 284.218V283.314Z"
            fill="#FD99E9" />
        <path
            d="M553.101 266.468L494.4 266.012L451.787 271.857C450.973 271.969 450.236 272.398 449.738 273.05C449.239 273.703 449.019 274.527 449.126 275.341L512.329 282.023L556.87 269.726C556.691 268.842 556.225 268.042 555.542 267.452C554.86 266.863 554.001 266.516 553.101 266.468Z"
            fill="#B57AF5" />
        <path
            d="M433.047 292.52C432.649 293.042 432.372 293.646 432.237 294.288C432.102 294.931 432.112 295.595 432.266 296.233L433.119 299.691C438.743 299.568 445.911 299.12 445.425 297.653C445.182 297.005 445.116 296.303 445.231 295.621C445.346 294.938 445.64 294.298 446.081 293.765L433.047 292.52Z"
            fill="white" />
        <path
            d="M520.955 266.221L509.443 273.742C509.443 273.742 512.347 274.689 512.347 278.351C512.347 281.409 544.974 271.056 555.689 267.572C554.995 266.912 554.087 266.52 553.131 266.468L520.955 266.221Z"
            fill="#5C19BF" />
        <path
            d="M535.192 171.144C535.255 171.097 535.311 171.041 535.358 170.978C542.49 167.092 549.216 162.504 555.437 157.283C602.476 118.285 595.739 20.8897 595.739 20.8897C595.739 15.2145 578.922 8.49462 553.527 4.36719C553.838 24.9915 554.128 122.477 532.6 157.283C528.459 163.977 525.223 168.88 521.646 172.419C521.42 172.628 521.181 172.846 520.938 173.101C517.667 176.402 513.395 183.079 512.9 195.7L506.449 202.318H518.388L524.839 195.7C525.462 179.757 532.122 173.281 535.192 171.144Z"
            fill="#4A51DE" />
        <path
            d="M518.384 202.305H488.439L483.992 210.248C483.547 211.045 483.313 211.941 483.313 212.854C483.313 213.766 483.547 214.662 483.992 215.459L488.439 223.407H518.337L522.827 215.459C523.274 214.663 523.508 213.766 523.508 212.854C523.508 211.941 523.274 211.044 522.827 210.248L518.384 202.305Z"
            fill="#A056F2" />
        <path
            d="M510.722 215.339L507.758 222.243L510.615 223.407H518.337L522.827 215.459C523.274 214.663 523.508 213.766 523.508 212.854C523.508 211.941 523.274 211.044 522.827 210.248L518.38 202.305H506.547L510.581 210.432C510.959 211.19 511.168 212.022 511.192 212.87C511.216 213.717 511.056 214.56 510.722 215.339Z"
            fill="#3E1689" />
        <path
            d="M553.101 266.468L520.96 266.221L518.725 267.675L512.756 273.84L531.858 273.248L555.224 267.201C554.6 266.761 553.864 266.506 553.101 266.468Z"
            fill="black" />
        <path
            d="M555.152 267.167C554.543 266.751 553.832 266.511 553.096 266.472L525.437 266.259L524.976 267.824H552.632L555.152 267.167Z"
            fill="#D939B7" />
        <path d="M525.675 169.797C525.675 169.797 523.219 176.909 527.705 179.723L531.867 173.711" fill="#00004F" />
        <path d="M521.424 195.688H512.896L506.547 202.305H515.075L521.424 195.688Z" fill="#2D35AD" />
        <path
            d="M556.87 269.726L512.329 282.031V278.373L450.226 272.535C449.822 272.871 449.51 273.303 449.317 273.791C449.125 274.279 449.059 274.808 449.126 275.328C449.126 275.379 449.126 275.435 449.147 275.49L451.705 289.442L512.679 296.025L556.482 281.664L556.955 270.711C556.967 270.38 556.938 270.049 556.87 269.726Z"
            fill="#A056F2" />
        <path d="M512.896 195.688H481.983L488.439 202.305H506.548L512.896 195.688Z" fill="#4A51DE" />
        <path d="M481.983 195.688L488.439 202.305H501.798L503.533 195.688H481.983Z" fill="#4A51DE" />
        <path
            d="M483.263 270.229L484.188 269.406L482.555 267.632L451.787 271.857C451.212 271.936 450.671 272.176 450.226 272.548C449.936 272.786 449.691 273.075 449.506 273.401L449.48 273.439C449.425 273.542 449.378 273.644 449.331 273.75C449.333 273.759 449.333 273.768 449.331 273.776C449.285 273.892 449.245 274.01 449.211 274.13C449.211 274.13 449.211 274.13 449.211 274.164C449.184 274.268 449.162 274.373 449.147 274.48V274.582C449.147 274.671 449.147 274.761 449.147 274.851C449.147 274.94 449.147 274.923 449.147 274.957C449.15 275.08 449.158 275.202 449.173 275.324C449.173 275.375 449.173 275.43 449.194 275.486L451.753 289.437L452.827 289.552C452.827 289.552 450.525 276.97 450.418 275.452C450.311 273.934 451.497 272.646 451.497 272.646L483.263 270.229Z"
            fill="#C3C8FC" />
        <path
            d="M556.87 269.725C556.657 268.683 556.045 267.764 555.164 267.167L512.338 278.36V282.018L512.679 296.033L556.482 281.664L556.955 270.71C556.967 270.38 556.938 270.049 556.87 269.725Z"
            fill="black" />
        <path
            d="M522.094 270.834L524.094 266.817C525.581 263.831 525.949 260.411 525.13 257.177L516.5 223.066C517.719 223.253 518.337 223.398 518.337 223.398C518.337 223.398 513.417 222.234 503.52 222.234H503.243C493.53 222.256 488.439 223.394 488.439 223.394L486.371 231.069L478.112 261.769C477.9 262.552 477.898 263.376 478.106 264.16C478.314 264.944 478.725 265.659 479.297 266.233L483.263 270.211C484.463 271.416 486.06 272.143 487.757 272.258L510.432 273.793"
            fill="#4A51DE" />
        <path d="M524.741 268.996L523.33 270.407L524.741 268.996Z" fill="#00004F" />
        <path d="M522.094 270.834L523.33 270.407L522.094 270.834Z" fill="#00004F" />
        <path d="M527.338 256.857L518.337 223.407L527.338 256.857Z" fill="#00004F" />
        <path
            d="M527.338 256.861L518.337 223.407C518.337 223.407 517.719 223.262 516.5 223.074L525.13 257.185C525.949 260.419 525.581 263.84 524.093 266.826L522.094 270.842L523.33 270.416L524.742 269C526.349 267.043 528.613 263.044 527.338 256.861Z"
            fill="#00004F" />
        <path
            d="M486.337 265.261C484.76 262.485 484.196 259.248 484.742 256.102L490.422 223.249H489.236C488.707 223.343 488.435 223.403 488.435 223.403L486.367 231.077L478.108 261.777C477.896 262.56 477.894 263.385 478.102 264.168C478.31 264.952 478.721 265.667 479.293 266.242L483.258 270.22C484.459 271.424 486.056 272.151 487.752 272.267L490.422 272.446L486.337 265.261Z"
            fill="#6168E5" />
        <path
            d="M501.755 222.759L505.882 257.833C506.249 260.945 505.776 264.099 504.514 266.967L501.755 273.222L512.747 273.84L516.111 234.288L512.896 225.471"
            fill="#3E1689" />
        <path d="M527.338 256.856L518.337 223.406L527.338 256.856Z" fill="#00004F" />
        <path d="M524.741 268.996L523.33 270.407L524.741 268.996Z" fill="#00004F" />
        <path d="M522.093 270.834L523.33 270.407L522.093 270.834Z" fill="#00004F" />
        <path
            d="M525.129 257.177C525.949 260.411 525.581 263.831 524.093 266.817L519.761 271.627L523.33 270.412L524.741 268.996C526.349 267.043 528.613 263.027 527.338 256.861L518.337 223.407C518.337 223.407 517.718 223.262 516.499 223.074L525.129 257.177Z"
            fill="#FE72DD" />
        <path
            d="M518.337 223.407L522.827 215.459C523.274 214.663 523.508 213.766 523.508 212.854C523.508 211.941 523.274 211.044 522.827 210.248L518.38 202.305H512.09L516.474 210.734C517.049 212.105 517.135 213.632 516.717 215.058L513.084 223.074"
            fill="black" />
        <path
            d="M481.676 51.3592L491.812 71.8813C491.961 72.1841 492.182 72.4453 492.457 72.6417C492.731 72.8381 493.05 72.9636 493.385 73.0069L514.892 75.9106C515.262 75.9606 515.612 76.1106 515.904 76.3445C516.195 76.5785 516.418 76.8876 516.547 77.2385C516.675 77.5893 516.706 77.9688 516.636 78.3358C516.565 78.7029 516.396 79.0438 516.146 79.3217L501.081 96.0574C500.867 96.2944 500.711 96.5781 500.625 96.8859C500.539 97.1938 500.526 97.5174 500.587 97.8312L504.919 120.238C504.993 120.622 504.957 121.02 504.813 121.384C504.67 121.748 504.426 122.064 504.109 122.294C503.793 122.524 503.418 122.66 503.027 122.685C502.637 122.709 502.247 122.622 501.904 122.434L483.365 112.2C483.051 112.028 482.698 111.94 482.34 111.945C481.982 111.95 481.631 112.049 481.322 112.23L464.003 122.464C463.674 122.658 463.298 122.757 462.916 122.75C462.534 122.742 462.162 122.629 461.841 122.423C461.52 122.216 461.262 121.924 461.097 121.58C460.932 121.236 460.867 120.852 460.907 120.472L463.282 98.2491C463.312 97.9506 463.276 97.6493 463.176 97.3664C463.077 97.0834 462.916 96.8258 462.706 96.6117L447.037 80.8354C446.773 80.5697 446.587 80.2373 446.498 79.8737C446.409 79.5101 446.421 79.1292 446.532 78.7719C446.644 78.4146 446.85 78.0943 447.13 77.8456C447.41 77.5969 447.752 77.4292 448.12 77.3603L468.16 73.6422C468.505 73.5786 468.827 73.4276 469.097 73.2036C469.366 72.9797 469.574 72.6902 469.699 72.3631L477.937 51.5341C478.083 51.1672 478.332 50.8501 478.653 50.6209C478.975 50.3917 479.356 50.2599 479.75 50.2415C480.145 50.2231 480.536 50.3187 480.878 50.5169C481.219 50.7151 481.497 51.0076 481.676 51.3592Z"
            fill="url(#paint4_linear_523_22221)" />
        <path d="M488.439 202.305L486.243 195.688H481.983L488.439 202.305Z" fill="#7E88EF" />
        <path
            d="M596.08 31.7246C593.791 33.4383 591.017 34.3818 588.158 34.4194C586.946 34.4203 585.739 34.2539 584.572 33.9248C584.572 37.6812 584.487 42.1242 584.265 47.066H577.371C577.371 47.066 574.569 139.618 535.474 159.705L541.017 159.419L531.781 166.267C528.733 168.399 522.072 179.749 521.446 195.688L512.116 202.305L516.499 210.735C517.075 212.105 517.161 213.632 516.743 215.058L513.11 223.074L518.359 223.407L522.827 215.459C523.274 214.664 523.508 213.766 523.508 212.854C523.508 211.942 523.274 211.044 522.827 210.249L518.38 202.305L524.831 195.688C525.458 179.749 532.118 173.281 535.167 171.145C535.229 171.097 535.285 171.041 535.333 170.978C542.465 167.093 549.191 162.505 555.412 157.283C592.878 126.238 596.26 58.1905 596.08 31.7246Z"
            fill="black" />
        <path
            d="M410.994 22.1907C410.994 22.1694 410.994 22.148 410.994 22.1096C410.841 21.7421 410.969 22.3873 410.994 22.1907Z"
            fill="#9CA3F3" />
        <path
            d="M524.835 195.688L518.384 202.305L522.827 210.249C523.274 211.044 523.508 211.941 523.508 212.854C523.508 213.766 523.274 214.663 522.827 215.459L518.333 223.407L521.458 215.404C522.311 212.589 522.311 211.464 521.42 209.861L517.655 202.318L523.125 195.7"
            fill="#FF4CD2" />
        <path
            d="M595.739 20.89C595.739 18.0716 591.586 14.9974 584.295 12.1064V12.81C590.524 15.492 594.038 18.2976 594.038 20.89C594.038 20.89 600.758 118.285 553.697 157.283C547.477 162.505 540.751 167.093 533.619 170.978C533.571 171.041 533.515 171.097 533.452 171.145C532.526 171.807 531.669 172.562 530.894 173.396C531.271 173.605 531.584 173.913 531.798 174.287C532.786 173.099 533.922 172.043 535.179 171.145C535.242 171.097 535.298 171.041 535.346 170.978C542.477 167.093 549.204 162.505 555.424 157.283C602.476 118.285 595.739 20.89 595.739 20.89Z"
            fill="#FF4CD2" />
        <path
            d="M577.357 47.4579H595.739C595.739 47.4579 598.967 41.7656 604.693 41.7656C610.419 41.7656 612.313 50.2123 612.313 50.2123L610.582 31.8777L594.605 27.375L578.713 37.0028"
            fill="black" />
        <path
            d="M606.915 25.1791C602.718 24.5469 598.455 24.491 594.243 25.0128C585.195 26.2706 579.745 30.7306 576.56 36.1841C575.984 37.1614 575.709 38.2874 575.772 39.4204L576.198 46.8864C576.203 47.0287 576.257 47.1647 576.352 47.271C576.447 47.3773 576.575 47.4471 576.716 47.4684C576.857 47.4896 577.001 47.461 577.122 47.3874C577.244 47.3138 577.337 47.2 577.383 47.0655C579.31 41.8892 584.205 32.142 593.791 32.142C606.842 32.142 612.066 39.1049 608.151 55.6402C604.941 69.1908 581.57 129.201 573.234 150.435C572.359 152.662 570.861 154.591 568.918 155.989C566.975 157.387 564.671 158.196 562.281 158.319L535.474 159.717C534.48 159.749 533.493 159.892 532.532 160.143C532.451 160.399 532.361 160.651 532.259 160.898C530.809 164.309 528.212 166.74 525.641 169.226C525.999 177.463 533.742 175.92 542.842 175.92C547.958 175.92 562.08 175.127 573.755 174.41C578.967 174.09 583.978 172.28 588.191 169.194C592.405 166.109 595.643 161.878 597.522 157.005L635.261 59.0726C635.261 59.0726 649.345 30.9481 606.915 25.1791Z"
            fill="#4A51DE" />
        <path
            d="M410.998 22.109C410.998 22.1474 410.998 22.1687 410.998 22.19C410.401 33.8176 407.532 120.916 451.407 157.282C454.068 159.485 456.68 161.499 459.244 163.324C416.81 129.87 415.032 47.1891 415.949 16.2803C412.738 18.2886 410.998 20.2883 410.998 22.109Z"
            fill="#C3C8FC" />
        <path
            d="M542.841 175.92C547.958 175.92 563.359 175.98 575.034 175.264C580.246 174.944 585.257 173.133 589.47 170.048C593.683 166.962 596.922 162.731 598.8 157.859L636.54 59.926C636.54 59.926 645.127 42.7852 628.69 32.5264C643.379 42.8535 635.261 59.0733 635.261 59.0733L597.521 157.006C595.643 161.879 592.404 166.109 588.191 169.195C583.978 172.28 578.967 174.091 573.754 174.411C562.08 175.127 547.962 175.92 542.841 175.92Z"
            fill="#FF4CD2" />
        <path
            d="M604.928 35.1016C609.43 38.5596 610.616 45.1856 608.138 55.6449C604.928 69.1955 581.557 129.205 573.222 150.439C572.346 152.667 570.848 154.595 568.905 155.994C566.962 157.392 564.658 158.201 562.268 158.323L538.441 159.551C538.33 159.249 538.578 159.85 538.441 159.551L563.547 159.176C565.937 159.053 568.242 158.245 570.184 156.846C572.127 155.448 573.625 153.52 574.501 151.292C582.837 130.058 606.207 70.0483 609.418 56.4977C612.112 45.1046 610.475 38.2568 604.928 35.1016Z"
            fill="#C3C7F7" />
        <path
            d="M606.915 25.1797C606.915 25.1797 625.249 30.4285 621.412 50.2129C617.574 69.9973 583.822 152.043 583.822 152.043C583.822 152.043 580.837 161.21 567.589 162.182C558.997 162.809 545.216 161.526 535.734 163.035C533.664 163.363 531.692 164.141 529.956 165.314C528.219 166.487 526.761 168.026 525.684 169.823C526.37 177.413 533.96 175.946 542.841 175.946C547.958 175.946 562.08 175.153 573.755 174.437C578.967 174.116 583.978 172.306 588.191 169.22C592.404 166.135 595.643 161.904 597.521 157.031L635.261 59.0988C635.261 59.0988 649.344 30.9487 606.915 25.1797Z"
            fill="#1D0066" />
        <path
            d="M606.915 25.1789C604.87 24.897 602.812 24.729 600.749 24.6758L600.097 25.1789L617.374 44.652L637.303 51.8409C638.437 43.1085 635.517 29.0676 606.915 25.1789Z"
            fill="#4A51DE" />
        <path
            d="M556.87 269.726L554.58 270.361V282.304L556.482 281.681L556.955 270.728C556.968 270.391 556.94 270.055 556.87 269.726Z"
            fill="#D939B7" />
        <path
            d="M573.166 279.898L516.431 300.493L446.077 293.765L433.059 292.52C432.662 293.042 432.385 293.646 432.25 294.288C432.115 294.931 432.125 295.595 432.279 296.233L438.807 323.266L516.124 333.009L516.196 324.482"
            fill="#A056F2" />
        <path
            d="M554.58 270.339L556.87 269.704C556.657 268.661 556.045 267.743 555.164 267.146L552.648 267.802C553.203 267.956 553.693 268.287 554.042 268.745C554.39 269.204 554.579 269.763 554.58 270.339Z"
            fill="#FE72DD" />
        <path
            d="M413.301 24.48C415.134 14.4855 454.285 1.77916 505.375 1.77916C544.854 1.77916 578.547 8.63547 591.829 15.8499C580.364 8.17497 545.046 0.5 503.243 0.5C452.153 0.5 410.998 13.2063 410.998 22.1093C410.998 22.1477 410.998 22.169 410.998 22.1903C410.61 27.9893 410.523 33.8045 410.738 39.6125"
            fill="white" />
        <path
            d="M492.673 202.305L490.967 208.389C490.181 211.283 490.23 214.34 491.108 217.207L492.873 222.75L495.674 222.507L497.009 217.028C497.62 214.151 497.554 211.172 496.817 208.325L495.223 202.326"
            fill="#B57AF5" />
        <path
            d="M574.697 284.257V283.314C574.699 282.67 574.564 282.032 574.3 281.444C574.036 280.855 573.65 280.33 573.167 279.903L516.431 300.494L516.367 305.307L516.342 308.527L516.137 324.478H516.21L516.137 333.006L574.68 309.81L574.753 284.227L574.697 284.257Z"
            fill="black" />
        <path d="M522.183 292.908L512.67 296.025L518.623 296.699L516.418 300.494L522.362 298.332" fill="#5C19BF" />
        <path d="M512.67 296.025C512.67 296.025 516.508 295.671 516.418 300.494L525.91 297.049" fill="#5C19BF" />
        <path
            d="M574.671 282.832C574.65 282.637 574.616 282.443 574.569 282.252C574.384 281.495 574.013 280.796 573.49 280.218C573.388 280.107 573.282 280.001 573.166 279.898L567.346 282.009C567.346 282.009 569.636 282.192 569.636 286.081L574.697 284.218C574.714 283.934 574.714 283.649 574.697 283.365C574.7 283.187 574.691 283.009 574.671 282.832Z"
            fill="#D939B7" />
        <path d="M569.636 286.082L574.697 284.219L574.654 309.815L569.956 311.665L569.636 286.082Z" fill="#D939B7" />
        <path d="M437.835 301.12L442.248 319.404L444.184 319.647L439.971 301.35" fill="black" />
        <path
            d="M402.126 40.9902C401.166 41.2674 400.164 41.5872 399.107 41.9667C385.629 46.8104 386.179 57.1034 388.554 69.426C385.39 48.533 397.533 42.5039 402.126 40.9902Z"
            fill="white" />
        <path
            d="M576.876 41.6083C576.966 40.9218 577.004 40.2268 577.055 39.536C577.125 38.6601 577.394 37.8116 577.84 37.0545C581.046 31.601 586.474 27.141 595.522 25.8831C599.734 25.3613 603.997 25.4173 608.194 26.0494C617.494 27.3286 624.077 29.6524 628.691 32.5305C624.039 29.2644 617.114 26.5824 606.915 25.1966C602.718 24.5645 598.455 24.5086 594.243 25.0303C585.182 26.2882 579.746 30.761 576.548 36.2273C575.977 37.197 575.707 38.3145 575.772 39.438L576.198 46.904L576.876 41.6083Z"
            fill="#7C89F7" />
        <path
            d="M621.416 50.2126C621.224 51.2019 620.956 52.3446 620.623 53.6237L635.269 59.0474C636.934 55.3549 637.681 51.3142 637.444 47.2706L621.612 41.1221C622.109 44.1384 622.042 47.2205 621.416 50.2126Z"
            fill="#3E1689" />
        <path
            d="M606.915 25.1797C606.915 25.1797 613.281 27.0046 617.728 32.5477L634.31 38.112C630.481 32.4496 622.525 27.3031 606.915 25.1797Z"
            fill="#7C89F7" />
        <path
            d="M525.129 257.177L516.499 223.066C517.719 223.253 518.337 223.398 518.337 223.398C516.764 223.073 515.174 222.839 513.574 222.699H513.549L513.054 222.648H512.952L512.495 222.605H512.38L511.911 222.567H511.741L511.314 222.533H511.131L510.67 222.499H510.474L509.997 222.469H509.818L509.293 222.443H509.14C507.494 222.362 505.631 222.307 503.541 222.307H503.264C493.551 222.328 488.46 223.466 488.46 223.466C488.46 223.466 498.74 222.806 508.645 225.722L509.89 230.643C512.905 243.673 517.288 268.092 509.464 273.801L510.47 273.87C511.241 273.92 512.014 273.93 512.785 273.9C513.204 273.88 513.618 273.799 514.013 273.661L519.13 271.913C521.047 271.263 522.631 269.884 523.539 268.075L524.127 266.89C525.622 263.879 525.977 260.429 525.129 257.177Z"
            fill="black" />
        <path d="M488.439 202.305H506.548H517.659L518.589 201.175H487.339L488.439 202.305Z" fill="#00004F" />
        <path d="M467.162 281.924L451.156 286.456L451.702 289.437L490.123 293.59L472.066 282.862L467.162 281.924Z"
            fill="#2D35AD" />
        <path
            d="M489.291 297.897C489.291 297.897 488.2 294.259 490.174 293.633L490.123 293.607L451.701 289.458L451.155 286.474H451.125L452.545 294.392L489.291 297.897Z"
            fill="#6168E5" />
        <path d="M457.368 321.31L458.157 325.706L497.214 330.626L496.434 326.286" fill="#2D35AD" />
        <path d="M492.003 306.795L490.682 302.565L490.677 302.54L453.283 298.502L454.063 302.872" fill="#2D35AD" />
        <path d="M449.714 278.594L451.701 289.437L490.123 293.59L472.066 282.862L449.714 278.594Z" fill="#2D35AD" />
        <path
            d="M578.59 161.423L532.86 170.569C531.742 169.921 530.804 169.003 530.131 167.9C529.218 169.06 528.406 170.297 527.705 171.596L525.807 170.518L525.684 169.793C525.684 169.793 517.881 184.567 521.42 195.696L523.505 193.219L526.131 179.404C526.743 179.916 527.271 180.52 527.696 181.194L527.722 181.13C528.355 179.611 529.426 178.313 530.797 177.402C532.169 176.491 533.78 176.008 535.427 176.014H535.469C537.716 176.014 540.219 175.899 542.837 175.899C547.954 175.899 562.076 175.106 573.75 174.389C578.126 174.123 582.373 172.805 586.131 170.548C589.889 168.291 593.048 165.161 595.338 161.423H578.59Z"
            fill="black" />
        <path
            d="M591.902 132.101L583.374 153.488C581.378 158.507 577.979 162.846 573.584 165.986C569.189 169.126 563.983 170.934 558.588 171.196L535.367 172.326C528.882 172.637 523.143 176.863 521.194 183.054C521.126 183.267 521.062 183.48 520.998 183.706C518.55 192.558 518.584 181.186 518.584 181.186L525.633 169.213L531.858 162.161L542.833 161.236L568.962 159.59L579.195 154.2"
            fill="#4A51DE" />
        <path
            d="M500.169 330.997L489.291 297.896L452.545 294.383L453.283 298.502L466.518 299.93L463.448 326.37L500.169 330.997Z"
            fill="#2D35AD" />
        <path
            d="M388.715 281.033L173.449 311.583L172.136 312.01C170.744 312.475 169.552 313.399 168.754 314.631C167.956 315.863 167.6 317.329 167.744 318.789L168.213 323.479C168.411 325.423 169.15 327.273 170.345 328.818L174.716 334.497C175.972 336.134 177.75 337.293 179.756 337.78L193.319 341.089C194.054 341.269 194.801 341.4 195.553 341.482L213.214 343.362V345.127C213.215 346.164 213.463 347.185 213.938 348.107C214.414 349.028 215.103 349.822 215.947 350.423C228.193 359.138 281.803 391.842 378.542 377.341C489.663 360.686 434.497 279.105 388.715 281.033Z"
            fill="black" />
        <path
            d="M407.276 261.402C407.276 261.402 394.331 296.962 356.016 317.31C317.7 337.657 298.581 333.184 298.581 333.184L296.381 333.61C296.381 333.61 258.659 340.386 224.496 328.353L219 326.72C219 326.72 211.871 326.294 208.157 324.938C204.443 323.582 152.829 308.309 133.002 283.646C113.175 258.984 246.814 287.974 246.814 287.974L328.335 234.151L392.975 214.405L422.421 234.445L418.452 252.281"
            fill="url(#paint5_linear_523_22221)" />
        <path
            d="M204.145 310.295C203.285 310.36 202.421 310.282 201.586 310.065C199.518 309.498 198.227 308.202 196.999 306.539C194.76 303.507 192.875 300.045 192.044 296.344C191.927 295.82 191.857 295.286 191.835 294.749C190.21 289.377 190.556 283.488 190.884 277.754C156.986 272.709 122.193 270.198 133.002 283.638C152.829 308.296 204.443 323.594 208.157 324.929C210.344 325.718 213.7 326.208 216.113 326.455C211.158 321.856 207.099 316.377 204.145 310.295Z"
            fill="#A056F2" />
        <path d="M202.149 311.732C202.149 311.732 208.046 321.288 216.114 326.456L205.057 311.958" fill="#B57AF5" />
        <path
            d="M271.732 297.014C268.065 298.037 263.204 295.475 262.513 291.59C261.758 287.326 261.234 283.063 260.765 278.777L246.814 287.987C246.814 287.987 228.291 283.971 206.059 280.197C205.995 281.361 205.944 282.525 205.931 283.694C205.919 284.862 205.931 285.992 206.017 287.135C206.017 287.301 206.017 287.744 206.038 288.115C206.109 288.303 206.162 288.497 206.196 288.695C206.308 289.499 206.481 290.292 206.712 291.07C206.733 291.07 206.81 291.16 206.985 291.437C207.287 291.906 207.547 292.379 207.867 292.844C208.691 294.044 209.074 295.491 208.95 296.941C209.377 297.577 209.803 298.221 210.255 298.813C212.813 302.267 210.681 307.252 207.509 309.311C212.199 321.86 219 326.733 219 326.733L224.496 328.366C258.659 340.399 296.381 333.624 296.381 333.624C278.264 322.546 273.147 306.313 271.732 297.014Z"
            fill="#5F2BAC" />
        <path
            d="M270.798 303.947C270.798 303.947 271.949 320.013 296.381 333.602L289.346 327.582C289.346 327.582 277.104 314.547 276.708 310.206C276.445 307.541 275.585 304.969 274.192 302.681"
            fill="#7F41CF" />
        <path
            d="M204.963 300.604H200.785C200.785 300.604 202.917 314.09 216.113 326.455C217.793 326.639 219 326.711 219 326.711C219 326.711 209.116 319.65 204.963 300.604Z"
            fill="#3E1689" />
        <path
            d="M392.975 214.405L328.334 234.151L275.198 269.226C275.492 272.479 275.778 275.733 276.127 278.982C276.227 279.903 276.331 280.826 276.439 281.753C276.46 281.928 276.601 282.973 276.63 283.237C276.835 284.658 277.062 286.08 277.313 287.501C277.833 290.422 277.112 293.142 275.228 295.001C277.146 322.06 298.581 333.197 298.581 333.197C298.581 333.197 317.704 337.67 356.015 317.322C394.326 296.975 407.276 261.402 407.276 261.402L418.451 252.303L422.421 234.467L392.975 214.405Z"
            fill="#3E1689" />
        <path
            d="M388.285 210.142L323.644 229.888L242.123 249.591L241.305 249.625L128.738 279.869C138.055 291.155 153.985 300.459 168.776 307.32C168.776 307.32 228.726 330.95 314.733 313.877C393.687 298.208 401.289 231.239 401.289 231.239L388.31 210.142H388.285Z"
            fill="black" />
        <path
            d="M275.684 282.648L271.22 289.688C271.22 289.688 269.646 317.288 296.376 333.606L298.577 333.18C298.577 333.18 270.704 318.704 275.684 282.648Z"
            fill="#1D0066" />
        <path
            d="M332.53 265.747L328.394 268.958C328.394 268.958 319.67 298.583 342.038 301.628C341.42 301.478 340.802 301.312 340.179 301.12C325.563 296.639 326.262 281.374 332.53 265.747Z"
            fill="#BF0F92" />
        <path
            d="M273.041 303.106L270.798 303.959C270.798 303.959 271.28 310.632 278.157 319.015L280.426 318.823C277.087 314.043 274.59 308.727 273.041 303.106Z"
            fill="#3E1689" />
        <path
            d="M204.976 311.937L202.149 311.72C203.18 313.326 204.295 314.878 205.488 316.367C206.264 316.495 207.051 316.62 207.85 316.743C206.809 315.192 205.849 313.588 204.976 311.937Z"
            fill="#5F2BAC" />
        <path
            d="M200.785 300.604C200.785 300.604 201.544 305.426 204.976 311.95C205.849 313.601 206.808 315.205 207.85 316.755C208.959 316.923 210.088 317.088 211.24 317.25C208.29 312.069 206.172 306.458 204.963 300.621L200.785 300.604Z"
            fill="#1D0066" />
        <path
            d="M401.456 219.735L360.041 226.903C345.876 235.503 309.701 291.774 340.167 301.12C370.632 310.466 394.288 271.699 403.413 252.708C412.537 233.717 401.456 219.735 401.456 219.735Z"
            fill="#5F2BAC" />
        <path
            d="M342.038 301.627C351.189 303.874 365.212 302.011 376.222 291.292L367.694 282.9L357.392 277.43L336.5 297.316L342.038 301.627Z"
            fill="#A056F2" />
        <path
            d="M418.69 251.228L409.924 233.056C409.924 233.056 411.983 246.299 407.016 257.155C402.048 268.011 386.502 304.608 338.393 325.582C344.408 323.136 350.29 320.376 356.016 317.314C394.331 296.963 407.276 261.402 407.276 261.402L418.452 252.303L418.69 251.228Z"
            fill="#FF4CD2" />
        <path
            d="M396.787 229.171L371.574 224.907L360.062 226.907C350.464 232.731 330.786 260.408 328.535 280.576C328.176 283.988 328.737 287.433 330.159 290.554C331.449 293.456 333.678 295.839 336.487 297.321C339.31 298.736 342.576 298.988 345.727 298.792C363.268 297.713 375.842 282.828 384.954 269.171C388.898 263.224 392.428 257.014 395.52 250.584C399.938 241.37 398.548 233.733 396.787 229.171Z"
            fill="black" />
        <path
            d="M409.924 254.626C409.924 254.626 414.972 239.703 409.924 233.064C404.875 226.425 422.421 234.466 422.421 234.466L419.01 253.978L412.776 257.163"
            fill="black" />
        <path
            d="M275.684 282.648L271.22 289.688C271.22 289.688 270.896 295.372 273.04 303.106C274.591 308.723 277.088 314.034 280.425 318.81C281.338 318.729 282.259 318.64 283.18 318.55C277.748 310.428 273.471 298.672 275.684 282.648Z"
            fill="#110044" />
        <path
            d="M302.516 126.638C302.516 126.638 281.564 118.332 263.033 113.352C261.754 113.062 260.436 112.733 259.153 112.354C256.595 111.723 254.104 111.177 251.772 110.746C240.899 109.569 246.758 118.093 246.758 118.093L262.577 137.34L302.516 126.638Z"
            fill="#FF4CD2" />
        <path
            d="M422.421 234.467L392.975 214.427L328.334 234.173L246.813 287.966C246.813 287.966 113.171 258.971 133.002 283.638C137.795 289.607 144.446 295.01 151.827 299.811C166.324 306.1 184.139 310.513 205.057 311.954C272.576 316.628 311.825 289.01 335.77 265.389C359.716 241.767 378.345 239.784 389.069 238.287C396.744 237.213 412.38 237.767 420.592 242.709L422.421 234.467Z"
            fill="black" />
        <path
            d="M403.413 194.003C357.179 181.032 182.544 208.969 182.544 208.969C182.544 208.969 103.048 203.315 98.3921 233.273C93.736 263.231 129.011 298.775 196.529 303.41C264.048 308.044 303.297 280.466 327.243 256.844C351.189 233.222 369.818 231.239 380.541 229.743C391.265 228.246 417.385 229.909 417.385 242.214C417.385 254.52 409.928 254.61 409.928 254.61L407.276 261.402C451.65 251.753 449.646 206.974 403.413 194.003Z"
            fill="#7C89F7" />
        <path
            d="M114.829 217.011L117.034 221.658C117.034 221.658 107.061 234.544 129.314 248.273C182.352 280.999 235.949 261.918 235.949 261.918L126.598 217.011H114.829Z"
            fill="#C3C8FC" />
        <path
            d="M327.243 256.861C350.626 233.793 368.935 231.358 379.761 229.866L372.619 190.638C368.743 190.557 362.722 185.522 358.505 185.556L268.7 244.35C268.7 244.35 287.294 254.11 276.306 291.577C298.513 282.248 314.907 269.025 327.243 256.861Z"
            fill="#6168E5" />
        <path
            d="M430.552 209.498C424.549 202.957 415.492 197.393 403.413 194.003C393.695 191.278 378.303 190.357 360.058 190.592L361.409 193.397C361.409 193.397 380.081 216.849 363.435 233.324C370.359 231.064 376.12 230.361 380.537 229.747C391.256 228.25 417.381 229.913 417.381 242.219C417.381 250.32 414.145 253.13 411.936 254.098C416.456 254.644 420.434 255.049 423.402 255.326C425.402 254.162 427.294 252.823 429.056 251.322L430.552 209.498Z"
            fill="#4A51DE" />
        <path
            d="M403.413 194.002C403.413 194.002 370.329 182.857 336.802 203.779C303.275 224.702 266.994 264.28 208.234 265.542C153.447 266.74 129.147 240.914 123.668 232.326C123.082 231.407 122.754 230.346 122.717 229.256C122.496 222.511 122.078 194.928 129.582 185.88C138.153 175.544 154.036 169.745 154.036 169.745C154.036 169.745 164.12 138.487 174.707 131.174C185.294 123.862 197.646 121.094 207.227 123.614C207.227 123.614 224.62 110.759 241.006 109.748C257.392 108.738 302.516 126.637 302.516 126.637C302.516 126.637 334.785 118.319 348.396 131.174C362.006 144.03 370.832 160.672 370.832 160.672C370.832 160.672 389.282 165.46 394.68 175.544C397.898 181.547 400.812 187.707 403.413 194.002Z"
            fill="black" />
        <path
            d="M302.517 126.638C302.517 126.638 257.392 108.73 241.006 109.749C224.62 110.768 207.228 123.615 207.228 123.615L250.813 140.491L302.517 126.638Z"
            fill="#9933CC" />
        <path
            d="M403.413 194.003C400.813 187.708 397.898 181.547 394.68 175.545C389.563 166.015 372.819 161.214 370.999 160.715C370.517 160.74 370.035 160.775 369.553 160.834L315.99 167.392C313.499 167.7 311.118 168.601 309.047 170.019C306.977 171.438 305.277 173.333 304.09 175.545L296.696 189.33C294.928 192.631 294.09 196.35 294.273 200.09C294.455 203.831 295.651 207.451 297.732 210.564L307.215 224.745C317.598 217.126 327.315 209.703 336.811 203.78C370.329 182.857 403.413 194.003 403.413 194.003Z"
            fill="#B3269C" />
        <path
            d="M134.418 243.857L152.927 183.203L154.036 169.746C154.036 169.746 138.153 175.545 129.582 185.881C122.078 194.929 122.496 222.512 122.717 229.257C122.754 230.347 123.082 231.407 123.668 232.327C125.357 234.971 128.845 239.243 134.418 243.857Z"
            fill="#D939B7" />
        <path d="M153.076 181.382L135.914 188.694L145.069 208.956L152.927 183.203L153.076 181.382Z" fill="#B3269C" />
        <path opacity="0.7"
            d="M337.941 175.438L305.437 173.446C304.93 174.108 304.477 174.81 304.082 175.544L296.688 189.329C295.17 192.164 294.335 195.314 294.25 198.528C294.165 201.742 294.832 204.932 296.198 207.843L335.336 186.63L337.941 175.438Z"
            fill="#D939B7" />
        <path
            d="M335.336 186.631L294.769 203.686C295.328 206.137 296.329 208.465 297.724 210.555L307.207 224.737C317.589 217.118 327.307 209.694 336.802 203.772C338.721 202.569 340.64 201.482 342.559 200.484L335.336 186.631Z"
            fill="#3E1689" />
        <path
            d="M129.425 284.102C126.828 282.111 121.775 276.325 120.398 260.911C118.518 239.877 130.977 240.841 130.977 240.841L137.901 226.659L126.947 212.452C112.352 215.863 100.149 222.067 98.4093 233.26C95.6975 250.695 106.545 270.057 129.425 284.102Z"
            fill="#C3C8FC" />
        <path
            d="M293.247 213.489C292.087 211.866 290.394 210.701 288.464 210.197C286.533 209.692 284.487 209.881 282.681 210.73L238.657 231.508C236.278 232.629 234.176 234.263 232.502 236.291C230.828 238.32 229.623 240.694 228.973 243.242L223.597 264.302C224.287 264.203 224.97 264.101 225.652 263.995C257.102 259.065 281.718 243.242 303.301 227.594L293.247 213.489Z"
            fill="#6520A7" />
        <path d="M138.204 240.487L140.762 248.563L138.204 240.487Z" fill="#8C1381" />
        <path
            d="M149.205 209.178L142.566 189.658C142.067 188.196 141.053 186.967 139.713 186.199C138.374 185.432 136.8 185.179 135.287 185.488L128.891 186.788C122.069 196.625 122.496 222.741 122.696 229.278C122.732 230.368 123.06 231.428 123.647 232.348C126.175 236.313 132.72 243.945 144.42 250.9L149.205 209.178Z"
            fill="#FF4CD2" />
        <path
            d="M223.746 228.617L205.219 188.665C204.322 186.73 202.795 185.157 200.889 184.201C198.982 183.245 196.808 182.964 194.721 183.403L158.351 191.078C155.928 191.585 153.672 192.695 151.794 194.307C149.915 195.919 148.475 197.979 147.606 200.297C147.734 199.96 147.874 199.627 148.032 199.303L174.199 196.178C176.249 195.933 178.328 196.22 180.235 197.01C182.142 197.801 183.814 199.069 185.089 200.693L206.873 228.447C208.282 230.241 209.226 232.355 209.619 234.602C210.013 236.849 209.844 239.158 209.129 241.324L201.126 265.542C203.432 265.589 205.79 265.594 208.217 265.542C211.231 265.478 214.186 265.308 217.085 265.048L224.424 236.092C225.061 233.596 224.822 230.957 223.746 228.617Z"
            fill="#D939B7" />
        <path
            d="M201.143 265.542L209.146 241.324C209.862 239.158 210.03 236.848 209.636 234.602C209.243 232.355 208.3 230.241 206.891 228.447L185.098 200.693C183.823 199.069 182.151 197.801 180.244 197.01C178.337 196.22 176.258 195.933 174.208 196.178L148.032 199.303C147.883 199.627 147.742 199.96 147.606 200.297L138.609 224.451C137.05 228.617 136.654 233.129 137.462 237.503C137.646 238.513 137.894 239.51 138.204 240.488L140.762 248.564C153.251 256.887 172.763 264.928 201.143 265.542Z"
            fill="#FE72DD" />
        <path
            d="M235.058 228.528L277.462 208.39C280.676 206.865 283.336 204.378 285.073 201.273L301.604 171.763C302.412 170.319 302.913 168.724 303.075 167.077C303.237 165.431 303.057 163.768 302.547 162.195L295.699 141.071C294.74 138.117 292.784 135.587 290.166 133.915C287.548 132.243 284.431 131.532 281.347 131.904L245.104 136.287C242.489 136.603 240.091 137.894 238.388 139.903L213.824 168.919C211.289 171.914 209.69 175.587 209.223 179.483C208.757 183.379 209.445 187.326 211.202 190.835L229.046 226.464C229.577 227.528 230.505 228.34 231.63 228.726C232.754 229.113 233.985 229.041 235.058 228.528Z"
            fill="#BA39D1" />
        <path
            d="M296.377 143.169C294.62 142.363 292.727 141.681 290.774 141.834C289.111 141.962 287.653 142.841 286.429 143.924C284.887 145.388 283.445 146.955 282.114 148.614C280.916 150 279.705 151.364 278.383 152.63C277.168 153.794 275.91 154.907 274.648 156.041C271.625 158.702 268.568 161.333 265.673 164.143C262.982 166.744 260.287 169.494 258.334 172.705C257.552 173.909 256.992 175.243 256.68 176.645C256.411 178.064 256.68 179.57 257.077 180.943C258.147 184.831 260.407 188.349 262.688 191.628C265.285 195.354 268.15 198.876 270.913 202.484C272.645 204.65 274.26 206.909 275.748 209.25L277.454 208.436C280.668 206.911 283.328 204.424 285.065 201.32L301.596 171.809C302.404 170.365 302.904 168.77 303.066 167.124C303.228 165.477 303.049 163.815 302.538 162.241L296.377 143.169Z"
            fill="#6520A7" />
        <path
            d="M287.371 156.945L303.088 166.91C303.223 165.317 303.039 163.714 302.547 162.194L295.699 141.071C295.087 139.185 294.064 137.458 292.704 136.016C291.343 134.573 289.679 133.451 287.832 132.73L266.939 137.34L287.371 156.945Z"
            fill="#FF4CD2" />
        <path
            d="M208.054 145.595L198.746 157.5C196.837 159.932 194.139 161.62 191.118 162.276L165.889 167.819C164.795 168.061 163.649 167.868 162.694 167.28C161.739 166.693 161.05 165.758 160.772 164.672L158.794 156.942L167.16 138.658C168.756 135.165 171.1 132.066 174.026 129.578C176.952 127.09 180.388 125.274 184.092 124.259L193.898 121.573C197.301 120.639 200.92 120.895 204.157 122.298C205.102 122.706 205.936 123.333 206.59 124.127C207.245 124.921 207.701 125.859 207.922 126.864L210.076 136.624C210.419 138.176 210.416 139.785 210.066 141.335C209.717 142.886 209.03 144.341 208.054 145.595Z"
            fill="#FF4CD2" />
        <path
            d="M348.396 131.174C334.785 118.319 302.517 126.638 302.517 126.638C301.547 126.898 300.641 127.356 299.857 127.983C299.073 128.611 298.427 129.394 297.96 130.283C297.493 131.172 297.215 132.148 297.143 133.15C297.072 134.151 297.209 135.157 297.545 136.103L305.928 159.674C306.428 161.079 307.386 162.275 308.648 163.069C309.91 163.864 311.403 164.21 312.886 164.053L369.37 158.084C366.342 152.924 358.753 140.956 348.396 131.174Z"
            fill="#B3269C" />
        <path
            d="M225.379 136.918L207.228 123.615C204.563 122.943 201.857 122.45 199.126 122.14C195.236 122.613 191.403 123.478 187.686 124.719C183.068 126.23 178.695 128.405 174.703 131.175C164.116 138.487 154.032 169.742 154.032 169.746L152.97 178.99C152.845 180.084 152.986 181.192 153.379 182.22C153.773 183.248 154.408 184.166 155.232 184.897C156.055 185.628 157.042 186.15 158.11 186.419C159.177 186.688 160.294 186.697 161.365 186.443L198.265 177.689C201.471 176.933 204.327 175.113 206.366 172.526L226.718 146.734C227.29 146.007 227.71 145.174 227.953 144.282C228.196 143.39 228.256 142.458 228.131 141.542C228.007 140.626 227.698 139.744 227.226 138.95C226.753 138.156 226.125 137.465 225.379 136.918Z"
            fill="#A815CC" />
        <path
            d="M202.61 170.117C201.788 167.367 200.716 164.698 199.407 162.143C198.2 159.679 196.647 157.4 194.794 155.376C193.34 153.858 191.511 152.43 189.37 152.127C188.643 152.059 187.91 152.059 187.183 152.127C186.347 152.164 185.513 152.235 184.68 152.341C183.064 152.547 181.467 152.889 179.909 153.364C177.051 154.24 174.365 155.599 171.965 157.38C167.104 160.988 163.676 166.249 161.531 171.848C160.052 175.707 159.067 179.766 157.933 183.731C157.702 184.541 157.469 185.349 157.233 186.153C158.544 186.677 159.984 186.781 161.357 186.452L198.256 177.698C200.264 177.223 202.148 176.326 203.782 175.067C203.506 173.392 203.114 171.738 202.61 170.117Z"
            fill="#BA39D1" />
        <path
            d="M210.008 167.908L197.28 154.383L190.56 158.992L194.342 178.606L198.269 177.672C201.476 176.916 204.331 175.096 206.371 172.509L210.008 167.908Z"
            fill="#9933CC" />
        <path
            d="M225.379 136.918L207.227 123.615C204.563 122.943 201.856 122.45 199.126 122.14C195.236 122.613 191.403 123.478 187.686 124.719C185.866 125.31 184.084 126.009 182.348 126.813C186.521 132.08 190.529 137.474 194.372 142.994C195.097 144.043 195.847 145.084 196.606 146.137L210.088 136.62L227.975 140.781C227.589 139.229 226.67 137.862 225.379 136.918Z"
            fill="#FF4CD2" />
        <path
            d="M208.054 145.595L198.746 157.5C196.837 159.932 194.139 161.62 191.118 162.276L165.889 167.819C164.795 168.061 163.649 167.868 162.694 167.28C161.739 166.693 161.05 165.758 160.772 164.672L158.794 156.942L167.16 138.658C168.756 135.165 171.1 132.066 174.026 129.578C176.952 127.09 180.388 125.274 184.092 124.259L193.898 121.573C197.301 120.639 200.92 120.895 204.157 122.298C205.102 122.706 205.936 123.333 206.59 124.127C207.245 124.921 207.701 125.859 207.922 126.864L210.076 136.624C210.419 138.176 210.416 139.785 210.066 141.335C209.717 142.886 209.03 144.341 208.054 145.595Z"
            fill="#FF4CD2" />
        <path
            d="M179.985 149.117C176.429 144.06 173.475 140.103 170.051 135.839C161.344 147.083 154.036 169.737 154.036 169.741L152.974 178.985C152.849 180.079 152.99 181.187 153.383 182.215C153.777 183.243 154.412 184.161 155.236 184.892C156.059 185.623 157.046 186.145 158.114 186.414C159.181 186.684 160.298 186.692 161.369 186.438L165.889 167.818L184.087 154.975C182.723 153.019 181.356 151.067 179.985 149.117Z"
            fill="#FF4CD2" />
        <path
            d="M235.058 228.528L246.447 223.121L245.743 199.371L242.081 196.097L232.615 228.929C233.451 229.027 234.297 228.889 235.058 228.528Z"
            fill="#722ABC" />
        <path
            d="M133.821 237.503L125.57 232.557L122.632 225.078C122.632 226.835 122.683 228.268 122.718 229.257C122.754 230.347 123.082 231.407 123.668 232.327C126.197 236.292 132.742 243.924 144.442 250.879L146.838 229.879L133.821 237.503Z"
            fill="#722ABC" />
        <path
            d="M152.927 183.202L153.324 178.418L140.532 186.733L128.653 238.509L129.156 239.033C133.313 243.231 137.96 246.913 142.997 250L152.927 183.202Z"
            fill="#722ABC" />
        <path
            d="M223.746 228.617L205.219 188.665C204.322 186.73 202.795 185.157 200.889 184.201C198.982 183.245 196.808 182.964 194.721 183.403L158.351 191.078C156.108 191.549 154.007 192.538 152.215 193.966C150.424 195.395 148.991 197.222 148.032 199.303C147.883 199.627 147.742 199.96 147.606 200.297L138.609 224.451C138.325 225.176 138.089 225.91 137.901 226.652C137.304 228.868 137.017 231.157 137.048 233.452C137.09 235.841 137.477 238.21 138.195 240.488L140.754 248.564C153.238 256.887 172.733 264.928 201.13 265.542C203.437 265.589 205.795 265.594 208.221 265.542C211.235 265.478 214.19 265.308 217.09 265.048L224.428 236.092C225.064 233.596 224.823 230.957 223.746 228.617Z"
            fill="url(#paint6_linear_523_22221)" />
        <path
            d="M223.307 227.675C209.854 229.969 196.018 228.617 182.429 228.617H137.462C136.918 231.554 136.918 234.566 137.462 237.503C137.646 238.513 137.894 239.51 138.204 240.488L140.762 248.564C153.247 256.887 172.741 264.928 201.139 265.542C203.445 265.589 205.803 265.593 208.229 265.542C211.244 265.478 214.199 265.308 217.098 265.048L224.436 236.092C225.069 233.594 224.824 230.955 223.741 228.617L223.307 227.675Z"
            fill="#5C1091" />
        <path
            d="M195.847 223.121L165.041 243.856L168.174 260.886C177.491 263.5 188.419 265.265 201.143 265.542C203.45 265.589 205.807 265.594 208.234 265.542C211.248 265.478 214.203 265.308 217.102 265.048L223.771 238.735L195.847 223.121Z"
            fill="#5C1091" />
        <path d="M189.758 238.564L217.103 265.047L222.786 242.623L196.917 226.762" fill="#A815CC" />
        <path
            d="M220.139 220.844L190.56 218.106L193.199 224.391L222.786 242.624L224.441 236.091C225.073 233.594 224.828 230.955 223.746 228.617L220.139 220.844Z"
            fill="url(#paint7_linear_523_22221)" />
        <path
            d="M184.646 185.147L154.765 189.381C153.059 189.622 151.444 190.303 150.079 191.355C148.715 192.407 147.646 193.796 146.979 195.384L137.47 218.06C134.732 224.594 134.66 231.94 137.27 238.526C138.191 240.857 139.913 242.783 142.127 243.958C147.998 247.067 160.747 252.772 176.4 253.531C178.539 253.634 180.665 253.139 182.539 252.1C184.412 251.061 185.958 249.52 187.004 247.651L197.48 228.89C199.061 226.074 199.518 222.764 198.759 219.624L191.464 189.722C191.097 188.25 190.196 186.966 188.936 186.121C187.676 185.276 186.147 184.928 184.646 185.147Z"
            fill="url(#paint8_linear_523_22221)" />
        <path
            d="M220.156 115.957L247.381 124.57C248.472 124.916 249.641 124.931 250.741 124.613L270.913 118.784C271.272 118.681 271.588 118.467 271.817 118.173C272.046 117.879 272.175 117.519 272.186 117.146C272.197 116.773 272.089 116.407 271.878 116.099C271.667 115.792 271.363 115.56 271.011 115.437L250.613 108.244C249.555 107.87 248.442 107.679 247.321 107.681H237.881C236.368 107.681 234.879 108.055 233.544 108.768L220.156 115.957Z"
            fill="#FF4CD2" />
        <path
            d="M281.346 131.904L252.497 135.413L275.663 136.692L290.915 134.424C288.164 132.392 284.741 131.49 281.346 131.904Z"
            fill="white" />
        <path
            d="M236.964 140.009C230.553 148.613 225.158 157.931 220.889 167.775C220.286 169.2 220.048 170.753 220.197 172.292C220.346 173.832 220.877 175.311 221.742 176.593L236.184 198.062C237.476 199.983 239.435 201.356 241.681 201.915C243.928 202.475 246.302 202.18 248.344 201.089L268.465 190.327C271.73 188.582 274.365 185.858 276 182.537L286.608 160.996C287.435 159.316 287.809 157.449 287.696 155.58C287.582 153.711 286.984 151.904 285.96 150.336L278.788 139.374C278.143 138.386 277.27 137.569 276.242 136.991C275.214 136.412 274.062 136.09 272.883 136.052L246.924 135.199C244.999 135.138 243.088 135.544 241.354 136.381C239.619 137.219 238.113 138.463 236.964 140.009Z"
            fill="url(#paint9_linear_523_22221)" />
        <path
            d="M193.916 121.568L184.109 124.255C180.405 125.27 176.97 127.086 174.044 129.574C171.118 132.062 168.774 135.161 167.177 138.654L163.766 146.081C158.091 157.167 154.027 169.746 154.027 169.746L169.411 136.692L179.414 127.209L199.246 121.074C197.454 120.927 195.65 121.095 193.916 121.568Z"
            fill="white" />
        <path
            d="M129.582 185.88C124.973 191.423 123.353 203.984 122.841 214.405C122.841 214.405 123.617 195.12 132.043 186.63C140.468 178.141 153.665 172.986 153.665 172.986L154.036 169.767C154.036 169.767 138.153 175.544 129.582 185.88Z"
            fill="white" />
        <path
            d="M240.823 136.624L247.879 110.124C245.605 109.785 243.304 109.659 241.006 109.749C224.62 110.759 207.228 123.615 207.228 123.615L240.823 136.624Z"
            fill="#FF4CD2" />
        <path
            d="M248.506 107.762C248.113 107.709 247.717 107.682 247.321 107.681H237.881C236.368 107.681 234.879 108.055 233.544 108.768L220.156 115.957L244.289 123.598L248.506 107.762Z"
            fill="#FD99E9" />
        <path
            d="M235.757 107.933C234.986 108.121 234.242 108.408 233.544 108.785L220.185 115.957C215.663 118.156 211.329 120.723 207.228 123.632L211.065 125.116L235.757 107.933Z"
            fill="white" />
        <path d="M302.516 126.638C302.516 126.638 280.276 117.816 261.353 112.908L290.735 129.797L302.516 126.638Z"
            fill="#FF4CD2" />
        <path
            d="M271.011 115.437L257.392 110.636L271.292 118.622C271.586 118.456 271.825 118.209 271.982 117.91C272.138 117.612 272.206 117.275 272.176 116.939C272.147 116.603 272.021 116.283 271.814 116.017C271.608 115.75 271.329 115.549 271.011 115.437Z"
            fill="#FD99E9" />
        <path
            d="M245.743 199.371L246.447 223.125L277.462 208.394C279.668 207.34 281.624 205.826 283.197 203.955L270.832 184.814L245.743 199.371Z"
            fill="#722ABC" />
        <path
            d="M233.092 146.175L213.837 168.918C211.302 171.914 209.702 175.587 209.236 179.483C208.77 183.379 209.458 187.326 211.214 190.835L211.692 191.794L223.597 178.76L235.962 145.847L233.092 146.175Z"
            fill="#FF4CD2" />
        <path
            d="M348.396 131.174C334.785 118.319 302.517 126.638 302.517 126.638C301.547 126.898 300.641 127.356 299.857 127.983C299.073 128.611 298.427 129.394 297.96 130.283C297.493 131.172 297.215 132.148 297.143 133.15C297.072 134.151 297.209 135.157 297.545 136.103L305.928 159.674C306.428 161.079 307.386 162.275 308.648 163.069C309.91 163.864 311.403 164.21 312.886 164.053L369.37 158.084C366.342 152.924 358.753 140.956 348.396 131.174Z"
            fill="url(#paint10_linear_523_22221)" />
        <path
            d="M312.886 164.053L317.372 163.58L323.806 145.847L317.308 144.043L305.028 157.159L305.928 159.683C306.429 161.086 307.388 162.28 308.65 163.073C309.912 163.866 311.404 164.211 312.886 164.053Z"
            fill="#6520A7" />
        <path d="M323.806 145.847L317.372 163.581L358.506 159.24L348.827 141.86L323.806 145.847Z" fill="#4A0CA5" />
        <path
            d="M305.996 125.875L315.313 146.342C315.588 147.172 316.136 147.884 316.868 148.363C317.599 148.842 318.471 149.06 319.342 148.981L356.263 145.617C356.742 145.573 357.203 145.409 357.602 145.14C358.001 144.87 358.325 144.504 358.544 144.075C358.763 143.646 358.87 143.169 358.854 142.687C358.838 142.206 358.701 141.737 358.455 141.323L350.635 128.165C349.468 126.191 347.663 124.675 345.518 123.867L333.843 119.466C331.92 118.744 329.813 118.671 327.844 119.257L305.996 125.875Z"
            fill="#D939B7" />
        <path
            d="M316.404 124.365C311.727 124.79 307.086 125.55 302.517 126.638C301.131 127.01 299.886 127.784 298.939 128.862C297.992 129.94 297.385 131.274 297.195 132.697L316.404 124.365Z"
            fill="#D939B7" />
        <path
            d="M327.844 119.257L305.996 125.874L307.139 128.386L328.633 119.061C328.369 119.116 328.104 119.18 327.844 119.257Z"
            fill="#FF4CD2" />
        <path
            d="M194.722 183.402L184.646 185.146L154.765 189.38C153.263 189.594 151.83 190.147 150.574 190.996C150.389 191.124 150.21 191.256 150.036 191.393L149.9 191.508C149.766 191.61 149.638 191.717 149.516 191.828L149.35 191.986C149.243 192.088 149.132 192.194 149.03 192.301L148.855 192.484L148.57 192.804L148.403 193.009C148.314 193.12 148.229 193.231 148.147 193.346L147.99 193.563C147.909 193.678 147.832 193.802 147.755 193.921L147.615 194.143C147.538 194.275 147.461 194.416 147.389 194.569C147.354 194.638 147.316 194.697 147.282 194.766C147.18 194.97 147.082 195.192 146.988 195.397L137.479 218.072C134.741 224.606 134.669 231.952 137.279 238.539C137.539 239.183 137.86 239.802 138.238 240.385L148.484 199.371C148.744 198.329 149.275 197.376 150.025 196.608C150.774 195.84 151.714 195.285 152.748 195L194.722 183.402Z"
            fill="#FE72DD" />
        <path
            d="M333.843 119.466C331.92 118.744 329.813 118.671 327.844 119.257L305.996 125.875L315.313 146.342C315.355 146.465 315.403 146.586 315.458 146.704L340.188 121.871L333.843 119.466Z"
            fill="#FF4CD2" />
        <path
            d="M246.954 135.217C245.029 135.152 243.117 135.554 241.381 136.389C239.645 137.223 238.137 138.466 236.985 140.009C230.574 148.614 225.18 157.931 220.91 167.776C220.307 169.2 220.069 170.753 220.218 172.293C220.367 173.832 220.898 175.311 221.763 176.593L223.345 178.943L223.605 178.759L272.891 136.052L246.954 135.217Z"
            fill="#FE73DE" />
        <path
            d="M248.357 201.076L268.478 190.314C271.743 188.57 274.378 185.845 276.013 182.524L286.608 160.996C286.927 160.349 287.18 159.672 287.363 158.975L270.845 184.797L245.743 199.371H241.117L221.755 176.593L236.197 198.062C237.491 199.981 239.451 201.351 241.697 201.908C243.944 202.465 246.317 202.168 248.357 201.076Z"
            fill="#FF4CD2" />
        <path
            d="M245.117 136.287L252.497 135.413L246.954 135.234C245.029 135.17 243.117 135.572 241.381 136.406C239.645 137.241 238.137 138.483 236.985 140.027C235.344 142.231 233.314 145.109 231.135 148.529L238.422 139.92C240.117 137.91 242.507 136.612 245.117 136.287Z"
            fill="white" />
        <path
            d="M187.004 247.663L197.48 228.902C199.061 226.086 199.518 222.776 198.759 219.637L191.464 189.734L195.864 223.099L183.379 247.254L177.06 250.878L142.126 243.971C147.998 247.079 160.747 252.784 176.399 253.543C178.539 253.647 180.665 253.151 182.538 252.113C184.412 251.074 185.958 249.533 187.004 247.663Z"
            fill="#FE73DE" />
        <path opacity="0.5"
            d="M207.228 144.465L197.114 156.306L191.315 160.22L165.041 166.493L162.022 164.859L159.89 161.222L160.768 164.655C161.046 165.741 161.735 166.676 162.69 167.263C163.645 167.85 164.791 168.043 165.885 167.802L191.119 162.276C194.142 161.616 196.84 159.921 198.747 157.483L208.055 145.578C209.034 144.324 209.724 142.87 210.077 141.318C210.429 139.767 210.434 138.157 210.093 136.603L207.94 126.843L209.091 138.321L207.228 144.465Z"
            fill="#FB7BFF" />
        <path
            d="M358.454 141.31L352.655 131.575L357.388 141.86L356.109 144.043L320.621 147.352L317.308 146.162L309.113 132.731L315.304 146.328C315.579 147.158 316.127 147.871 316.859 148.35C317.59 148.829 318.462 149.047 319.333 148.968L356.254 145.603C356.734 145.561 357.196 145.398 357.596 145.129C357.996 144.86 358.321 144.494 358.541 144.065C358.761 143.636 358.869 143.158 358.853 142.676C358.838 142.194 358.701 141.724 358.454 141.31Z"
            fill="#FF4CD2" />
        <path
            d="M394.68 175.544C389.282 165.46 370.832 160.672 370.832 160.672L369.553 160.834L340.333 164.407C333.8 165.332 324.028 167.763 321.862 175.459L319.657 185.931C319.349 187.391 319.347 188.898 319.651 190.359C319.954 191.819 320.558 193.201 321.422 194.416L330.846 207.664C332.835 206.311 334.825 205.015 336.815 203.775C370.342 182.853 403.421 193.998 403.425 193.998C400.821 187.704 397.902 181.545 394.68 175.544Z"
            fill="#9736B6" />
        <path
            d="M394.68 175.544C390.271 167.31 377.16 162.603 372.508 161.158C372.162 161.053 371.809 160.973 371.451 160.919C374.602 162.224 389.099 168.641 393.341 177.842C396.113 183.846 398.211 189.355 399.486 192.962C402.01 193.529 403.421 194.002 403.421 194.002C400.818 187.707 397.901 181.547 394.68 175.544Z"
            fill="#FF4CD2" />
        <path
            d="M295.805 227.133L296.714 218.354L293.247 213.489C292.087 211.866 290.394 210.701 288.464 210.197C286.533 209.692 284.487 209.881 282.681 210.73L287.73 226.472L295.805 227.133Z"
            fill="#3E1689" />
        <path opacity="0.7"
            d="M241.799 249.625L234.636 234.117C231.856 236.505 229.879 239.691 228.973 243.242L226.526 252.836L233.774 256.247L241.799 249.625Z"
            fill="#D939B7" />
        <path
            d="M420.519 201.324C420.519 201.324 439.281 233.883 417.381 242.232C417.381 254.537 409.924 254.627 409.924 254.627L407.276 261.402C445.305 253.135 449.267 219.062 420.519 201.324Z"
            fill="#1D0066" />
        <path
            d="M285.239 224.374L241.215 245.152C238.836 246.273 236.734 247.907 235.06 249.935C233.386 251.964 232.181 254.338 231.531 256.886L229.898 263.244C257.093 258.033 279.108 244.764 298.547 230.996L295.792 227.133C294.633 225.513 292.942 224.35 291.015 223.846C289.087 223.342 287.043 223.529 285.239 224.374Z"
            fill="#3E1689" />
        <path opacity="0.7"
            d="M239.85 248.107L287.729 225.334L294.24 227.006L298.547 230.997L295.792 227.133C294.632 225.51 292.939 224.345 291.009 223.841C289.078 223.337 287.032 223.526 285.226 224.375L241.215 245.153C238.836 246.274 236.734 247.907 235.06 249.936C233.386 251.965 232.181 254.338 231.531 256.887L229.898 263.244L233.31 254.964L239.85 248.107Z"
            fill="#D939B7" />
        <path
            d="M340.333 164.407C333.801 165.333 324.028 167.763 321.862 175.459L319.657 185.932C319.193 188.134 319.428 190.427 320.331 192.489L320.506 192.873L369.57 160.83L340.333 164.407Z"
            fill="#BA39D1" />
        <path
            d="M420.519 201.324C422.651 202.697 438.338 213.689 435.78 235.793C433.963 251.501 418.136 257.846 407.702 260.345L407.276 261.411C445.305 253.135 449.267 219.062 420.519 201.324Z"
            fill="#FF4CD2" />
        <path
            d="M122.653 220.034L123.08 213.438C110.254 217.006 100.012 223.07 98.4304 233.252C97.0233 242.291 99.2832 251.846 104.929 260.911C101.795 252.878 99.4921 238.347 103.453 230.817C107.414 223.287 122.653 220.034 122.653 220.034Z"
            fill="white" />
        <path d="M304.994 275.617C304.755 275.771 304.568 275.911 304.397 276.044L304.994 275.617Z" fill="#FF4CD2" />
        <path
            d="M417.748 247.225C417.75 247.234 417.75 247.245 417.748 247.254C417.646 247.463 417.658 247.438 417.748 247.225C417.808 247.084 417.863 246.943 417.919 246.798C418.55 244.918 419.441 239.26 416.153 234.16C415.713 233.517 415.238 232.899 414.729 232.309C414.563 232.113 414.379 231.934 414.2 231.747C410.508 228.024 403.865 225.069 392.199 224.924C361.499 224.498 342.555 240.343 334.376 248.61C328.407 254.648 318.6 263.982 313.739 268.574C312.823 269.508 311.859 270.424 310.823 271.324C316.577 266.839 322.06 262.017 327.243 256.882C341.314 242.995 353.56 236.586 363.435 233.358C368.152 231.854 372.995 230.779 377.906 230.148L379.723 229.896H379.748L380.524 229.79C391.244 228.293 417.368 229.956 417.368 242.261C417.368 247.212 416.162 250.184 414.716 251.97C416.009 250.588 417.037 248.979 417.748 247.225Z"
            fill="#FF4CD2" />
        <path
            d="M252.497 135.413L246.954 135.234C245.029 135.17 243.117 135.572 241.381 136.406C239.645 137.241 238.137 138.483 236.985 140.027C230.574 148.631 225.179 157.949 220.91 167.793C220.91 167.793 238.639 141.818 240.95 138.846C243.261 135.874 252.497 135.413 252.497 135.413Z"
            fill="white" />
        <path
            d="M154.765 189.381C153.263 189.595 151.83 190.147 150.574 190.997C150.389 191.125 150.21 191.257 150.036 191.393L149.9 191.509C149.766 191.611 149.638 191.717 149.516 191.828L149.35 191.986C149.243 192.088 149.132 192.195 149.03 192.302L148.855 192.485L148.57 192.805L148.403 193.009C148.314 193.12 148.228 193.231 148.147 193.346L147.99 193.564C147.909 193.679 147.832 193.802 147.755 193.922L147.614 194.144C147.538 194.276 147.461 194.416 147.388 194.57C147.354 194.638 147.316 194.698 147.282 194.766C147.179 194.971 147.081 195.193 146.988 195.397L137.479 218.072C136.067 221.439 135.352 225.056 135.377 228.707C135.68 227.943 146.57 200.565 148.514 195.508C150.475 190.383 154.765 189.381 154.765 189.381Z"
            fill="white" />
        <path
            d="M287.009 225.053C286.873 224.665 286.736 224.268 286.617 223.867C286.144 223.998 285.684 224.168 285.239 224.375L241.215 245.152C240.789 245.349 240.392 245.579 239.991 245.792C240.639 246.218 241.27 246.675 241.897 247.135L287.197 225.586C287.133 225.406 287.073 225.227 287.009 225.053Z"
            fill="url(#paint11_linear_523_22221)" />
        <path d="M356.263 145.604L364.675 158.587L353.918 159.721L350.05 146.102" fill="#5C19BF" />
        <path d="M315.313 146.324L316.404 144.665L307.139 128.386" fill="white" />
        <path
            d="M321.312 187.646L323.806 174.573C325.439 172.025 327.574 169.837 330.082 168.142C332.589 166.448 335.416 165.283 338.389 164.719C331.993 165.84 323.806 168.497 321.845 175.464L319.64 185.936C319.175 188.138 319.411 190.431 320.314 192.494L320.489 192.877L322.378 191.645L321.312 187.646Z"
            fill="white" />
        <path
            d="M399.115 405.043L466.646 418.138L515.246 408.143L527.781 375.124L520.187 358.524L481.697 353.587L468.454 356.759"
            fill="black" />
        <path
            d="M372.359 281.033L345.023 353.587C345.023 353.587 360.015 376.228 399.123 405.044C399.123 405.044 439.259 398.354 460.873 389.608C460.873 389.608 481.971 346.385 486.601 321.685C486.601 321.685 472.705 301.103 435.145 273.831C435.136 273.831 417.126 273.315 372.359 281.033Z"
            fill="#FA4CD3" />
        <path d="M464.467 359.761L386.767 335.577L444.725 281.033L464.467 359.761Z" fill="#FA4CD3" />
        <path d="M464.467 359.761L399.115 405.043L386.767 335.576L464.467 359.761Z" fill="#FA4CD3" />
        <path d="M372.359 281.033L386.767 335.577L444.725 281.033H372.359Z" fill="#FA4CD3" />
        <path
            d="M435.136 273.831C435.136 273.831 417.125 273.315 372.359 281.033H444.725C441.715 278.694 438.519 276.293 435.136 273.831Z"
            fill="white" />
        <path d="M444.726 281.033L464.467 359.761L486.593 321.685C486.593 321.685 475.072 304.642 444.726 281.033Z"
            fill="#1A8044" />
        <path d="M464.467 359.761L460.864 389.608C460.864 389.608 481.962 346.381 486.592 321.685L464.467 359.761Z"
            fill="#D939B7" />
        <path d="M460.864 389.609L464.467 359.762L399.115 405.044C399.115 405.044 439.251 398.354 460.864 389.609Z"
            fill="#2D35AD" />
        <path d="M444.725 281.033L386.767 335.577L464.467 359.761L444.725 281.033Z" fill="#29A457" />
        <path d="M386.767 335.576L399.115 405.043L464.467 359.761L386.767 335.576Z" fill="#1A8044" />
        <path d="M444.725 281.033H372.359L386.767 335.577L444.725 281.033Z" fill="#D7FFE3" />
        <path d="M372.359 281.033L345.015 353.587L386.766 335.577L372.359 281.033Z" fill="#A2F9BF" />
        <path d="M345.023 353.587C345.023 353.587 360.015 376.228 399.123 405.043L386.758 335.576L345.023 353.587Z"
            fill="#29A457" />
        <path d="M486.584 321.685C486.584 321.685 475.071 304.629 444.717 281.033L484.179 325.804L484.486 325.279"
            fill="#FD99E9" />
        <path d="M399.115 405.044L460.864 389.609L464.467 359.762L399.115 405.044Z" fill="black" />
        <path d="M372.359 281.033L345.015 353.587L375.066 291.292L372.359 281.033Z" fill="#D7FFE3" />
        <path d="M375.066 291.292L388.715 281.033H372.359L375.066 291.292Z" fill="white" />
        <path d="M444.726 281.033L464.467 359.761L484.188 325.821" fill="#125A4E" />
        <path d="M386.767 335.576L399.115 405.043L464.467 359.761L386.767 335.576Z" fill="#0D4055" />
        <path d="M444.725 281.033L386.767 335.577L462.131 351.293" fill="#3A9282" />
        <path d="M627.897 338.032C619.246 340.352 615.14 342.688 615.14 342.688L627.897 338.032Z" fill="black" />
    </g>
    <defs>
        <linearGradient id="paint0_linear_523_22221" x1="503.409" y1="0.5" x2="503.409" y2="180.585"
            gradientUnits="userSpaceOnUse">
            <stop stop-color="#9CA3F3" />
            <stop offset="1" stop-color="#7E88EF" />
        </linearGradient>
        <linearGradient id="paint1_linear_523_22221" x1="503.409" y1="0.5" x2="503.409" y2="202.305"
            gradientUnits="userSpaceOnUse">
            <stop offset="0.16" stop-color="#9CA3F3" />
            <stop offset="1" stop-color="#5968F4" />
        </linearGradient>
        <linearGradient id="paint2_linear_523_22221" x1="410.96" y1="21.9942" x2="410.96" y2="22.2292"
            gradientUnits="userSpaceOnUse">
            <stop stop-color="#9CA3F3" />
            <stop offset="1" stop-color="#7E88EF" />
        </linearGradient>
        <linearGradient id="paint3_linear_523_22221" x1="481.186" y1="0.500054" x2="481.186" y2="202.305"
            gradientUnits="userSpaceOnUse">
            <stop offset="0.16" stop-color="#C3C7F7" />
            <stop offset="1" stop-color="#5968F4" />
        </linearGradient>
        <linearGradient id="paint4_linear_523_22221" x1="460.596" y1="65.72" x2="506.441" y2="120.357"
            gradientUnits="userSpaceOnUse">
            <stop stop-color="#A056F2" />
            <stop offset="0.29" stop-color="#7A3DC9" />
            <stop offset="0.59" stop-color="#5928A6" />
            <stop offset="0.84" stop-color="#451B91" />
            <stop offset="1" stop-color="#3E1689" />
        </linearGradient>
        <linearGradient id="paint5_linear_523_22221" x1="130.994" y1="274.957" x2="422.421" y2="274.957"
            gradientUnits="userSpaceOnUse">
            <stop offset="0.16" stop-color="#7F41CF" />
            <stop offset="1" stop-color="#1D0066" />
        </linearGradient>
        <linearGradient id="paint6_linear_523_22221" x1="204.14" y1="272.531" x2="157.054" y2="190.976"
            gradientUnits="userSpaceOnUse">
            <stop stop-color="#8C1381" />
            <stop offset="0.13" stop-color="#AF259A" />
            <stop offset="0.27" stop-color="#CC33AE" />
            <stop offset="0.42" stop-color="#E33EBE" />
            <stop offset="0.57" stop-color="#F346C9" />
            <stop offset="0.75" stop-color="#FC4BD0" />
            <stop offset="1" stop-color="#FF4CD2" />
        </linearGradient>
        <linearGradient id="paint7_linear_523_22221" x1="190.56" y1="230.365" x2="224.786" y2="230.365"
            gradientUnits="userSpaceOnUse">
            <stop stop-color="#D939B7" />
            <stop offset="0.09" stop-color="#E03DBC" />
            <stop offset="0.36" stop-color="#F145C8" />
            <stop offset="0.65" stop-color="#FC4AD0" />
            <stop offset="1" stop-color="#FF4CD2" />
        </linearGradient>
        <linearGradient id="paint8_linear_523_22221" x1="194.278" y1="239.307" x2="144.553" y2="197.585"
            gradientUnits="userSpaceOnUse">
            <stop stop-color="#D939B7" />
            <stop offset="0.09" stop-color="#E03DBC" />
            <stop offset="0.36" stop-color="#F145C8" />
            <stop offset="0.65" stop-color="#FC4AD0" />
            <stop offset="1" stop-color="#FF4CD2" />
        </linearGradient>
        <linearGradient id="paint9_linear_523_22221" x1="269.152" y1="189.952" x2="238.994" y2="137.715"
            gradientUnits="userSpaceOnUse">
            <stop stop-color="#D939B7" />
            <stop offset="0.09" stop-color="#E03DBC" />
            <stop offset="0.36" stop-color="#F145C8" />
            <stop offset="0.65" stop-color="#FC4AD0" />
            <stop offset="1" stop-color="#FF4CD2" />
        </linearGradient>
        <linearGradient id="paint10_linear_523_22221" x1="297.123" y1="144.043" x2="369.37" y2="144.043"
            gradientUnits="userSpaceOnUse">
            <stop stop-color="#D939B7" />
            <stop offset="0.09" stop-color="#E03DBC" />
            <stop offset="0.36" stop-color="#F145C8" />
            <stop offset="0.65" stop-color="#FC4AD0" />
            <stop offset="1" stop-color="#FF4CD2" />
        </linearGradient>
        <linearGradient id="paint11_linear_523_22221" x1="239.991" y1="235.503" x2="287.197" y2="235.503"
            gradientUnits="userSpaceOnUse">
            <stop stop-color="#D939B7" />
            <stop offset="0.09" stop-color="#E03DBC" />
            <stop offset="0.36" stop-color="#F145C8" />
            <stop offset="0.65" stop-color="#FC4AD0" />
            <stop offset="1" stop-color="#FF4CD2" />
        </linearGradient>
        <clipPath id="clip0_523_22221">
            <rect width="800" height="418" fill="white" transform="translate(0 0.5)" />
        </clipPath>
    </defs>
</svg>
