<svg width="24" height="24" viewBox="0 0 109 109" fill="none" xmlns="http://www.w3.org/2000/svg">
    <path d="M81.751 13.625H88.5635V34.0625H74.9385V20.4375H81.751V13.625Z" fill="#5865F2" />
    <path d="M13.624 13.625V40.875H40.874V13.625H13.624Z" fill="#35ED7E" />
    <path d="M47.6875 13.625H40.875V40.875H6.8125V47.6875H47.6875V13.625Z" fill="#21BB63" />
    <path d="M95.375 20.4375H88.5625V34.0625H61.3125V40.875H102.188V34.0625H95.375V20.4375Z" fill="#2D35AD" />
    <path d="M6.8125 6.8125V40.875H13.625V13.625H47.6875V6.8125H6.8125Z" fill="white" />
    <path d="M74.9375 20.4375V6.8125H88.5625V13.625H81.75V20.4375H74.9375Z" fill="white" />
    <path d="M74.9375 20.4375V34.0625H68.125V20.4375H74.9375Z" fill="white" />
    <path d="M13.625 68.125H20.4375V74.9375H13.625V68.125Z" fill="white" />
    <path d="M13.625 74.9375H6.8125V88.5625H13.625V74.9375Z" fill="white" />
    <path d="M20.4375 68.125V61.3125H34.0625V68.125H20.4375Z" fill="white" />
    <path d="M74.9375 68.125H68.125V74.9375H61.3125V81.75H68.125V74.9375H74.9375V68.125Z" fill="white" />
    <path d="M74.9375 68.125H81.75V61.3125H88.5625V54.5H74.9375V68.125Z" fill="white" />
    <path
        d="M20.4365 68.126V74.9385H13.624V88.5635H20.4365V95.376H34.0615V88.5635H40.874V74.9385H34.0615V68.126H20.4365Z"
        fill="#FF4CD2" />
    <path d="M34.0615 68.126H40.874V74.9385H34.0615V68.126Z" fill="#B3269C" />
    <path d="M40.874 88.5635H47.6865V74.9385H40.874V88.5635Z" fill="#B3269C" />
    <path d="M34.0615 95.376V88.5635H40.874V95.376H34.0615Z" fill="#B3269C" />
    <path d="M20.4365 95.376V102.188H34.0615V95.376H20.4365Z" fill="#B3269C" />
    <path d="M20.4365 95.376V88.5635H13.624V95.376H20.4365Z" fill="#B3269C" />
    <path
        d="M88.5626 61.3135H81.7501V68.126H74.9376V74.9385H68.1251V88.5635H74.9376V95.376H81.7501V88.5635H88.5626V81.751H95.3751V74.9385H88.5626V61.3135Z"
        fill="#FFE047" />
    <path
        d="M95.376 68.126H88.5635V74.9385H95.376V81.751H88.5635V88.5635H81.751V95.376H74.9385V102.188H88.5635V88.5635H95.376V81.751H102.188V74.9385H95.376V68.126Z"
        fill="#F3BA2F" />
    <path
        d="M95.376 68.126H88.5635V74.9385H95.376V81.751H88.5635V88.5635H81.751V95.376H74.9385V102.188H88.5635V88.5635H95.376V81.751H102.188V74.9385H95.376V68.126Z"
        fill="#F3BA2F" />
    <path d="M6.8125 0H47.6875V6.8125H6.8125V0Z" fill="black" />
    <path d="M6.8125 47.6875H0V6.8125H6.8125V47.6875Z" fill="black" />
    <path
        d="M47.6875 47.6875V6.8125H54.5V34.0625H61.3125V40.875H102.188V34.0625H109V47.6875H88.5625V54.5H74.9375V47.6875H47.6875Z"
        fill="black" />
    <path fill-rule="evenodd" clip-rule="evenodd"
        d="M34.0625 61.3125V54.5H47.6875V47.6875H6.8125V54.5H20.4375V61.3125H13.625V68.125H6.8125V74.9375H0V88.5625H6.8125V95.375H13.625V102.188H20.4375V109H34.0625V102.188H40.875V95.375H47.6875V88.5625H54.5V81.75H61.3125V88.5625H68.125V102.188H74.9375V109H88.5625V102.188H95.375V88.5625H102.188V81.75H109V74.9375H102.188V68.125H95.375V54.5H88.5625V68.125H95.375V74.9375H102.188V81.75H95.375V88.5625H88.5625V102.188H74.9375V88.5625H68.125V81.75H61.3125V74.9375H68.125V68.125H74.9375V54.5H68.125V68.125H61.3125V74.9375H47.6875V68.125H40.875V61.3125H34.0625ZM34.0625 61.3125H20.4375V68.125H13.625V74.9375H6.8125V88.5625H13.625V95.375H20.4375V102.188H34.0625V95.375H40.875V88.5625H47.6875V74.9375H40.875V68.125H34.0625V61.3125Z"
        fill="black" />
    <path d="M95.375 20.4375H102.188V34.0625H95.375V20.4375Z" fill="black" />
    <path d="M88.5625 6.8125H95.375V20.4375H88.5625V6.8125Z" fill="black" />
    <path d="M74.9375 6.8125V0H88.5625V6.8125H74.9375Z" fill="black" />
    <path d="M68.125 20.4375V6.8125H74.9375V20.4375H68.125Z" fill="black" />
    <path d="M68.125 20.4375H61.3125V34.0625H68.125V20.4375Z" fill="black" />
</svg>
