<svg xmlns="http://www.w3.org/2000/svg" width="22" height="22" viewBox="0 0 22 22" fill="none">
  <circle cx="11" cy="11" r="10" fill="#0B0821" stroke="#232428" stroke-width="2"/>
  <path d="M13.456 8.98135L13.7736 8.3317L10.4025 7.04297L10.2013 7.73269C10.1632 7.86768 10.015 7.99212 9.87522 8.00478C7.7026 8.22413 6.00643 10.0465 6.00008 12.2654C5.99672 12.8307 6.10569 13.3911 6.32069 13.9143C6.5357 14.4375 6.85249 14.9132 7.25284 15.3139C7.65318 15.7146 8.12916 16.0325 8.65336 16.2492C9.17757 16.466 9.73963 16.5772 10.3072 16.5767C12.6916 16.5809 14.627 14.6552 14.627 12.2802C14.6282 11.2163 14.232 10.19 13.5153 9.40108C13.42 9.29773 13.3967 9.1079 13.456 8.98135Z" fill="#DB9CDF"/>
  <path d="M10.3135 16.5769C12.6957 16.5769 14.627 14.6533 14.627 12.2804C14.627 9.90749 12.6957 7.98389 10.3135 7.98389C7.93121 7.98389 6 9.90749 6 12.2804C6 14.6533 7.93121 16.5769 10.3135 16.5769Z" fill="url(#paint0_radial_1571_95600)"/>
  <path d="M10.3132 15.9964C12.3738 15.9964 14.0443 14.3325 14.0443 12.2799C14.0443 10.2274 12.3738 8.56348 10.3132 8.56348C8.25252 8.56348 6.58203 10.2274 6.58203 12.2799C6.58203 14.3325 8.25252 15.9964 10.3132 15.9964Z" stroke="black" stroke-width="0.00640736" stroke-miterlimit="10"/>
  <path d="M14.5438 12.5454C14.5438 10.2169 12.6507 8.3291 10.3129 8.3291C7.97513 8.3291 6.08203 10.2169 6.08203 12.5454C6.08189 12.9473 6.13892 13.3471 6.25144 13.7329C6.838 15.3549 8.37323 16.5234 10.1901 16.5741H10.4357C12.2526 16.5234 13.79 15.3528 14.3744 13.7308C14.4871 13.3457 14.5441 12.9466 14.5438 12.5454Z" fill="url(#paint1_linear_1571_95600)"/>
  <path d="M10.313 16.5767C12.6952 16.5767 14.6265 14.6531 14.6265 12.2802C14.628 11.7024 14.5112 11.1304 14.2834 10.5991L6.62207 14.5054C7.00612 15.138 7.54771 15.6611 8.19435 16.024C8.84099 16.3869 9.57077 16.5773 10.313 16.5767Z" fill="url(#paint2_linear_1571_95600)"/>
  <path d="M10.3139 16.5769C12.4494 16.5769 14.1806 14.8526 14.1806 12.7255C14.1806 10.5984 12.4494 8.87402 10.3139 8.87402C8.17843 8.87402 6.44727 10.5984 6.44727 12.7255C6.44727 14.8526 8.17843 16.5769 10.3139 16.5769Z" fill="url(#paint3_radial_1571_95600)"/>
  <path d="M10.3136 15.828C12.4257 15.828 14.1379 14.1225 14.1379 12.0187C14.1379 9.91494 12.4257 8.20947 10.3136 8.20947C8.20146 8.20947 6.48926 9.91494 6.48926 12.0187C6.48926 14.1225 8.20146 15.828 10.3136 15.828Z" fill="url(#paint4_radial_1571_95600)"/>
  <path d="M10.3137 15.8279C12.2808 15.8279 13.8754 14.2395 13.8754 12.2801C13.8754 10.3208 12.2808 8.73242 10.3137 8.73242C8.3466 8.73242 6.75195 10.3208 6.75195 12.2801C6.75195 14.2395 8.3466 15.8279 10.3137 15.8279Z" fill="url(#paint5_radial_1571_95600)"/>
  <path d="M10.3137 15.8279C12.2808 15.8279 13.8754 14.2395 13.8754 12.2801C13.8754 10.3208 12.2808 8.73242 10.3137 8.73242C8.3466 8.73242 6.75195 10.3208 6.75195 12.2801C6.75195 14.2395 8.3466 15.8279 10.3137 15.8279Z" fill="url(#paint6_linear_1571_95600)"/>
  <path d="M13.2698 8.2745C12.4165 9.76783 13.2974 10.08 13.2508 11.0017L7.95898 9.75729C9.36293 8.60776 10.2947 9.2806 10.7944 7.32324" fill="url(#paint7_linear_1571_95600)"/>
  <path d="M12.6244 9.61928C12.6705 9.49966 12.1653 9.19523 11.496 8.93932C10.8267 8.68342 10.2468 8.57295 10.2007 8.69258C10.1546 8.8122 10.6598 9.11663 11.329 9.37253C11.9983 9.62844 12.5783 9.73891 12.6244 9.61928Z" fill="#311C6F"/>
  <path d="M12.3228 9.458C12.3425 9.40689 11.9576 9.21215 11.463 9.02304C10.9684 8.83393 10.5515 8.72206 10.5318 8.77317C10.5121 8.82429 10.897 9.01903 11.3916 9.20814C11.8862 9.39725 12.3031 9.50911 12.3228 9.458Z" fill="url(#paint8_linear_1571_95600)"/>
  <path d="M13.5151 9.40132C13.4198 9.29797 13.3965 9.10813 13.4558 8.98158L13.7735 8.33194L13.3838 8.18219L12.738 8.14844C12.2213 9.3507 12.505 9.9244 12.7358 10.8208C12.9667 11.7172 13.026 12.3479 13.026 12.3479H14.233C14.233 12.3479 14.2054 10.1627 13.5151 9.40132Z" fill="url(#paint9_linear_1571_95600)"/>
  <path d="M12.7365 9.14187C12.4846 9.98978 13.465 10.323 13.5836 10.9368L13.1664 9.07227L12.7365 9.14187Z" fill="#573CD7"/>
  <path d="M13.3327 11.4302C13.4428 11.5044 13.5382 11.598 13.6144 11.7065C13.8081 11.9862 13.8932 12.3265 13.8537 12.6641C13.7591 13.5335 13.3453 14.3375 12.6918 14.9215C12.0383 15.5055 11.1911 15.8283 10.3131 15.8279C8.40306 15.8279 6.84242 14.3283 6.7556 12.4468C6.74989 12.3267 6.77853 12.2075 6.83818 12.103C6.98429 11.8457 7.21722 11.5757 7.35063 11.4724L9.24585 12.1642L11.9796 11.5652L13.3327 11.4302Z" fill="url(#paint10_linear_1571_95600)"/>
  <path d="M13.8519 12.3224C13.8253 12.1007 13.7438 11.889 13.6148 11.7065C13.5386 11.598 13.4432 11.5044 13.3331 11.4302L11.98 11.5652L9.24625 12.1642L7.35103 11.4724C7.21762 11.5757 6.98469 11.8457 6.83858 12.103C6.81967 12.1351 6.80406 12.169 6.79199 12.2043C6.82376 12.335 6.96351 12.4278 7.1308 12.5544C7.42091 12.778 8.36746 12.9509 8.36746 12.9509L9.566 12.6746L10.7751 12.2296L12.4777 12.1368L13.7461 12.6261C13.8054 12.5586 13.8371 12.4447 13.8519 12.3224Z" fill="url(#paint11_linear_1571_95600)"/>
  <path d="M6.91138 12.3329C7.48312 12.6535 8.13957 13.0352 9.29576 12.586C10.4519 12.1367 12.2815 11.4196 13.0989 11.911C13.9163 12.4025 13.9692 12.8032 13.3763 12.6071C12.7834 12.4109 11.8517 12.0798 10.9686 12.3814C10.0856 12.683 9.49693 13.0247 8.95483 13.0964C8.41274 13.1681 7.68641 12.9403 7.28831 12.6661C6.89021 12.3919 6.75892 12.2464 6.91138 12.3329Z" fill="#DF88F1"/>
  <path d="M13.3333 11.4301C13.0369 11.217 12.4418 11.0736 11.2941 11.525C10.1464 11.9763 9.35865 11.8308 8.36763 11.4954C7.37661 11.1601 7.20085 11.584 7.21567 11.7443C7.2305 11.9046 7.22203 12.3687 8.08599 12.6534C8.94996 12.9381 9.93463 12.4235 10.3666 12.2801C10.7986 12.1366 11.3894 11.9742 11.9145 11.9869C12.4397 11.9995 12.5731 11.9721 12.9246 11.8097C13.2761 11.6473 13.4646 11.525 13.3333 11.4301Z" fill="#E551EB"/>
  <path d="M12.9155 11.5232C12.744 11.422 12.329 11.365 11.3062 11.6434C10.2156 11.9387 9.5973 11.8881 8.86886 11.7341C8.14042 11.5802 7.79102 11.8312 7.73385 11.924C7.67667 12.0168 7.44798 12.3057 8.12348 12.4386C8.79898 12.5715 9.8747 12.2087 10.2961 12.1054C10.7175 12.002 11.2469 11.8881 11.6683 11.8733C12.0897 11.8586 12.1934 11.8396 12.5111 11.7384C12.8287 11.6371 12.9918 11.5696 12.9155 11.5232Z" fill="url(#paint12_linear_1571_95600)"/>
  <path d="M7.35352 14.252C7.67902 14.7366 8.11942 15.1338 8.63577 15.4086C9.15211 15.6833 9.72848 15.827 10.3139 15.827C10.8993 15.827 11.4756 15.6833 11.992 15.4086C12.5083 15.1338 12.9487 14.7366 13.2742 14.252H7.35352Z" fill="url(#paint13_linear_1571_95600)"/>
  <path d="M7.68945 14.2524C7.9777 14.6823 8.36794 15.0346 8.82559 15.2783C9.28324 15.522 9.79417 15.6495 10.3131 15.6495C10.8321 15.6495 11.343 15.522 11.8006 15.2783C12.2583 15.0346 12.6485 14.6823 12.9368 14.2524H7.68945Z" fill="url(#paint14_linear_1571_95600)"/>
  <path d="M13.544 9.43305L13.5165 9.40352C13.4212 9.29806 13.3937 9.10823 13.4551 8.98167L13.4636 8.96902L12.9765 8.89941C12.8262 9.25587 12.7182 9.41407 13.2497 10.205C13.7812 10.996 13.8532 12.2489 13.5144 13.3351C13.292 14.0269 13.2264 14.434 13.6287 13.989C14.1793 13.3815 14.4059 12.6159 14.4419 12.1434C14.516 11.1563 14.2026 10.1734 13.544 9.43305Z" fill="url(#paint15_linear_1571_95600)"/>
  <path d="M13.7468 9.82734C13.9289 10.0783 14.0369 10.1733 13.9819 10.0446C13.9776 10.0319 13.9692 10.013 13.9607 9.98554C13.8296 9.77841 13.6808 9.58293 13.516 9.40128C13.4376 9.3148 13.408 9.17138 13.4334 9.05326L13.3529 9.01318C13.3021 9.13552 13.3402 9.29582 13.3953 9.36542C13.4504 9.43503 13.5647 9.57635 13.7468 9.82734Z" fill="#ECB4F0"/>
  <path d="M8.82738 12.3476C8.95655 11.9448 9.37583 11.1559 9.87346 10.7066C9.89216 10.69 9.90434 10.6673 9.90783 10.6426C9.91132 10.6179 9.90589 10.5928 9.89252 10.5716C9.51347 9.97473 8.85279 9.43266 8.49492 9.2344C8.47922 9.22511 8.4613 9.22021 8.44304 9.22021C8.42479 9.22021 8.40687 9.22511 8.39116 9.2344C7.71143 9.63093 6.8644 10.6075 6.82629 12.1093C6.82516 12.1329 6.83239 12.1562 6.8467 12.1751C6.86101 12.1939 6.88151 12.2072 6.90463 12.2126C7.42556 12.3455 8.10953 12.413 8.72786 12.4193C8.7498 12.4189 8.77107 12.4117 8.78885 12.3989C8.80663 12.3861 8.82007 12.3682 8.82738 12.3476Z" fill="url(#paint16_linear_1571_95600)"/>
  <path d="M8.8267 12.3482C8.89477 12.1507 8.97979 11.9595 9.08081 11.7766L8.86905 11.7344C8.13426 11.5804 7.79121 11.8314 7.73404 11.9242C7.67687 12.017 7.50746 12.2301 7.89286 12.3756C8.17026 12.403 8.45401 12.4178 8.72718 12.4199C8.74912 12.4194 8.77039 12.4123 8.78817 12.3995C8.80595 12.3867 8.81939 12.3688 8.8267 12.3482Z" fill="url(#paint17_linear_1571_95600)"/>
  <path d="M10.2007 7.73264C10.1626 7.86763 10.0144 7.99208 9.87461 8.00473C8.79297 8.11461 7.793 8.6277 7.0752 9.44112C8.54267 8.2262 9.98473 8.34221 10.0377 8.2705C10.0906 8.19878 10.1753 8.11441 10.3278 8.10176L10.4569 7.66093L10.2558 7.54492L10.2007 7.73264Z" fill="#E3ABF2"/>
  <path d="M10.3278 8.10192L10.368 7.96271L10.2748 7.9585C10.152 7.97748 10.0271 8.04497 9.95932 8.12513C9.89155 8.20528 9.86191 8.17153 9.52733 8.22004C8.81795 8.32128 7.85234 8.67985 7.0752 9.44128C8.54267 8.22637 9.98473 8.34238 10.0377 8.27066C10.0906 8.19895 10.1753 8.11458 10.3278 8.10192Z" fill="url(#paint18_linear_1571_95600)"/>
  <path d="M12.5583 8.89862C12.5863 8.82575 12.217 8.61677 11.7333 8.43183C11.2496 8.2469 10.8348 8.15604 10.8067 8.22891C10.7786 8.30177 11.148 8.51076 11.6316 8.69569C12.1153 8.88063 12.5302 8.97148 12.5583 8.89862Z" fill="#8033AD"/>
  <path d="M11.8009 8.38022C12.4975 8.64598 13.1434 8.79784 13.5436 8.80628L13.7744 8.33171L10.4033 7.04297L10.2529 7.56395C10.5621 7.81916 11.1275 8.12289 11.8009 8.38022Z" fill="#1F2378"/>
  <path d="M11.8527 7.5975L11.4588 8.76812C10.8405 8.5108 10.3662 8.19863 10.2158 7.96662L10.5123 7.08496L11.8527 7.5975Z" fill="url(#paint19_linear_1571_95600)"/>
  <path d="M11.5813 7.49434L10.4018 7.04297L10.2007 7.73269C10.1927 7.76101 10.1805 7.78801 10.1647 7.81284C10.1456 8.01743 10.5691 8.35491 11.1981 8.65231L11.5813 7.49434Z" fill="url(#paint20_linear_1571_95600)"/>
  <path d="M10.7313 7.31899C11.0045 7.48984 11.2099 7.58686 11.1421 7.80833C11.0744 8.0298 10.9939 8.27869 10.9918 8.33353C10.9897 8.38837 10.96 8.4875 11.0468 8.53812C11.1337 8.58874 11.1421 8.59718 11.14 8.6246C11.1367 8.63998 11.1373 8.65594 11.1418 8.67103C11.1462 8.68613 11.1543 8.69989 11.1654 8.71108C11.1929 8.7385 11.1675 8.73639 11.1209 8.71952C11.0744 8.70264 10.7377 8.55921 10.5556 8.46219C10.3734 8.36517 10.2527 8.26603 10.2803 8.21119C10.3269 8.11628 10.4158 8.18377 10.4454 8.10151C10.5323 7.85684 10.672 7.28313 10.7313 7.31899Z" fill="url(#paint21_linear_1571_95600)"/>
  <path d="M12.5625 9.11203C12.716 9.14337 12.8718 9.16172 13.0284 9.16687L13.4138 8.19452L13.0326 8.04688L12.5625 9.11203Z" fill="url(#paint22_linear_1571_95600)"/>
  <path d="M13.1822 8.10645L12.7354 9.14207C13.0869 9.1927 13.3452 9.1716 13.4299 9.06614C13.4348 9.03708 13.4434 9.00874 13.4553 8.98177L13.773 8.33213L13.1822 8.10645Z" fill="url(#paint23_linear_1571_95600)"/>
  <path d="M10.3984 7.05984C10.6928 7.3235 11.2878 7.65043 12.0035 7.92463C12.7193 8.19882 13.3651 8.34647 13.7632 8.35069L13.7738 8.33171L10.4027 7.04297L10.3984 7.05984Z" fill="url(#paint24_linear_1571_95600)"/>
  <path d="M14.1535 8.205C14.0582 8.45389 13.0947 8.321 12.0042 7.90338C10.9136 7.48575 10.1069 6.94579 10.2043 6.69479L10.4859 5.96289L14.4373 7.4731L14.1535 8.205Z" fill="#22267C"/>
  <path d="M10.2043 6.69479C10.1069 6.94579 10.9136 7.48575 12.0042 7.90338L12.1524 7.95822L12.6627 6.82978L12.4489 6.71377L10.4859 5.96289L10.2043 6.69479Z" fill="url(#paint25_linear_1571_95600)"/>
  <path d="M10.8667 6.62963C10.8032 6.81524 10.7185 7.09366 10.6719 7.24552C10.89 7.38659 11.117 7.51341 11.3516 7.62518C11.4173 7.47121 11.6036 7.03882 11.6227 7.00085C11.6417 6.96288 11.6523 6.88906 11.8852 6.96499L11.2394 6.56635C11.1399 6.51573 10.9387 6.4187 10.8667 6.62963Z" fill="url(#paint26_linear_1571_95600)"/>
  <path d="M11.2394 6.56635C11.1399 6.51573 10.9387 6.4187 10.8667 6.62963C10.7947 6.84055 10.7185 7.09366 10.6719 7.24552L10.7947 7.32356C10.8498 7.16115 10.9493 6.87008 11.0001 6.73931C11.0721 6.55158 11.1928 6.6233 11.2775 6.65494L11.2881 6.59588L11.2394 6.56635Z" fill="url(#paint27_linear_1571_95600)"/>
  <path d="M10.7495 6.55345C10.6987 6.69899 10.5928 7.01116 10.542 7.15669L10.6712 7.24528C10.7178 7.09342 10.8025 6.815 10.866 6.62939C10.9295 6.44377 11.0799 6.49229 11.1857 6.5408L11.2069 6.53447L11.0777 6.48174C10.9168 6.4037 10.8173 6.3573 10.7495 6.55345Z" fill="url(#paint28_linear_1571_95600)"/>
  <path d="M10.4857 5.96289L10.204 6.69479C10.168 6.78971 10.2591 6.9247 10.4454 7.07867C10.4899 6.93524 10.5958 6.60199 10.6424 6.45856C10.7059 6.27506 10.6127 6.24342 10.5513 6.15272L10.7186 6.05359L10.4857 5.96289Z" fill="url(#paint29_linear_1571_95600)"/>
  <path d="M10.5502 6.15286C10.6116 6.24356 10.7048 6.2752 10.6413 6.4587C10.5947 6.60213 10.4888 6.93539 10.4443 7.07881L10.5417 7.15686C10.5926 7.01132 10.6984 6.69915 10.7493 6.55362C10.817 6.35746 10.9166 6.40386 11.0775 6.4819L10.6222 6.06006L10.5502 6.15286Z" fill="url(#paint30_linear_1571_95600)"/>
  <path d="M13.8093 7.23557C13.8742 7.067 13.3232 6.69955 12.5786 6.41484C11.834 6.13014 11.1777 6.03598 11.1127 6.20455C11.0478 6.37312 11.5988 6.74057 12.3434 7.02527C13.088 7.30998 13.7443 7.40413 13.8093 7.23557Z" stroke="black" stroke-width="0.00640736" stroke-miterlimit="10"/>
  <path d="M13.183 6.99463L12.7383 8.14838C13.4985 8.36141 14.0787 8.39726 14.1528 8.20532L14.4366 7.47342L13.183 6.99463Z" fill="url(#paint31_linear_1571_95600)"/>
  <path d="M13.8393 7.24512L13.744 7.25988L13.3438 8.28707C13.7906 8.36301 14.0997 8.33981 14.1527 8.20481L14.4364 7.47291L13.8393 7.24512Z" fill="url(#paint32_linear_1571_95600)"/>
  <path d="M13.8916 7.69278L13.6566 8.32555C13.5265 8.31615 13.3971 8.29925 13.2691 8.27493L13.5126 7.64216C13.5253 7.60209 13.5189 7.58311 13.4935 7.57045C13.4681 7.55779 13.3728 7.5135 13.25 7.44179L13.3156 7.30469L13.6883 7.5367C13.7625 7.56201 13.8154 7.58311 13.8514 7.59787C13.8692 7.60535 13.8834 7.61945 13.8909 7.63718C13.8984 7.65491 13.8987 7.67486 13.8916 7.69278Z" fill="url(#paint33_linear_1571_95600)"/>
  <path d="M14.4301 7.49694C14.5227 7.2566 13.7136 6.72368 12.6229 6.30664C11.5321 5.8896 10.5728 5.74635 10.4802 5.9867C10.3876 6.22704 11.1967 6.75995 12.2874 7.177C13.3782 7.59404 14.3375 7.73728 14.4301 7.49694Z" fill="#F0CFF7"/>
  <path d="M14.4371 7.47562C14.5256 7.24615 13.7131 6.72205 12.6223 6.30501C11.5316 5.88797 10.5757 5.73591 10.4873 5.96537C10.3988 6.19484 11.2114 6.71894 12.3021 7.13598C13.3928 7.55302 14.3487 7.70508 14.4371 7.47562Z" fill="url(#paint34_linear_1571_95600)"/>
  <path d="M14.1759 6.31746C14.1625 6.29471 14.1476 6.27287 14.1314 6.25208L11.531 5.26074L11.4548 5.27762C11.4063 5.2915 11.3626 5.31828 11.3283 5.35507C11.2939 5.39186 11.2703 5.43727 11.26 5.48643L11.1117 6.20357C11.0461 6.3723 11.5988 6.74142 12.342 7.02406C13.0853 7.30669 13.7439 7.40372 13.8095 7.23498L14.1801 6.60221C14.2059 6.55899 14.2191 6.5095 14.2184 6.45924C14.2176 6.40898 14.2029 6.35991 14.1759 6.31746Z" fill="url(#paint35_linear_1571_95600)"/>
  <path d="M14.2123 6.47405C14.2915 6.2685 13.7105 5.85517 12.9145 5.55084C12.1186 5.24652 11.4092 5.16643 11.3299 5.37197C11.2507 5.57752 11.8318 5.99085 12.6277 6.29518C13.4236 6.5995 14.1331 6.67959 14.2123 6.47405Z" fill="url(#paint36_linear_1571_95600)"/>
  <path d="M14.1856 6.41529C14.256 6.23259 13.6864 5.84488 12.9134 5.54932C12.1404 5.25375 11.4567 5.16226 11.3863 5.34497C11.3159 5.52767 11.8854 5.91538 12.6584 6.21094C13.4315 6.50651 14.1152 6.598 14.1856 6.41529Z" fill="url(#paint37_linear_1571_95600)"/>
  <path d="M13.1762 9.16301L13.5045 8.33197L13.3668 8.31299L13.028 9.16722C12.9962 9.37815 13.2588 9.77468 13.5743 10.321C13.8898 10.8673 14.0825 11.8143 13.8539 12.6643C13.6252 13.5143 13.9428 13.0904 14.1143 12.4682C14.2858 11.8459 14.3282 10.8609 13.8517 10.2324C13.3753 9.60383 13.2271 9.40557 13.1762 9.16301Z" fill="#EA97F0"/>
  <defs>
    <radialGradient id="paint0_radial_1571_95600" cx="0" cy="0" r="1" gradientUnits="userSpaceOnUse" gradientTransform="translate(10.3137 12.2804) scale(4.3139 4.29691)">
      <stop offset="0.83" stop-color="#C548E0"/>
      <stop offset="0.86" stop-color="#C64EE0"/>
      <stop offset="0.91" stop-color="#CA60DF"/>
      <stop offset="0.96" stop-color="#D17EDE"/>
      <stop offset="1" stop-color="#D89CDD"/>
    </radialGradient>
    <linearGradient id="paint1_linear_1571_95600" x1="10.3131" y1="8.80368" x2="10.3131" y2="15.499" gradientUnits="userSpaceOnUse">
      <stop offset="0.13" stop-color="#CD6FDF"/>
      <stop offset="0.14" stop-color="#C569DC"/>
      <stop offset="0.2" stop-color="#A956D1"/>
      <stop offset="0.26" stop-color="#9447C9"/>
      <stop offset="0.33" stop-color="#853CC3"/>
      <stop offset="0.41" stop-color="#7C36C0"/>
      <stop offset="0.53" stop-color="#7934BF"/>
      <stop offset="0.8" stop-color="#512690"/>
      <stop offset="1" stop-color="#381E74"/>
    </linearGradient>
    <linearGradient id="paint2_linear_1571_95600" x1="12.1019" y1="15.5868" x2="10.5899" y2="12.7818" gradientUnits="userSpaceOnUse">
      <stop offset="0.23" stop-color="#A542E8"/>
      <stop offset="0.32" stop-color="#9F40E5"/>
      <stop offset="0.44" stop-color="#8D3CDD"/>
      <stop offset="0.59" stop-color="#6F35CF"/>
      <stop offset="0.7" stop-color="#532EC2"/>
      <stop offset="0.74" stop-color="#532EC2" stop-opacity="0.98"/>
      <stop offset="0.78" stop-color="#532EC2" stop-opacity="0.91"/>
      <stop offset="0.83" stop-color="#532EC1" stop-opacity="0.79"/>
      <stop offset="0.88" stop-color="#522EC1" stop-opacity="0.63"/>
      <stop offset="0.92" stop-color="#522EC0" stop-opacity="0.42"/>
      <stop offset="0.97" stop-color="#512EC0" stop-opacity="0.17"/>
      <stop offset="1" stop-color="#512EBF" stop-opacity="0"/>
    </linearGradient>
    <radialGradient id="paint3_radial_1571_95600" cx="0" cy="0" r="1" gradientUnits="userSpaceOnUse" gradientTransform="translate(10.3141 12.7255) scale(3.86688 3.85166)">
      <stop offset="0.52" stop-color="#141637"/>
      <stop offset="0.57" stop-color="#17173D"/>
      <stop offset="0.64" stop-color="#1F1A50"/>
      <stop offset="0.72" stop-color="#2D1F6D"/>
      <stop offset="0.81" stop-color="#3F2696"/>
      <stop offset="0.9" stop-color="#532EC2"/>
      <stop offset="0.91" stop-color="#532EC2" stop-opacity="0.98"/>
      <stop offset="0.92" stop-color="#532EC2" stop-opacity="0.91"/>
      <stop offset="0.94" stop-color="#532EC1" stop-opacity="0.79"/>
      <stop offset="0.95" stop-color="#522EC1" stop-opacity="0.63"/>
      <stop offset="0.97" stop-color="#522EC0" stop-opacity="0.42"/>
      <stop offset="0.99" stop-color="#512EC0" stop-opacity="0.17"/>
      <stop offset="1" stop-color="#512EBF" stop-opacity="0"/>
    </radialGradient>
    <radialGradient id="paint4_radial_1571_95600" cx="0" cy="0" r="1" gradientUnits="userSpaceOnUse" gradientTransform="translate(10.3138 12.0196) scale(3.82347 3.80842)">
      <stop offset="0.83" stop-color="#141637"/>
      <stop offset="0.87" stop-color="#17163D" stop-opacity="0.88"/>
      <stop offset="0.93" stop-color="#1F184E" stop-opacity="0.55"/>
      <stop offset="0.99" stop-color="#2D1A6A" stop-opacity="0.02"/>
      <stop offset="1" stop-color="#2D1A6B" stop-opacity="0"/>
    </radialGradient>
    <radialGradient id="paint5_radial_1571_95600" cx="0" cy="0" r="1" gradientUnits="userSpaceOnUse" gradientTransform="translate(10.3139 12.2801) scale(3.56174 3.54772)">
      <stop offset="0.75" stop-color="#141637"/>
      <stop offset="0.81" stop-color="#17163D" stop-opacity="0.88"/>
      <stop offset="0.9" stop-color="#1F184E" stop-opacity="0.55"/>
      <stop offset="0.99" stop-color="#2D1A6A" stop-opacity="0.02"/>
      <stop offset="1" stop-color="#2D1A6B" stop-opacity="0"/>
    </radialGradient>
    <linearGradient id="paint6_linear_1571_95600" x1="10.3139" y1="14.7283" x2="10.3139" y2="10.6659" gradientUnits="userSpaceOnUse">
      <stop offset="0.42" stop-color="#8B3DDE"/>
      <stop offset="0.48" stop-color="#883CDB" stop-opacity="0.97"/>
      <stop offset="0.56" stop-color="#8139D1" stop-opacity="0.89"/>
      <stop offset="0.65" stop-color="#7434C2" stop-opacity="0.76"/>
      <stop offset="0.75" stop-color="#622EAC" stop-opacity="0.57"/>
      <stop offset="0.86" stop-color="#4C2691" stop-opacity="0.33"/>
      <stop offset="0.98" stop-color="#311B70" stop-opacity="0.04"/>
      <stop offset="1" stop-color="#2D1A6B" stop-opacity="0"/>
    </linearGradient>
    <linearGradient id="paint7_linear_1571_95600" x1="10.9634" y1="8.43016" x2="10.6673" y2="10.0519" gradientUnits="userSpaceOnUse">
      <stop stop-color="#141637"/>
      <stop offset="0.32" stop-color="#15163A" stop-opacity="0.95"/>
      <stop offset="0.56" stop-color="#1A1743" stop-opacity="0.77"/>
      <stop offset="0.77" stop-color="#211852" stop-opacity="0.48"/>
      <stop offset="0.97" stop-color="#2B1A68" stop-opacity="0.07"/>
      <stop offset="1" stop-color="#2D1A6B" stop-opacity="0"/>
    </linearGradient>
    <linearGradient id="paint8_linear_1571_95600" x1="10.5334" y1="9.11251" x2="12.3247" y2="9.11251" gradientUnits="userSpaceOnUse">
      <stop stop-color="#141637"/>
      <stop offset="0.32" stop-color="#15163A" stop-opacity="0.95"/>
      <stop offset="0.56" stop-color="#1A1743" stop-opacity="0.77"/>
      <stop offset="0.77" stop-color="#211852" stop-opacity="0.48"/>
      <stop offset="0.97" stop-color="#2B1A68" stop-opacity="0.07"/>
      <stop offset="1" stop-color="#2D1A6B" stop-opacity="0"/>
    </linearGradient>
    <linearGradient id="paint9_linear_1571_95600" x1="12.3443" y1="10.1066" x2="14.0112" y2="10.4169" gradientUnits="userSpaceOnUse">
      <stop stop-color="#3B31D1" stop-opacity="0"/>
      <stop offset="0.11" stop-color="#4033D2" stop-opacity="0.27"/>
      <stop offset="0.31" stop-color="#4A38D5" stop-opacity="0.79"/>
      <stop offset="0.41" stop-color="#4E3AD6"/>
    </linearGradient>
    <linearGradient id="paint10_linear_1571_95600" x1="10.3089" y1="15.7526" x2="10.3089" y2="11.8925" gradientUnits="userSpaceOnUse">
      <stop offset="0.22" stop-color="#6450C9"/>
      <stop offset="0.38" stop-color="#8057D3"/>
      <stop offset="0.72" stop-color="#C867EC"/>
      <stop offset="0.74" stop-color="#CC68ED"/>
      <stop offset="0.86" stop-color="#CF65ED"/>
      <stop offset="0.94" stop-color="#D85DEC"/>
      <stop offset="1" stop-color="#E551EB"/>
    </linearGradient>
    <linearGradient id="paint11_linear_1571_95600" x1="6.7922" y1="12.1903" x2="13.8517" y2="12.1903" gradientUnits="userSpaceOnUse">
      <stop offset="0.06" stop-color="#AF47E7"/>
      <stop offset="0.36" stop-color="#904BDA"/>
      <stop offset="0.72" stop-color="#6450C9"/>
      <stop offset="0.79" stop-color="#8050D0"/>
      <stop offset="0.94" stop-color="#C851E3"/>
      <stop offset="1" stop-color="#E551EB"/>
    </linearGradient>
    <linearGradient id="paint12_linear_1571_95600" x1="7.64893" y1="11.9541" x2="12.9335" y2="11.9541" gradientUnits="userSpaceOnUse">
      <stop stop-color="#E551EB"/>
      <stop offset="0.52" stop-color="#E887EF"/>
      <stop offset="0.65" stop-color="#E884EF"/>
      <stop offset="0.74" stop-color="#E77BEE"/>
      <stop offset="0.82" stop-color="#E76CED"/>
      <stop offset="0.89" stop-color="#E557EB"/>
      <stop offset="0.9" stop-color="#E551EB"/>
    </linearGradient>
    <linearGradient id="paint13_linear_1571_95600" x1="10.3141" y1="14.3064" x2="10.3141" y2="15.7666" gradientUnits="userSpaceOnUse">
      <stop stop-color="#8357D4"/>
      <stop offset="1" stop-color="#8267E6"/>
    </linearGradient>
    <linearGradient id="paint14_linear_1571_95600" x1="10.3133" y1="14.3007" x2="10.3133" y2="15.595" gradientUnits="userSpaceOnUse">
      <stop stop-color="#8357D4"/>
      <stop offset="0.54" stop-color="#9273DD"/>
      <stop offset="1" stop-color="#A18FE6"/>
    </linearGradient>
    <linearGradient id="paint15_linear_1571_95600" x1="13.2834" y1="9.45709" x2="13.8825" y2="12.7656" gradientUnits="userSpaceOnUse">
      <stop stop-color="#CE7AE8"/>
      <stop offset="1" stop-color="#F17BF5"/>
    </linearGradient>
    <linearGradient id="paint16_linear_1571_95600" x1="7.05181" y1="10.4267" x2="9.51323" y2="11.5666" gradientUnits="userSpaceOnUse">
      <stop stop-color="#EFCBF7"/>
      <stop offset="0.1" stop-color="#EFCAF7" stop-opacity="0.98"/>
      <stop offset="0.22" stop-color="#EEC7F6" stop-opacity="0.92"/>
      <stop offset="0.35" stop-color="#ECC1F4" stop-opacity="0.82"/>
      <stop offset="0.49" stop-color="#EABAF2" stop-opacity="0.69"/>
      <stop offset="0.64" stop-color="#E8B0EF" stop-opacity="0.51"/>
      <stop offset="0.78" stop-color="#E5A5EC" stop-opacity="0.3"/>
      <stop offset="0.91" stop-color="#E29AE9" stop-opacity="0.1"/>
    </linearGradient>
    <linearGradient id="paint17_linear_1571_95600" x1="7.71646" y1="11.7234" x2="8.87993" y2="12.2622" gradientUnits="userSpaceOnUse">
      <stop stop-color="#EFCBF7"/>
      <stop offset="0.1" stop-color="#EFCAF7" stop-opacity="0.98"/>
      <stop offset="0.22" stop-color="#EEC7F6" stop-opacity="0.92"/>
      <stop offset="0.35" stop-color="#ECC1F4" stop-opacity="0.82"/>
      <stop offset="0.49" stop-color="#EABAF2" stop-opacity="0.69"/>
      <stop offset="0.64" stop-color="#E8B0EF" stop-opacity="0.51"/>
      <stop offset="0.78" stop-color="#E5A5EC" stop-opacity="0.3"/>
      <stop offset="0.91" stop-color="#E29AE9" stop-opacity="0.1"/>
    </linearGradient>
    <linearGradient id="paint18_linear_1571_95600" x1="10.3911" y1="8.3352" x2="9.27763" y2="8.57323" gradientUnits="userSpaceOnUse">
      <stop stop-color="#CE7AE8"/>
      <stop offset="1" stop-color="#DE9FF0"/>
    </linearGradient>
    <linearGradient id="paint19_linear_1571_95600" x1="11.6039" y1="8.12861" x2="10.3821" y2="7.72626" gradientUnits="userSpaceOnUse">
      <stop stop-color="#3B31D1" stop-opacity="0"/>
      <stop offset="0.73" stop-color="#4E3AD6"/>
    </linearGradient>
    <linearGradient id="paint20_linear_1571_95600" x1="11.3495" y1="8.02566" x2="10.2621" y2="7.67132" gradientUnits="userSpaceOnUse">
      <stop stop-color="#6D3DBE" stop-opacity="0"/>
      <stop offset="0.67" stop-color="#6D3DBE"/>
      <stop offset="0.77" stop-color="#7135B3"/>
      <stop offset="0.79" stop-color="#803DBC"/>
      <stop offset="0.83" stop-color="#A854D3"/>
      <stop offset="0.86" stop-color="#C463E3"/>
      <stop offset="0.91" stop-color="#D182E9"/>
      <stop offset="0.97" stop-color="#DEA0F0"/>
      <stop offset="1" stop-color="#E3ABF2"/>
    </linearGradient>
    <linearGradient id="paint21_linear_1571_95600" x1="10.348" y1="7.84144" x2="11.004" y2="8.04539" gradientUnits="userSpaceOnUse">
      <stop stop-color="#F0CFF7"/>
      <stop offset="0.13" stop-color="#F0CDF7" stop-opacity="0.98"/>
      <stop offset="0.28" stop-color="#EEC9F5" stop-opacity="0.92"/>
      <stop offset="0.45" stop-color="#EDC2F4" stop-opacity="0.83"/>
      <stop offset="0.62" stop-color="#EAB8F1" stop-opacity="0.69"/>
      <stop offset="0.8" stop-color="#E6ABED" stop-opacity="0.52"/>
      <stop offset="0.99" stop-color="#E29BE9" stop-opacity="0.31"/>
      <stop offset="1" stop-color="#E29AE9" stop-opacity="0.3"/>
    </linearGradient>
    <linearGradient id="paint22_linear_1571_95600" x1="12.8079" y1="8.58388" x2="13.18" y2="8.72512" gradientUnits="userSpaceOnUse">
      <stop stop-color="#3B31D1" stop-opacity="0"/>
      <stop offset="0.11" stop-color="#4033D2" stop-opacity="0.27"/>
      <stop offset="0.31" stop-color="#4A38D5" stop-opacity="0.79"/>
      <stop offset="0.41" stop-color="#4E3AD6"/>
    </linearGradient>
    <linearGradient id="paint23_linear_1571_95600" x1="12.9837" y1="8.62194" x2="13.4979" y2="8.84277" gradientUnits="userSpaceOnUse">
      <stop stop-color="#4F39D7"/>
      <stop offset="0.04" stop-color="#573CD8"/>
      <stop offset="0.09" stop-color="#6D44DC"/>
      <stop offset="0.16" stop-color="#9152E3"/>
      <stop offset="0.23" stop-color="#BB62EA"/>
      <stop offset="0.37" stop-color="#D783EE"/>
      <stop offset="0.48" stop-color="#EA98F0"/>
      <stop offset="0.61" stop-color="#E995F0"/>
      <stop offset="0.7" stop-color="#E48CEF"/>
      <stop offset="0.77" stop-color="#DD7EED"/>
      <stop offset="0.83" stop-color="#E393EF"/>
      <stop offset="0.94" stop-color="#EBB1F2"/>
      <stop offset="1" stop-color="#EEBCF3"/>
    </linearGradient>
    <linearGradient id="paint24_linear_1571_95600" x1="10.3912" y1="7.16847" x2="13.6743" y2="8.43975" gradientUnits="userSpaceOnUse">
      <stop stop-color="#C457DE"/>
      <stop offset="0.1" stop-color="#9C49CE"/>
      <stop offset="0.22" stop-color="#723ABE"/>
      <stop offset="0.33" stop-color="#5430B3"/>
      <stop offset="0.43" stop-color="#4229AC"/>
      <stop offset="0.49" stop-color="#3B27A9"/>
      <stop offset="0.55" stop-color="#462DAE"/>
      <stop offset="0.66" stop-color="#653CBA"/>
      <stop offset="0.8" stop-color="#9655CE"/>
      <stop offset="0.97" stop-color="#DA78E9"/>
      <stop offset="1" stop-color="#E67EEE"/>
    </linearGradient>
    <linearGradient id="paint25_linear_1571_95600" x1="12.329" y1="7.3554" x2="10.9708" y2="6.77403" gradientUnits="userSpaceOnUse">
      <stop stop-color="#3B31D1" stop-opacity="0"/>
      <stop offset="0.18" stop-color="#3B31D1" stop-opacity="0.5"/>
      <stop offset="0.35" stop-color="#3B31D1"/>
      <stop offset="0.57" stop-color="#9367D6"/>
      <stop offset="0.65" stop-color="#B77DD8"/>
    </linearGradient>
    <linearGradient id="paint26_linear_1571_95600" x1="10.8919" y1="6.91268" x2="11.5143" y2="7.19527" gradientUnits="userSpaceOnUse">
      <stop stop-color="#DD93E7"/>
      <stop offset="0.79" stop-color="#8F66C9"/>
    </linearGradient>
    <linearGradient id="paint27_linear_1571_95600" x1="10.678" y1="6.82578" x2="11.0301" y2="6.94495" gradientUnits="userSpaceOnUse">
      <stop stop-color="#8D78A2"/>
      <stop offset="0.07" stop-color="#937DA7"/>
      <stop offset="0.16" stop-color="#A28BB4"/>
      <stop offset="0.27" stop-color="#BDA2CB"/>
      <stop offset="0.38" stop-color="#E1C2EA"/>
      <stop offset="0.42" stop-color="#F0CFF7"/>
      <stop offset="0.51" stop-color="#EFCAF6"/>
      <stop offset="0.63" stop-color="#EBBBF2"/>
      <stop offset="0.75" stop-color="#E4A3EB"/>
      <stop offset="0.79" stop-color="#E29AE9"/>
    </linearGradient>
    <linearGradient id="paint28_linear_1571_95600" x1="10.6502" y1="6.7783" x2="10.8332" y2="6.84414" gradientUnits="userSpaceOnUse">
      <stop offset="0.07" stop-color="#B78DCB"/>
      <stop offset="0.48" stop-color="#7E59A2"/>
      <stop offset="0.59" stop-color="#825CA5"/>
      <stop offset="0.69" stop-color="#8F65AD"/>
      <stop offset="0.8" stop-color="#A374BA"/>
      <stop offset="0.91" stop-color="#C089CC"/>
      <stop offset="1" stop-color="#DE9FDF"/>
    </linearGradient>
    <linearGradient id="paint29_linear_1571_95600" x1="10.2277" y1="6.43515" x2="10.6333" y2="6.58361" gradientUnits="userSpaceOnUse">
      <stop stop-color="#CE93DE"/>
      <stop offset="1" stop-color="#D06CEC"/>
    </linearGradient>
    <linearGradient id="paint30_linear_1571_95600" x1="10.5278" y1="6.58673" x2="10.7613" y2="6.67614" gradientUnits="userSpaceOnUse">
      <stop stop-color="#CC77E1"/>
      <stop offset="0.61" stop-color="#D59FE3"/>
      <stop offset="1" stop-color="#A684C0"/>
    </linearGradient>
    <linearGradient id="paint31_linear_1571_95600" x1="12.9812" y1="7.5791" x2="14.1803" y2="8.01875" gradientUnits="userSpaceOnUse">
      <stop stop-color="#3B31D1" stop-opacity="0"/>
      <stop offset="0.08" stop-color="#3B31D1" stop-opacity="0.26"/>
      <stop offset="0.25" stop-color="#3B31D1" stop-opacity="0.79"/>
      <stop offset="0.33" stop-color="#3B31D1"/>
      <stop offset="0.35" stop-color="#4B33D6"/>
      <stop offset="0.4" stop-color="#6537DF"/>
      <stop offset="0.43" stop-color="#7539E4"/>
      <stop offset="0.46" stop-color="#7B3AE6"/>
    </linearGradient>
    <linearGradient id="paint32_linear_1571_95600" x1="13.5517" y1="7.74711" x2="14.2017" y2="8.00471" gradientUnits="userSpaceOnUse">
      <stop offset="0.13" stop-color="#BF50E9"/>
      <stop offset="0.6" stop-color="#E9A4F1"/>
      <stop offset="0.69" stop-color="#E9A0F1"/>
      <stop offset="0.79" stop-color="#EB92F1"/>
      <stop offset="0.8" stop-color="#EB90F1"/>
      <stop offset="1" stop-color="#F0D1F7"/>
    </linearGradient>
    <linearGradient id="paint33_linear_1571_95600" x1="13.2921" y1="7.78897" x2="13.7962" y2="8.00025" gradientUnits="userSpaceOnUse">
      <stop stop-color="#7037E3"/>
      <stop offset="0.19" stop-color="#8A3DE6"/>
      <stop offset="1" stop-color="#EB90F1"/>
    </linearGradient>
    <linearGradient id="paint34_linear_1571_95600" x1="10.6457" y1="6.02093" x2="14.2528" y2="7.41772" gradientUnits="userSpaceOnUse">
      <stop stop-color="#E4A2F1"/>
      <stop offset="0.26" stop-color="#BF4AD6"/>
      <stop offset="0.29" stop-color="#A040C4"/>
      <stop offset="0.34" stop-color="#7934AC"/>
      <stop offset="0.39" stop-color="#5A2B9A"/>
      <stop offset="0.43" stop-color="#45248D"/>
      <stop offset="0.47" stop-color="#372086"/>
      <stop offset="0.51" stop-color="#331F83"/>
      <stop offset="0.54" stop-color="#392186"/>
      <stop offset="0.57" stop-color="#492790"/>
      <stop offset="0.61" stop-color="#65319F"/>
      <stop offset="0.65" stop-color="#8B3EB4"/>
      <stop offset="0.69" stop-color="#BC50CF"/>
      <stop offset="0.71" stop-color="#D358DC"/>
      <stop offset="0.85" stop-color="#D877DE"/>
      <stop offset="1" stop-color="#DF9EE1"/>
    </linearGradient>
    <linearGradient id="paint35_linear_1571_95600" x1="11.2394" y1="5.89309" x2="13.9081" y2="6.85675" gradientUnits="userSpaceOnUse">
      <stop stop-color="#B64EDC"/>
      <stop offset="0.06" stop-color="#A146CD"/>
      <stop offset="0.19" stop-color="#7737B0"/>
      <stop offset="0.32" stop-color="#592C9B"/>
      <stop offset="0.42" stop-color="#47258E"/>
      <stop offset="0.49" stop-color="#402389"/>
      <stop offset="0.61" stop-color="#3E2494"/>
      <stop offset="0.83" stop-color="#3728B3"/>
      <stop offset="1" stop-color="#312CCF"/>
    </linearGradient>
    <linearGradient id="paint36_linear_1571_95600" x1="11.706" y1="5.40139" x2="13.4703" y2="6.28895" gradientUnits="userSpaceOnUse">
      <stop stop-color="#B64EDC"/>
      <stop offset="0.1" stop-color="#903FBB"/>
      <stop offset="0.22" stop-color="#662F96"/>
      <stop offset="0.33" stop-color="#48247C"/>
      <stop offset="0.43" stop-color="#361D6C"/>
      <stop offset="0.49" stop-color="#2F1A66"/>
      <stop offset="0.57" stop-color="#301C71"/>
      <stop offset="0.7" stop-color="#312290"/>
      <stop offset="0.88" stop-color="#342AC1"/>
      <stop offset="1" stop-color="#3631E6"/>
    </linearGradient>
    <linearGradient id="paint37_linear_1571_95600" x1="13.5423" y1="6.51635" x2="12.0115" y2="5.21554" gradientUnits="userSpaceOnUse">
      <stop stop-color="#8240E6"/>
      <stop offset="0.59" stop-color="#703BE4"/>
      <stop offset="1" stop-color="#6939E3"/>
    </linearGradient>
  </defs>
</svg>
