<svg width="224" height="122" viewBox="0 0 658 320" fill="none" xmlns="http://www.w3.org/2000/svg">
    <path
        d="M217.664 292.192L282.099 290.685H327.581L313.719 287.533L106.495 272.648L115.386 287.582L34.2239 268.546C34.2239 268.546 15.0816 267.826 8.68723 274.695C1.25301 282.653 -10.144 293.706 18.07 294.443C18.5211 294.456 18.9635 294.571 19.3637 294.779C19.7637 294.991 20.1085 295.294 20.3708 295.663C20.6377 296.03 20.8169 296.453 20.8947 296.9C20.9699 297.342 20.9418 297.796 20.8127 298.226C19.0442 304.276 22.131 315.837 69.4546 318.457C134.324 321.929 247.041 318.457 247.041 318.457L246.156 318.244C271.865 318.744 287.913 318.031 287.913 318.031L649.266 303.187L217.664 292.192Z"
        fill="black" />
    <path d="M318.558 289.736L324.289 290.399L320.122 287.55" fill="#7744C7" />
    <path
        d="M247.532 233.987C217.768 221.99 185.78 216.507 153.72 217.907L124.122 222.426C124.122 222.426 60.743 210.505 44.2043 282.784C44.0408 283.455 44.024 284.153 44.1551 284.831C44.2923 285.509 44.5714 286.151 44.9739 286.714C45.3799 287.272 45.8988 287.738 46.4968 288.081C47.101 288.416 47.7665 288.625 48.4535 288.695L133.333 295.647L145.811 280.795L165.461 298.177L185.577 299.814L291.482 305.062C291.899 305.098 292.318 305.042 292.71 304.898C293.099 304.753 293.454 304.527 293.75 304.235C294.043 303.94 294.269 303.585 294.413 303.195C294.553 302.802 294.609 302.384 294.577 301.967C293.472 289.866 287.217 250.82 247.532 233.987Z"
        fill="#161A8A" />
    <path d="M257.267 283.587H290.901C288.248 274.465 284.026 265.876 278.423 258.206H257.267V283.587Z"
        fill="#161A8A" />
    <path d="M261.991 242.093H246.877V258.222H278.39C273.828 251.997 268.291 246.551 261.991 242.093Z" fill="#250561" />
    <path
        d="M246.877 242.093H261.958C257.441 238.87 252.58 236.157 247.466 234.003C241.623 231.521 235.651 229.351 229.577 227.503V242.093H246.877Z"
        fill="black" />
    <path
        d="M294.446 302.074C293.934 295.807 292.768 289.611 290.966 283.587H277.048L280.519 304.432L290.942 305.3C291.4 305.406 291.876 305.406 292.334 305.3C292.784 305.174 293.199 304.944 293.545 304.628C293.909 304.327 294.19 303.938 294.364 303.499C294.511 303.038 294.54 302.548 294.446 302.074Z"
        fill="#161A8A" />
    <path
        d="M110.22 221.272C110.22 221.272 46.8817 209.392 30.3021 281.63C29.6798 284.512 45.4899 288.581 48.4046 288.581L119.431 290.915L136.805 273.541C137.203 273.065 137.697 272.677 138.254 272.403C138.808 272.126 139.412 271.965 140.03 271.928C140.65 271.888 141.271 271.975 141.856 272.182C142.441 272.387 142.978 272.707 143.436 273.123L168.179 295.434L280.855 304.391C280.855 300.92 280.372 252.728 233.744 232.947C203.979 220.949 171.985 215.477 139.924 216.9"
        fill="#6068EE" />
    <path
        d="M136.805 273.541C137.203 273.065 137.697 272.677 138.254 272.403C138.808 272.126 139.412 271.964 140.031 271.928C140.65 271.888 141.271 271.975 141.856 272.182C142.441 272.387 142.978 272.707 143.436 273.123L168.179 295.434L184.415 296.719L190.523 220.412C173.844 217.326 156.869 216.148 139.924 216.9L110.22 221.272C110.22 221.272 108.583 220.969 105.717 220.748L100.149 290.276L119.431 290.906L136.805 273.541Z"
        fill="#4851E7" />
    <path
        d="M233.777 232.947C219.826 227.331 205.346 223.131 190.555 220.412L184.448 296.719L280.888 304.391C280.855 300.92 280.372 252.736 233.777 232.947Z"
        fill="#2D35AD" />
    <path
        d="M86.0752 221.174C86.0752 221.174 98.8968 226.97 119.046 244.975C139.195 262.979 144.132 269.955 175.924 272.566C207.716 275.178 210.254 230.868 233.671 232.849C257.087 234.83 137.165 179.409 137.165 179.409"
        fill="black" />
    <path
        d="M271.267 102.57C304.795 115.613 323.389 230.557 325.125 258.951C327.171 290.505 323.143 290.718 315.709 289.604C308.275 288.491 302.609 286.125 300.767 256.036C298.925 225.947 294.127 150.745 270.432 135.68C251.806 123.833 235.685 140.855 227.35 137.563C219.015 134.272 26.7568 55.6231 26.7568 55.6231L37.638 18.0262L271.267 102.57Z"
        fill="#7F41CF" />
    <path
        d="M279.848 103.544C313.375 116.587 331.969 231.564 333.705 259.925C335.752 291.447 331.724 291.651 324.289 290.546C316.855 289.441 311.124 287.066 309.347 256.978C307.571 226.889 302.674 151.679 278.98 136.622C260.353 124.783 244.232 141.804 235.898 138.505C227.563 135.205 35.3047 56.5647 35.3047 56.5647L39.8486 16.6672L279.848 103.544Z"
        fill="#2D35AD" />
    <path
        d="M618.203 108.768C642.528 121.483 641.308 237.311 641.586 267.604C641.586 288.695 654.269 300.436 652.009 303.285C645.684 303.541 639.361 302.71 633.317 300.829C628.904 298.447 623.762 297.358 623.623 265.328C623.484 233.299 622.804 152.603 605.905 137.35C599.683 131.717 591.987 143.63 591.987 143.63C589.727 144.219 578.33 141.689 575.104 141.37C574.677 141.354 574.259 141.239 573.884 141.034C567.768 137.833 433.166 61.6652 433.166 61.6652L437.923 20.2039L618.203 108.768Z"
        fill="#FF4CD2" />
    <path
        d="M542.199 71.4493L467.431 34.7367L435.189 44.1359L433.175 61.7143L485.705 91.4431L543.132 74.6998L542.199 71.4493Z"
        fill="#3E1689" />
    <path
        d="M633.325 300.879C639.37 302.76 645.692 303.591 652.017 303.335C654.138 300.666 643.126 290.178 641.742 271.51L623.729 269.987C624.319 297.505 629.125 298.586 633.325 300.879Z"
        fill="#A056F2" />
    <path
        d="M623.623 265.378C623.623 267.015 623.623 268.497 623.681 269.955L641.693 271.478C641.603 270.233 641.554 268.948 641.554 267.638C641.398 250.943 641.701 208.303 637.935 171.238L617.818 169.535C623.181 200.386 623.5 243.853 623.623 265.378Z"
        fill="#7F41CF" />
    <path
        d="M605.905 137.391C611.44 142.402 615.239 154.446 617.843 169.502L637.967 171.197C636.575 157.5 634.627 144.563 631.892 133.977L601.91 135.033L601.836 135.901C602.581 135.85 603.328 135.957 604.029 136.213C604.73 136.47 605.37 136.871 605.905 137.391Z"
        fill="#3E1689" />
    <path
        d="M395.135 72.5221C393.048 106.754 393.261 189.455 306.711 183.225C220.161 176.994 219.048 109.808 219.637 74.6754C220.194 43.3911 239.647 18.0264 307.439 18.5913C375.232 19.1562 397.223 38.2903 395.135 72.5221ZM44.2043 65.2844C36.418 101.989 23.842 174.653 75.4722 176.806C118.628 178.607 145.663 108.801 155.39 71.4004C162.824 42.6706 146.949 28.0069 107.199 24.3553C67.4485 20.7037 50.5659 34.8107 44.1551 65.2926L44.2043 65.2844Z"
        fill="#AB7DED" />
    <path
        d="M390.894 69.5582C388.815 103.79 388.987 186.492 302.47 180.302C215.953 174.112 214.774 106.893 215.396 71.7606C215.953 40.4844 235.406 15.087 303.198 15.6356C370.991 16.1841 392.982 35.441 390.894 69.5582ZM39.9633 62.345C32.218 99.033 19.6011 171.697 71.2394 173.85C114.387 175.692 141.422 105.837 151.149 68.4611C158.624 39.7149 142.741 25.1248 102.958 21.4077C63.1747 17.6905 46.3249 32.0514 39.8568 62.6152L39.9633 62.345Z"
        fill="#2D35AD" />
    <path
        d="M295.617 15.6847C233.957 17.0438 215.928 41.6799 215.38 71.7606C215.2 82.0686 215.175 95.144 217.41 108.604C250.733 84.5437 277.597 52.6254 295.617 15.6847Z"
        fill="#DEC2FC" />
    <path
        d="M103.367 21.4484H102.958C63.1747 17.7313 46.3248 32.0921 39.8567 62.6559L39.9632 62.3858C37.2692 74.6389 35.2168 87.0242 33.8145 99.4913C66.4742 81.5608 92.453 53.9691 103.367 21.4484Z"
        fill="#DEC2FC" />
    <path
        d="M151.149 68.4611C155.243 52.6429 152.287 41.1231 142.143 33.3286C138.499 98.6236 97.4801 140.281 50.7461 167.603C56.0516 171.263 62.7653 173.506 71.2148 173.866C114.387 175.692 141.422 105.837 151.149 68.4611Z"
        fill="black" />
    <path
        d="M390.894 69.5582C391.779 55.0992 388.332 43.3092 378.908 34.475C368.485 95.9301 329.939 145.3 267.313 173.08C277.097 176.789 288.698 179.319 302.47 180.302C388.987 186.492 388.815 103.79 390.894 69.5582Z"
        fill="black" />
    <path
        d="M30.0975 25.3622L26.626 61.0595C33.1759 61.3952 34.5106 63.7696 33.8474 77.2871C33.1842 90.8046 29.336 143.294 38.2603 162.338C47.1847 181.382 57.4109 186.663 84.405 186.328C111.989 185.861 120.643 169.781 134.823 151.818C149.004 133.854 166.091 91.7707 171.028 78.2122C175.441 65.9884 179.216 58.6934 187.567 59.0373C194.273 59.7987 199.029 63.131 201.011 77.2462C202.992 91.3614 211.884 142.369 229.888 163.706C247.892 185.042 257.889 195.637 302.576 199.321C348.713 203.112 362.263 198.372 383.256 178.46C404.248 158.548 417.233 98.9347 420.779 84.6476C424.324 70.3605 432.38 63.1719 449.058 64.531L453.856 22.6275L449.861 20.2859C449.861 20.2859 356.982 1.52849 314.628 2.92036C279.881 4.05841 230.338 20.2859 220.399 23.7656C211.155 27.0406 200.904 25.3376 191.317 26.3447C177.103 26.5494 177.398 30.1191 169.391 28.5308C162.718 27.1717 137.632 14.1781 117.278 10.985C92.5023 7.02226 56.3956 12.1968 30.0975 25.3622ZM310.6 18.8123C378.384 19.3772 400.416 38.4622 398.329 72.7513C396.241 107.04 396.421 189.676 309.904 183.462C223.387 177.248 222.208 110.037 222.83 74.8964C223.387 43.522 242.849 18.2637 310.633 18.8123H310.6ZM47.2993 65.4808C53.7592 35.048 70.609 20.8264 110.343 24.5435C150.077 28.2606 165.936 42.867 158.534 71.5968C148.84 108.997 121.805 178.803 78.6164 176.986C26.9371 174.857 39.6195 102.234 47.2993 65.5299V65.4808Z"
        fill="#5F2BAC" />
    <path
        d="M48.167 179.049C55.11 183.495 64.6318 185.992 78.1166 185.018C105.045 183.249 114.354 168.471 128.535 150.549C142.716 132.626 159.803 90.2234 164.699 76.9433C169.112 64.7194 172.887 55.8279 179.535 55.6559C171.061 55.4103 167.999 62.8527 163.586 75.0766C158.796 88.3894 141.529 130.686 127.381 148.764C113.233 166.842 103.309 182.119 76.34 183.094C66.7645 183.875 57.1359 182.493 48.167 179.049Z"
        fill="#C29FF2" />
    <path
        d="M78.6325 177.035C73.6207 176.902 68.6734 175.87 64.026 173.989L60.0388 183.814C66.3022 185.763 74.1376 186.443 84.4047 186.32C96.5304 186.115 104.996 182.889 111.882 177.821L98.782 172.499C92.5728 175.734 85.6287 177.297 78.6325 177.035Z"
        fill="#FCC0F4" />
    <path
        d="M398.46 69.5827C398.46 70.6307 398.394 71.6868 398.329 72.7675C398.329 73.0213 398.329 73.2915 398.288 73.5863L421.253 82.8955C424.856 70.4096 432.364 63.876 446.913 64.4327L407.106 48.2953L398.46 69.5827Z"
        fill="#3E1689" />
    <path
        d="M309.92 183.478C302.84 182.992 295.807 181.977 288.878 180.441L282.263 196.759C288.15 197.831 294.847 198.683 302.592 199.321C347.009 202.965 361.223 198.715 380.946 180.629L361.387 172.696C349.032 180.687 332.403 185.091 309.92 183.478Z"
        fill="#3E1689" />
    <path
        d="M22.663 22.3001L19.1833 57.9564C25.7333 58.3003 27.0762 60.6747 26.4457 74.1923C25.8153 87.7098 21.8936 140.208 30.8261 159.244C39.7586 178.279 50.0092 183.569 76.9705 183.225C103.932 182.881 113.208 166.694 127.381 148.764C141.553 130.833 158.657 88.4302 163.586 75.0765C167.999 62.8526 171.511 56.0078 178.217 55.6967C187.223 55.2382 193.192 60.0771 195.173 74.1841C197.154 88.2911 204.449 139.266 222.445 160.57C240.441 181.874 250.487 192.354 295.134 196.218C341.729 200.214 354.829 195.244 375.813 175.365C396.797 155.486 409.799 95.8645 413.344 81.5528C416.89 67.2411 424.946 60.077 441.624 61.4279L446.536 18.2391C397.06 5.45023 344.07 -1.00967 301.053 0.128386C257.062 1.31557 225.237 16.1431 212.629 20.6626C200.02 25.1821 187.681 22.4392 177.676 22.824C167.671 23.2088 166.591 24.7317 158.706 23.1351C152.066 21.7842 130.14 11.0014 110.056 7.81643C85.0679 3.83732 48.9612 9.1101 22.663 22.3001ZM303.198 15.7501C370.95 16.3151 392.982 35.4574 390.894 69.6891C388.806 103.921 388.987 186.622 302.47 180.433C215.953 174.243 214.807 106.999 215.396 71.7933C215.953 40.4844 235.414 15.177 303.198 15.7337V15.7501ZM39.8567 62.6234C46.3248 32.2315 63.1747 17.9853 102.958 21.686C142.74 25.3868 158.55 40.0423 151.116 68.7394C141.422 106.132 114.387 175.995 71.1983 174.161C19.5027 171.803 32.1114 99.1394 39.8567 62.607V62.6234Z"
        fill="#A056F2" />
    <path d="M446.561 18.2063L449.893 20.2532L444.981 63.27L441.64 61.3952L446.561 18.2063Z" fill="#D8C2F7" />
    <path
        d="M241.964 180.515C253.427 189.759 267.82 195.039 296.82 197.504C343.415 201.54 356.515 196.579 377.5 176.659C398.484 156.738 411.478 97.1583 415.023 82.8466C418.568 68.5349 427.009 61.2235 445.013 63.3113L441.534 61.4282C424.856 60.0854 416.832 67.1595 413.254 81.5612C409.676 95.963 396.716 155.641 375.723 175.381C354.73 195.121 341.68 200.181 295.044 196.227C267.517 193.86 253.165 188.956 241.964 180.515Z"
        fill="#C29FF2" />
    <path
        d="M623.59 104.314C647.907 117.004 656.979 239.841 657.257 269.856C657.536 303.638 654.547 304.014 649.127 303.105C643.707 302.197 639.539 299.634 639.4 267.637C639.261 235.641 638.582 154.88 621.674 139.61C608.403 127.599 595.933 146.561 589.817 143.294C583.701 140.027 444.964 63.1718 444.964 63.1718L449.877 20.1549L623.59 104.314Z"
        fill="#5F2BAC" />
    <path
        d="M416.709 20.9247L412.787 20.5726V21.6125C410.666 22.7402 408.88 24.4098 407.613 26.4513C406.345 28.4885 405.636 30.824 405.558 33.2223C405.246 35.6053 405.568 38.0283 406.491 40.2471C407.411 42.4658 408.9 44.403 410.806 45.8637V46.8709L414.695 47.1901C420.328 47.6404 425.339 42.1466 425.953 34.9089C426.567 27.6712 422.31 21.4078 416.709 20.9247Z"
        fill="#CA9EF9" />
    <path
        d="M422.22 34.7122C422.817 27.4336 418.756 21.1784 413.156 20.7199C407.556 20.2614 402.512 25.7716 401.931 33.0503C401.35 40.3289 405.394 46.5759 410.995 47.0426C416.595 47.5093 421.622 41.9745 422.22 34.7122Z"
        fill="#DEC2FC" />
    <path opacity="0.5" d="M417.995 25.9929L416.112 24.6992L405.566 39.9197L407.458 41.2298L417.995 25.9929Z"
        fill="#BF8CF7" />
    <path
        d="M177.734 22.8652H177.685C177.242 24.1752 177.766 46.4451 178.004 55.7543H178.217C185.798 55.3695 191.227 58.7345 193.937 68.232L204.99 22.6687C195.132 24.2243 185.684 22.5623 177.734 22.8652Z"
        fill="#CA9EF9" />
    <path
        d="M115.505 140.052C115.505 140.052 89.7229 145.996 78.4324 167.529C67.1419 189.062 61.861 220.977 85.662 221.673C109.463 222.369 115.194 219.724 115.194 219.724"
        fill="#D83AC9" />
    <path
        d="M115.505 140.052C115.505 140.052 89.723 145.996 78.4325 167.529C71.0637 181.448 66.3069 199.993 70.4743 211.316C80.4466 199.747 91.5652 203.816 91.5652 203.816L115.505 153.119V140.052Z"
        fill="#FD99E9" />
    <path
        d="M72.9385 208.671L69.3933 207.943C70.0647 211.611 72.1281 216.032 75.0592 218.357C77.9916 220.661 81.6593 221.824 85.3835 221.632C97.026 221.976 96.1173 221.632 100.006 221.632C72.7012 221.943 72.9385 208.671 72.9385 208.671Z"
        fill="#FD99E9" />
    <path
        d="M112.517 140.879C105.566 143.106 87.2911 150.327 78.2931 167.529C70.9243 181.448 66.1674 199.993 70.3349 211.316C71.1526 210.386 72.0217 209.503 72.9384 208.671C67.8376 157.491 110.151 141.714 112.517 140.879Z"
        fill="white" />
    <path
        d="M234.195 165.753L228.046 158.802C228.046 158.802 229.888 163.714 222.97 145.636C216.051 127.558 201.567 75.1666 201.567 75.1666L215.74 150.532C217.625 154.112 219.872 157.489 222.445 160.611C228.165 167.965 234.706 174.643 241.94 180.515L243.782 181.841L244.2 182.119L245.935 183.266L246.353 183.511C247.81 184.404 249.341 185.272 250.938 186.074H251.216L252.436 186.639C247.884 173.809 234.195 165.753 234.195 165.753Z"
        fill="black" />
    <path
        d="M213.349 149.206C185.307 138.513 162.898 131.382 162.096 137.228C161.293 143.074 170.398 166.514 170.398 166.514L89.825 195.039C91.2315 207.434 97.1121 218.889 106.364 227.257C116.286 235.936 128.818 241.059 141.979 241.814C148.754 242.268 155.537 241.057 161.736 238.285C167.936 235.517 173.368 231.279 177.562 225.939C177.562 225.939 185.749 225.071 208.83 229.41C231.91 233.75 244.584 237.016 249.693 220.306C254.802 203.595 241.383 159.907 213.349 149.206Z"
        fill="#8C1381" />
    <path
        d="M193.716 221.272C168.908 220.453 179.085 233.921 151.362 238.645C142.254 240.035 132.946 239.23 124.212 236.296C115.48 233.354 107.574 228.375 101.148 221.771C102.747 223.751 104.49 225.609 106.364 227.33C116.293 235.997 128.822 241.117 141.979 241.888C148.759 242.323 155.542 241.101 161.744 238.326C167.946 235.546 173.376 231.294 177.562 225.939"
        fill="#D83AC9" />
    <path
        d="M218.172 152.546C218.172 152.546 213.628 67.0281 183.187 54.141C152.746 41.254 130.41 97.2972 124.777 112.96C119.144 128.622 115.886 139.823 104.309 151.441C92.7315 163.059 73.7612 206.837 113.315 223.491C152.868 240.144 188.82 201.745 182.81 177.24C179.96 164.302 175.816 151.684 170.439 139.577"
        fill="#FE72DD" />
    <path
        d="M162.759 139.348C171.538 137.148 180.777 137.644 189.27 140.773C204.662 145.874 220.26 152.677 220.26 152.677L218.106 151.367L217.689 145.554C217.057 136.095 215.898 126.678 214.217 117.348C210.361 97.0926 203.795 73.3571 192.93 61.3707C191.89 60.4619 189.458 59.3811 185.987 63.8269C181.099 69.8447 159.419 106.181 162.759 139.348Z"
        fill="#8C1381" />
    <path
        d="M175.58 204.037C184.996 187.85 177.693 166.76 177.693 166.76C175.818 158.286 169.505 149.034 163.774 142.017C163.171 141.287 162.815 140.384 162.759 139.438C162.701 138.491 162.948 137.55 163.463 136.752C163.984 135.961 164.74 135.354 165.624 135.017C166.509 134.679 167.479 134.634 168.392 134.886L189.245 140.764C197.466 143.106 205.512 146.023 213.325 149.492V149.32C215.755 150.23 218.082 151.394 220.268 152.792C243.446 167.39 254.082 204.905 249.423 220.306L203.352 206.059C197.428 204.216 191.067 204.325 185.209 206.37L169.505 211.823C171.858 209.501 173.9 206.884 175.58 204.037Z"
        fill="#D83AC9" />
    <path
        d="M163.66 77.2789C163.414 77.762 163.136 78.2123 162.841 78.7035C156.487 89.5264 151.795 101.242 148.922 113.459C146.662 122.875 142.421 144.719 129.149 144.302C128.005 144.316 126.877 144.034 125.874 143.483C125.06 142.887 124.398 142.107 123.942 141.207C123.491 140.308 123.261 139.314 123.271 138.308C123.465 134.534 124.296 130.819 125.727 127.321C129.657 115.621 133.792 103.946 138.827 92.5813C142.544 84.3038 148.767 66.6271 160.548 68.2564C161.244 68.3362 161.913 68.5712 162.505 68.9441C163.108 69.3066 163.624 69.7954 164.02 70.3769C164.38 71.0025 164.603 71.6973 164.675 72.4156C164.744 73.1313 164.663 73.8535 164.437 74.5361C164.287 75.4777 164.026 76.3983 163.66 77.2789Z"
        fill="#FD99E9" />
    <path
        d="M304.124 0.112065L301.847 15.7338H303.198C324.707 15.9139 341.598 17.969 354.583 21.7762L358.734 2.5765C340.594 0.687712 322.36 -0.135186 304.124 0.112065Z"
        fill="#CA9EF9" />
    <path
        d="M264.619 19.0333L265.634 4.14844C255.934 6.0728 246.363 8.60221 236.978 11.7218L237.535 29.4067C244.519 24.9364 253.427 21.3913 264.619 19.0333Z"
        fill="#CA9EF9" />
    <path
        d="M71.6078 23.4873L73.8512 7.62C70.2159 8.04574 66.548 8.5943 62.8882 9.25749L58.9172 29.3004C62.7995 26.6789 67.0871 24.7149 71.6078 23.4873Z"
        fill="#CA9EF9" />
    <path
        d="M92.2729 6.53109L90.3572 21.1211C94.5641 21.0898 98.7698 21.2757 102.958 21.6779C109.3 22.2301 115.593 23.2425 121.789 24.7072L123.959 11.0342C119.401 9.6944 114.767 8.63352 110.081 7.85746C104.19 6.94203 98.2347 6.4985 92.2729 6.53109Z"
        fill="#CA9EF9" />
    <path
        d="M301.848 15.7337L304.124 0.111938L301.078 0.169307C289.173 0.504201 277.317 1.83521 265.634 4.1484L264.619 19.0333C274.96 16.8554 287.266 15.6927 301.848 15.7337Z"
        fill="white" />
    <path
        d="M92.2728 6.53125C86.1154 6.54066 79.964 6.9152 73.851 7.65293L71.6077 23.5202C77.7236 21.8935 84.0286 21.0868 90.3571 21.1213L92.2728 6.53125Z"
        fill="white" />
    <path
        d="M22.663 22.2999L19.1833 57.9563C25.7333 58.3002 27.0762 60.6746 26.4457 74.1921C26.1919 79.7596 25.3731 91.9425 25.1275 105.681C28.9428 67.4865 32.2834 36.0876 45.2851 13.4984C37.5022 15.767 29.9326 18.7121 22.663 22.2999Z"
        fill="white" />
    <path
        d="M220.292 152.759C218.105 151.362 215.778 150.196 213.349 149.279C205.512 145.914 197.453 143.091 189.229 140.83L168.383 134.968C167.472 134.71 166.503 134.751 165.616 135.082C164.729 135.421 163.973 136.031 163.455 136.826C162.939 137.624 162.69 138.564 162.742 139.512C162.801 140.456 163.16 141.356 163.766 142.083C169.497 149.034 175.785 158.351 177.684 166.825C178.377 169.044 178.924 171.306 179.322 173.596L246.868 190.7C242.251 176.11 233.253 160.848 220.292 152.759Z"
        fill="#FF4CD2" />
    <path
        d="M177.554 225.939C177.554 225.939 185.741 225.071 208.83 229.41C190.449 212.839 177.554 225.939 177.554 225.939Z"
        fill="black" />
    <path
        d="M46.0466 258.107C49.2119 250.249 53.9165 243.104 59.8835 237.09C65.8501 231.073 72.9596 226.31 80.7941 223.081C61.8565 228.125 39.0955 242.576 30.2039 281.63C30.0567 282.304 30.0567 283.002 30.2039 283.677C30.3357 284.352 30.6153 284.989 31.0227 285.543C31.4219 286.108 31.9385 286.581 32.5372 286.927C33.1323 287.27 33.794 287.483 34.4778 287.549L48.3965 288.696C48.3965 288.696 34.4367 287.549 46.0466 258.107Z"
        fill="white" />
    <path
        d="M31.694 35.9814C32.5946 30.2502 30.8754 25.1903 27.9361 24.7318C24.9968 24.2733 21.8118 28.5471 20.9194 34.2947C20.0269 40.0423 21.6972 45.0613 24.6775 45.5362C27.6577 46.0111 30.7934 41.7208 31.694 35.9814Z"
        fill="#DEC2FC" />
    <path d="M23.4247 40.9268L22.4912 39.8624L29.3688 27.9414L30.2693 29.0468L23.4247 40.9268Z" fill="#B57AF5" />
    <path
        d="M324.535 200.566C324.846 202.203 332.207 245.744 331.478 270.347C331.478 270.347 333.181 287.443 325.96 290.603C332.387 291.291 335.686 288.966 333.811 259.777C331.962 239.865 328.864 220.089 324.535 200.566Z"
        fill="#FF4CD2" />
    <path
        d="M657.257 269.93C656.192 233.326 652.452 196.849 646.065 160.791C646.065 160.791 662.26 295.884 649.127 303.253C654.613 304.121 657.536 303.728 657.257 269.93Z"
        fill="#FF4CD2" />
    <path
        d="M232.876 252.581C232.876 252.581 251.355 264.617 250.627 301.894L241.964 301.206C244.685 284.434 241.471 267.238 232.876 252.581Z"
        fill="#161A8A" />
    <path
        d="M105.422 173.981L106.871 169.224C107.886 165.823 110.062 162.885 113.02 160.922C115.979 158.962 119.528 158.093 123.058 158.466L125.006 158.671C126.717 158.87 128.371 159.41 129.87 160.259C131.369 161.12 132.676 162.279 133.71 163.665C134.748 165.04 135.489 166.615 135.887 168.291C136.293 169.967 136.349 171.709 136.051 173.408L135.012 179.426C134.405 182.895 132.458 185.986 129.591 188.031C126.724 190.072 123.167 190.901 119.693 190.34L115.173 189.611C113.453 189.328 111.812 188.683 110.359 187.72C108.904 186.758 107.675 185.493 106.757 184.011C105.829 182.534 105.229 180.876 104.996 179.147C104.769 177.415 104.914 175.653 105.422 173.981Z"
        fill="white" />
    <path
        d="M220.292 211.201L201.117 191.977L177.734 199.592C177.132 201.121 176.423 202.607 175.613 204.037C173.971 206.865 171.973 209.471 169.669 211.791C172.299 210.381 175.121 209.36 178.045 208.762C181.096 207.659 184.203 206.718 187.354 205.945C193.593 204.501 200.109 204.807 206.185 206.829C210.852 208.319 215.535 209.744 220.292 211.201Z"
        fill="#D83AC9" />
    <path
        d="M171.651 135.803C163.799 133.609 162.718 128.434 162.644 125.855C162.243 130.344 162.243 134.859 162.644 139.348C166.57 138.278 170.643 137.855 174.705 138.095C174.885 137.293 174.05 136.474 171.651 135.803Z"
        fill="#EB5ACC" />
    <path
        d="M166.165 144.973C160.843 138.685 162.685 125.855 162.685 125.855L157.199 156.575C157.199 156.575 171.478 151.253 166.165 144.973Z"
        fill="#FE72DD" />
    <path
        d="M46.0137 288.483C46.0137 288.483 46.0137 260.408 59.3511 245.008C59.3511 245.008 50.1074 258.926 48.3062 288.696"
        fill="white" />
    <path
        d="M51.8516 288.974C49.9529 273.899 52.5626 258.6 59.3512 245.007C47.1191 259.114 46.112 280.32 46.0138 284.381C42.5341 282.465 37.6053 279.558 46.0138 258.107C49.1792 250.251 53.8807 243.106 59.8425 237.09C65.8119 231.076 72.9209 226.314 80.7533 223.081C61.8239 228.125 39.0627 242.576 30.163 281.63C30.0192 282.305 30.0192 283.002 30.163 283.677C30.2988 284.35 30.578 284.987 30.9817 285.543C31.3809 286.108 31.8975 286.581 32.4963 286.927C33.0904 287.273 33.7526 287.485 34.4368 287.549L46.0056 288.483"
        fill="white" />
    <path
        d="M65.2213 289.244C65.2213 289.244 60.882 250.64 80.7775 235.911C80.7775 235.911 65.1724 261.374 72.7868 289.735"
        fill="#2D35AD" />
    <path
        d="M449.86 20.1549L444.948 63.1718C444.948 63.1718 487.007 86.4734 525.84 107.965L517.391 52.872L449.86 20.1549Z"
        fill="#7F41CF" />
    <path
        d="M29.7617 24.7972L27.3546 24.6089L27.6738 25.2557C26.2905 26.3737 25.1555 27.768 24.3415 29.3495C23.5161 30.9163 23.0201 32.6355 22.8841 34.4012C22.4726 36.1158 22.4197 37.8968 22.7286 39.6329C23.0359 41.3876 23.7021 43.0599 24.6855 44.5453L24.7672 45.5607L26.7731 45.6916C30.0481 45.4705 32.8564 41.8681 33.7243 36.0959C34.5922 30.3238 32.7174 25.2557 29.7617 24.7972Z"
        fill="#C29FF2" />
    <path
        d="M31.4975 35.8994C32.3981 30.1681 30.6788 25.1083 27.7395 24.6498C24.8002 24.1913 21.6153 28.4651 20.7228 34.2127C19.8304 39.9603 21.5007 44.9793 24.4809 45.4542C27.4612 45.929 30.5968 41.6388 31.4975 35.8994Z"
        fill="#D8C2F7" />
    <path d="M23.2282 40.8448L22.2947 39.7804L29.1723 27.8594L30.0728 28.9648L23.2282 40.8448Z" fill="#AB7DED" />
</svg>
