<svg width="154" height="144" viewBox="0 0 154 144" fill="none" xmlns="http://www.w3.org/2000/svg">
<g filter="url(#filter0_d_4482_100874)">
<path d="M55.6284 117.821C61.9116 114.219 69.2055 112.155 77 112.155C84.7945 112.155 92.0884 114.219 98.3715 117.821C100.642 119.123 103.548 118.354 104.862 116.103C106.175 113.852 105.399 110.972 103.128 109.67C100.267 108.029 97.2334 106.65 94.0624 105.564C96.675 104.18 99.1094 102.488 101.326 100.537C103.987 101.942 107.025 102.739 110.25 102.739C117.802 102.739 124.325 98.3716 127.388 92.0461C128.149 90.4761 127.676 88.6021 126.262 87.5688C123.533 85.5749 120.246 84.2872 116.677 83.9778C124.008 81.3664 129.25 74.4146 129.25 66.2492C129.25 65.8069 129.235 65.3682 129.204 64.9335C129.079 63.1334 127.643 61.7104 125.827 61.5862C125.389 61.5562 124.946 61.5409 124.5 61.5409C122.292 61.5409 120.172 61.9143 118.2 62.6009C122.068 59.1533 124.5 54.1547 124.5 48.593C124.5 44.4146 123.127 40.554 120.804 37.4302C119.762 36.0284 117.871 35.5599 116.288 36.3136C112.727 38.008 109.781 40.7699 107.873 44.181C107.874 44.0824 107.875 43.9836 107.875 43.8846C107.875 33.4832 99.3684 25.0513 88.875 25.0513C87.4093 25.0513 85.9824 25.2158 84.612 25.5272C83.0018 25.8931 81.8421 27.2753 81.7689 28.9112C81.7563 29.1924 81.75 29.4753 81.75 29.7596C81.75 39.6824 89.4918 47.8128 99.3148 48.54C103.55 54.6513 105.5 62.4194 105.5 69.7804C105.5 86.9938 92.4368 100.385 77 100.385C61.5651 100.382 48.5 86.9922 48.5 69.7804C48.5 62.4194 50.4496 54.6513 54.6852 48.54C64.5082 47.8128 72.25 39.6824 72.25 29.7596C72.25 29.4753 72.2436 29.1924 72.2311 28.9112C72.1579 27.2753 70.9982 25.8931 69.388 25.5272C68.0176 25.2158 66.5907 25.0513 65.125 25.0513C54.6316 25.0513 46.125 33.4832 46.125 43.8846C46.125 43.9836 46.1258 44.0824 46.1273 44.181C44.2189 40.7699 41.2732 38.008 37.7125 36.3136C36.1286 35.5599 34.238 36.0284 33.1956 37.4302C30.8727 40.554 29.5 44.4146 29.5 48.593C29.5 54.1547 31.9321 59.1533 35.7997 62.6008C33.8283 61.9143 31.7081 61.5409 29.5 61.5409C29.0538 61.5409 28.6111 61.5562 28.1725 61.5862C26.3566 61.7104 24.921 63.1334 24.7956 64.9335C24.7654 65.3682 24.75 65.8069 24.75 66.2492C24.75 74.4146 29.9924 81.3664 37.323 83.9778C33.7537 84.2872 30.4672 85.5749 27.7382 87.5688C26.3239 88.6021 25.8514 90.4761 26.6117 92.0461C29.6753 98.3716 36.1981 102.739 43.75 102.739C46.9754 102.739 50.013 101.942 52.6737 100.537C54.8905 102.488 57.325 104.18 59.9375 105.564C56.7666 106.65 53.7333 108.029 50.8715 109.67C48.6007 110.972 47.8248 113.852 49.1384 116.103C50.4519 118.354 53.3576 119.123 55.6284 117.821Z" fill="#C7C8CE"/>
</g>
<defs>
<filter id="filter0_d_4482_100874" x="0.15" y="0.451269" width="153.7" height="142.604" filterUnits="userSpaceOnUse" color-interpolation-filters="sRGB">
<feFlood flood-opacity="0" result="BackgroundImageFix"/>
<feColorMatrix in="SourceAlpha" type="matrix" values="0 0 0 0 0 0 0 0 0 0 0 0 0 0 0 0 0 0 127 0" result="hardAlpha"/>
<feOffset/>
<feGaussianBlur stdDeviation="12.3"/>
<feComposite in2="hardAlpha" operator="out"/>
<feColorMatrix type="matrix" values="0 0 0 0 0.345098 0 0 0 0 0.396078 0 0 0 0 0.94902 0 0 0 1 0"/>
<feBlend mode="normal" in2="BackgroundImageFix" result="effect1_dropShadow_4482_100874"/>
<feBlend mode="normal" in="SourceGraphic" in2="effect1_dropShadow_4482_100874" result="shape"/>
</filter>
</defs>
</svg>
