<svg xmlns="http://www.w3.org/2000/svg" width="320" height="220" xmlns:xlink="http://www.w3.org/1999/xlink">
  <defs>
    <path id="a" d="M0 .731h320V314H0V.731z"/>
    <path id="c" d="M4 .731c-2.209 0-4 1.791-4 4v12c0 2.209 1.791 3.999 4 3.999h308c2.209 0 4-1.79 4-3.999v-12c0-2.209-1.791-4-4-4"/>
    <path id="e" d="M4 .731c-2.209 0-4 1.791-4 4v12c0 2.209 1.791 3.999 4 3.999h308c2.209 0 4-1.79 4-3.999v-12c0-2.209-1.791-4-4-4H4z"/>
    <path id="g" d="M4 .731c-2.209 0-4 1.791-4 4v12c0 2.209 1.791 3.999 4 3.999h308c2.209 0 4-1.79 4-3.999v-12c0-2.209-1.791-4-4-4"/>
    <path id="i" d="M4 .731c-2.209 0-4 1.791-4 4v12c0 2.209 1.791 3.999 4 3.999h308c2.209 0 4-1.79 4-3.999v-12c0-2.209-1.791-4-4-4"/>
    <path id="k" d="M4 .731c-2.209 0-4 1.791-4 4v12c0 2.209 1.791 3.999 4 3.999h308c2.209 0 4-1.79 4-3.999v-12c0-2.209-1.791-4-4-4"/>
    <path id="m" d="M4 .731c-2.209 0-4 1.791-4 4v12c0 2.209 1.791 3.999 4 3.999h308c2.209 0 4-1.79 4-3.999v-12c0-2.209-1.791-4-4-4"/>
    <path id="o" d="M4 .731c-2.209 0-4 1.791-4 4v12c0 2.209 1.791 3.999 4 3.999h308c2.209 0 4-1.79 4-3.999v-12c0-2.209-1.791-4-4-4"/>
    <path id="q" d="M4 .731c-2.209 0-4 1.791-4 4v12c0 2.209 1.791 3.999 4 3.999h308c2.209 0 4-1.79 4-3.999v-12c0-2.209-1.791-4-4-4"/>
    <path id="s" d="M4 .731c-2.209 0-4 1.791-4 4v12c0 2.209 1.791 3.999 4 3.999h308c2.209 0 4-1.79 4-3.999v-12c0-2.209-1.791-4-4-4"/>
    <path id="u" d="M4 .731c-2.209 0-4 1.791-4 4v12c0 2.209 1.791 3.999 4 3.999h308c2.209 0 4-1.79 4-3.999v-12c0-2.209-1.791-4-4-4"/>
    <path id="w" d="M4 .731c-2.209 0-4 1.791-4 4v12c0 2.209 1.791 3.999 4 3.999h308c2.209 0 4-1.79 4-3.999v-12c0-2.209-1.791-4-4-4"/>
    <path id="y" d="M4 .731c-2.209 0-4 1.791-4 4v12c0 2.209 1.791 3.999 4 3.999h308c2.209 0 4-1.79 4-3.999v-12c0-2.209-1.791-4-4-4"/>
    <path id="A" d="M4 .731c-2.209 0-4 1.791-4 4v12c0 2.209 1.791 3.999 4 3.999h308c2.209 0 4-1.79 4-3.999v-12c0-2.209-1.791-4-4-4"/>
    <path id="C" d="M4 .731c-2.209 0-4 1.791-4 4v12c0 2.209 1.791 3.999 4 3.999h308c2.209 0 4-1.79 4-3.999v-12c0-2.209-1.791-4-4-4"/>
    <path id="E" d="M4 .731c-2.209 0-4 1.791-4 4v12c0 2.209 1.791 3.999 4 3.999h308c2.209 0 4-1.79 4-3.999v-12c0-2.209-1.791-4-4-4"/>
    <path id="G" d="M4 .731c-2.209 0-4 1.791-4 4v12c0 2.209 1.791 3.999 4 3.999h308c2.209 0 4-1.79 4-3.999v-12c0-2.209-1.791-4-4-4"/>
    <path id="I" d="M4 .731c-2.209 0-4 1.791-4 4v12c0 2.209 1.791 3.999 4 3.999h308c2.209 0 4-1.79 4-3.999v-12c0-2.209-1.791-4-4-4"/>
    <path id="K" d="M4 .731c-2.209 0-4 1.791-4 4v12c0 2.209 1.791 3.999 4 3.999h308c2.209 0 4-1.79 4-3.999v-12c0-2.209-1.791-4-4-4"/>
    <path id="M" d="M4 .731c-2.209 0-4 1.791-4 4v12c0 2.209 1.791 3.999 4 3.999h308c2.209 0 4-1.79 4-3.999v-12c0-2.209-1.791-4-4-4"/>
    <path id="O" d="M4 .731c-2.209 0-4 1.791-4 4v12c0 2.209 1.791 3.999 4 3.999h308c2.209 0 4-1.79 4-3.999v-12c0-2.209-1.791-4-4-4H4z"/>
    <path id="Q" d="M4 .731c-2.209 0-4 1.791-4 4v12c0 2.209 1.791 3.999 4 3.999h308c2.209 0 4-1.79 4-3.999v-12c0-2.209-1.791-4-4-4"/>
    <path id="S" d="M4 .731c-2.209 0-4 1.791-4 4v12c0 2.209 1.791 3.999 4 3.999h308c2.209 0 4-1.79 4-3.999v-12c0-2.209-1.791-4-4-4"/>
    <path id="U" d="M4 .731c-2.209 0-4 1.791-4 4v12c0 2.209 1.791 3.999 4 3.999h308c2.209 0 4-1.79 4-3.999v-12c0-2.209-1.791-4-4-4"/>
    <path id="W" d="M4 .731c-2.209 0-4 1.791-4 4v12c0 2.209 1.791 3.999 4 3.999h308c2.209 0 4-1.79 4-3.999v-12c0-2.209-1.791-4-4-4"/>
    <path id="Y" d="M4 .731c-2.209 0-4 1.791-4 4v12c0 2.209 1.791 3.999 4 3.999h308c2.209 0 4-1.79 4-3.999v-12c0-2.209-1.791-4-4-4H4z"/>
    <path id="aa" d="M4 .731c-2.209 0-4 1.791-4 4v12c0 2.209 1.791 3.999 4 3.999h308c2.209 0 4-1.79 4-3.999v-12c0-2.209-1.791-4-4-4H4z"/>
    <path id="ac" d="M4 .731c-2.209 0-4 1.791-4 4v12c0 2.209 1.791 3.999 4 3.999h308c2.209 0 4-1.79 4-3.999v-12c0-2.209-1.791-4-4-4"/>
    <path id="ae" d="M4 .731c-2.209 0-4 1.791-4 4v12c0 2.209 1.791 3.999 4 3.999h308c2.209 0 4-1.79 4-3.999v-12c0-2.209-1.791-4-4-4"/>
    <path id="ag" d="M4 .731c-2.209 0-4 1.791-4 4v12c0 2.209 1.791 3.999 4 3.999h308c2.209 0 4-1.79 4-3.999v-12c0-2.209-1.791-4-4-4"/>
    <path id="ai" d="M4 .731c-2.209 0-4 1.791-4 4v12c0 2.209 1.791 3.999 4 3.999h308c2.209 0 4-1.79 4-3.999v-12c0-2.209-1.791-4-4-4"/>
    <path id="ak" d="M4 .731c-2.209 0-4 1.791-4 4v12c0 2.209 1.791 3.999 4 3.999h308c2.209 0 4-1.79 4-3.999v-12c0-2.209-1.791-4-4-4"/>
    <path id="am" d="M4 .731c-2.209 0-4 1.791-4 4v12c0 2.209 1.791 3.999 4 3.999h308c2.209 0 4-1.79 4-3.999v-12c0-2.209-1.791-4-4-4"/>
    <path id="ao" d="M4 .731c-2.209 0-4 1.791-4 4v12c0 2.209 1.791 3.999 4 3.999h308c2.209 0 4-1.79 4-3.999v-12c0-2.209-1.791-4-4-4"/>
    <path id="aq" d="M4 .731c-2.209 0-4 1.791-4 4v12c0 2.209 1.791 3.999 4 3.999h308c2.209 0 4-1.79 4-3.999v-12c0-2.209-1.791-4-4-4"/>
  </defs>
  <g fill="none" fill-rule="evenodd">
    <path fill="#ECEEF1" d="M170 180.731h-20v-39h20v39z"/>
    <path stroke="#778087" stroke-width="4" d="M150 141.7309h20v39h-20v-16.956" stroke-linecap="round" stroke-linejoin="round"/>
    <path fill="#FFF" d="M174 180.7309h100c2.209 0 4-1.791 4-4v-25.913c0-2.209-1.791-4-4-4H174c-2.209 0-4 1.791-4 4v25.913c0 2.209 1.791 4 4 4"/>
    <path stroke="#778087" stroke-width="4" d="M174 180.7309h100c2.209 0 4-1.791 4-4v-25.913c0-2.209-1.791-4-4-4H174c-2.209 0-4 1.791-4 4v25.913c0 2.209 1.791 4 4 4z" stroke-linecap="round" stroke-linejoin="round"/>
    <path fill="#ECEEF1" d="M179 173.7309h90c1.105 0 2-.895 2-2v-15.913c0-1.105-.895-2-2-2h-90c-1.105 0-2 .895-2 2v15.913c0 1.105.895 2 2 2"/>
    <path fill="#DBDDE0" d="M177 159.8177h94v-4c0-1.105-.895-2-2-2h-90c-1.105 0-2 .895-2 2v4z"/>
    <path stroke="#778087" stroke-width="4" d="M228.9975 173.7309h12.142m12.6653 0h15.195c1.105 0 2-.895 2-2v-15.913c0-1.105-.895-2-2-2h-90c-1.104 0-2 .895-2 2v15.913c0 1.105.896 2 2 2h40.999" stroke-linecap="round" stroke-linejoin="round"/>
    <path fill="#FFF" d="M258 163.8177c0 2.209-1.791 4-4 4s-4-1.791-4-4 1.791-4 4-4 4 1.791 4 4m-20 0c0 2.209-1.791 4-4 4s-4-1.791-4-4 1.791-4 4-4 4 1.791 4 4m-20 0c0 2.209-1.791 4-4 4s-4-1.791-4-4 1.791-4 4-4 4 1.791 4 4m-20 0c0 2.209-1.791 4-4 4s-4-1.791-4-4 1.791-4 4-4 4 1.791 4 4"/>
    <path stroke="#778087" stroke-width="4" d="M258 163.8177c0 2.209-1.791 4-4 4s-4-1.791-4-4 1.791-4 4-4 4 1.791 4 4zm-20 0c0 2.209-1.791 4-4 4s-4-1.791-4-4 1.791-4 4-4 4 1.791 4 4zm-20 0c0 2.209-1.791 4-4 4s-4-1.791-4-4 1.791-4 4-4 4 1.791 4 4zm-20 0c0 2.209-1.791 4-4 4s-4-1.791-4-4 1.791-4 4-4 4 1.791 4 4z" stroke-linecap="round" stroke-linejoin="round"/>
    <path fill="#ECEEF1" d="M178 19.7309h-36c-1.105 0-2-.895-2-2v-10c0-1.105.895-2 2-2h36c1.105 0 2 .895 2 2v10c0 1.105-.895 2-2 2"/>
    <path stroke="#778087" stroke-width="4" d="M178 19.7309h-36c-1.105 0-2-.895-2-2v-10c0-1.105.895-2 2-2h36c1.105 0 2 .895 2 2v10c0 1.105-.895 2-2 2z" stroke-linecap="round" stroke-linejoin="round"/>
    <path fill="#C9CBCE" d="M163 17.7309v21h-6v-21"/>
    <path stroke="#778087" stroke-width="4" d="M163 17.7309v21h-6v-21" stroke-linecap="round" stroke-linejoin="round"/>
    <path fill="#B2B4B6" d="M157 17.7309h6"/>
    <path stroke="#778087" stroke-width="4" d="M157 17.7309h6" stroke-linecap="round" stroke-linejoin="round"/>
    <path fill="#FFF" d="M168 22.7309h-16c-1.105 0-2-.895-2-2v-16c0-1.105.895-2 2-2h16c1.105 0 2 .895 2 2v16c0 1.105-.895 2-2 2"/>
    <path stroke="#778087" stroke-width="4" d="M164.5 12.7309c0 2.485-2.015 4.5-4.5 4.5s-4.5-2.015-4.5-4.5 2.015-4.5 4.5-4.5 4.5 2.015 4.5 4.5z" stroke-linecap="round" stroke-linejoin="round"/>
    <path stroke="#778087" stroke-width="4" d="M170 14.7305v6c0 1.105-.895 2-2 2h-16c-1.105 0-2-.895-2-2v-3m0-7.7807v-5.219c0-1.104.895-2 2-2h16c1.105 0 2 .896 2 2v2.5" stroke-linecap="round" stroke-linejoin="round"/>
    <path fill="#ECEEF1" d="M262 153.7309H58c-3.314 0-6-2.686-6-6v-113c0-3.314 2.686-6 6-6h204c3.314 0 6 2.686 6 6v113c0 3.314-2.686 6-6 6"/>
    <path stroke="#778087" stroke-width="4" d="M228.9807 28.7309h33.019c3.314 0 6 2.686 6 6v113c0 3.314-2.686 6-6 6h-204c-3.313 0-6-2.686-6-6v-113c0-3.314 2.687-6 6-6h143.97" stroke-linecap="round" stroke-linejoin="round"/>
    <path fill="#FFF" d="M256 137.7309H64c-1.105 0-2-.895-2-2v-93c0-1.105.895-2 2-2h192c1.105 0 2 .895 2 2v93c0 1.105-.895 2-2 2"/>
    <path stroke="#778087" stroke-width="4" d="M256 137.7309H64c-1.105 0-2-.895-2-2v-93c0-1.105.895-2 2-2h192c1.105 0 2 .895 2 2v93c0 1.105-.895 2-2 2z" stroke-linecap="round" stroke-linejoin="round"/>
    <path fill="#C9CBCE" d="M62.0174 142.4088h-24v-35c0-5.523 4.477-10 10-10h4c5.523 0 10 4.477 10 10v35z"/>
    <mask id="b" fill="#fff">
      <use xlink:href="#a"/>
    </mask>
    <path fill="#ECEEF1" d="M55.017 174.231h-10v-37h10v37z" mask="url(#b)"/>
    <path stroke="#778087" stroke-width="4" d="M55.017 174.231h-10v-37h10v37z" stroke-linecap="round" stroke-linejoin="round" mask="url(#b)"/>
    <path fill="#ECEEF1" d="M58.5174 180.7309h-17c-1.933 0-3.5-1.567-3.5-3.5s1.567-3.5 3.5-3.5h17c1.933 0 3.5 1.567 3.5 3.5s-1.567 3.5-3.5 3.5" mask="url(#b)"/>
    <path stroke="#778087" stroke-width="4" d="M58.5174 180.7309h-17c-1.933 0-3.5-1.567-3.5-3.5s1.567-3.5 3.5-3.5h17c1.933 0 3.5 1.567 3.5 3.5s-1.567 3.5-3.5 3.5zm3.5-38.3221h-24v-35c0-5.523 4.477-10 10-10h4c5.523 0 10 4.477 10 10v35z" stroke-linecap="round" stroke-linejoin="round" mask="url(#b)"/>
    <path fill="#FFF" d="M56.0174 158.4088h-12c-4.971 0-9-4.029-9-9v-25c0-1.105.895-2 2-2h26c1.105 0 2 .895 2 2v25c0 4.971-4.029 9-9 9" mask="url(#b)"/>
    <path stroke="#778087" stroke-width="4" d="M56.0174 158.4088h-12c-4.971 0-9-4.029-9-9v-25c0-1.105.895-2 2-2h26c1.105 0 2 .895 2 2v25c0 4.971-4.029 9-9 9z" stroke-linecap="round" stroke-linejoin="round" mask="url(#b)"/>
    <path fill="#ECEEF1" d="M56.0174 136.2611c0 3.314-2.686 6-6 6s-6-2.686-6-6 2.686-6 6-6 6 2.686 6 6" mask="url(#b)"/>
    <path stroke="#778087" stroke-width="4" d="M56.0174 136.2611c0 3.314-2.686 6-6 6s-6-2.686-6-6 2.686-6 6-6 6 2.686 6 6zm-18-26.4825l13 12m-11-20.3238l19.992 18.454m23.9602 33.2821v3.088c0 5.523-4.477 10-10 10h-27.952" stroke-linecap="round" stroke-linejoin="round" mask="url(#b)"/>
    <path fill="#C9CBCE" d="M77.9696 133.7309h12v19c0 .552-.448 1-1 1h-10c-.552 0-1-.448-1-1v-19z" mask="url(#b)"/>
    <path stroke="#778087" stroke-width="4" d="M77.9696 133.7309h12v19c0 .552-.448 1-1 1h-10c-.552 0-1-.448-1-1v-19z" stroke-linecap="round" stroke-linejoin="round" mask="url(#b)"/>
    <path fill="#ECEEF1" d="M48.9696 111.5398c0-19.33 15.67-35 35-35s35 15.67 35 35-15.67 35-35 35-35-15.67-35-35" mask="url(#b)"/>
    <path stroke="#778087" stroke-width="4" d="M118.9696 111.5398c0 19.33-15.67 35-35 35s-35-15.67-35-35 15.67-35 35-35c11.756 0 22.158 5.796 28.505 14.685" stroke-linecap="round" stroke-linejoin="round" mask="url(#b)"/>
    <path fill="#C9CBCE" d="M58.9696 111.5398c0-13.807 11.193-25 25-25s25 11.193 25 25-11.193 25-25 25-25-11.193-25-25" mask="url(#b)"/>
    <path stroke="#778087" stroke-width="4" d="M83.9696 136.5398c-13.807 0-25-11.193-25-25s11.193-25 25-25 25 11.193 25 25c0 6.904-2.798 13.154-7.322 17.678" stroke-linecap="round" stroke-linejoin="round" mask="url(#b)"/>
    <path fill="#FFF" d="M314 200.7309H6c-2.209 0-4-1.791-4-4v-12c0-2.209 1.791-4 4-4h308c2.209 0 4 1.791 4 4v12c0 2.209-1.791 4-4 4" mask="url(#b)"/>
    <g transform="translate(2 180)">
      <mask id="d" fill="#fff">
        <use xlink:href="#c"/>
      </mask>
      <path fill="#ECEEF1" d="M78.2759 23.5179c-1.066 0-1.929.863-1.929 1.929v67.618c0 1.067.863 1.93 1.929 1.93s1.929-.863 1.929-1.93v-67.618c0-1.066-.863-1.929-1.929-1.929" mask="url(#d)"/>
    </g>
    <g transform="translate(2 180)">
      <mask id="f" fill="#fff">
        <use xlink:href="#e"/>
      </mask>
      <path fill="#ECEEF1" d="M109.7975 101.7982c-1.885-3.924-4.399-7.561-7.567-10.73-6.645-6.644-10.306-15.48-10.306-24.882v-21.722c1.887 3.929 4.405 7.572 7.578 10.745 6.638 6.64 10.295 15.469 10.295 24.859v21.73zm-17.873-74.199v-56.939c0-1.066-.863-1.929-1.929-1.929-1.067 0-1.93.863-1.93 1.929v95.526c0 10.43 4.063 20.236 11.437 27.61 6.638 6.64 10.295 15.469 10.295 24.859v13.415c0 1.067.863 1.93 1.929 1.93 1.067 0 1.93-.863 1.93-1.93v-52.002c0-10.419-4.059-20.217-11.426-27.587-6.645-6.644-10.306-15.48-10.306-24.882z" mask="url(#f)"/>
    </g>
    <g transform="translate(2 180)">
      <mask id="h" fill="#fff">
        <use xlink:href="#g"/>
      </mask>
      <path fill="#ECEEF1" d="M119.578-31.2691c-1.066 0-1.929.863-1.929 1.929v12.722c0 4.096-3.333 7.427-7.429 7.427-4.097 0-7.43-3.331-7.43-7.427v-12.722c0-1.066-.863-1.929-1.929-1.929s-1.929.863-1.929 1.929v12.722c0 6.221 5.064 11.286 11.288 11.286 6.223 0 11.287-5.065 11.287-11.286v-12.722c0-1.066-.863-1.929-1.929-1.929" mask="url(#h)"/>
    </g>
    <g transform="translate(2 180)">
      <mask id="j" fill="#fff">
        <use xlink:href="#i"/>
      </mask>
      <path fill="#ECEEF1" d="M129.2248-31.2691c-1.066 0-1.929.863-1.929 1.929v8.573c0 1.067.863 1.93 1.929 1.93s1.929-.863 1.929-1.93v-8.573c0-1.066-.863-1.929-1.929-1.929" mask="url(#j)"/>
    </g>
    <g transform="translate(2 180)">
      <mask id="l" fill="#fff">
        <use xlink:href="#k"/>
      </mask>
      <path fill="#ECEEF1" d="M31.8282 97.7718c1.066 0 1.929-.863 1.929-1.929V.6368c0-1.066-.863-1.929-1.929-1.929s-1.929.863-1.929 1.929v95.206c0 1.066.863 1.929 1.929 1.929" mask="url(#l)"/>
    </g>
    <g transform="translate(2 180)">
      <mask id="n" fill="#fff">
        <use xlink:href="#m"/>
      </mask>
      <path fill="#ECEEF1" d="M65.4487-31.2691c-1.066 0-1.929.863-1.929 1.929v71.492c0 5.732-4.664 10.397-10.397 10.397-5.733 0-10.399-4.665-10.399-10.397v-64.309c0-1.067-.862-1.93-1.929-1.93-1.066 0-1.929.863-1.929 1.93v64.309c0 7.861 6.396 14.256 14.257 14.256s14.255-6.395 14.255-14.256v-71.492c0-1.066-.863-1.929-1.929-1.929" mask="url(#n)"/>
    </g>
    <g transform="translate(2 180)">
      <mask id="p" fill="#fff">
        <use xlink:href="#o"/>
      </mask>
      <path fill="#ECEEF1" d="M53.1227 43.9758c3.16 0 5.732-2.57 5.732-5.732V1.5298c0-1.066-.863-1.929-1.93-1.929-1.066 0-1.929.863-1.929 1.929v36.714c0 1.033-.84 1.873-1.873 1.873-1.034 0-1.875-.84-1.875-1.873v-67.584c0-1.066-.863-1.929-1.929-1.929s-1.929.863-1.929 1.929v67.584c0 3.162 2.571 5.732 5.733 5.732" mask="url(#p)"/>
    </g>
    <g transform="translate(2 180)">
      <mask id="r" fill="#fff">
        <use xlink:href="#q"/>
      </mask>
      <path fill="#ECEEF1" d="M78.2759-31.2691c-1.066 0-1.929.863-1.929 1.929v43.946c0 1.066.863 1.929 1.929 1.929s1.929-.863 1.929-1.929v-43.946c0-1.066-.863-1.929-1.929-1.929" mask="url(#r)"/>
    </g>
    <g transform="translate(2 180)">
      <mask id="t" fill="#fff">
        <use xlink:href="#s"/>
      </mask>
      <path fill="#ECEEF1" d="M31.8282-7.7249c1.066 0 1.929-.863 1.929-1.929v-19.686c0-1.066-.863-1.929-1.929-1.929s-1.929.863-1.929 1.929v19.686c0 1.066.863 1.929 1.929 1.929" mask="url(#t)"/>
    </g>
    <g transform="translate(2 180)">
      <mask id="v" fill="#fff">
        <use xlink:href="#u"/>
      </mask>
      <path fill="#ECEEF1" d="M56.9249-13.0495c1.066 0 1.929-.863 1.929-1.929v-14.361c0-1.067-.863-1.93-1.929-1.93s-1.929.863-1.929 1.93v14.361c0 1.066.863 1.929 1.929 1.929" mask="url(#v)"/>
    </g>
    <g transform="translate(2 180)">
      <mask id="x" fill="#fff">
        <use xlink:href="#w"/>
      </mask>
      <path fill="#ECEEF1" d="M17.9648-31.2691c-1.066 0-1.929.863-1.929 1.929v66.002c0 1.066.863 1.929 1.929 1.929s1.929-.863 1.929-1.929v-66.002c0-1.066-.863-1.929-1.929-1.929" mask="url(#x)"/>
    </g>
    <g transform="translate(2 180)">
      <mask id="z" fill="#fff">
        <use xlink:href="#y"/>
      </mask>
      <path fill="#ECEEF1" d="M8.318-31.2691c-1.066 0-1.929.863-1.929 1.929v161.411c0 1.066.863 1.929 1.929 1.929s1.929-.863 1.929-1.929v-161.411c0-1.066-.863-1.929-1.929-1.929" mask="url(#z)"/>
    </g>
    <g transform="translate(2 180)">
      <mask id="B" fill="#fff">
        <use xlink:href="#A"/>
      </mask>
      <path fill="#ECEEF1" d="M129.2248-9.0815c-1.066 0-1.929.863-1.929 1.929v139.223c0 1.067.863 1.93 1.929 1.93s1.929-.863 1.929-1.93V-7.1525c0-1.066-.863-1.929-1.929-1.929" mask="url(#B)"/>
    </g>
    <g transform="translate(2 180)">
      <mask id="D" fill="#fff">
        <use xlink:href="#C"/>
      </mask>
      <path fill="#ECEEF1" d="M110.2196 36.752c-4.096 0-7.429-3.331-7.429-7.427v-.11c1.99 1.756 4.573 2.857 7.429 2.857s5.439-1.101 7.429-2.857v.11c0 4.096-3.333 7.427-7.429 7.427m7.389-15.574c-.21 3.909-3.428 7.035-7.389 7.035-3.961 0-7.179-3.126-7.389-7.035.21-3.909 3.428-7.036 7.389-7.036 3.961 0 7.179 3.127 7.389 7.036m-7.389-15.575c4.096 0 7.429 3.332 7.429 7.428v.11c-1.99-1.756-4.573-2.857-7.429-2.857s-5.439 1.101-7.429 2.857v-.11c0-4.096 3.333-7.428 7.429-7.428m0-3.858c-6.223 0-11.288 5.064-11.288 11.286v7.751c0 .136.035.261.04.396-.005.134-.04.26-.04.395v7.752c0 6.221 5.065 11.286 11.288 11.286s11.288-5.065 11.288-11.286v-7.752c0-.135-.035-.261-.04-.395.005-.135.04-.26.04-.396v-7.751c0-6.222-5.065-11.286-11.288-11.286" mask="url(#D)"/>
    </g>
    <g transform="translate(2 180)">
      <mask id="F" fill="#fff">
        <use xlink:href="#E"/>
      </mask>
      <path fill="#ECEEF1" d="M140.1584-31.2691c-1.066 0-1.929.863-1.929 1.929v66.002c0 1.066.863 1.929 1.929 1.929s1.929-.863 1.929-1.929v-66.002c0-1.066-.863-1.929-1.929-1.929" mask="url(#F)"/>
    </g>
    <g transform="translate(2 180)">
      <mask id="H" fill="#fff">
        <use xlink:href="#G"/>
      </mask>
      <path fill="#ECEEF1" d="M149.8052-31.2691c-1.066 0-1.929.863-1.929 1.929v50.107c0 1.067.863 1.93 1.929 1.93s1.929-.863 1.929-1.93v-50.107c0-1.066-.863-1.929-1.929-1.929" mask="url(#H)"/>
    </g>
    <g transform="translate(2 180)">
      <mask id="J" fill="#fff">
        <use xlink:href="#I"/>
      </mask>
      <path fill="#ECEEF1" d="M149.8052 32.0719c-1.066 0-1.929.863-1.929 1.929v41.421c0 1.067.863 1.93 1.929 1.93s1.929-.863 1.929-1.93v-41.421c0-1.066-.863-1.929-1.929-1.929" mask="url(#J)"/>
    </g>
    <g transform="translate(2 180)">
      <mask id="L" fill="#fff">
        <use xlink:href="#K"/>
      </mask>
      <path fill="#ECEEF1" d="M162.5062-31.2691c-1.066 0-1.929.863-1.929 1.929v77.578c0 1.066.863 1.929 1.929 1.929s1.929-.863 1.929-1.929v-77.578c0-1.066-.863-1.929-1.929-1.929" mask="url(#L)"/>
    </g>
    <g transform="translate(2 180)">
      <mask id="N" fill="#fff">
        <use xlink:href="#M"/>
      </mask>
      <path fill="#ECEEF1" d="M175.5729-8.7923c.884-5.286 2.944-10.256 6.059-14.621-.885 5.287-2.945 10.258-6.059 14.621m-3.176 7.709c.005.001.01.001.014.003.22.086.456.142.707.142.137 0 .258-.051.387-.078.117-.024.238-.025.349-.07.237-.098.451-.24.629-.418.001-.001.003-.002.005-.003 7.432-7.435 11.529-17.319 11.529-27.832 0-.163-.055-.306-.092-.456-.023-.09-.019-.184-.055-.27-.287-.705-.974-1.204-1.783-1.204-.536 0-1.019.219-1.368.571-.001.001-.003.001-.003.002-7.433 7.431-11.528 17.315-11.528 27.829 0 .811.502 1.498 1.209 1.784" mask="url(#N)"/>
    </g>
    <g transform="translate(2 180)">
      <mask id="P" fill="#fff">
        <use xlink:href="#O"/>
      </mask>
      <path fill="#ECEEF1" d="M175.047 103.1552v-9.653c0-9.481 3.693-18.397 10.404-25.112 3.216-3.212 5.764-6.904 7.669-10.889v9.65c0 9.481-3.693 18.396-10.405 25.108-3.215 3.216-5.763 6.91-7.668 10.896zm0-55.309c0-9.485 3.693-18.397 10.404-25.108 3.216-3.217 5.764-6.91 7.669-10.895v28.719c0 9.484-3.693 18.4-10.405 25.108-3.215 3.216-5.763 6.911-7.668 10.896v-28.72zm10.404-36.685c2.851-2.85 5.199-6.066 7.025-9.534-1.32 6.922-4.664 13.293-9.761 18.39-2.85 2.85-5.199 6.066-7.025 9.535 1.319-6.923 4.664-13.293 9.761-18.391zm11.527 55.99v-96.491c0-1.066-.863-1.929-1.929-1.929s-1.929.863-1.929 1.929v12.669c0 9.485-3.693 18.4-10.405 25.112-7.432 7.431-11.527 17.315-11.527 27.828v95.801c0 1.067.863 1.93 1.93 1.93 1.066 0 1.929-.863 1.929-1.93v-11.983c0-9.481 3.693-18.393 10.404-25.108 7.435-7.435 11.527-17.315 11.527-27.828z" mask="url(#P)"/>
    </g>
    <g transform="translate(2 180)">
      <mask id="R" fill="#fff">
        <use xlink:href="#Q"/>
      </mask>
      <path fill="#ECEEF1" d="M209.293-16.9082c-1.066 0-1.929.863-1.929 1.929v147.05c0 1.066.863 1.929 1.929 1.929s1.929-.863 1.929-1.929v-147.05c0-1.066-.863-1.929-1.929-1.929" mask="url(#R)"/>
    </g>
    <g transform="translate(2 180)">
      <mask id="T" fill="#fff">
        <use xlink:href="#S"/>
      </mask>
      <path fill="#ECEEF1" d="M222.3161 36.752c-1.066 0-1.929.863-1.929 1.929v93.39c0 1.066.863 1.929 1.929 1.929s1.929-.863 1.929-1.929v-93.39c0-1.066-.863-1.929-1.929-1.929" mask="url(#T)"/>
    </g>
    <g transform="translate(2 180)">
      <mask id="V" fill="#fff">
        <use xlink:href="#U"/>
      </mask>
      <path fill="#ECEEF1" d="M222.3161-31.2691c-1.066 0-1.929.863-1.929 1.929v53.966c0 1.066.863 1.929 1.929 1.929s1.929-.863 1.929-1.929v-53.966c0-1.066-.863-1.929-1.929-1.929" mask="url(#V)"/>
    </g>
    <g transform="translate(2 180)">
      <mask id="X" fill="#fff">
        <use xlink:href="#W"/>
      </mask>
      <path fill="#ECEEF1" d="M254.9456-.3994c-11.832 0-21.457 9.624-21.457 21.453v26.453c0 1.067.863 1.929 1.93 1.929 1.066 0 1.929-.862 1.929-1.929v-26.453c0-9.7 7.895-17.594 17.617-17.594 9.703 0 17.594 7.894 17.594 17.594v68.684c0 1.067.863 1.93 1.929 1.93 1.067 0 1.93-.863 1.93-1.93v-68.684c0-11.829-9.625-21.453-21.472-21.453" mask="url(#X)"/>
    </g>
    <g transform="translate(2 180)">
      <mask id="Z" fill="#fff">
        <use xlink:href="#Y"/>
      </mask>
      <path fill="#ECEEF1" d="M264.5999 68.4847c0 5.321-4.326 9.647-9.647 9.647-5.321 0-9.647-4.326-9.647-9.647v-45.973c0-5.321 4.326-9.647 9.647-9.647 5.321 0 9.647 4.326 9.647 9.647v45.973zm-9.647-59.478c-7.446 0-13.505 6.059-13.505 13.505v45.973c0 7.446 6.059 13.506 13.505 13.506 7.446 0 13.506-6.06 13.506-13.506v-45.973c0-7.446-6.06-13.505-13.506-13.505z" mask="url(#Z)"/>
    </g>
    <g transform="translate(2 180)">
      <mask id="ab" fill="#fff">
        <use xlink:href="#aa"/>
      </mask>
      <path fill="#ECEEF1" d="M256.4001 65.6811c0 .799-.648 1.447-1.447 1.447-.784 0-1.447-.663-1.447-1.447v-40.234c0-.784.663-1.447 1.447-1.447.799 0 1.447.648 1.447 1.447v40.234zm-1.447-45.54c-2.924 0-5.306 2.382-5.306 5.306v40.234c0 2.924 2.382 5.306 5.306 5.306s5.306-2.382 5.306-5.306v-40.234c0-2.924-2.382-5.306-5.306-5.306z" mask="url(#ab)"/>
    </g>
    <g transform="translate(2 180)">
      <mask id="ad" fill="#fff">
        <use xlink:href="#ac"/>
      </mask>
      <path fill="#ECEEF1" d="M235.4184-2.3589c1.066 0 1.929-.863 1.929-1.929v-25.052c0-1.066-.863-1.929-1.929-1.929s-1.929.863-1.929 1.929v25.052c0 1.066.863 1.929 1.929 1.929" mask="url(#ad)"/>
    </g>
    <g transform="translate(2 180)">
      <mask id="af" fill="#fff">
        <use xlink:href="#ae"/>
      </mask>
      <path fill="#ECEEF1" d="M243.377-14.8847c1.066 0 1.929-.863 1.929-1.929v-12.526c0-1.067-.863-1.929-1.929-1.929s-1.929.862-1.929 1.929v12.526c0 1.066.863 1.929 1.929 1.929" mask="url(#af)"/>
    </g>
    <g transform="translate(2 180)">
      <mask id="ah" fill="#fff">
        <use xlink:href="#ag"/>
      </mask>
      <path fill="#ECEEF1" d="M285.6231-31.2691c-1.066 0-1.929.863-1.929 1.929v8.649c0 7.148-5.819 12.966-12.967 12.966h-4.616c-7.149 0-12.967-5.818-12.967-12.966v-8.649c0-1.066-.863-1.929-1.929-1.929-1.067 0-1.929.863-1.929 1.929v8.649c0 9.277 7.547 16.825 16.825 16.825h4.616c9.278 0 16.825-7.548 16.825-16.825v-8.649c0-1.066-.863-1.929-1.929-1.929" mask="url(#ah)"/>
    </g>
    <g transform="translate(2 180)">
      <mask id="aj" fill="#fff">
        <use xlink:href="#ai"/>
      </mask>
      <path fill="#ECEEF1" d="M267.1133-14.0971h2.611c5.709 0 10.352-4.643 10.352-10.351v-4.892c0-1.066-.863-1.929-1.93-1.929-1.066 0-1.929.863-1.929 1.929v4.892c0 3.579-2.913 6.492-6.493 6.492h-2.611c-3.58 0-6.493-2.913-6.493-6.492v-4.892c0-1.066-.863-1.929-1.929-1.929-1.067 0-1.929.863-1.929 1.929v4.892c0 5.708 4.642 10.351 10.351 10.351" mask="url(#aj)"/>
    </g>
    <g transform="translate(2 180)">
      <mask id="al" fill="#fff">
        <use xlink:href="#ak"/>
      </mask>
      <path fill="#ECEEF1" d="M285.6231.5653c-1.066 0-1.929.863-1.929 1.929v129.576c0 1.067.863 1.93 1.929 1.93s1.929-.863 1.929-1.93V2.4943c0-1.066-.863-1.929-1.929-1.929" mask="url(#al)"/>
    </g>
    <g transform="translate(2 180)">
      <mask id="an" fill="#fff">
        <use xlink:href="#am"/>
      </mask>
      <path fill="#ECEEF1" d="M298.0433-31.2691c-1.066 0-1.929.863-1.929 1.929v102.256c0 1.067.863 1.93 1.929 1.93s1.929-.863 1.929-1.93v-102.256c0-1.066-.863-1.929-1.929-1.929" mask="url(#an)"/>
    </g>
    <g transform="translate(2 180)">
      <mask id="ap" fill="#fff">
        <use xlink:href="#ao"/>
      </mask>
      <path fill="#ECEEF1" d="M309.1371 18.8377c-1.066 0-1.929.863-1.929 1.929v24.144c0 1.066.863 1.929 1.929 1.929s1.929-.863 1.929-1.929v-24.144c0-1.066-.863-1.929-1.929-1.929" mask="url(#ap)"/>
    </g>
    <g transform="translate(2 180)">
      <mask id="ar" fill="#fff">
        <use xlink:href="#aq"/>
      </mask>
      <path fill="#ECEEF1" d="M309.1371-31.2691c-1.066 0-1.929.863-1.929 1.929v38.588c0 1.066.863 1.929 1.929 1.929s1.929-.863 1.929-1.929v-38.588c0-1.066-.863-1.929-1.929-1.929" mask="url(#ar)"/>
    </g>
    <path stroke="#778087" stroke-width="4" d="M32 214.8872v-12.993m20 12.993v-12.993m216 12.993v-12.993m20 12.993v-12.993m-196.2019-1.1633H6.0001c-2.209 0-4-1.791-4-4v-12c0-2.209 1.791-4 4-4h308c2.209 0 4 1.791 4 4v12c0 2.209-1.791 4-4 4h-200.841" stroke-linecap="round" stroke-linejoin="round"/>
  </g>
</svg>
