<svg xmlns="http://www.w3.org/2000/svg" width="295" height="188" xmlns:xlink="http://www.w3.org/1999/xlink">
  <defs>
    <path id="a" d="M0 141.023h294.525V0H0z"/>
  </defs>
  <g fill="none" fill-rule="evenodd">
    <path fill="#EDF3FC" d="M218.4088 138.7734c3.857-9.76 5.993-20.388 6.005-31.519.048-47.529-38.443-86.097-85.972-86.145-47.529-.049-86.098 38.442-86.146 85.971-.011 11.192 2.127 21.881 6.005 31.693h160.108z"/>
    <path fill="#D5DEEF" d="M40.8369 68.378c.384 0 .768-.146 1.061-.439l1.414-1.415c.586-.585.586-1.536 0-2.121-.586-.586-1.535-.586-2.121 0l-1.415 1.414c-.585.586-.585 1.536 0 2.122.293.293.677.439 1.061.439m-6.0102 6.6313l1.414-1.414c.586-.586.586-1.536 0-2.121-.586-.586-1.535-.586-2.121 0l-1.414 1.414c-.586.585-.586 1.536 0 2.121.293.293.677.439 1.06.439.384 0 .768-.146 1.061-.439m7.0708-3.5356c-.586-.585-1.536-.585-2.122 0-.585.586-.585 1.536.001 2.122l1.414 1.414c.293.293.677.439 1.061.439.384 0 .768-.146 1.061-.439.585-.586.585-1.536 0-2.122l-1.415-1.414zm-7.7784-3.5352c.293.293.677.439 1.061.439.384 0 .768-.146 1.061-.439.586-.585.586-1.535 0-2.121l-1.414-1.415c-.586-.586-1.536-.585-2.122 0-.586.586-.586 1.536 0 2.121l1.414 1.415zm243.1631 19.2559c.384 0 .768-.146 1.061-.439l1.414-1.414c.586-.586.586-1.536.001-2.122-.586-.586-1.536-.585-2.122 0l-1.415 1.414c-.585.586-.585 1.536 0 2.122.293.293.677.439 1.061.439m-6.7173 3.0967l-1.414 1.414c-.586.586-.586 1.536 0 2.121.293.293.677.44 1.06.44.384 0 .768-.147 1.061-.44l1.414-1.414c.586-.585.586-1.536 0-2.121-.586-.586-1.535-.586-2.121 0m7.7779-.0005c-.586-.585-1.536-.585-2.122 0-.585.586-.585 1.536.001 2.122l1.414 1.414c.293.293.677.439 1.061.439.384 0 .768-.146 1.061-.439.585-.586.585-1.536 0-2.122l-1.415-1.414zm-7.0708-7.0708c-.586-.586-1.535-.586-2.121 0-.586.585-.586 1.536 0 2.121l1.414 1.414c.293.293.677.44 1.061.44.383 0 .767-.147 1.06-.44.586-.585.586-1.535 0-2.121l-1.414-1.414zM165.5127.439l-1.415 1.414c-.585.586-.585 1.536 0 2.122.293.293.677.439 1.061.439.384 0 .768-.146 1.061-.439l1.414-1.414c.586-.586.586-1.536.001-2.122-.586-.585-1.536-.585-2.122 0m-7.0718 7.0713l-1.414 1.415c-.586.585-.586 1.535 0 2.121.293.293.677.439 1.061.439.384 0 .768-.146 1.061-.439l1.414-1.415c.586-.586.586-1.536 0-2.121s-1.536-.586-2.122 0m7.7783 0c-.586-.586-1.535-.586-2.121 0-.586.585-.586 1.536 0 2.121l1.414 1.415c.293.293.677.439 1.061.439.384 0 .768-.146 1.061-.439.585-.586.585-1.536 0-2.121l-1.415-1.415zm-7.7778-3.5356c.293.293.677.439 1.061.439.383 0 .767-.146 1.06-.439.586-.585.586-1.536 0-2.121l-1.414-1.414c-.586-.586-1.535-.586-2.121 0-.586.585-.586 1.535 0 2.121l1.414 1.414z"/>
    <path fill="#FFF" d="M89.0371 54.4141c-.827 0-1.5-.673-1.5-1.5s.673-1.5 1.5-1.5 1.5.673 1.5 1.5-.673 1.5-1.5 1.5m0-6c-2.481 0-4.5 2.019-4.5 4.5s2.019 4.5 4.5 4.5 4.5-2.019 4.5-4.5-2.019-4.5-4.5-4.5"/>
    <path fill="#D5DEEF" d="M38.1177 115.023c-.827 0-1.5-.673-1.5-1.5s.673-1.5 1.5-1.5 1.5.673 1.5 1.5-.673 1.5-1.5 1.5m0-6c-2.481 0-4.5 2.019-4.5 4.5s2.019 4.5 4.5 4.5 4.5-2.019 4.5-4.5-2.019-4.5-4.5-4.5m225.0937.207c-.827 0-1.5-.673-1.5-1.5s.673-1.5 1.5-1.5 1.5.673 1.5 1.5-.673 1.5-1.5 1.5m0-6c-2.481 0-4.5 2.019-4.5 4.5s2.019 4.5 4.5 4.5 4.5-2.019 4.5-4.5-2.019-4.5-4.5-4.5"/>
    <path fill="#FFF" d="M177.4082 47.4141c-.827 0-1.5-.673-1.5-1.5s.673-1.5 1.5-1.5 1.5.673 1.5 1.5-.673 1.5-1.5 1.5m0-6c-2.481 0-4.5 2.019-4.5 4.5s2.019 4.5 4.5 4.5 4.5-2.019 4.5-4.5-2.019-4.5-4.5-4.5"/>
    <path fill="#D5DEEF" d="M249.2114 50.4141h-1.5v-1.5c0-.829-.671-1.5-1.5-1.5s-1.5.671-1.5 1.5v1.5h-1.5c-.829 0-1.5.671-1.5 1.5s.671 1.5 1.5 1.5h1.5v1.5c0 .829.671 1.5 1.5 1.5s1.5-.671 1.5-1.5v-1.5h1.5c.829 0 1.5-.671 1.5-1.5s-.671-1.5-1.5-1.5"/>
    <path fill="#FFF" d="M77.2515 90.023h-1.5v-1.5c0-.829-.671-1.5-1.5-1.5s-1.5.671-1.5 1.5v1.5h-1.5c-.829 0-1.5.671-1.5 1.5s.671 1.5 1.5 1.5h1.5v1.5c0 .829.671 1.5 1.5 1.5s1.5-.671 1.5-1.5v-1.5h1.5c.829 0 1.5-.671 1.5-1.5s-.671-1.5-1.5-1.5m39.1738-50.6089h-1.5v-1.5c0-.829-.671-1.5-1.5-1.5s-1.5.671-1.5 1.5v1.5h-1.5c-.829 0-1.5.671-1.5 1.5s.671 1.5 1.5 1.5h1.5v1.5c0 .829.671 1.5 1.5 1.5s1.5-.671 1.5-1.5v-1.5h1.5c.829 0 1.5-.671 1.5-1.5s-.671-1.5-1.5-1.5"/>
    <path fill="#D5DEEF" d="M234.6206 61.2061h-1.5v-1.5c0-.829-.671-1.5-1.5-1.5s-1.5.671-1.5 1.5v1.5h-1.5c-.829 0-1.5.671-1.5 1.5s.671 1.5 1.5 1.5h1.5v1.5c0 .829.671 1.5 1.5 1.5s1.5-.671 1.5-1.5v-1.5h1.5c.829 0 1.5-.671 1.5-1.5s-.671-1.5-1.5-1.5"/>
    <path fill="#F3F9FF" d="M188.5681 75.523h-3.42c-1.105 0-2 .896-2 2s.895 2 2 2h5.847c-.862-1.3-1.675-2.632-2.427-4m-37.5213 1.3911h-12c-.244 0-.476.05-.692.13v3.74c.216.08.448.13.692.13h12c1.104 0 2-.896 2-2s-.896-2-2-2m10.7588 4h-3.092c-1.104 0-2-.896-2-2s.896-2 2-2h3.092c1.104 0 2 .896 2 2s-.896 2-2 2m-13 36.316h-10c-.156 0-.305.022-.451.055v3.89c.146.033.295.055.451.055h10c1.104 0 2-.896 2-2s-.896-2-2-2m-5-6.6494h-5c-.156 0-.305.022-.451.055v3.89c.146.033.295.055.451.055h5c1.104 0 2-.896 2-2s-.896-2-2-2m46.6003 10.6677c-.003 0-.005-.001-.008-.001h-5.921c-1.104 0-2 .896-2 2 0 1.105.896 2 2 2h5.921c.003 0 .005-.001.008-.001v-3.998zm-12.0681 6.6658h-7.919c-1.105 0-2-.896-2-2s.895-2 2-2h7.919c1.104 0 2 .896 2 2s-.896 2-2 2"/>
    <path fill="#C9D2F0" d="M125.0726 123.9411c-.088-.012-.176-.027-.267-.027h-6.425c-1.105 0-2 .896-2 2 0 1.105.895 2 2 2h6.425c.091 0 .179-.015.267-.027v-3.946zm-12.767 3.9731h-1.592c-1.104 0-2-.896-2-2s.896-2 2-2h1.592c1.104 0 2 .896 2 2s-.896 2-2 2m12.767-16.0884c-.088-.012-.176-.027-.267-.027h-6.425c-1.105 0-2 .896-2 2 0 1.105.895 2 2 2h6.425c.091 0 .179-.015.267-.027v-3.946zm-11.85-4.3516h-3.176c-1.104 0-2-.896-2-2s.896-2 2-2h3.176c1.104 0 2 .896 2 2s-.896 2-2 2m11.85-3.9731c-.088-.012-.176-.027-.267-.027h-4.092c-1.104 0-2 .896-2 2 0 1.105.896 2 2 2h4.092c.091 0 .179-.015.267-.027v-3.946zM102.8059 84.523v-4c0-5.514 4.486-10 10-10h13.834c.336 0 .648.168.834.449.186.281.218.634.085.944-1.163 2.725-1.753 5.621-1.753 8.607v4c0 .551-.449 1-1 1h-21c-.551 0-1-.449-1-1zm19.5-19c-.551 0-1-.449-1-1v-.5h-7.5v.5c0 .551-.449 1-1 1-8.271 0-15 6.729-15 15v10h33v-10c0-5.643 2.801-10.909 7.493-14.086l1.35-.914h-17.343z"/>
    <path fill="#C9D2F0" d="M102.8059 132.523v-34c0-.551.449-1 1-1h21c.551 0 1 .449 1 1v34c0 .551-.449 1-1 1h-21c-.551 0-1-.449-1-1m29-16.941h.5v-3.048h-.5c-.551 0-1-.448-1-1V92.523h-33v46h33v-8.609c0-.551.449-1 1-1h.5v-7.391h-.5c-.551 0-1-.448-1-1v-3.941c0-.552.449-1 1-1"/>
    <mask id="b" fill="#fff">
      <use xlink:href="#a"/>
    </mask>
    <path fill="#8E9FD7" d="M104.806 131.523h19v-32h-19" mask="url(#b)"/>
    <path fill="#C9D2F0" d="M181.8059 72.523h-34c-4.411 0-8 3.589-8 8v3h50v-3c0-4.411-3.589-8-8-8" mask="url(#b)"/>
    <path fill="#F3F9FF" d="M178.806 96.771h17.5v-3.748h-17.5m12.9999-12.5v4c0 .551-.449 1-1 1h-52c-.551 0-1-.449-1-1v-4c0-5.514 4.486-10 10-10h34c5.514 0 10 4.486 10 10m-10-15h-34c-8.271 0-15 6.729-15 15v10h64v-10c0-8.271-6.729-15-15-15m10 67c0 .551-.449 1-1 1h-52c-.551 0-1-.449-1-1v-34c0-.551.449-1 1-1h12.334c.551 0 1 .449 1 1v.5h4.166v-6.5h-23.5v19.011c0 .552-.449 1-1 1h-.5v3.048h.5c.551 0 1 .448 1 1v3.941c0 .552-.449 1-1 1h-.5v7.391h.5c.551 0 1 .449 1 1v8.609h64V106.19h-4.976l-.024 26.333z" mask="url(#b)"/>
    <path fill="#C9D2F0" d="M185.6409 114.7584c-1.505 0-2.729-1.225-2.729-2.729v-7.339h-4.575v7.339c0 .048-.008.094-.013.141l-.018 4.353c0 2.756-2.243 5-5 5h-12c-2.757 0-5-2.244-5-5v-18.5h-4.166v.5c0 .551-.449 1-1 1h-11.334v32h50v-16.818l-4.165.053z" mask="url(#b)"/>
    <path fill="#F3F9FF" d="M164.4185 115.2989c-1.378 0-2.5-1.122-2.5-2.5 0-.091.008-.182.025-.272l.833-4.52c-1.492-1.319-2.358-3.212-2.358-5.236 0-3.86 3.14-7 7-7 1.312 0 2.536.369 3.587 1h4.8v-3.748h-17v23.5c0 1.379 1.122 2.5 2.5 2.5h12c1.379 0 2.5-1.121 2.5-2.5v-1.285c-.067.005-.13.02-.198.02h-3.46c-.295 0-.576-.052-.849-.127-.275.104-.569.168-.88.168h-6z" mask="url(#b)"/>
    <path fill="#8E9FD7" d="M164.4358 112.7989h5.051l-.058-.67c-.005-.033-.011-.066-.011-.1v-5.839h-.941c-1.505 0-2.729-1.224-2.729-2.73v-3.46c0-.178.021-.35.053-.518l.218-1.128-.974.609c-1.332.832-2.127 2.255-2.127 3.808 0 1.524.766 2.932 2.047 3.768.339.221.511.621.437 1.019l-.966 5.241zM112.8059 72.523c-4.411 0-8 3.589-8 8v3h19v-3c0-2.515.386-4.986 1.148-7.346l.212-.654h-12.36z" mask="url(#b)"/>
    <path fill="#FFCD85" d="M204.8811 99.2706h-36.404c-.403 0-.73.327-.73.729v3.46c0 .403.327.73.73.73h4.103c.551 0 1 .449 1 1 0 .552-.449 1-1 1h-1.162v5.839c0 .403.327.73.73.73h3.46c.402 0 .729-.327.729-.73v-6.839c0-.551.449-1 1-1 .551 0 1 .449 1 1v.5h4.574v-.5c0-.551.449-1 1-1h1.595c.551 0 1 .449 1 1 0 .552-.449 1-1.095 1h-.5v5.839c0 .403.327.73.73.73h3.46c.402 0 .729-.327.729-.73v-6.839c0-.551.449-1 1-1h14.051l-.059-.552c-.068-.649-.103-1.29-.103-1.908 0-.616.035-1.258.103-1.906l.059-.553zm26.3379 2.4594c0 4.687-3.813 8.5-8.5 8.5-4.687 0-8.5-3.813-8.5-8.5 0-4.687 3.813-8.5 8.5-8.5 4.687 0 8.5 3.813 8.5 8.5m-4.959-10.75c-.105-.246-.108-.517-.008-.766.099-.248.289-.442.534-.547.127-.054.26-.082.393-.082.126 0 .252.025.373.073 3.198 1.281 5.802 3.837 7.145 7.011.214.508-.024 1.096-.53 1.311-.509.214-1.102-.038-1.312-.531-1.137-2.688-3.342-4.85-6.047-5.934-.248-.099-.443-.289-.548-.535m-3.541-5.25c-8.822 0-16 7.178-16 16s7.178 16 16 16 16-7.178 16-16-7.178-16-16-16" mask="url(#b)"/>
    <path fill="#F3F9FF" d="M188.5681 75.523h-3.42c-1.105 0-2 .896-2 2s.895 2 2 2h5.847c-.862-1.3-1.675-2.632-2.427-4m-37.5213 1.3911h-12c-.244 0-.476.05-.692.13v3.74c.216.08.448.13.692.13h12c1.104 0 2-.896 2-2s-.896-2-2-2m10.7588 4h-3.092c-1.104 0-2-.896-2-2s.896-2 2-2h3.092c1.104 0 2 .896 2 2s-.896 2-2 2m-13 36.316h-10c-.156 0-.305.022-.451.055v3.89c.146.033.295.055.451.055h10c1.104 0 2-.896 2-2s-.896-2-2-2m-5-6.6494h-5c-.156 0-.305.022-.451.055v3.89c.146.033.295.055.451.055h5c1.104 0 2-.896 2-2s-.896-2-2-2m46.6003 10.6677c-.003 0-.005-.001-.008-.001h-5.921c-1.104 0-2 .896-2 2 0 1.105.896 2 2 2h5.921c.003 0 .005-.001.008-.001v-3.998zm-12.0681 6.6658h-7.919c-1.105 0-2-.896-2-2s.895-2 2-2h7.919c1.104 0 2 .896 2 2s-.896 2-2 2" mask="url(#b)"/>
    <path fill="#C9D2F0" d="M125.0726 123.9411c-.088-.012-.176-.027-.267-.027h-6.425c-1.105 0-2 .896-2 2 0 1.105.895 2 2 2h6.425c.091 0 .179-.015.267-.027v-3.946zm-12.767 3.9731h-1.592c-1.104 0-2-.896-2-2s.896-2 2-2h1.592c1.104 0 2 .896 2 2s-.896 2-2 2m12.767-16.0884c-.088-.012-.176-.027-.267-.027h-6.425c-1.105 0-2 .896-2 2 0 1.105.895 2 2 2h6.425c.091 0 .179-.015.267-.027v-3.946zm-11.85-4.3516h-3.176c-1.104 0-2-.896-2-2s.896-2 2-2h3.176c1.104 0 2 .896 2 2s-.896 2-2 2m11.85-3.9731c-.088-.012-.176-.027-.267-.027h-4.092c-1.104 0-2 .896-2 2 0 1.105.896 2 2 2h4.092c.091 0 .179-.015.267-.027v-3.946z" mask="url(#b)"/>
    <path fill="#37466D" d="M131.8058 115.0816c-.829 0-1.5.671-1.5 1.5v3.942c0 .829.671 1.5 1.5 1.5s1.5-.672 1.5-1.5v-3.942c0-.829-.671-1.5-1.5-1.5m-8.5001-34.5586v2.5h-18v-2.5c0-4.136 3.364-7.5 7.5-7.5h11.673c-.779 2.413-1.173 4.927-1.173 7.5m-21 0v4c0 .829.671 1.5 1.5 1.5h21c.829 0 1.5-.671 1.5-1.5v-4c0-2.918.577-5.748 1.713-8.411.198-.464.15-.995-.128-1.416-.277-.42-.747-.673-1.251-.673h-13.834c-5.79 0-10.5 4.71-10.5 10.5m3.0003 50.5h18v-31h-18v31zm19.5-34h-21c-.829 0-1.5.671-1.5 1.5v34c0 .829.671 1.5 1.5 1.5h21c.828 0 1.5-.671 1.5-1.5v-34c0-.829-.672-1.5-1.5-1.5zm-103.6883 41h-10.165c-.828 0-1.5.671-1.5 1.5s.672 1.5 1.5 1.5h10.165c.829 0 1.5-.671 1.5-1.5s-.671-1.5-1.5-1.5m271.9072 0h-3.793c-.829 0-1.5.671-1.5 1.5s.671 1.5 1.5 1.5h3.793c.829 0 1.5-.671 1.5-1.5s-.671-1.5-1.5-1.5m-288.9453 0h-2.58c-.828 0-1.5.671-1.5 1.5s.672 1.5 1.5 1.5h2.58c.829 0 1.5-.671 1.5-1.5s-.671-1.5-1.5-1.5" mask="url(#b)"/>
    <path fill="#37466D" d="M185.5059 103.69h-1.595c-.828 0-1.5.671-1.5 1.5v6.839c0 1.781 1.449 3.229 3.23 3.229h3.46c.07 0 .136-.016.205-.02v15.785h-49v-31h10.834c.828 0 1.5-.671 1.5-1.5s-.672-1.5-1.5-1.5h-12.334c-.829 0-1.5.671-1.5 1.5v34c0 .829.671 1.5 1.5 1.5h52c.828 0 1.5-.671 1.5-1.5v-20.248c.006-.083.025-.162.025-.246v-5.339h3.975v31.333h-63v-8.109c0-.828-.672-1.5-1.5-1.5-.829 0-1.5.672-1.5 1.5v8.109h-32v-45h32v18.511c0 .829.671 1.5 1.5 1.5.828 0 1.5-.671 1.5-1.5V93.023h22.5v23.5c0 3.033 2.467 5.5 5.5 5.5h12c3.033 0 5.5-2.467 5.5-5.5v-4.18c.01-.105.032-.207.032-.314v-6.839c-.001-.829-.672-1.5-1.5-1.5-.829 0-1.5.671-1.5 1.5v6.839c0 .126-.103.229-.23.229h-3.46c-.127 0-.23-.103-.23-.229v-5.339h.662c.829 0 1.5-.671 1.5-1.5s-.671-1.5-1.5-1.5h-4.103c-.126 0-.229-.103-.229-.23V100c0-.126.103-.229.229-.229h35.848c-.068.644-.106 1.297-.106 1.959 0 .662.038 1.316.106 1.96h-13.494c-.829 0-1.5.671-1.5 1.5v6.839c0 .126-.103.229-.23.229h-3.46c-.127 0-.23-.103-.23-.229v-5.339h.095c.829 0 1.5-.671 1.5-1.5s-.671-1.5-1.5-1.5zm-25.087-.919c0 2.024.866 3.917 2.358 5.236l-.833 4.52c-.017.09-.025.181-.025.272 0 1.378 1.121 2.439 2.5 2.439 0 0 11.32.004 11.387 0v1.285c0 1.378-1.122 2.5-2.5 2.5h-12c-1.379 0-2.5-1.122-2.5-2.5v-23.5h17v3.748h-4.8c-1.051-.631-2.275-1-3.587-1-3.86 0-7 3.14-7 7zm8.526 9.528h-3.909l.858-4.651c.11-.594-.149-1.197-.656-1.528-1.139-.743-1.819-1.995-1.819-3.349 0-1.43.76-2.677 1.891-3.385-.039.199-.062.404-.062.614v3.46c0 1.781 1.448 3.23 3.229 3.23h.441v5.339c0 .092.02.179.027.27zm9.861-15.528h17.5v-3.748h-17.5v3.748zm-45.5-16.248c0-7.995 6.505-14.5 14.5-14.5h34c7.995 0 14.5 6.505 14.5 14.5v9.5h-63v-9.5zm89.413 5.707c8.547 0 15.5 6.953 15.5 15.5s-6.953 15.5-15.5 15.5-15.5-6.953-15.5-15.5 6.953-15.5 15.5-15.5zm58.223 51.793h-81.636V106.69h5.608c2.175 7.797 9.324 13.54 17.805 13.54 10.201 0 18.5-8.299 18.5-18.5s-8.299-18.5-18.5-18.5c-8.481 0-15.63 5.744-17.805 13.541h-5.608V80.523c0-9.649-7.851-17.5-17.5-17.5h-59.5c-.829 0-1.5.671-1.5 1.5s.671 1.5 1.5 1.5h15.713c-4.651 3.149-7.713 8.473-7.713 14.5v9.5h-32v-9.5c0-7.995 6.505-14.5 14.5-14.5.828 0 1.5-.671 1.5-1.5s-.672-1.5-1.5-1.5c-9.65 0-17.5 7.851-17.5 17.5v57.5h-64.055c-.828 0-1.5.671-1.5 1.5s.672 1.5 1.5 1.5h249.691c.829 0 1.5-.671 1.5-1.5s-.671-1.5-1.5-1.5z" mask="url(#b)"/>
    <path fill="#37466D" d="M222.7187 107.73c-3.309 0-6-2.691-6-6s2.691-6 6-6 6 2.691 6 6-2.691 6-6 6m0-15c-4.962 0-9 4.038-9 9s4.038 9 9 9 9-4.038 9-9-4.038-9-9-9m12.4385 3.7447c-1.395-3.297-4.099-5.95-7.42-7.281-.768-.308-1.642.066-1.95.835-.308.769.066 1.642.835 1.95 2.583 1.035 4.687 3.1 5.772 5.665.242.572.798.916 1.382.916.195 0 .393-.039.584-.119.763-.323 1.12-1.203.797-1.966M189.3057 83.023h-49v-2.5c0-4.136 3.364-7.5 7.5-7.5h34c4.136 0 7.5 3.364 7.5 7.5v2.5zm3 1.5v-4c0-5.79-4.71-10.5-10.5-10.5h-34c-5.79 0-10.5 4.71-10.5 10.5v4c0 .829.671 1.5 1.5 1.5h52c.829 0 1.5-.671 1.5-1.5z" mask="url(#b)"/>
    <path d="M0 0h295v188H0z"/>
  </g>
</svg>